<svg data-name="Layer 1" width="879.5" height="581.351" xmlns="http://www.w3.org/2000/svg"><path fill="#3f3d56" d="M21.672 578.662H879.5v2H21.672z"/><path d="M553.475 133.76v65.68a2.296 2.296 0 01-2.29 2.29h-1.63v342.15a35.702 35.702 0 01-35.7 35.7h-213.79a35.693 35.693 0 01-35.69-35.7V213.73h-1.18a1.618 1.618 0 01-1.62-1.61v-37.38a1.62 1.62 0 011.62-1.62h1.18v-14.08h-1.19a1.696 1.696 0 01-1.69-1.7v-36.87a1.694 1.694 0 011.69-1.69h1.19V99.56h-1.21a1.498 1.498 0 01-1.5-1.5V77.94a1.507 1.507 0 011.5-1.51h1.21V35.69A35.691 35.691 0 01300.065 0h213.79a35.7 35.7 0 0135.7 35.69v95.78h1.63a2.296 2.296 0 012.29 2.29z" fill="#3f3d56"/><rect x="379.979" y="18.307" width="39.823" height="8.086" rx="2.542" fill="#e6e8ec"/><circle cx="430.41" cy="22.35" r="4.587" fill="#e6e8ec"/><path d="M532.46 42.75v504.09a22.58 22.58 0 01-7.96 17.23 22.642 22.642 0 01-14.69 5.41H305.16a22.587 22.587 0 01-10.46-2.55 21.155 21.155 0 01-2.2-1.3 22.668 22.668 0 01-9.99-18.79V42.75a22.649 22.649 0 0122.65-22.65h30.63v3.93a18.65 18.65 0 0018.65 18.65h104.08a18.65 18.65 0 0018.65-18.65V20.1h32.64a22.643 22.643 0 0122.65 22.65z" fill="#007bfc"/><path d="M532.46 474.68v72.16a22.58 22.58 0 01-7.96 17.23 22.642 22.642 0 01-14.69 5.41H305.16a22.587 22.587 0 01-10.46-2.55 21.155 21.155 0 01-2.2-1.3 22.668 22.668 0 01-9.99-18.79v-72.13a186.97 186.97 0 01249.95-.03z" fill="#fff" opacity=".3"/><path d="M520.29 566.91a22.41 22.41 0 01-10.48 2.57H305.16a22.587 22.587 0 01-10.46-2.55 122.161 122.161 0 01225.59-.02z" fill="#fff" opacity=".3"/><path d="M475.75 568.12a13.56 13.56 0 01-6.342 1.555H345.57a13.668 13.668 0 01-6.33-1.543 73.923 73.923 0 01136.51-.012z" fill="#fff" opacity=".3"/><path d="M459.546 215.25c-20.529 0-43.058-3.909-60.646-17.1-24.487-18.365-54.657-17.385-75.653-13.328a164.863 164.863 0 00-40.275 13.415l-.925-1.773a166.957 166.957 0 0140.768-13.595c21.41-4.144 52.197-5.134 77.285 13.682 47 35.25 131.158 3.59 132.002 3.267l.716 1.867a242.355 242.355 0 01-48.706 11.857 186.202 186.202 0 01-24.566 1.708z" fill="#fff"/><path d="M282.5 197.35s69-16.712 117 6.17 133-.17 133-.17" fill="#fff" opacity=".3"/><path d="M347.641 223.312a131.456 131.456 0 01-24.826-2.48 166.957 166.957 0 01-40.768-13.595l.925-1.773a164.862 164.862 0 0040.275 13.415c20.995 4.056 51.165 5.037 75.653-13.328 25.066-18.8 60.177-18.747 85.212-15.392a242.355 242.355 0 0148.706 11.857l-.716 1.867c-.845-.324-85.001-31.984-132.002 3.267-16.452 12.34-35.357 16.162-52.459 16.162z" fill="#fff" opacity=".3"/><path d="M347.981 215.259c-34.634 0-65.39-12.426-65.852-12.615l.762-1.85c.684.282 69.088 27.9 116.1.064 47.825-28.32 132.906-3.04 133.76-2.782l-.581 1.914c-.845-.256-85.093-25.281-132.16 2.59-16.063 9.51-34.541 12.679-52.029 12.679z" fill="#fff" opacity=".3"/><path d="M282.51 200.18s68.99 22.883 116.99 0 132.96-2.161 132.96-2.161" fill="#fff" opacity=".3"/><path d="M550.27 261.4v29.153s2.331 32.65 15.159 48.976c0 0 20.99 29.736 23.905 23.323l-3.59-21.116-12.153-11.535-6.413-36.15-1.75-32.651zM679.124 524.941v21.573l-17.491 6.414v-25.072l17.491-2.915zM643.558 522.609l11.661 26.237-16.325 6.997-3.499-25.654 8.163-7.58z" fill="#ffb8b8"/><path d="M672.71 321.455s23.323 210.483 14.577 211.066-25.654 11.661-25.654 4.081-13.41-106.116-13.41-106.116l-12.828-50.726v69.967l13.41 79.296s-12.827 16.908-22.156 6.996l-19.823-77.546s-26.238-117.777-25.072-127.106c0 0 60.055-51.31 90.957-9.912zM668.046 547.68s4.665-9.912 15.16-3.498l8.746 10.495s22.548 18.674 6.548 22.674c-16.491 4.122-26.372-.264-26.372-.264s-2.915-1.749-5.248-1.749-7.58-4.081-7.58-5.247 1.75-21.828 1.75-21.828a3.677 3.677 0 014.081.583c1.75 1.75 2.915-1.166 2.915-1.166z" fill="#2f2e41"/><path d="M633.646 544.182s11.078-8.746 16.326 1.166c0 0 3.304 1.166 3.692 0s3.304-1.749 3.304 4.665 3.166 22.41.251 22.993-5.83 2.332-5.247 4.664-3.166 2.661-16.577 2.078-13.993-5.83-13.993-5.83 0-7.58 3.498-11.661 8.746-18.075 8.746-18.075z" fill="#2f2e41"/><path d="M612.073 162.28s-2.915 21.574 15.743 29.153-41.397 32.651-47.228 18.075 1.166-19.24 1.166-19.24 5.83-5.831.583-21.574z" fill="#ffb8b8"/><circle cx="593.415" cy="151.785" r="25.654" fill="#ffb8b8"/><path d="M623.151 198.43s-17.492 9.329-34.4 2.332-16.326 23.322-16.326 23.322l8.746 22.74 60.638-5.831-4.081-34.983z" fill="#f2f2f2"/><path d="M614.46 178.48a21.166 21.166 0 0114.522 11.204l27.986 8.746 6.997 9.912-8.163 71.716s15.16 14.576 15.16 22.739 18.657 36.15 9.329 32.651-26.238-15.742-26.238-15.742-42.563 1.749-55.973 13.41-18.658 8.163-18.658 8.163-13.993-60.638-14.576-69.967-16.91-65.302-16.91-65.302l29.154-16.326 7.425-8.425 20.561 32.913 18.658-22.739s-9.218-7.25-9.273-12.953z" fill="#3f3d56"/><path d="M672.71 253.237l3.5 18.658s15.742 58.306 13.41 78.13c0 0 1.749 44.312-8.163 39.064s-4.665-37.315-4.665-37.315L662.8 294.05l-7.58-33.817z" fill="#ffb8b8"/><path d="M658.134 204.844l5.831 3.498s22.156 46.061 16.909 49.56-27.987 11.078-27.987 11.078zM561.93 206.01l-13.702-.292-3.206 5.539 4.081 56.557 20.99 4.664-8.163-66.468z" fill="#3f3d56"/><path d="M614.306 130.088l4.624-1.681s-9.668-9.669-23.12-8.828l3.783-3.783s-9.248-3.363-17.655 5.465c-4.42 4.64-9.534 10.095-12.721 16.24h-4.952l2.066 4.133-7.233 4.134 7.424-.743a20.859 20.859 0 00.703 10.706l1.681 4.624s6.726-13.452 6.726-15.133v4.203s4.624-3.783 4.624-6.305l2.522 2.942 1.261-4.624 15.554 4.624-2.522-3.783 9.668 1.261-3.783-4.624s10.93 5.465 11.35 10.09 3.306 10.65 3.306 10.65l3.498-4.08s5.387-19.182-6.804-25.488z" fill="#2f2e41"/><ellipse cx="614.988" cy="152.077" rx="2.041" ry="5.247" fill="#ffb8b8"/><path d="M282.51 197.35s68.99-36 116.99 0 132.96 3.402 132.96 3.402" fill="#fff" opacity=".3"/><circle cx="407.75" cy="552.675" r="11" fill="#fff"/></svg>