<svg xmlns="http://www.w3.org/2000/svg" data-name="Layer 1" width="717.67" height="556.322"><path d="M97.399 539.04l7.71-12.39 1.54 7.08c.27 1.24.54 2.5.79 3.75 2.19-1.87 4.52-3.6 6.8-5.26q10.5-7.62 20.99-15.26l-2.19 12.7c-1.35 7.82-2.76 15.8-6.1 22.95-.37.81-.77 1.61-1.2 2.39h-32.54a10.486 10.486 0 01-.54-2.24.773.773 0 01-.01-.15c-.51-4.85 2.17-9.42 4.75-13.57z" fill="#f0f0f0"/><path d="M587.394 0H129.397a14.868 14.868 0 00-14.844 14.844v309.058a14.858 14.858 0 0014.844 14.844h457.997a14.858 14.858 0 0014.844-14.844V14.844A14.868 14.868 0 00587.394 0z" fill="#e6e6e6"/><path d="M584.572 328.514H284.476a159.157 159.157 0 01-158.691-158.692V18.676a8.456 8.456 0 018.438-8.454h450.349a8.456 8.456 0 018.438 8.454v301.4a8.448 8.448 0 01-8.438 8.438z" fill="#fff"/><path d="M560.933 52.247H139.544a1.676 1.676 0 010-3.351h421.39a1.676 1.676 0 010 3.351z" fill="#cacaca"/><ellipse cx="168.229" cy="30.3" rx="9.821" ry="10.04" fill="#3f3d56"/><ellipse cx="202.155" cy="30.3" rx="9.821" ry="10.04" fill="#3f3d56"/><ellipse cx="236.081" cy="30.3" rx="9.821" ry="10.04" fill="#3f3d56"/><path d="M426.516 202.89H255.868a12.21 12.21 0 01-12.325-11.18 12.007 12.007 0 0111.167-12.793q.403-.027.806-.027h171a12 12 0 010 24z" fill="#007bfc"/><circle cx="426.832" cy="124.841" r="10.841" fill="#e6e6e6"/><path d="M425.353 130.484a1.206 1.206 0 01-.965-.482l-2.957-3.944a1.206 1.206 0 111.93-1.447l1.934 2.58 4.97-7.455a1.206 1.206 0 012.012 1.33l-.005.008-5.915 8.873a1.207 1.207 0 01-.97.537z" fill="#fff"/><circle cx="426.832" cy="256.841" r="10.841" fill="#e6e6e6"/><path d="M425.353 262.484a1.206 1.206 0 01-.965-.482l-2.957-3.944a1.206 1.206 0 111.93-1.447l1.934 2.58 4.97-7.455a1.206 1.206 0 012.012 1.33l-.005.008-5.915 8.873a1.207 1.207 0 01-.97.537z" fill="#fff"/><path d="M339.516 136.89h-83.648a12.21 12.21 0 01-12.325-11.18 12.007 12.007 0 0111.167-12.793q.403-.027.806-.027h84a12 12 0 010 24z" fill="#007bfc"/><path d="M426.516 137.39h-171a12.5 12.5 0 010-25h171a12.5 12.5 0 010 25zm-171-23a10.5 10.5 0 000 21h171a10.5 10.5 0 000-21zM426.516 203.39h-171a12.5 12.5 0 010-25h171a12.5 12.5 0 010 25zm-171-23a10.5 10.5 0 000 21h171a10.5 10.5 0 000-21z" fill="#3f3d56"/><path d="M303.516 268.89h-47.648a12.21 12.21 0 01-12.325-11.18 12.007 12.007 0 0111.167-12.793q.403-.027.806-.027h48a12 12 0 010 24z" fill="#007bfc"/><path d="M426.516 269.39h-171a12.5 12.5 0 010-25h171a12.5 12.5 0 010 25zm-171-23a10.5 10.5 0 000 21h171a10.5 10.5 0 000-21z" fill="#3f3d56"/><path d="M287.517 100h-40a4 4 0 010-8h40a4 4 0 010 8zM287.517 166h-40a4 4 0 010-8h40a4 4 0 010 8zM287.517 232h-40a4 4 0 010-8h40a4 4 0 010 8z" fill="#ccc"/><ellipse cx="227.528" cy="96.417" rx="4.346" ry="4.443" fill="#3f3d56"/><ellipse cx="227.528" cy="162.417" rx="4.346" ry="4.443" fill="#3f3d56"/><ellipse cx="227.528" cy="228.417" rx="4.346" ry="4.443" fill="#3f3d56"/><path fill="#ffb6b6" d="M513.946 544.191l-9.901-.001-4.71-38.19 14.613.001-.002 38.19z"/><path d="M514.294 554.52l-30.447-.002v-.385a11.851 11.851 0 0111.851-11.85h.001l5.562-4.22 10.376 4.22h2.658z" fill="#2f2e41"/><path fill="#ffb6b6" d="M552.946 544.191l-9.901-.001-4.71-38.19 14.613.001-.002 38.19z"/><path d="M553.294 554.52l-30.447-.002v-.385a11.851 11.851 0 0111.851-11.85h.001l5.562-4.22 10.376 4.22h2.658zM479.874 305l-7 24 8.247 101.645S476.874 437 479.874 437s6.847 1.41 4.424 5.205 5.86 17.42 5.86 17.42L501.874 532l14.93-.22s7.59-4.229 3.33-8.504-7.26-4.276-3.26-8.276 4-2.795 4-5.898 4.008-41.015-5.496-55.559l2.864-59.295 6.744 58.161L538.874 530l14.382-.118s6.643-6.403 6.63-11.143-4.104-5.133-1.058-7.936 3.046-45.866-5.954-69.803l.07-107.071s8.842-24.03-.114-33.48S479.874 305 479.874 305z" fill="#2f2e41"/><path d="M570.015 263.126l6.029-62.45a10.127 10.127 0 00-8.98-11.009 10.127 10.127 0 00-11.17 8.964q-.03.267-.044.536l-4.274 65.061-4.263 39.425a8.837 8.837 0 1010.425 4.465z" fill="#ffb6b6"/><path d="M547.407 169.022l21.722 2.723s16.276 30.679 12.926 33.282-18.488 18.847-29.648 11.4-5-47.405-5-47.405z" fill="#3f3d56"/><circle cx="509.998" cy="116.532" r="23.056" fill="#ffb6b6"/><path d="M518.907 137.698c-6.616-.217-7.217-1.964-13.833-2.182-2.107-.069-4.593-.357-5.611-2.203a4.862 4.862 0 01.246-4.328 39.517 39.517 0 002.039-4.01 7.003 7.003 0 00-6.939-9.232c-2.013.087-3.904 1.034-5.912 1.207-2.754.238-8.842-8.854-7.575-11.31 1.234-2.39 3.718-4.194 4.108-6.856.256-1.741-.463-3.47-.561-5.228-.146-2.605 6.457 3.269 5.248.957-2.967-5.67 24.987-12.701 29.59-5.598 1.72 2.655 4.785 2.474 7.517 4.068 1.79 1.045 6.312 4.65 7.34 6.897a17.494 17.494 0 011.31 7.24c.041 11.526-1.715 22.128-11.012 28.941" fill="#2f2e41"/><path d="M503.874 146l19-4 14.594 7.02s34.52 13.885 34.402 27.576-6.185 43.691-13.151 46.691 6.033 13 2.033 19-10.059 46.991-10.059 46.991 14.165 28.218 2.181 33.722-62.629 10.65-65.875 3.468-3.277-3.262-10.762-5.221.008-29.432 6.762-32.196 10.753-62.764 10.753-62.764L483 179.634l16.407-23.095z" fill="#3f3d56"/><path d="M490.567 274.24l17.165-60.347a10.127 10.127 0 00-6.853-12.445 10.127 10.127 0 00-12.6 6.808q-.076.258-.139.519l-15.91 63.23-11.286 38.015a8.837 8.837 0 109.452 6.269z" fill="#ffb6b6"/><path d="M485.258 177.603l20.878 6.587s13.58 19.94 8.496 22.785-6.991 2.243-4.38 7.261 6.375 3.06 2.611 5.018-21.577 15.213-31.216 5.88 3.61-47.531 3.61-47.531z" fill="#3f3d56"/><path d="M0 555.132a1.186 1.186 0 001.183 1.19H716.48a1.19 1.19 0 100-2.38H1.19A1.186 1.186 0 000 555.125z" fill="#ccc"/><circle cx="426.832" cy="190.841" r="20.412" fill="#007bfc"/><path d="M424.048 201.465a2.27 2.27 0 01-1.817-.908l-5.568-7.425a2.27 2.27 0 013.633-2.725l3.643 4.857 9.357-14.035a2.27 2.27 0 013.787 2.505l-.009.014-11.137 16.706a2.272 2.272 0 01-1.826 1.01z" fill="#fff"/></svg>