<?xml version="1.0" encoding="UTF-8"?>
<svg data-name="Layer 1" version="1.1" viewBox="0 0 971.44 502" xml:space="preserve" xmlns="http://www.w3.org/2000/svg" xmlns:xlink="http://www.w3.org/1999/xlink"><defs><linearGradient id="a" x1="599.5" x2="599.5" y1="668.05" y2="199" gradientUnits="userSpaceOnUse"><stop stop-color="gray" stop-opacity=".25" offset="0"/><stop stop-color="gray" stop-opacity=".12" offset=".54"/><stop stop-color="gray" stop-opacity=".1" offset="1"/></linearGradient><linearGradient id="e" x1="485.72" x2="485.72" y1="258.88" y2="71.12" xlink:href="#a"/><linearGradient id="d" x1="6.0002" x2="235" y1="33" y2="344" gradientUnits="userSpaceOnUse"><stop stop-color="#41D1FF" offset="0"/><stop stop-color="#BD34FE" offset="1"/></linearGradient><linearGradient id="c" x1="194.65" x2="236.08" y1="8.8182" y2="292.99" gradientUnits="userSpaceOnUse"><stop stop-color="#FFEA83" offset="0"/><stop stop-color="#FFDD35" offset=".083333"/><stop stop-color="#FFA800" offset="1"/></linearGradient></defs><path transform="translate(-114.28 -199)" d="M852.69 199H346.31A16.37 16.37 0 00330 215.42v348.52a16.37 16.37 0 0016.31 16.42h174.16v60.16h-7.94a8.3 8.3 0 00-8.27 8.33v12.07h16.21v7.14h158.06v-7.14h16.21v-12.07a8.3 8.3 0 00-8.27-8.33H679V640h-.51v-59.64h174.2A16.37 16.37 0 00869 563.94V215.42A16.37 16.37 0 00852.69 199z" fill="url(#a)" opacity=".7"/><path d="m407.72 371h156v92h-156z" fill="#bdbdbd"/><path d="m410.79 380h150.17c1.81-7.87 3.26-13 3.26-13h-157s1.61 5.11 3.57 13z" opacity=".1"/><path d="M235.82 3h499.8a16.1 16.1 0 0116.1 16.1V327h-532V19.1A16.1 16.1 0 01235.82 3z" fill="#535461"/><path d="M735.62 377h-499.8a16.1 16.1 0 01-16.1-16.1V327h532v33.9a16.1 16.1 0 01-16.1 16.1z" fill="#bdbdbd"/><circle cx="485.72" cy="352" r="9" fill="#535461"/><path d="M399.89 436h171.66a8.17 8.17 0 018.17 8.17V456h-188v-11.83a8.17 8.17 0 018.17-8.17z" fill="#bdbdbd"/><rect x="320.72" y="71.12" width="330" height="187.76" rx="4.5" ry="4.5" fill="url(#e)" opacity=".5"/><rect x="324.95" y="72.5" width="321.54" height="183.96" rx="4.5" ry="4.5" fill="#fff"/><rect x="414.52" y="98.91" width="35.44" height="31.9" rx="4.5" ry="4.5" fill="#007bfc" opacity=".5"/><rect x="460.59" y="98.91" width="95.69" height="3.54" rx="1.77" ry="1.77" fill="#e0e0e0"/><rect x="460.59" y="109.55" width="79.54" height="3.54" rx="1.77" ry="1.77" fill="#e0e0e0"/><rect x="414.52" y="148.53" width="35.44" height="31.9" rx="4.5" ry="4.5" fill="#007bfc" opacity=".5"/><rect x="460.59" y="148.53" width="95.69" height="3.54" rx="1.77" ry="1.77" fill="#e0e0e0"/><rect x="460.59" y="159.16" width="95.69" height="3.54" rx="1.77" ry="1.77" fill="#e0e0e0"/><rect x="414.52" y="198.15" width="35.44" height="31.9" rx="4.5" ry="4.5" fill="#007bfc" opacity=".5"/><rect x="460.59" y="198.15" width="95.69" height="3.54" rx="1.77" ry="1.77" fill="#e0e0e0"/><rect x="460.59" y="208.78" width="96.33" height="3.54" rx="1.59" ry="1.59" fill="#e0e0e0"/><path d="m485.72 42v-22m0 59v-28.87" stroke="#007bfc" stroke-miterlimit="10" stroke-width="2"/><circle cx="485.72" cy="79" r="4" fill="#007bfc"/><circle cx="485.72" cy="46" r="4" fill="none" stroke="#fff" stroke-miterlimit="10"/><path d="m485.72 42v-22m0 59v-28.87" stroke="#007bfc" stroke-miterlimit="10" stroke-width="2"/><circle cx="485.72" cy="79" r="4" fill="#007bfc"/><circle cx="485.72" cy="46" r="4" fill="none" stroke="#fff" stroke-miterlimit="10"/><path d="m485.72 279v31m0-59v28.87" stroke="#007bfc" stroke-miterlimit="10" stroke-width="2"/><circle cx="485.72" cy="251" r="4" fill="#007bfc"/><path d="m305.72 168.5h-31.5m59 0h-28.87" stroke="#007bfc" stroke-miterlimit="10" stroke-width="2"/><circle cx="333.22" cy="168.5" r="4" fill="#007bfc"/><path d="m408.22 435.5h156v3h-156z" opacity=".1"/><path d="M0 455.6h971.44v32.93H0z" fill="#e0e0e0"/><path d="M41.16 488.53h889.11V502H41.16z" fill="#e0e0e0"/><path d="M41.16 488.53h889.11v4.49H41.16z" opacity=".1"/><path d="m690.22 168.5h6m-59 0h44.88" stroke="#007bfc" stroke-miterlimit="10" stroke-width="2"/><circle cx="637.22" cy="168.5" r="4" fill="#007bfc"/><circle cx="686.22" cy="168.5" r="4" fill="none" stroke="#fff" stroke-miterlimit="10"/><path d="M147.507 43.658a1.298 1.298 0 00-.94-.52 1.3 1.3 0 00-1.007.37l-6.076 6.055a1.301 1.301 0 00-.142 1.657c7.836 11.075 11.988 24.056 11.988 37.549 0 36.06-29.39 65.406-65.516 65.406-2.505 0-5.112-.183-8.188-.562-.191-.029-1.01-.155-1.532-.24a67.759 67.759 0 01-7.268-1.502s-.367-.094-.445-.12c-.024-.004-.042-.012-.067-.023a64.898 64.898 0 01-8.475-3.022 61.75 61.75 0 01-8.074-4.246l79.564-42.077c2.529-1.34 4.068-3.697 4.113-6.306.054-2.605-1.389-5.02-3.87-6.455l-27.325-15.815 40.432-40.433c2.908-2.9 2.676-5.514 1.976-7.178-.836-2.058-3.006-3.497-5.276-3.497-1.22 0-2.353.326-3.786 1.094L40.52 75.123c-2.538 1.34-4.083 3.704-4.13 6.335-.039 2.617 1.425 5.022 3.909 6.435l27.373 15.751-29.582 29.575a68.98 68.98 0 01-4.636-5.579c-6.042-8.15-10.015-17.156-11.802-26.762a5.53 5.53 0 01-.064-.414c-.005-.028-.007-.054-.014-.088l-.038-.197c-.27-1.583-.565-3.423-.739-5.257a19.24 19.24 0 01-.065-1.308c0-.011 0-.02-.004-.03l-.096-1.663c-.062-.942-.132-2.007-.132-3.091 0-4.468.444-8.907 1.325-13.19a61.135 61.135 0 011.514-5.874c.023-.067.037-.117.048-.187.006-.035.016-.101.031-.147 0 0 0-.005.002-.007 8.556-27.557 33.67-46.072 62.494-46.072 3.966 0 8.03.459 12.795 1.448l.578.123c1.494.313 3.158.742 5.082 1.304 1.02.298 2.042.666 2.943.99l.851.305c.78.268 1.6.554 2.342.862.013.003.023.011.039.015.106.042.198.084.308.134l.042.021c.36.167.784.157 1.139-.034l9.57-5.067c.418-.218.68-.657.685-1.136 0-.475-.268-.908-.685-1.13a76.356 76.356 0 00-35.689-8.897c-42.17 0-76.477 34.303-76.477 76.477 0 17.086 5.611 33.31 16.227 46.916a78.114 78.114 0 004.605 5.352l-3.12 3.125c-2.893 2.874-2.678 5.478-1.987 7.154.857 2.066 3.034 3.509 5.296 3.509 1.195 0 2.36-.334 3.773-1.084l6.488-3.443a77.154 77.154 0 006.425 4.265c11.814 6.984 25.223 10.678 38.771 10.678 42.162 0 76.467-34.304 76.467-76.473.002-16.303-5.138-31.902-14.876-45.11z" fill="#75d1df"/><path d="M30.46 150.19c-.378 0-.879-.31-1.015-.639-.108-.262-.332-.808.972-2.105l41.716-41.71a3.376 3.376 0 00.955-2.807 3.377 3.377 0 00-1.65-2.456L42.61 83.889c-1.007-.58-1.6-1.464-1.59-2.368.016-.896.64-1.757 1.666-2.3l97.072-51.333c.925-.493 1.353-.556 1.63-.556.383 0 .847.295.98.615.13.304.358.844-.953 2.149l-41.628 41.63a3.354 3.354 0 00-.953 2.797 3.366 3.366 0 001.638 2.458l28.778 16.652c.992.575 1.577 1.451 1.557 2.345-.016.912-.634 1.775-1.65 2.319l-97.086 51.35c-.918.49-1.343.543-1.613.543z" fill="#ffd633"/><g fill="none"><path d="M803.248 381.017l-18.484-50.633a74.599 74.599 0 00-6.484 30.484 74.608 74.608 0 006.398 30.27 75.098 75.098 0 0022.262 28.629 74.635 74.635 0 0013.559 8.516l-4.844-13.273zM926.87 374.283c.781-4.348 1.23-8.832 1.23-13.414 0-13.023-3.328-25.266-9.172-35.934.324 2.379.496 4.938.496 7.699 0 7.602-1.41 16.14-5.691 26.832l-6.875 19.867c5.504-3.23 11.887-5.11 18.719-5.11.437 0 .863.052 1.293.06zM860.037 382.584l-5.535-15.16-9.613 27.949-12.859 37.355a74.501 74.501 0 0021.164 3.063c8.723 0 17.086-1.52 24.871-4.25a7.047 7.047 0 01-.535-1.043zM890.858 425.627c.125-.082.25-.164.375-.238-.051-.141-.094-.29-.152-.426z"/><path d="M898.057 381.31c3.238-10.36 5.699-17.81 5.699-24.22 0-8.405-2.734-14.46-5.371-19.233-.27-.48-.543-.97-.801-1.426-3.789-6.172-7.359-11.391-7.359-17.57 0-6.887 5.215-13.293 12.574-13.293.34 0 .656.03.977.059a75.033 75.033 0 00-20.246-13.254 74.546 74.546 0 00-30.336-6.414c-26.176 0-49.199 13.426-62.594 33.762 1.758.059 3.418.09 4.824.09 7.828 0 19.965-.95 19.965-.95 4.031-.23 4.508 5.7.477 6.18 0 0-4.063.474-8.57.712l14.328 42.625 11.895 35.387 1.055 3.125 1.691-5.078 14.706-44.088-4.348-11.91-7.328-20.063a139.522 139.522 0 01-7.855-.711c-4.043-.246-3.566-6.41.473-6.18 0 0 12.367.949 19.73.949 5.223 0 12.328-.426 16.508-.703 2.082-.145 3.453-.246 3.453-.246 4.039-.23 4.523 5.699.484 6.18 0 0-4.059.473-8.574.71l13.371 39.778 12.574 37.383a36.978 36.978 0 016.137-13.371z"/></g><style type="text/css">
	.st0{fill:#FF3E00;}
	.st1{fill:#FFFFFF;}
</style><g transform="translate(832.05 127.25)"><path class="st0" d="m91.8 15.6c-10.9-15.7-32.6-20.3-48.2-10.4l-27.5 17.6c-7.5 4.7-12.7 12.4-14.2 21.1-1.3 7.3-0.2 14.8 3.3 21.3-2.4 3.6-4 7.6-4.7 11.8-1.6 8.9 0.5 18.1 5.7 25.4 11 15.7 32.6 20.3 48.2 10.4l27.5-17.5c7.5-4.7 12.7-12.4 14.2-21.1 1.3-7.3 0.2-14.8-3.3-21.3 2.4-3.6 4-7.6 4.7-11.8 1.7-9-0.4-18.2-5.7-25.5"/><path class="st1" d="m40.9 103.9c-8.9 2.3-18.2-1.2-23.4-8.7-3.2-4.4-4.4-9.9-3.5-15.3 0.2-0.9 0.4-1.7 0.6-2.6l0.5-1.6 1.4 1c3.3 2.4 6.9 4.2 10.8 5.4l1 0.3-0.1 1c-0.1 1.4 0.3 2.9 1.1 4.1 1.6 2.3 4.4 3.4 7.1 2.7 0.6-0.2 1.2-0.4 1.7-0.7l27.4-17.5c1.4-0.9 2.3-2.2 2.6-3.8s-0.1-3.3-1-4.6c-1.6-2.3-4.4-3.3-7.1-2.6-0.6 0.2-1.2 0.4-1.7 0.7l-10.5 6.7c-1.7 1.1-3.6 1.9-5.6 2.4-8.9 2.3-18.2-1.2-23.4-8.7-3.1-4.4-4.4-9.9-3.4-15.3 0.9-5.2 4.1-9.9 8.6-12.7l27.5-17.5c1.7-1.1 3.6-1.9 5.6-2.5 8.9-2.3 18.2 1.2 23.4 8.7 3.2 4.4 4.4 9.9 3.5 15.3-0.2 0.9-0.4 1.7-0.7 2.6l-0.5 1.6-1.4-1c-3.3-2.4-6.9-4.2-10.8-5.4l-1-0.3 0.1-1c0.1-1.4-0.3-2.9-1.1-4.1-1.6-2.3-4.4-3.3-7.1-2.6-0.6 0.2-1.2 0.4-1.7 0.7l-27.4 17.5c-1.4 0.9-2.3 2.2-2.6 3.8s0.1 3.3 1 4.6c1.6 2.3 4.4 3.3 7.1 2.6 0.6-0.2 1.2-0.4 1.7-0.7l10.5-6.7c1.7-1.1 3.6-1.9 5.6-2.5 8.9-2.3 18.2 1.2 23.4 8.7 3.2 4.4 4.4 9.9 3.5 15.3-0.9 5.2-4.1 9.9-8.6 12.7l-27.5 17.5c-1.7 1.1-3.6 1.9-5.6 2.5"/></g><g transform="matrix(.28772 0 0 .28772 35.887 342.25)"><path d="m399.64 59.525-184 329.02c-3.799 6.793-13.559 6.833-17.415 0.073l-187.65-329.06c-4.2008-7.3667 2.0985-16.29 10.446-14.798l184.19 32.924c1.175 0.21 2.378 0.208 3.553-0.0061l180.34-32.87c8.32-1.5164 14.649 7.3376 10.522 14.719z" fill="url(#d)"/><path d="m292.96 1.5744-136.16 26.681c-2.238 0.4385-3.895 2.3351-4.03 4.6112l-8.376 141.46c-0.197 3.332 2.863 5.918 6.115 5.168l37.91-8.749c3.547-0.818 6.752 2.306 6.023 5.873l-11.263 55.153c-0.758 3.712 2.727 6.886 6.352 5.785l23.415-7.114c3.63-1.102 7.118 2.081 6.35 5.796l-17.899 86.633c-1.12 5.419 6.088 8.374 9.094 3.728l2.008-3.103 110.95-221.43c1.858-3.7075-1.346-7.935-5.418-7.1492l-39.022 7.5312c-3.667 0.707-6.787-2.708-5.752-6.2957l25.469-88.291c1.036-3.5938-2.095-7.0117-5.766-6.2925z" fill="url(#c)"/></g></svg>
