<?xml version="1.0" encoding="UTF-8"?>
<svg data-name="Layer 1" version="1.1" viewBox="0 0 924 377.61" xmlns="http://www.w3.org/2000/svg">
<path d="M609.545 131.38a11.003 11.003 0 0114.89 6.914 10.593 10.593 0 01.32 1.435l43.939 21.788 10.168-6.738 12.652 14.565-15.526 12.61a11.148 11.148 0 01-13.302.513l-44.579-30.828a10.51 10.51 0 01-1.015.37 11.003 11.003 0 01-14.01-8.561 10.704 10.704 0 01-.163-1.34 11.036 11.036 0 016.626-10.729z" fill="#ffb8b8"/>
<path d="M64.796 199.032a6.5 6.5 0 006.5 6.5h10.609l1.89 3.428v152.072a6.5 6.5 0 0013 0v-155.5h355.902l.099 155.5a6.5 6.5 0 0013 0v-155.5h11.5a6.5 6.5 0 000-13h-406a6.5 6.5 0 00-6.5 6.5z" fill="#e5e5e5"/>
<path d="m213.7 290.93v-24a4 4 0 0 0-4-4h-91a4 4 0 0 0-4 4v24zm-99 9h99v31h-99zm0 40v24a4 4 0 0 0 4 4h91a4 4 0 0 0 4-4v-24z" fill="#e5e5e5"/>
<circle cx="164.7" cy="277.93" r="3" fill="#fff"/>
<circle cx="164.7" cy="317.93" r="3" fill="#fff"/>
<circle cx="164.54" cy="357.09" r="3" fill="#fff"/>
<path d="M96 184.066v7.94a1.65 1.65 0 001.74 1.53h31.42a1.941 1.941 0 00.86-.2l7.93-3.97a1.445 1.445 0 000-2.66l-7.93-3.97a1.941 1.941 0 00-.86-.2H97.74a1.65 1.65 0 00-1.74 1.53z" fill="#3f3d56"/>
<path d="M97.74 182.536H104v11h-6.26a1.65 1.65 0 01-1.74-1.53v-7.94a1.65 1.65 0 011.74-1.53z" fill="#007bfc"/>
<path d="M239.282 191.458l3.282-1.382 2.252-16.456h29.988l2.441 16.388 2.937 1.469a.697.697 0 01-.312 1.32h-40.318a.697.697 0 01-.27-1.34z" fill="#e6e6e6"/>
<path d="M183.08 172.89v-20.772h153.132v20.772a2.918 2.918 0 01-2.912 2.919H185.991a2.918 2.918 0 01-2.912-2.919z" fill="#ccc"/>
<path d="M182.925 73.054a3.522 3.522 0 013.519-3.518h146.384a3.522 3.522 0 013.518 3.518v88.882h-153.42z" fill="#3f3d56"/>
<path d="M189.376 152.772V78.7a2.715 2.715 0 012.713-2.713h135.094a2.715 2.715 0 012.713 2.713v74.072a2.715 2.715 0 01-2.713 2.713H192.09a2.715 2.715 0 01-2.713-2.713zM474.1 0h135.39v161.66H474.1z" fill="#fff"/>
<path d="m474.1 0h135.39v161.66h-135.39zm133 2.389h-130.61v156.88h130.61z" fill="#e5e5e5"/>
<path d="m494.44 78.285h94.708v3.66h-94.708z" fill="#f1f1f1"/>
<path d="m578.96 56.406h1.032v-37.027h-36.383v1.033h35.351v35.994zm-72.766 3.397h36.383v-1.032h-35.351v-35.994h-1.032v37.026z" fill="#cbcbcb"/>
<path d="m494.44 87.827h94.708v3.66h-94.708zm0 9.543h94.708v3.66h-94.708zm0 16.794h94.708v3.66h-94.708zm0 9.543h94.708v3.66h-94.708zm0 9.542h94.708v3.66h-94.708z" fill="#f1f1f1"/>
<path d="M534.606 29.436l.955-1.169-1.439-1.637-1.282.796a7.149 7.149 0 00-2.498-1.26l-.165-1.643-2.176-.14-.365 1.562a7.152 7.152 0 00-2.897.967l-1.08-.883-1.638 1.439.736 1.185a7.15 7.15 0 00-1.333 2.748l-1.597.161-.14 2.175 1.607.377a7.147 7.147 0 00.937 2.655l-.883 1.08 1.439 1.638 1.185-.735a7.15 7.15 0 002.579 1.29l.172 1.706 2.175.14.387-1.654a7.151 7.151 0 002.787-.947l1.169.954 1.637-1.438-.795-1.282a7.152 7.152 0 001.299-2.642l1.69-.17.14-2.176-1.669-.39a7.151 7.151 0 00-.937-2.707zm-2.28 8.031a5.813 5.813 0 11.532-8.204 5.813 5.813 0 01-.531 8.204zM547.657 45.251l1.317-.736-.737-2.052-1.484.27a7.149 7.149 0 00-1.861-2.09l.45-1.588-1.972-.93-.914 1.32a7.152 7.152 0 00-3.05-.166l-.68-1.217-2.052.736.249 1.373a7.15 7.15 0 00-2.249 2.066l-1.544-.436-.93 1.971 1.357.94a7.147 7.147 0 00-.104 2.815l-1.218.68.737 2.052 1.373-.25a7.15 7.15 0 001.924 2.148l-.467 1.65 1.972.93.967-1.397a7.151 7.151 0 002.94.143l.737 1.317 2.052-.736-.27-1.485a7.152 7.152 0 002.179-1.98l1.634.462.93-1.971-1.409-.977a7.151 7.151 0 00.123-2.862zm-5.07 6.633a5.813 5.813 0 113.507-7.436 5.813 5.813 0 01-3.507 7.436zM563.781 35.84l.907-1.205-1.503-1.58-1.249.847a7.149 7.149 0 00-2.546-1.159l-.231-1.634-2.18-.054-.302 1.576a7.152 7.152 0 00-2.856 1.082l-1.115-.839-1.579 1.503.783 1.155a7.15 7.15 0 00-1.222 2.8l-1.589.224-.054 2.179 1.622.311a7.147 7.147 0 001.042 2.617l-.839 1.114 1.503 1.58 1.155-.783a7.15 7.15 0 002.628 1.186l.24 1.698 2.18.053.32-1.668a7.151 7.151 0 002.747-1.058l1.206.907 1.579-1.503-.847-1.25a7.152 7.152 0 001.193-2.69l1.682-.239.054-2.179-1.684-.323a7.151 7.151 0 00-1.045-2.667zm-1.956 8.116a5.813 5.813 0 11.203-8.218 5.813 5.813 0 01-.203 8.218zM277.317 122.182l3.88-.308.48-5.6-3.769-.967a18.435 18.435 0 00-2.112-6.898l2.763-3.24-3.62-4.3-3.561 2.107a18.443 18.443 0 00-6.97-3.667l-.285-3.587-5.6-.482-.894 3.486a18.437 18.437 0 00-7.494 2.423l-3.15-2.685-4.3 3.619 2.169 3.664a18.43 18.43 0 00-3.272 6.484l-3.587.285-.482 5.6 3.486.894a18.44 18.44 0 002.198 7.102l-2.868 3.365 3.619 4.3 3.77-2.231a18.442 18.442 0 006.738 3.498l.309 3.88 5.6.48.966-3.769a18.445 18.445 0 007.237-2.296l3.333 2.843 4.301-3.62-2.252-3.804a18.441 18.441 0 003.367-6.576zm-19.018 10.089a14.991 14.991 0 1116.22-13.652 14.991 14.991 0 01-16.22 13.652z" fill="#007bfc"/>
<path d="M701.06 265.528h-48.01c0 1.38-49.48 2.5-49.48 2.5a12.86 12.86 0 00-2.11 2 12.41 12.41 0 00-2.9 8v2a12.505 12.505 0 0012.5 12.5h90a12.51 12.51 0 0012.5-12.5v-2a12.517 12.517 0 00-12.5-12.5z" fill="#3f3d56"/>
<path d="m648.84 292.03h13v84h-13z" fill="#3f3d56"/>
<path d="M611.836 375.575c0 1.405 19.7.543 44 .543s44 .862 44-.543-19.7-12.543-44-12.543-44 11.138-44 12.543z" fill="#3f3d56"/>
<path d="M623.571 365.73l-12.259-.001-5.833-31.797 18.094.001-.002 31.797z" fill="#ffb8b8"/>
<path d="M626.698 377.613l-39.53-.001v-.5a15.386 15.386 0 0115.386-15.386h24.145zM605.235 346.012l-24.44-54.808a20.086 20.086 0 018.818-25.784l53.013-28.428 24.191-2.058 22.315-2.028.16.272c.207.348 5.005 8.635 1.761 17.722-2.46 6.893-8.859 12.277-19.018 16.002-23.715 8.695-51.11 16.127-61.787 18.918a3.451 3.451 0 00-2.211 1.76 3.498 3.498 0 00-.196 2.799l22.706 51.014a4.5 4.5 0 01-3.81 6.03l-16.966 1.235q-.216.02-.43.02a4.497 4.497 0 01-4.106-2.666z" fill="#2f2e41"/>
<path d="M631.571 365.73l-12.259-.001-5.833-31.797 18.094.001-.002 31.797z" fill="#ffb8b8"/>
<path d="M634.698 377.613l-39.53-.001v-.5a15.386 15.386 0 0115.386-15.386h24.145zM614.235 349.012l-24.44-54.808a20.086 20.086 0 018.818-25.784l53.013-28.428 24.191-2.058 17.478-1.516-.002-.24c.206.348 5.004 8.635 1.76 17.722-2.46 6.893-3.859 12.277-14.018 16.002-23.715 8.695-51.11 16.127-61.787 18.918a3.451 3.451 0 00-2.211 1.76 3.498 3.498 0 00-.196 2.799l22.706 51.014a4.5 4.5 0 01-3.81 6.03l-16.966 1.235q-.216.02-.43.02a4.497 4.497 0 01-4.106-2.666z" fill="#2f2e41"/>
<path d="M660.295 237.418c-1.172-.829-18 8-21 1 14-35 4.353-50.113 12.928-70.184a24.992 24.992 0 0116.567-14.18l22.25-1.123.115.056a26.005 26.005 0 0114.22 27.588c-.08 21.843-13.149 38.503-8.58 54.346a5.122 5.122 0 01-.483 3.984 4.884 4.884 0 01-3.116 2.309l-29.378-3.92a4.964 4.964 0 01-4.017-.777z" fill="#007bfc"/>
<circle cx="683.62" cy="120.06" r="24.561" fill="#ffb8b8"/>
<path d="M637.223 203.29l-42.674-33.666a10.517 10.517 0 01-1.036.306 11.027 11.027 0 01-8.818-1.692 10.913 10.913 0 01-4.626-7.733 11.001 11.001 0 0121.635-3.801 10.574 10.574 0 01.229 1.452l42.481 24.507 10.572-6.086 11.711 15.332-16.414 11.7a10.942 10.942 0 01-13.06-.32z" fill="#ffb8b8"/>
<path d="m671.9 196.68-24.348-16.558 11.443-16.206a11.168 11.168 0 0 1 13.928-3.64 11.168 11.168 0 0 1 5.895 13.282z" fill="#007bfc"/>
<path d="M691.438 142.604c-1.305.57-3.977-9.828-2.78-11.907 1.78-3.093 1.675-3.071 2.856-5.117s1.447-4.848-.084-6.648-5.072-1.562-5.77.696c.45-4.288-3.792-7.735-7.993-8.703s-8.633-.368-12.857-1.23c-4.902-1-10.003-5.11-8.047-10.5a7.593 7.593 0 011.481-2.434c2.26-2.541 5.421-3.626 8.512-4.675 6.43-2.183 13.036-4.393 19.822-4.152a28.798 28.798 0 0125.446 18.61 26.158 26.158 0 011.084 4.025c2.33 12.524-4.944 24.878-16.756 29.647z" fill="#2f2e41"/>
<path d="M342.619 277.94v2a12.51 12.51 0 0012.5 12.5h90a12.505 12.505 0 0012.5-12.5v-2a12.41 12.41 0 00-2.9-8 12.86 12.86 0 00-2.11-2s-49.48-1.12-49.48-2.5h-48.01a12.517 12.517 0 00-12.5 12.5z" fill="#3f3d56"/>
<path d="m394.34 291.94h13v84h-13z" fill="#3f3d56"/>
<path d="M400.343 362.943c-24.301 0-44 11.139-44 12.543s19.699.544 44 .544 44 .861 44-.544c0-1.404-19.7-12.543-44-12.543z" fill="#3f3d56"/>
<path d="M443.761 332.185l18.094-.001-5.833 31.797-12.259.001-.002-31.797z" fill="#ffb8b8"/>
<path d="M440.636 359.978h24.145a15.386 15.386 0 0115.386 15.386v.5l-39.53.001zM457.993 346.93q-.214 0-.43-.02l-16.966-1.235a4.5 4.5 0 01-3.81-6.03l22.707-51.014a3.498 3.498 0 00-.196-2.8 3.451 3.451 0 00-2.212-1.759c-10.677-2.79-38.072-10.223-61.786-18.918-10.16-3.725-16.559-9.11-19.019-16.002-3.243-9.087 1.555-17.374 1.76-17.722l.162-.272 22.314 2.028 24.192 2.058 53.013 28.428a20.086 20.086 0 018.819 25.784L462.1 344.263a4.497 4.497 0 01-4.107 2.668z" fill="#2f2e41"/>
<path d="M437.761 332.185l18.094-.001-5.833 31.797-12.259.001-.002-31.797z" fill="#ffb8b8"/>
<path d="M434.636 359.978h24.145a15.386 15.386 0 0115.386 15.386v.5l-39.53.001zM450.993 349.93q-.214 0-.43-.02l-16.966-1.235a4.5 4.5 0 01-3.81-6.03l22.707-51.014a3.498 3.498 0 00-.196-2.8 3.451 3.451 0 00-2.212-1.759c-10.677-2.79-38.072-10.223-61.786-18.918-10.16-3.725-16.559-9.11-19.019-16.002-3.243-9.087 1.555-17.374 1.76-17.722l.162-.272 22.314 2.028 24.192 2.058 53.013 28.428a20.086 20.086 0 018.819 25.784L455.1 347.263a4.497 4.497 0 01-4.107 2.668z" fill="#2f2e41"/>
<path d="M365.504 155.887a11.168 11.168 0 0114.262-2.784 11.168 11.168 0 015.002 13.5l-6.72 18.666-27.524-10.46z" fill="#007bfc"/>
<path d="M420.534 248.77a4.964 4.964 0 01-4.017.777l-42.379-10.081a4.884 4.884 0 01-3.115-2.31 5.122 5.122 0 01-.484-3.983c4.57-15.843-1.423-35.483-8.579-54.346a26.005 26.005 0 0114.22-27.588l.115-.056 22.25 1.123a24.992 24.992 0 0116.566 14.18c8.576 20.07 11.031 45.825 7.506 78.735a4.999 4.999 0 01-2.083 3.548z" fill="#007bfc"/>
<circle transform="rotate(-80.783 299.22 330.01)" cx="521.72" cy="379.5" r="24.561" fill="#ffb8b8"/>
<path d="M417.052 201.86l-16.414-11.699 11.71-15.332 10.572 6.086 42.482-24.507a10.574 10.574 0 01.229-1.452 11 11 0 118.19 13.226 10.518 10.518 0 01-1.036-.306l-42.674 33.666a10.942 10.942 0 01-13.06.318z" fill="#ffb8b8"/>
<path d="M388.513 171.814a11.168 11.168 0 015.894-13.283 11.168 11.168 0 0113.93 3.64l11.442 16.207-24.349 16.558z" fill="#007bfc"/>
<path d="M392.785 114.758a4.437 4.437 0 01-.594 5.186c-3.489 3.946-4.42 10.054-3.162 15.315 1.51 6.313 5.516 11.693 9.473 16.839s8.05 10.43 9.788 16.684c4.115 14.806-6.938 30.595-21.141 36.46s-30.378 4.008-45.332.474c-11.287-2.668-22.935-6.592-30.654-15.248s-9.767-23.31-1.564-31.51c6.43-6.426 16.443-6.944 25.39-8.555s19.083-6.354 20.282-15.366c1.191-8.955-7.199-16.356-8.779-25.25-1.965-11.06 7.655-21.599 18.54-24.373s22.367.308 32.912 4.18c8.11 2.98 16.593 6.867 19.68 15.695 1.717 4.91.383 10.504-3.85 13.525-6.448 4.601-14.736.16-21.05-4.16z" fill="#2f2e41"/>
</svg>
