<?xml version="1.0" encoding="UTF-8" standalone="no"?>
<svg
   xmlns:dc="http://purl.org/dc/elements/1.1/"
   xmlns:cc="http://creativecommons.org/ns#"
   xmlns:rdf="http://www.w3.org/1999/02/22-rdf-syntax-ns#"
   xmlns:svg="http://www.w3.org/2000/svg"
   xmlns="http://www.w3.org/2000/svg"
   xmlns:sodipodi="http://sodipodi.sourceforge.net/DTD/sodipodi-0.dtd"
   xmlns:inkscape="http://www.inkscape.org/namespaces/inkscape"
   width="801.575"
   height="647.182"
   viewBox="0 0 801.575 647.182"
   version="1.1"
   id="svg23"
   sodipodi:docname="app.svg"
   inkscape:version="1.0.2 (e86c870879, 2021-01-15)">
  <metadata
     id="metadata29">
    <rdf:RDF>
      <cc:Work
         rdf:about="">
        <dc:format>image/svg+xml</dc:format>
        <dc:type
           rdf:resource="http://purl.org/dc/dcmitype/StillImage" />
      </cc:Work>
    </rdf:RDF>
  </metadata>
  <defs
     id="defs27" />
  <sodipodi:namedview
     pagecolor="#ffffff"
     bordercolor="#666666"
     borderopacity="1"
     objecttolerance="10"
     gridtolerance="10"
     guidetolerance="10"
     inkscape:pageopacity="0"
     inkscape:pageshadow="2"
     inkscape:window-width="960"
     inkscape:window-height="1013"
     id="namedview25"
     showgrid="false"
     inkscape:zoom="0.50355591"
     inkscape:cx="126.55165"
     inkscape:cy="87.633904"
     inkscape:window-x="0"
     inkscape:window-y="0"
     inkscape:window-maximized="0"
     inkscape:current-layer="Group_6" />
  <g
     id="Group_6"
     data-name="Group 6"
     transform="translate(-231.222 -125)">
    <path
       id="Path_80"
       data-name="Path 80"
       d="M1001.142,124.77H760.527a51.15,51.15,0,0,0-49.9,39.9L589.051,703.938a41.34,41.34,0,0,0,38.294,50.382L874.7,766.507a54.615,54.615,0,0,0,56.43-44.828L1000.1,340.412l5.131,1.466,13.2-72.265-5.281-1.32,19.251-106.426a31.493,31.493,0,0,0-31.25-37.1Z"
       transform="translate(-0.099 0.231)"
       fill="#3f3d56" />
    <path
       id="Path_81"
       data-name="Path 81"
       d="M792.2,136.395H764.116a35.349,35.349,0,0,0-34.536,27.813l-116.7,534.868A21.9,21.9,0,0,0,632.849,725.6L879.4,741.76a28.367,28.367,0,0,0,29.773-23.277l99.58-552.838a24.846,24.846,0,0,0-24.452-29.25H957.658a11.726,11.726,0,0,0-11.323,8.677h0a10.352,10.352,0,0,1-10,7.661H809.847A17.7,17.7,0,0,1,792.2,136.395Z"
       transform="translate(-0.099 0.231)"
       fill="#fff" />
    <path
       id="Path_93"
       data-name="Path 93"
       d="M928.494,510.313a2,2,0,0,0,2.036-1.638l54.523-300.917a2.021,2.021,0,0,0-.417-1.632,1.962,1.962,0,0,0-1.5-.729l-248.059-2.93h-.023a1.988,1.988,0,0,0-1.925,1.562L668.853,495.179a2.021,2.021,0,0,0,.356,1.648,1.964,1.964,0,0,0,1.473.785Z"
       fill="#e6e6e6"
       style="fill:#007bfc;fill-opacity:1"
       transform="translate(-0.099 0.231)" />
    <path
       id="Path_94"
       data-name="Path 94"
       d="M713.229,529.535a1,1,0,0,0-.973.773l-2.323,9.956a1,1,0,0,0,.9,1.225l131.23,9.327a1.009,1.009,0,0,0,1.053-.807l2.234-11.519a1,1,0,0,0-.922-1.188L713.29,529.537Z"
       transform="translate(-0.099 0.465)"
       fill="#e6e6e6" />
    <path
       id="Path_95"
       data-name="Path 95"
       d="M872.666,587.808a1,1,0,0,0,1.051-.758l2.844-11.543a1,1,0,0,0-.9-1.237L708.072,562.549a.989.989,0,0,0-1.029.713l-2.955,9.975a1,1,0,0,0,.878,1.28Z"
       transform="translate(-0.099 0.454)"
       fill="#e6e6e6" />
    <path
       id="Path_96"
       data-name="Path 96"
       d="M863.666,624.808a1,1,0,0,0,1.051-.758l2.844-11.543a1,1,0,0,0-.9-1.237L699.072,599.549a.989.989,0,0,0-1.029.713l-2.955,9.975a1,1,0,0,0,.878,1.28Z"
       transform="translate(-0.099 0.454)"
       fill="#e6e6e6" />
    <path
       id="Path_79"
       data-name="Path 79"
       d="M508.877,752.008c0,8.369-76.605,9.26-170.889,15.153-94.2,5.887-170.889-6.784-170.889-15.153s77.047-25.207,170.889-15.153C432.272,746.957,508.877,743.639,508.877,752.008Z"
       transform="translate(64.123 3.512)"
       fill="#e6e6e6" />
    <path
       id="Path_97"
       data-name="Path 97"
       d="M786.481,688.283a.989.989,0,0,0,1.064-.754l6.013-24.051a1,1,0,0,0-.886-1.24l-102.916-8.656a1.018,1.018,0,0,0-1.06.779l-5.129,23.083a1,1,0,0,0,.883,1.213Z"
       transform="translate(-0.099 0.231)"
       fill="#007bfc" />
    <path
       id="Path_111"
       data-name="Path 111"
       d="M315.09,570.537a10.743,10.743,0,0,0,1.582-16.4l4.167-93.018L299.624,463.5l1.233,90.985a10.8,10.8,0,0,0,14.234,16.048Z"
       transform="translate(55.741 19.97)"
       fill="#a0616a" />
    <path
       id="Path_112"
       data-name="Path 112"
       d="M69.534,574.966l12.075,2.123,11.934-45.564-15.821-3.133Z"
       transform="translate(340 173)"
       fill="#a0616a" />
    <path
       id="Path_113"
       data-name="Path 113"
       d="M350.232,727.314h38.531V742.2H365.119a14.887,14.887,0,0,1-14.887-14.887Z"
       transform="translate(661.936 1542.365) rotate(-170.029)"
       fill="#2f2e41" />
    <path
       id="Path_114"
       data-name="Path 114"
       d="M36.392,581.01h12.26l5.832-47.288H36.39Z"
       transform="translate(340 173)"
       fill="#a0616a" />
    <path
       id="Path_115"
       data-name="Path 115"
       d="M318.024,730.536h38.531v14.887H332.911a14.887,14.887,0,0,1-14.887-14.887h0Z"
       transform="translate(730.354 1495.915) rotate(179.997)"
       fill="#2f2e41" />
    <path
       id="Path_116"
       data-name="Path 116"
       d="M371.8,717.09a4.735,4.735,0,0,1-.572-.034l-14.43-1.187a4.881,4.881,0,0,1-4.243-5.659l14.325-70.681-9-47.474a1.627,1.627,0,0,0-3.219.16L341.4,712.842a4.924,4.924,0,0,1-5.21,4.437l-13.595-.506a4.888,4.888,0,0,1-4.536-4.631l1.086-145.768,70.481-8.81,4.924,76.041-.02.081-17.991,79.675A4.886,4.886,0,0,1,371.8,717.09Z"
       transform="translate(55.741 19.97)"
       fill="#2f2e41" />
    <circle
       id="Ellipse_16"
       data-name="Ellipse 16"
       cx="24.561"
       cy="24.561"
       r="24.561"
       transform="translate(373.568 371.694)"
       fill="#a0616a" />
    <path
       id="Path_117"
       data-name="Path 117"
       d="M365.53,577.467a20.111,20.111,0,0,1-10.857-3.106c-11.9-7.436-25.411-4.481-32.407-2.057a4.88,4.88,0,0,1-4.221-.481,4.811,4.811,0,0,1-2.224-3.552L303.1,454.646c-2.132-19.038,9.336-36.937,27.268-42.56h0q1.011-.317,2.055-.6a39.569,39.569,0,0,1,32.972,5.723,40.2,40.2,0,0,1,17.167,29.353l10.711,114.387a4.807,4.807,0,0,1-1.527,4.007C387.99,568.428,377.092,577.466,365.53,577.467Z"
       transform="translate(55.741 19.97)"
       fill="#007bfc" />
    <path
       id="Path_118"
       data-name="Path 118"
       d="M326.789,479.012l-28.7-3.156a5.717,5.717,0,0,1-4.905-7.134l7.306-27.846a15.879,15.879,0,1,1,31.556,3.563l1.085,28.675a5.718,5.718,0,0,1-6.338,5.9Z"
       transform="translate(55.741 19.97)"
       fill="#007bfc" />
    <path
       id="Path_119"
       data-name="Path 119"
       d="M393.156,566.554a10.743,10.743,0,0,0-.406-16.468l-7.073-92.842-20.789,4.68,12.2,90.414a10.8,10.8,0,0,0,16.064,14.216Z"
       transform="translate(55.741 19.97)"
       fill="#a0616a" />
    <path
       id="Path_120"
       data-name="Path 120"
       d="M356.919,473.176a5.711,5.711,0,0,1-1.818-4.4l1.085-28.675a15.878,15.878,0,1,1,31.556-3.563l7.306,27.846a5.717,5.717,0,0,1-4.905,7.134l-28.7,3.156a5.711,5.711,0,0,1-4.52-1.5Z"
       transform="translate(55.741 19.97)"
       fill="#007bfc" />
    <path
       id="Path_121"
       data-name="Path 121"
       d="M340.927,401.771a5.683,5.683,0,0,1-1.3-.151l-.125-.03c-21.594-3.3-26.367-15.812-27.414-21.035-1.084-5.408.15-10.628,2.94-12.656-1.521-4.8-1.277-9.061.727-12.662,3.5-6.28,11.081-8.4,12.1-8.664,6.058-4.469,13.306-1.486,14.625-.881,11.719-4.335,16.2-.727,17.008.079,5.238.941,8.431,2.964,9.491,6.016,1.991,5.731-4.305,12.86-4.574,13.161l-.14.156-9.38.447a6.358,6.358,0,0,0-5.981,7.317h0a29.611,29.611,0,0,0,.96,3.355c1.6,5.006,2.8,9.283,1.254,10.909a2.51,2.51,0,0,1-2.625.455c-1.467-.392-2.462-.31-2.958.245-.77.859-.535,3.035.662,6.125a5.739,5.739,0,0,1-1.046,5.847,5.568,5.568,0,0,1-4.226,1.967Z"
       transform="translate(55.741 19.97)"
       fill="#2f2e41" />
    <g
       fill="#ffffff"
       id="g14"
       transform="matrix(0.45389083,0,0,0.44811642,743.65039,302.37805)">
      <path
         d="M 11.3,157.9 C 5.4,155 2.4,151 0.9,144.4 -0.2,139.5 -0.1,137.5 1.3,130.5 10.6,85.4 72.5,20 122,2.9 c 8.5,-2.9 22.9,-3.3 27.7,-0.7 11,6.1 12.6,21.6 4.4,42.3 -3.9,9.6 -7.1,15.6 -16.3,29.7 l -7,10.8 -0.8,13.5 c -0.7,10.7 -1.3,14.6 -3,18.1 -5,10.1 -15.6,13.3 -32.7,9.8 -2.8,-0.5 -4.1,0 -10,4.4 -19.1,14.1 -37.1,23.7 -50.9,27.2 -10.1,2.6 -16.8,2.6 -22.1,-0.1 z M 33.6,145.5 C 46.9,141 64.2,131.2 78.2,120.3 L 83.9,115.8 83.3,91.9 82.7,68 h 5.6 5.7 v 17.3 c 0,9.4 0.4,17.8 0.9,18.5 0.5,0.9 3.3,-1.3 9.6,-8 C 115.2,84.6 119,78.9 119,74 c 0,-4.3 1.4,-6 5.1,-6 3.5,0 7.1,-4.3 13.2,-15.8 6,-11.4 9.8,-22.9 10,-30.4 0.1,-5.2 -0.2,-6.3 -2.2,-7.9 -4.9,-4 -16.3,-1.6 -33.6,7.1 C 86.9,33.3 61.6,54.9 40,82.1 c -16.6,20.8 -28,44.2 -28,57.3 0,8.6 7.8,10.7 21.6,6.1 z m 77.7,-28.9 c 5,-2.1 7,-5 7.5,-11.1 0.3,-3.4 0.1,-5.5 -0.6,-5.5 -1.2,0 -16.2,15.8 -16.2,17.1 0,1.4 5.6,1.1 9.3,-0.5 z"
         id="path2" />
      <path
         d="m 150.5,143.8 c -0.3,-0.7 -0.4,-12.8 -0.3,-26.8 l 0.3,-25.5 4,0.2 c 2.2,0.2 4.5,1 5.2,1.9 1,1.4 1.5,1.3 5.2,-0.5 12.3,-6.3 25.1,2.4 25.1,16.9 0,7.5 -3,13.3 -8.6,16.6 -3.7,2.2 -5.2,2.5 -10.1,2.1 -3.2,-0.3 -6.7,-0.6 -7.8,-0.8 -1.8,-0.4 -2,0.3 -2.5,8.1 l -0.5,8.5 -4.8,0.3 c -3.2,0.2 -4.9,-0.1 -5.2,-1 z M 174,119.5 c 6.6,-3.4 7.6,-12.1 1.9,-16.9 -4.1,-3.5 -8.3,-3.4 -12,0.3 -4.9,5 -3.5,14.7 2.5,17.1 3.1,1.3 4.4,1.2 7.6,-0.5 z"
         id="path4" />
      <path
         d="m 227.2,124.8 c -1.1,-2.9 -6.8,-16.5 -12.6,-30.3 -5.7,-13.7 -10.2,-25.3 -10,-25.7 0.3,-0.4 2.9,-0.8 5.9,-0.8 h 5.3 l 7.3,18.1 c 6.1,15.5 7.4,17.9 8.5,16.5 0.6,-0.9 3.8,-8.5 6.9,-16.9 3.2,-8.4 6.2,-15.8 6.8,-16.5 0.7,-0.8 2.8,-1.2 6.1,-1 4.3,0.3 5.1,0.6 4.8,2.2 -0.4,2 -16.1,39.8 -21.5,51.9 -2,4.2 -4,7.7 -4.5,7.7 -0.5,0 -1.9,-2.4 -3,-5.2 z"
         id="path6" />
      <path
         d="m 276.5,129.1 c -14.7,-3.6 -20,-19.6 -10.2,-30.8 3.9,-4.5 8.2,-6.3 14.7,-6.3 5.9,0 9.7,1.7 13.2,5.8 2.7,3.3 5.4,9 4.5,9.8 -0.3,0.3 -5.4,2.3 -11.3,4.5 -6,2.1 -11.3,4.4 -11.8,4.9 -2,2 1.7,3.1 8.1,2.5 6.1,-0.5 6.3,-0.5 7.7,2.3 0.8,1.5 1.1,3.3 0.8,3.9 -0.6,1 -10.7,4.5 -12.1,4.2 -0.3,-0.1 -1.9,-0.4 -3.6,-0.8 z m 4.8,-22.3 c 5,-2.2 5.9,-4.1 2.8,-5.8 -5.1,-2.7 -12.1,1.1 -12.1,6.5 0,3 0.6,2.9 9.3,-0.7 z"
         id="path8" />
      <path
         d="m 315.7,128.3 c -0.4,-0.3 -0.7,-8.4 -0.7,-18 V 93 h 3.5 c 1.9,0 4.5,0.5 5.8,1.1 1.9,0.9 3.1,0.7 5.5,-0.5 1.7,-0.9 5.4,-1.6 8.2,-1.6 4.3,0 5.6,0.5 8,2.8 3.5,3.5 4.2,7.9 3.8,22.7 l -0.3,11 h -5 -5 l -0.3,-12.4 c -0.1,-7.1 -0.7,-13 -1.4,-13.8 -1.5,-1.8 -6.3,-1.6 -8.3,0.4 -2.6,2.6 -3.4,5.5 -4.1,16.2 l -0.7,10.1 h -4.2 c -2.3,0 -4.5,-0.3 -4.8,-0.7 z"
         id="path10" />
      <path
         d="m 372.7,128.3 c -0.4,-0.3 -0.7,-5.6 -0.7,-11.7 0,-13.3 -0.5,-15.2 -3.6,-16 -3.3,-0.9 -3.4,-6.1 -0.1,-7.2 3.2,-1 3.7,-2.2 3.7,-9 0,-6.8 0.5,-7.4 6.5,-7.4 h 3.4 l 0.3,7.8 0.3,7.7 3.5,0.3 c 8.7,0.9 7.9,8.2 -0.9,8.2 H 382 v 14 14 h -4.3 c -2.4,0 -4.7,-0.3 -5,-0.7 z"
         id="path12" />
    </g>
  </g>
</svg>
