<?xml version="1.0" encoding="UTF-8" standalone="no"?>
<svg
   xmlns:dc="http://purl.org/dc/elements/1.1/"
   xmlns:cc="http://creativecommons.org/ns#"
   xmlns:rdf="http://www.w3.org/1999/02/22-rdf-syntax-ns#"
   xmlns:svg="http://www.w3.org/2000/svg"
   xmlns="http://www.w3.org/2000/svg"
   xmlns:sodipodi="http://sodipodi.sourceforge.net/DTD/sodipodi-0.dtd"
   xmlns:inkscape="http://www.inkscape.org/namespaces/inkscape"
   width="100"
   height="100"
   fill="currentColor"
   class="bi bi-brush-fill"
   viewBox="0 0 100 100"
   version="1.1"
   id="svg4"
   sodipodi:docname="bolt.svg"
   inkscape:version="1.0.2 (e86c870879, 2021-01-15)">
  <metadata
     id="metadata10">
    <rdf:RDF>
      <cc:Work
         rdf:about="">
        <dc:format>image/svg+xml</dc:format>
        <dc:type
           rdf:resource="http://purl.org/dc/dcmitype/StillImage" />
        <dc:title />
      </cc:Work>
    </rdf:RDF>
  </metadata>
  <defs
     id="defs8" />
  <sodipodi:namedview
     pagecolor="#ffffff"
     bordercolor="#666666"
     borderopacity="1"
     objecttolerance="10"
     gridtolerance="10"
     guidetolerance="10"
     inkscape:pageopacity="0"
     inkscape:pageshadow="2"
     inkscape:window-width="1920"
     inkscape:window-height="1015"
     id="namedview6"
     showgrid="false"
     inkscape:zoom="3.5918168"
     inkscape:cx="108.38886"
     inkscape:cy="59.888033"
     inkscape:window-x="0"
     inkscape:window-y="32"
     inkscape:window-maximized="1"
     inkscape:current-layer="svg4"
     inkscape:document-rotation="0" />
  <g
     style="fill:currentColor"
     id="g19"
     transform="matrix(6.2405721,0,0,6.1023607,-0.11134959,1.2567137)">
    <path
       d="m 11.251,0.068 a 0.5,0.5 0 0 1 0.227,0.58 L 9.677,6.5 H 13 a 0.5,0.5 0 0 1 0.364,0.843 l -8,8.5 A 0.5,0.5 0 0 1 4.522,15.353 L 6.323,9.5 H 3 A 0.5,0.5 0 0 1 2.636,8.657 l 8,-8.5 a 0.5,0.5 0 0 1 0.615,-0.09 z M 4.157,8.5 H 7 A 0.5,0.5 0 0 1 7.478,9.147 L 6.11,13.59 11.842,7.5 H 9 A 0.5,0.5 0 0 1 8.522,6.853 L 9.89,2.41 Z"
       id="path8" />
  </g>
</svg>
