<?xml version="1.0" encoding="UTF-8" standalone="no"?>
<svg
   xmlns:dc="http://purl.org/dc/elements/1.1/"
   xmlns:cc="http://creativecommons.org/ns#"
   xmlns:rdf="http://www.w3.org/1999/02/22-rdf-syntax-ns#"
   xmlns:svg="http://www.w3.org/2000/svg"
   xmlns="http://www.w3.org/2000/svg"
   xmlns:sodipodi="http://sodipodi.sourceforge.net/DTD/sodipodi-0.dtd"
   xmlns:inkscape="http://www.inkscape.org/namespaces/inkscape"
   width="100"
   height="100"
   fill="currentColor"
   class="bi bi-brush-fill"
   viewBox="0 0 100 100"
   version="1.1"
   id="svg4"
   sodipodi:docname="brush-fill.svg"
   inkscape:version="1.0.2 (e86c870879, 2021-01-15)">
  <metadata
     id="metadata10">
    <rdf:RDF>
      <cc:Work
         rdf:about="">
        <dc:format>image/svg+xml</dc:format>
        <dc:type
           rdf:resource="http://purl.org/dc/dcmitype/StillImage" />
        <dc:title></dc:title>
      </cc:Work>
    </rdf:RDF>
  </metadata>
  <defs
     id="defs8" />
  <sodipodi:namedview
     pagecolor="#ffffff"
     bordercolor="#666666"
     borderopacity="1"
     objecttolerance="10"
     gridtolerance="10"
     guidetolerance="10"
     inkscape:pageopacity="0"
     inkscape:pageshadow="2"
     inkscape:window-width="1920"
     inkscape:window-height="1015"
     id="namedview6"
     showgrid="false"
     inkscape:zoom="3.5918168"
     inkscape:cx="108.38886"
     inkscape:cy="59.888033"
     inkscape:window-x="0"
     inkscape:window-y="32"
     inkscape:window-maximized="1"
     inkscape:current-layer="svg4" />
  <g
     style="fill:currentColor"
     id="g23"
     transform="matrix(6.3542591,0,0,6.3433084,-1.646937,0.0770296)">
    <path
       d="m 15.825,0.12 a 0.5,0.5 0 0 1 0.132,0.584 c -1.53,3.43 -4.743,8.17 -7.095,10.64 a 6.067,6.067 0 0 1 -2.373,1.534 c -0.018,0.227 -0.06,0.538 -0.16,0.868 -0.201,0.659 -0.667,1.479 -1.708,1.74 A 8.118,8.118 0 0 1 1.543,15.618 3.659,3.659 0 0 1 0.981,15.483 1.382,1.382 0 0 1 0.515,15.236 0.714,0.714 0 0 1 0.311,14.948 0.622,0.622 0 0 1 0.315,14.505 C 0.41,14.26 0.631,14.125 0.776,14.053 1.17,13.856 1.401,13.6 1.643,13.227 1.738,13.083 1.827,12.93 1.93,12.755 l 0.117,-0.198 c 0.151,-0.255 0.326,-0.54 0.546,-0.848 0.528,-0.739 1.201,-0.925 1.746,-0.896 0.126,0.007 0.243,0.025 0.348,0.048 0.062,-0.172 0.142,-0.38 0.238,-0.608 C 5.186,9.634 5.583,8.834 6.112,8.184 8.288,5.514 12.292,1.978 15.229,0.08 a 0.5,0.5 0 0 1 0.596,0.04 z M 4.705,11.912 a 1.23,1.23 0 0 0 -0.419,-0.1 c -0.246,-0.013 -0.573,0.05 -0.879,0.479 -0.197,0.275 -0.355,0.532 -0.5,0.777 l -0.105,0.177 c -0.106,0.181 -0.213,0.362 -0.32,0.528 a 3.39,3.39 0 0 1 -0.76,0.861 c 0.69,0.112 1.736,0.111 2.657,-0.12 0.559,-0.139 0.843,-0.569 0.993,-1.06 a 3.122,3.122 0 0 0 0.126,-0.75 z m 1.44,0.026 c 0.12,-0.04 0.277,-0.1 0.458,-0.183 a 5.068,5.068 0 0 0 1.535,-1.1 C 10.038,8.659 12.55,5.085 14.19,2.024 11.6,3.951 8.624,6.684 6.888,8.816 6.446,9.359 6.093,10.059 5.846,10.642 5.725,10.93 5.632,11.182 5.571,11.362 v 10e-4 l 0.575,0.575 z m -4.973,3.04 0.007,-0.005 a 0.031,0.031 0 0 1 -0.007,0.004 z m 3.582,-3.043 0.002,10e-4 H 4.754 Z"
       id="path12" />
  </g>
</svg>
