<?xml version="1.0" encoding="UTF-8" standalone="no"?>
<svg
   xmlns:dc="http://purl.org/dc/elements/1.1/"
   xmlns:cc="http://creativecommons.org/ns#"
   xmlns:rdf="http://www.w3.org/1999/02/22-rdf-syntax-ns#"
   xmlns:svg="http://www.w3.org/2000/svg"
   xmlns="http://www.w3.org/2000/svg"
   xmlns:xlink="http://www.w3.org/1999/xlink"
   xmlns:sodipodi="http://sodipodi.sourceforge.net/DTD/sodipodi-0.dtd"
   xmlns:inkscape="http://www.inkscape.org/namespaces/inkscape"
   width="1920pt"
   height="1080pt"
   style="isolation:isolate"
   version="1.1"
   viewBox="0 0 1920 1080"
   id="svg37"
   sodipodi:docname="core.svg"
   inkscape:version="1.0.2 (e86c870879, 2021-01-15)">
  <metadata
     id="metadata41">
    <rdf:RDF>
      <cc:Work
         rdf:about="">
        <dc:format>image/svg+xml</dc:format>
        <dc:type
           rdf:resource="http://purl.org/dc/dcmitype/StillImage" />
        <dc:title />
      </cc:Work>
    </rdf:RDF>
  </metadata>
  <sodipodi:namedview
     pagecolor="#ffffff"
     bordercolor="#666666"
     borderopacity="1"
     objecttolerance="10"
     gridtolerance="10"
     guidetolerance="10"
     inkscape:pageopacity="0"
     inkscape:pageshadow="2"
     inkscape:window-width="1920"
     inkscape:window-height="1015"
     id="namedview39"
     showgrid="false"
     inkscape:zoom="0.51205426"
     inkscape:cx="1365.07"
     inkscape:cy="627.13691"
     inkscape:window-x="0"
     inkscape:window-y="32"
     inkscape:window-maximized="1"
     inkscape:current-layer="svg37"
     inkscape:document-rotation="0" />
  <defs
     id="defs19">
    <linearGradient
       id="linearGradient876">
      <stop
         stop-color="#716ffb"
         offset="0"
         id="stop872"
         style="stop-color:#007bfc;stop-opacity:1" />
      <stop
         stop-color="#4648fb"
         offset="1"
         id="stop874" />
    </linearGradient>
    <linearGradient
       id="linearGradient870">
      <stop
         stop-color="#716ffb"
         offset="0"
         id="stop866"
         style="stop-color:#007bfc;stop-opacity:1" />
      <stop
         stop-color="#4648fb"
         offset="1"
         id="stop868" />
    </linearGradient>
    <linearGradient
       id="a">
      <stop
         stop-color="#716ffb"
         offset="0"
         id="stop2"
         style="stop-color:#007bfc;stop-opacity:1" />
      <stop
         stop-color="#4648fb"
         offset="1"
         id="stop4" />
    </linearGradient>
    <linearGradient
       id="d"
       x1="1714.5"
       x2="1714.5"
       y1="192.31"
       y2="1195"
       gradientTransform="matrix(1 0 0 -1 0 1080)"
       gradientUnits="userSpaceOnUse"
       xlink:href="#linearGradient876" />
    <linearGradient
       id="c"
       x1="250.24"
       x2="250.24"
       y1="-128"
       y2="381.04"
       gradientTransform="matrix(1,0,0,-1,0,1080)"
       gradientUnits="userSpaceOnUse"
       xlink:href="#linearGradient870" />
    <linearGradient
       id="b"
       x1="347.19"
       x2="347.19"
       y1="980"
       y2="1270.8"
       gradientTransform="matrix(1 0 0 -1 156.15 1080)"
       gradientUnits="userSpaceOnUse"
       xlink:href="#a" />
    <filter
       id="g"
       x="-.22152"
       y="-.16222"
       width="1.443"
       height="1.3244"
       color-interpolation-filters="sRGB">
      <feGaussianBlur
         stdDeviation="60"
         id="feGaussianBlur10" />
    </filter>
    <filter
       id="f"
       x="-.25692"
       y="-.37724"
       width="1.5138"
       height="1.7545"
       color-interpolation-filters="sRGB">
      <feGaussianBlur
         stdDeviation="60"
         id="feGaussianBlur13" />
    </filter>
    <filter
       id="e"
       x="-.51635"
       y="-1.44"
       width="2.0327"
       height="3.88"
       color-interpolation-filters="sRGB">
      <feGaussianBlur
         stdDeviation="60"
         id="feGaussianBlur16" />
    </filter>
  </defs>
  <rect
     width="1920"
     height="1080"
     fill="#e7e7fd"
     id="rect21"
     style="fill:#fafafa;fill-opacity:1" />
  <path
     d="m 1827.1,887.69 c -30.82,-0.1243 -63.184,-4.0211 -97.09,-11.691 -155,-35.063 -289.53,-154.16 -275,-295 14.53,-140.84 200,-151 275,-239 75.416,-88.488 52.955,-194.36 0,-232 -101.1481,-35.949595 -470.1865,-9.01672 -436,-92 3.9125,-5.7249 9.5177,-11.726 16.796,-18 h 609.2 v 875.33 c -29.233,8.3671 -60.201,12.489 -92.911,12.357 z"
     fill="url(#d)"
     id="path25"
     sodipodi:nodetypes="csssccccccc" />
  <path
     d="m0 1080v-363.52c38.193-34.108 110.6-19.904 128 39.517 21.079 72 37.923 108 108 120 83.742 14.34 156-80 232-72s96 68 92 168c-1.9006 47.516-18.708 83.513-50.411 108z"
     filter="url(#f)"
     opacity=".25"
     id="path27" />
  <path
     d="m0 1080v-363.52c38.193-34.108 110.6-19.904 128 39.517 21.079 72 37.923 108 108 120 83.742 14.34 156-80 232-72s96 68 92 168c-1.9006 47.516-18.708 83.513-50.411 108z"
     fill="url(#c)"
     id="path29" />
</svg>
