<?xml version="1.0" encoding="UTF-8" standalone="no"?>
<svg
   xmlns:dc="http://purl.org/dc/elements/1.1/"
   xmlns:cc="http://creativecommons.org/ns#"
   xmlns:rdf="http://www.w3.org/1999/02/22-rdf-syntax-ns#"
   xmlns:svg="http://www.w3.org/2000/svg"
   xmlns="http://www.w3.org/2000/svg"
   xmlns:xlink="http://www.w3.org/1999/xlink"
   xmlns:sodipodi="http://sodipodi.sourceforge.net/DTD/sodipodi-0.dtd"
   xmlns:inkscape="http://www.inkscape.org/namespaces/inkscape"
   id="cbb92aef-a4c8-4910-9d60-405154a20c92"
   data-name="Layer 1"
   width="1116.21"
   height="857.08"
   viewBox="0 0 1116.21 857.08"
   version="1.1"
   sodipodi:docname="ecommerce.svg"
   inkscape:version="1.0.2 (e86c870879, 2021-01-15)">
  <metadata
     id="metadata244">
    <rdf:RDF>
      <cc:Work
         rdf:about="">
        <dc:format>image/svg+xml</dc:format>
        <dc:type
           rdf:resource="http://purl.org/dc/dcmitype/StillImage" />
      </cc:Work>
    </rdf:RDF>
  </metadata>
  <sodipodi:namedview
     pagecolor="#ffffff"
     bordercolor="#666666"
     borderopacity="1"
     objecttolerance="10"
     gridtolerance="10"
     guidetolerance="10"
     inkscape:pageopacity="0"
     inkscape:pageshadow="2"
     inkscape:window-width="1920"
     inkscape:window-height="995"
     id="namedview242"
     showgrid="false"
     inkscape:zoom="0.66975886"
     inkscape:cx="458.23833"
     inkscape:cy="572.72579"
     inkscape:window-x="0"
     inkscape:window-y="28"
     inkscape:window-maximized="1"
     inkscape:current-layer="cbb92aef-a4c8-4910-9d60-405154a20c92"
     inkscape:document-rotation="0" />
  <defs
     id="defs10">
    <linearGradient
       id="6af09e6e-7617-4e7d-96c6-87d8d61cc5fb"
       x1="654.32"
       y1="613.24"
       x2="654.32"
       y2="117"
       gradientUnits="userSpaceOnUse">
      <stop
         offset="0"
         stop-color="gray"
         stop-opacity="0.25"
         id="stop2" />
      <stop
         offset="0.54"
         stop-color="gray"
         stop-opacity="0.12"
         id="stop4" />
      <stop
         offset="1"
         stop-color="gray"
         stop-opacity="0.1"
         id="stop6" />
    </linearGradient>
    <linearGradient
       id="f366e0cb-9767-4f71-a21d-568f9afb6f3a"
       x1="475.65"
       y1="861.71"
       x2="475.65"
       y2="223.28"
       xlink:href="#6af09e6e-7617-4e7d-96c6-87d8d61cc5fb" />
  </defs>
  <title
     id="title12">add to cart</title>
  <g
     id="1cf578eb-5ffb-4cd7-95b8-45aaaddab7e0"
     data-name="browser">
    <path
       d="M1130,606.13V117H178.65V578.07c12.15,10.14,26.76,18.67,42,25.68q11.26,5.19,23,9.49h875Z"
       transform="translate(-41.9 -21.46)"
       fill="url(#6af09e6e-7617-4e7d-96c6-87d8d61cc5fb)"
       id="path100" />
    <path
       d="M1128.16,606.33V131H180.73v448.1c12.1,9.86,26.65,18.15,41.8,25q11.22,5,22.92,9.22h871.38Z"
       transform="translate(-41.9 -21.46)"
       fill="#fff"
       id="path102" />
    <rect
       x="138.84"
       y="96.93"
       width="947.42"
       height="25.14"
       fill="#5a5773"
       id="rect104" />
  </g>
  <g
     id="6703b009-63cb-4af0-a0d7-9948e224c180"
     data-name="buttons">
    <circle
       cx="157.76"
       cy="109.5"
       r="6.5"
       fill="#fff"
       id="circle107" />
    <circle
       cx="175.26"
       cy="109.5"
       r="6.5"
       fill="#fff"
       id="circle109" />
    <circle
       cx="192.76"
       cy="109.5"
       r="6.5"
       fill="#fff"
       id="circle111" />
  </g>
  <g
     id="8c4e1fb4-b9ff-4530-b767-610e84618ea6"
     data-name="boxes">
    <rect
       x="380.95"
       y="177.32"
       width="156.5"
       height="98.34"
       fill="#007bfc"
       id="rect114" />
    <rect
       x="164.26"
       y="177.32"
       width="156.5"
       height="98.34"
       fill="#5a5773"
       opacity="0.2"
       id="rect116" />
    <rect
       x="597.64"
       y="177.32"
       width="156.5"
       height="98.34"
       fill="#5a5773"
       opacity="0.2"
       id="rect118" />
    <rect
       x="164.26"
       y="317.91"
       width="156.5"
       height="98.34"
       fill="#5a5773"
       opacity="0.2"
       id="rect120" />
    <rect
       x="380.95"
       y="317.91"
       width="156.5"
       height="98.34"
       fill="#5a5773"
       opacity="0.2"
       id="rect122" />
    <rect
       x="597.64"
       y="317.91"
       width="156.5"
       height="98.34"
       fill="#5a5773"
       opacity="0.2"
       id="rect124" />
    <rect
       x="164.26"
       y="458.49"
       width="156.5"
       height="98.34"
       fill="#5a5773"
       opacity="0.2"
       id="rect126" />
    <rect
       x="380.95"
       y="458.49"
       width="156.5"
       height="98.34"
       fill="#5a5773"
       opacity="0.2"
       id="rect128" />
    <rect
       x="597.64"
       y="458.49"
       width="156.5"
       height="98.34"
       fill="#5a5773"
       opacity="0.2"
       id="rect130" />
  </g>
  <g
     id="2796dd85-6618-42ad-b8a0-d6b4cc80ab2d"
     data-name="woman">
    <path
       d="M551.37,445.2S523.26,393.82,528,385.46,536.23,365,536.23,365s10.38-7.1,10.38-10,8.22-9.61,12.55-12.53,2.16-16.71,0-18.38-5.59-7.52-5.59-7.52,3-8.35,0-10.86.44-5,0-7.52,0-11.69,0-11.69c-3.51-4.88-7.4-7.16-11.06-8l-.32-1.32-1.85-7.79s9-17.25-5.6-26.28a24.4,24.4,0,0,0-3.23-1.7s0-.42-.08-1.13c-.2-2.58-.81-9-2.12-13.21-.76-2.42-1.75-4.05-3-3.68a2,2,0,0,0-.82.47,9.12,9.12,0,0,0-1.55,1.83s0,0,0,0a.41.41,0,0,1-.07.11,0,0,0,0,1,0,0,31.36,31.36,0,0,0-3.44,9.55,55.16,55.16,0,0,0-1,6,.08.08,0,0,0,0,0,33,33,0,0,0-1.67,3.71c-1.77,4.59-3.84,12.54-.07,18.42,3.2,5,7.51,11.87,10.64,16.87l.1.16.19.31-.33.21,0,.77.29,4.21L531,322.39a15.45,15.45,0,0,0-2.22-.47,20.17,20.17,0,0,0-3.23-.21c-2.11-8.29-7.9-16-9-24.66a22.87,22.87,0,0,1-.17-2.61c.09-5.45,1.45-10.92,1.34-16.36,0-1,0-2-.1-3v0c0-.27-.05-.55-.08-.83a24.59,24.59,0,0,0-13.37-18.63c-2.51-1.25-5.23-2.08-7.67-3.45-5.64-3.16-9.25-8.86-14.37-12.77-3.81-2.91-9.5-4.47-13.75-3a63.49,63.49,0,0,0-6.69,1.38h0a60.35,60.35,0,0,0-15.31,6.36c-.65.39-1.3.79-1.92,1.25a8.46,8.46,0,0,0-3.09,3.61,9.46,9.46,0,0,0-.48,3.89c0,.95,0,1.92.06,2.87-.28,16-17.52,28.38-18.94,44,0,.37-.06.74-.08,1.11,0,.11,0,.22,0,.34,0,.45,0,.91,0,1.37v0c0,.21,0,.41,0,.62s0,.42,0,.63c.25,6.85,3.81,13.23,4.46,20.05.06.61.09,1.21.1,1.82a30.24,30.24,0,0,1-1.77,9.18,26.87,26.87,0,0,0-6.21,2.52c-5.24,3.37-14.7,9.19-18.15,20.32a29.76,29.76,0,0,0-1.31,8.92,186.26,186.26,0,0,1-2.92,31.85,59.53,59.53,0,0,1-1.84,7.83,1.84,1.84,0,0,0-.06.77l-2.08,27-.37,4.75-.52,6.76s.15.41.37,1.1a31.8,31.8,0,0,1,.82,3.12,16.78,16.78,0,0,1,.27,7,4.82,4.82,0,0,1-1.46,2.57,1.08,1.08,0,0,0-.17.19c-.59.83-1.12,3.3-1.58,6.88-.18,1.4-.35,3-.52,4.66-1,10.65-1.62,26.59-2,39.77-.36,13-.49,23.27-.49,23.27a26.54,26.54,0,0,0,5.37,2.66c-.14.35-.29.71-.43,1.09a52.53,52.53,0,0,0-3.26,13.74c-.84,9.83,1.91,20.75,15.62,26.37a22.06,22.06,0,0,0,2.69.92c3,.8,5.21.58,6.84-.42,0,.59.07,1.16.1,1.73.14,2.44.26,4.67.32,6.54.43,11.7,3.33,32.16,3.33,32.16s1,8.36.13,10.86,0,12.53,0,12.53,3,5,0,7.52-3.89,15-3,16.71a.56.56,0,0,1,.05.19c.66,4.15-3.07,65.81-3.07,65.81s-3.53,9.44-6.34,19.24c-2.74,9.54-4.8,19.42-2.26,21.27,1.26.92,4.19,1.61,7.91,2.14,0,.41-.06.82-.1,1.24-.36,4.41-.93,9.16-1.75,10.36-1.19,1.7-2.44,14.88-3.05,22l-.06.79a73.7,73.7,0,0,0-3.22,9.34s-9.57,24-6.33,30.23a5.11,5.11,0,0,0,1.19,1.47h0a2.7,2.7,0,0,0,.31.28c4.61,3.69,16.16,4.46,20.35,4.63l-.16,5.94v.22h5.45v-.15c0-.75.12-4.19.3-8.79,0-.82.06-1.68.1-2.56,0-.69.07-1.39.1-2.11A37,37,0,0,0,426,834.76a58.58,58.58,0,0,1,2.1-15.48,43,43,0,0,1,2.77-7.55s1.7-9-.67-15.37a11.1,11.1,0,0,0-2-3.46c0-.21,0-.42,0-.64s0-.48,0-.73,0-.41,0-.63a57.69,57.69,0,0,1,1.28-12.82,1.42,1.42,0,0,1,0-.2c.08-.35.17-.68.26-1l.06-.22,1.77.06c5.43.15,9.42.15,9.42.15s4.33-22.14,3.9-31.74c0-.42,0-.86,0-1.3-.15-9.54,2.62-22.51,2.62-22.51L451,687.47s-1.73-5.86,0-10c1.07-2.58,3.28-7.37,4.82-10.67.72-1.53,1.29-2.73,1.53-3.25l.14-.28a6.47,6.47,0,0,1-1.54-.77h0c-1.41-.94-2.67-2.78,1.55-5.49,6.49-4.18,4.33-14.62,4.33-14.62s-1.91-3.76.34-7.1,0-15.87,0-15.87a52.47,52.47,0,0,0,4.44-10.45c1.61-5,5.68-29.45,7.6-41.24.63-3.87,1-6.37,1-6.37l.06.61.06.66h0l.54,5.57.07.74,1,10.53s2,27.68.75,38.53c0,.07,0,.14,0,.2a12.82,12.82,0,0,1-.73,3.29c-2.3,5.2-1.88,25.86-1.76,30.43,0,.37,0,.67,0,.92s-1.63,4.08-1.22,7.06h0a4.53,4.53,0,0,0,.79,2.1,5.32,5.32,0,0,1,.77,3.25v.1a11.81,11.81,0,0,1-.12,1.44,27.46,27.46,0,0,1-1.52,5.66s-2.32,6.1-1.44,9.29c0,0,0,0,0,0a2.94,2.94,0,0,0,.57,1.13,2.67,2.67,0,0,1,.33,1.2.43.43,0,0,0,0,.11c.81,6.73-1.28,36.44-2.52,52.7-.5,6.42-.86,10.74-.86,10.74l-3.43,35.5.34.24c.39.28,1.12.76,2.1,1.34,0,0,0,0,0,.08l-.15,1.07c-.49,3.42-1.15,7.4-1.87,10.44-.06.23-.11.45-.17.66a9.57,9.57,0,0,0-3.67,1.47c-7.28,12.93-4.06,23.18,0,26.16,1.15.84,1.93,3.19,2.45,6.11l1,12.89c0,.52,0,1,0,1.48a3.84,3.84,0,0,0,.19,1.18l.31,3.91.42,5.44h3.32V849h.18c5.24.18,13.69.4,17.37.11h.1c.39,0,.72-.07,1-.11a2.51,2.51,0,0,0,.58-.16c1.95-.94,6.81-14.72,2.43-17.85s-5.35-12-5.35-12c-.38-1.16-.76-2.26-1.15-3.31,0-.23,0-.45,0-.68-.12-4.29-.07-8.94.52-11.46.66-2.77,1-8.59,1.14-13.69,0-.39,0-.77,0-1.15v-.12a17.07,17.07,0,0,0,2.23-.73l.16-.07a15.71,15.71,0,0,0,3.73-2.21L506,731.33l1.29-6.31,7.35-35.89s-2.59-12.53,0-14.61c.95-.76,1.21-4,1.15-7.75-.1-6.56-1.15-14.81-1.15-14.81s3.46-5.43,5.2-8.77,0-12.11,0-12.11L523.25,611s3.9-23.81,13.41-43.86c7-14.75,2.54-54.58-2-75.78-.12-.55-.24-1.09-.36-1.61l0-.08c2.14-1.06,4.76-2.34,7.56-3.68l1.06-.5c3.55-1.67,7.31-3.39,10.68-4.82l.22-.09a74.58,74.58,0,0,1,7.43-2.78,12.47,12.47,0,0,1,2.28-.47C569.54,476.94,551.37,445.2,551.37,445.2ZM416.06,513.15l1.8,0c-.21.39-.41.79-.61,1.19-.12.24-.24.47-.35.71-.66,1.37-1.27,2.77-1.77,4.14.2-1.48.45-3.09.73-4.81C415.93,514,416,513.55,416.06,513.15Zm-4.86,26.07a.74.74,0,0,0,0-.14l-.15-.47c-.11-.32-.21-.64-.31-1q.93-.28,1.89-.63l.13,0c0,.11,0,.22,0,.33-.05.47-.11.94-.17,1.4h0a1,1,0,0,1,0,.18c0,.38-.09.74-.13,1.1-.09.72-.18,1.42-.26,2.09-.19-.63-.38-1.25-.58-1.86C411.42,539.89,411.31,539.55,411.2,539.22Z"
       transform="translate(-41.9 -21.46)"
       fill="url(#f366e0cb-9767-4f71-a21d-568f9afb6f3a)"
       id="path133" />
    <path
       d="M541,284.92l-10.8,3.82-3.92-6.5c-3-5-7.16-11.84-10.23-16.81-5.42-8.74,1.67-22.06,1.67-22.06S519,230,523.56,225.88s5.83,17.49,5.83,17.49c18.31,8.32,8.5,27.89,8.5,27.89l1.78,7.76Z"
       transform="translate(-41.9 -21.46)"
       fill="#efb7b9"
       id="path135" />
    <path
       d="M541,284.92l-10.8,3.82-3.92-6.5,0-.57s6.19-4.25,13.41-2.65Z"
       transform="translate(-41.9 -21.46)"
       opacity="0.1"
       id="path137" />
    <path
       d="M523.56,328.72l5.41-4.58-2.71-41.22s14-9.58,24.36,5.41c0,0-.42,9.16,0,11.66s-2.91,5,0,7.49,0,10.83,0,10.83,3.29,5.83,5.37,7.49,4.17,15.41,0,18.32S544,353.7,544,356.61s-10,10-10,10L525.22,355Z"
       transform="translate(-41.9 -21.46)"
       fill="#ff6484"
       id="path139" />
    <path
       d="M406.56,578.94c-20.18-8.56-15.7-29.47-11.9-40a54.46,54.46,0,0,1,2.67-6.24l11.32-6.87s2.31,5.89,4.78,13.79C419.16,558,425.75,587.09,406.56,578.94Z"
       transform="translate(-41.9 -21.46)"
       fill="#efb7b9"
       id="path141" />
    <path
       d="M434.3,769.73a34,34,0,0,0-3,8.42A60.81,60.81,0,0,0,430,792.48c.08,3.33.36,5.51.36,5.51l-22.48,15.46s.13-1.81.35-4.47c.58-7.08,1.79-20.22,2.93-21.92.79-1.18,1.34-5.92,1.69-10.32s.49-8.26.49-8.26S440.39,758.34,434.3,769.73Z"
       transform="translate(-41.9 -21.46)"
       fill="#efb7b9"
       id="path143" />
    <path
       d="M487.39,780.82s0,4.3-.16,9.3-.46,10.9-1.09,13.65c-.58,2.52-.62,7.15-.51,11.42.15,5,.51,9.5.51,9.5s-22.95-21.7-20.61-23.42c.63-.46,1.25-2.31,1.82-4.77.7-3,1.33-7,1.8-10.4.56-4.05.91-7.31.91-7.31Z"
       transform="translate(-41.9 -21.46)"
       fill="#efb7b9"
       id="path145" />
    <path
       d="M434.3,769.73a34,34,0,0,0-3,8.42,183.72,183.72,0,0,1-18.4-1.41c.34-4.3.49-8.26.49-8.26S440.39,758.34,434.3,769.73Z"
       transform="translate(-41.9 -21.46)"
       opacity="0.1"
       id="path147" />
    <path
       d="M487.39,780.82s0,4.3-.16,9.3c-7.16,1.83-14.52-1.83-18.08-4,.56-4.05.91-7.31.91-7.31Z"
       transform="translate(-41.9 -21.46)"
       opacity="0.1"
       id="path149" />
    <path
       d="M534.38,568.12c-9.16,20-12.91,43.72-12.91,43.72l-3.33,20s1.67,8.74,0,12.07-5,8.75-5,8.75,2.5,20.4,0,22.48,0,14.57,0,14.57l-8.33,42-11.66,54.12c-11.24,9.17-26.2-2.49-26.2-2.49l3.3-35.39s5-62,2.92-64.54S474,673,474,673s2.92-7.5.84-10.41.41-9.16.41-9.16-.83-25.4,1.67-31.23,0-41.89,0-41.89l-1-11.23-.58-6.22-.05-.61s-.38,2.49-1,6.35c-1.84,11.75-5.76,36.1-7.31,41.11a53.53,53.53,0,0,1-4.27,10.41s2.16,12.49,0,15.82-.33,7.08-.33,7.08,2.08,10.41-4.17,14.57,0,6.25,0,6.25-4.58,10-6.24,14.15,0,10,0,10l-3.33,33.72s-2.92,14.15-2.5,23.73-3.75,31.64-3.75,31.64-32.06,0-37-3.75S413.64,733,413.64,733s3.75-64.12,2.91-65.78,0-14.16,2.92-16.65,0-7.5,0-7.5-.83-10,0-12.49-.13-10.83-.13-10.83-2.79-20.4-3.2-32.06-2.5-37.88-2.5-37.88,2.18-16.22,2.51-23.94c.12-2.84,1.39-6.39,3-9.73a86.81,86.81,0,0,1,6.2-10.88S524,476.1,528.14,479c1.1.77,2.7,6,4.28,13.57C536.82,513.72,541.12,553.42,534.38,568.12Z"
       transform="translate(-41.9 -21.46)"
       fill="#444053"
       id="path151" />
    <circle
       cx="431.7"
       cy="263.46"
       r="28.73"
       fill="#a1616a"
       id="circle153" />
    <path
       d="M532.42,492.59c-3.31,1.7-5.53,2.87-5.53,2.87S480.26,517.53,467,516.28c-10.26-1-36.45-.43-47.86-.15a86.81,86.81,0,0,1,6.2-10.88S524,476.1,528.14,479C529.24,479.79,530.84,485,532.42,492.59Z"
       transform="translate(-41.9 -21.46)"
       opacity="0.1"
       id="path155" />
    <path
       d="M453.61,330.8S427,335,420.72,339.12,402,351.2,402,368.27s-2.91,34.56-4.58,39.55,26.23,45.38,26.23,45.38l-10,61.21s40-1.25,53.32,0,59.93-20.82,59.93-20.82,27.48-14.57,33.31-15-11.66-32.06-11.66-32.06S521.48,395.33,526.06,387,534,366.6,534,366.6l-5-42.46s-7.49-2.5-13.74,2.08-27.48,2.08-27.48,2.08Z"
       transform="translate(-41.9 -21.46)"
       fill="#ff6484"
       id="path157" />
    <path
       d="M408.44,404.91,398,407.82,395.11,447s3.75,10.41,0,13.74-4.58,74.53-4.58,74.53,12.08,8.74,26.23,2.08c0,0-2.08-7.91,4.17-36.64s6.24-43.3,6.24-43.3,0-35.81,2.92-41.64,0-20.4,0-20.4-5.83-7.91-5.42-10.82S408.44,404.91,408.44,404.91Z"
       transform="translate(-41.9 -21.46)"
       opacity="0.1"
       id="path159" />
    <path
       d="M413.43,539.65a26.59,26.59,0,0,1-18.77-.68,54.46,54.46,0,0,1,2.67-6.24l11.32-6.87S411,531.75,413.43,539.65Z"
       transform="translate(-41.9 -21.46)"
       opacity="0.1"
       id="path161" />
    <path
       d="M407.81,404.91l-10.41,2.91L394.49,447s3.75,10.41,0,13.74-4.58,74.53-4.58,74.53S402,544,416.14,537.31c0,0-2.08-7.91,4.16-36.64s6.25-43.3,6.25-43.3,0-35.81,2.91-41.64,0-20.4,0-20.4-5.83-7.91-5.41-10.82S407.81,404.91,407.81,404.91Z"
       transform="translate(-41.9 -21.46)"
       fill="#ff6484"
       id="path163" />
    <path
       d="M514.4,411.15s-5.41,46.63-21.24,55.38C493.16,466.53,528.55,456.54,514.4,411.15Z"
       transform="translate(-41.9 -21.46)"
       opacity="0.1"
       id="path165" />
    <path
       d="M434.88,415.32s19.56,9.57,15,16.23S434.88,415.32,434.88,415.32Z"
       transform="translate(-41.9 -21.46)"
       opacity="0.1"
       id="path167" />
    <path
       d="M434.88,434.47s12.49,12.91,10,17.49S434.88,434.47,434.88,434.47Z"
       transform="translate(-41.9 -21.46)"
       opacity="0.1"
       id="path169" />
    <path
       d="M535.63,327.47s4.9,8.32,5.37,13.74S535.63,327.47,535.63,327.47Z"
       transform="translate(-41.9 -21.46)"
       opacity="0.1"
       id="path171" />
    <path
       d="M535.63,316.23s2.46-2.09,8.74,0S535.63,316.23,535.63,316.23Z"
       transform="translate(-41.9 -21.46)"
       opacity="0.1"
       id="path173" />
    <path
       d="M511.59,559.58a57.9,57.9,0,0,1-30.45-3.9l-5.25,13.44-.58-6.22c.86-5.22,2.53-10.81,5.83-12.22C481.14,550.68,492.7,559.89,511.59,559.58Z"
       transform="translate(-41.9 -21.46)"
       opacity="0.1"
       id="path175" />
    <path
       d="M426.18,577.07s25.61,5.31,32.79,4.37Z"
       transform="translate(-41.9 -21.46)"
       opacity="0.1"
       id="path177" />
    <path
       d="M428.84,583.78s10.93-.47,16.39,1.72Z"
       transform="translate(-41.9 -21.46)"
       opacity="0.1"
       id="path179" />
    <path
       d="M430.09,588.31a98,98,0,0,0,15.14,2Z"
       transform="translate(-41.9 -21.46)"
       opacity="0.1"
       id="path181" />
    <path
       d="M429.46,645.61c.47-.31,21.86-5.31,24.52-1.72Z"
       transform="translate(-41.9 -21.46)"
       opacity="0.1"
       id="path183" />
    <path
       d="M429.46,652.17s18.58-2.19,19.05,0S429.46,652.17,429.46,652.17Z"
       transform="translate(-41.9 -21.46)"
       opacity="0.1"
       id="path185" />
    <path
       d="M429.46,658.1S449.29,654,451.63,655,429.46,658.1,429.46,658.1Z"
       transform="translate(-41.9 -21.46)"
       opacity="0.1"
       id="path187" />
    <path
       d="M430.4,798l-22.48,15.46s.13-1.81.35-4.47c5-12.3,11.51-18.79,11.51-18.79,5.07-1.32,8.27-.1,10.26,2.29C430.12,795.81,430.4,798,430.4,798Z"
       transform="translate(-41.9 -21.46)"
       opacity="0.1"
       id="path189" />
    <path
       d="M432.59,811.89a55.79,55.79,0,0,0-4.69,23,35.67,35.67,0,0,1-4.76,18.51,18.24,18.24,0,0,1-1.58,2.26s-15.62-.13-21.09-4.66A5.41,5.41,0,0,1,399,849.2c-3.13-6.24,6.09-30.13,6.09-30.13,4.84-18.42,14.67-28.26,14.67-28.26C437.27,786.28,432.59,811.89,432.59,811.89Z"
       transform="translate(-41.9 -21.46)"
       fill="#444053"
       id="path191" />
    <path
       d="M423.14,853.35a18.24,18.24,0,0,1-1.58,2.26s-15.62-.13-21.09-4.66c2.69-8.9,11.27-35.83,15.29-31.25C419.54,824,422.17,844.69,423.14,853.35Z"
       transform="translate(-41.9 -21.46)"
       opacity="0.1"
       id="path193" />
    <path
       d="M421,821.37l-1.09,40.34h5.24s.85-35.39,3.19-40.34S421,821.37,421,821.37Z"
       transform="translate(-41.9 -21.46)"
       fill="#444053"
       id="path195" />
    <path
       d="M486.14,824.69s-22.95-21.7-20.61-23.42c.63-.46,1.25-2.31,1.82-4.77,4.41-.77,12,1.07,18.28,18.69C485.78,820.19,486.14,824.69,486.14,824.69Z"
       transform="translate(-41.9 -21.46)"
       opacity="0.1"
       id="path197" />
    <path
       d="M489.57,848.89a2.33,2.33,0,0,1-.55.16c-2.7.47-12.65.2-18.22,0a3.94,3.94,0,0,1-3.81-3.93c0-1.5,0-3.33-.12-5.28-.26-6.16-1-13.49-3.21-15.14-3.91-3-7-13.18,0-26.07,0,0,13.42-10.25,23.1,20.56,0,0,.94,8.79,5.15,11.91S491.45,848,489.57,848.89Z"
       transform="translate(-41.9 -21.46)"
       fill="#444053"
       id="path199" />
    <path
       d="M489,849.05c-2.7.47-12.65.2-18.22,0a3.94,3.94,0,0,1-3.81-3.93c0-1.5,0-3.33-.12-5.28,1.69-7.46,4.12-15.14,7.25-16.89C474.12,822.94,483.59,821.87,489,849.05Z"
       transform="translate(-41.9 -21.46)"
       opacity="0.1"
       id="path201" />
    <polygon
       points="423.46 800.58 425.98 834.15 429.18 834.15 429.18 797.72 423.46 800.58"
       fill="#444053"
       id="polygon203" />
    <path
       d="M473.18,239.14a57.42,57.42,0,0,0-25.62,8.23c-2,1.21-4,2.68-4.83,4.85-.72,1.88-.42,4-.39,6,.27,17.22-18.93,30.25-18.33,47.46.24,6.83,3.67,13.19,4.3,20,1.05,11.36-5.67,21.81-12.11,31.22a25.86,25.86,0,0,0,18.25-6.05A138.39,138.39,0,0,1,437,420.6l9.21,0a7,7,0,0,1,2.69.33,6.76,6.76,0,0,1,2.13,1.59c8.61,8.57,14.38,21.24,11.09,32.94l19.6-7.35c4.69-1.76,9.45-3.55,13.53-6.45s7.5-7.11,8.36-12.05c.53-3,.36-6.58,2.83-8.32a15.4,15.4,0,0,1,3.86-1.43c5.38-1.9,7.76-8.12,8.86-13.72a79,79,0,0,0,1.25-20.87c-.87-11.7-4.33-23.58-1.48-35,1.61-6.41,5.19-12.38,5.48-19,.47-10.91-8.06-20.31-9.33-31.16-.89-7.56,1.84-15.21.95-22.77a24.46,24.46,0,0,0-12.87-18.57c-2.41-1.24-5-2.07-7.38-3.44-5.43-3.15-8.9-8.82-13.83-12.72s-13.14-5.37-16.85-.3Z"
       transform="translate(-41.9 -21.46)"
       opacity="0.1"
       id="path205" />
    <path
       d="M473.18,237.89a57.42,57.42,0,0,0-25.62,8.23c-2,1.21-4,2.68-4.83,4.85-.72,1.88-.42,4-.39,6,.27,17.22-18.93,30.25-18.33,47.47.24,6.82,3.67,13.18,4.3,20,1.05,11.36-5.67,21.81-12.11,31.23a26,26,0,0,0,18.25-6.05A138.34,138.34,0,0,1,437,419.35l9.21,0a7,7,0,0,1,2.69.34,6.58,6.58,0,0,1,2.13,1.58c8.61,8.58,14.38,21.24,11.09,32.94l19.6-7.35c4.69-1.76,9.45-3.55,13.53-6.45s7.5-7.11,8.36-12.05c.53-3,.36-6.58,2.83-8.32a15.4,15.4,0,0,1,3.86-1.43c5.38-1.9,7.76-8.12,8.86-13.72A79,79,0,0,0,520.44,384c-.87-11.7-4.33-23.58-1.48-35,1.61-6.41,5.19-12.38,5.48-19,.47-10.91-8.06-20.31-9.33-31.16-.89-7.56,1.84-15.2.95-22.77a24.48,24.48,0,0,0-12.87-18.57c-2.41-1.24-5-2.07-7.38-3.43-5.43-3.16-8.9-8.83-13.83-12.73s-13.14-5.37-16.85-.3Z"
       transform="translate(-41.9 -21.46)"
       fill="#925978"
       id="path207" />
    <g
       opacity="0.1"
       id="g223">
      <path
         d="M442.32,252.81a11.12,11.12,0,0,0-.06,1.16C442.29,253.59,442.31,253.2,442.32,252.81Z"
         transform="translate(-41.9 -21.46)"
         id="path209" />
      <path
         d="M515,292.84c.36-5.3,1.54-10.62,1.1-15.9C515.77,282.24,514.59,287.56,515,292.84Z"
         transform="translate(-41.9 -21.46)"
         id="path211" />
      <path
         d="M428.31,319.19c-.58-6.2-3.47-12-4.15-18.19a22.8,22.8,0,0,0-.15,3.42c.24,6.75,3.59,13.06,4.27,19.78A27,27,0,0,0,428.31,319.19Z"
         transform="translate(-41.9 -21.46)"
         id="path213" />
      <path
         d="M519,343.82a42.88,42.88,0,0,0-1,12.42,37.65,37.65,0,0,1,1-7.21c1.61-6.41,5.19-12.38,5.48-19a20.61,20.61,0,0,0-.16-3.52C523.54,332.46,520.43,338,519,343.82Z"
         transform="translate(-41.9 -21.46)"
         id="path215" />
      <path
         d="M434.45,344.36a26,26,0,0,1-14.76,6c-1.14,1.78-2.32,3.52-3.49,5.24a26,26,0,0,0,18.25-6.05A138,138,0,0,1,440.27,387,138.31,138.31,0,0,0,434.45,344.36Z"
         transform="translate(-41.9 -21.46)"
         id="path217" />
      <path
         d="M519.19,399.65c-1.1,5.6-3.48,11.82-8.86,13.71a15,15,0,0,0-3.86,1.44c-2.47,1.74-2.3,5.34-2.83,8.32-.86,4.94-4.27,9.14-8.36,12s-8.84,4.7-13.53,6.46l-18.7,7a25.81,25.81,0,0,1-.9,5.55l19.6-7.35c4.69-1.76,9.45-3.55,13.53-6.45s7.5-7.11,8.36-12.05c.53-3,.36-6.58,2.83-8.32a15.4,15.4,0,0,1,3.86-1.43c5.38-1.9,7.76-8.12,8.86-13.72a78.42,78.42,0,0,0,1.41-17.7A78.3,78.3,0,0,1,519.19,399.65Z"
         transform="translate(-41.9 -21.46)"
         id="path219" />
      <path
         d="M451.06,416a6.61,6.61,0,0,0-2.13-1.59,7.15,7.15,0,0,0-2.69-.34l-8.17,0c-.32,1.74-.66,3.48-1,5.21l9.21,0a7,7,0,0,1,2.69.34,6.58,6.58,0,0,1,2.13,1.58c6.3,6.28,11.07,14.74,11.89,23.42C464,434.24,458.62,423.56,451.06,416Z"
         transform="translate(-41.9 -21.46)"
         id="path221" />
    </g>
    <path
       d="M405.37,450.08s7.44-3.12,9.1,0S405.37,450.08,405.37,450.08Z"
       transform="translate(-41.9 -21.46)"
       opacity="0.1"
       id="path225" />
    <path
       d="M408,455.43s7.44-3.12,9.11,0S408,455.43,408,455.43Z"
       transform="translate(-41.9 -21.46)"
       opacity="0.1"
       id="path227" />
  </g>
  <path
     d="M930.43,430.37a14.31,14.31,0,1,0,14.31,14.31A14.35,14.35,0,0,0,930.43,430.37ZM888.59,318.08v14.31H902.9l25.76,52.18L917.89,402.1a13.76,13.76,0,0,0-1.79,6.8c0,9.58,6.55,14.31,15.43,14.31h83.67V409.45H933.28a1.69,1.69,0,0,1-1.79-1.79,9,9,0,0,1,.76-1.78l7.15-11.29h53.31a14,14,0,0,0,12.52-7.51L1031,342.77a8.31,8.31,0,0,0,.72-3.58,6.88,6.88,0,0,0-7.16-6.8H918.65l-6.8-14.31Zm112.29,112.29a14.31,14.31,0,1,0,14.32,14.31A14.35,14.35,0,0,0,1000.88,430.37Z"
     transform="translate(-41.9 -21.46)"
     fill="#007bfc"
     id="path237" />
  <polygon
     points="940.67 336.21 928.67 336.21 928.67 324.21 919.67 324.21 919.67 336.21 907.67 336.21 907.67 345.21 919.67 345.21 919.67 357.21 928.67 357.21 928.67 345.21 940.67 345.21 940.67 336.21"
     fill="#fff"
     id="polygon239" />
</svg>
