<svg xmlns="http://www.w3.org/2000/svg" data-name="Layer 1" width="863.359" height="551.172"><path data-name="Rectangle 62" fill="#e6e6e6" d="M.227 14.583h531.924V266.99H.227z"/><path data-name="Rectangle 75" fill="#fff" d="M15.437 36.227H516.94v210.591H15.437z"/><path data-name="Rectangle 80" fill="#007bfc" d="M0 0h531.924v22.598H0z"/><circle data-name="Ellipse 90" cx="16.793" cy="13.288" r="4.188" fill="#fff"/><circle data-name="Ellipse 91" cx="32.691" cy="13.288" r="4.188" fill="#fff"/><circle data-name="Ellipse 92" cx="48.589" cy="13.288" r="4.188" fill="#fff"/><path d="M492.323 204.167H243.664a.778.778 0 01-.778-.778V84.207a.778.778 0 011.557 0V202.61h247.88a.778.778 0 010 1.556z" fill="#3f3d56"/><path d="M296.792 195.607h-22.616a2.313 2.313 0 01-2.31-2.31V162.12a2.313 2.313 0 012.31-2.31h22.616a2.313 2.313 0 012.31 2.31v31.177a2.313 2.313 0 01-2.31 2.31zM338.036 195.607H315.42a2.313 2.313 0 01-2.31-2.31V132.55a2.313 2.313 0 012.31-2.31h22.616a2.313 2.313 0 012.31 2.31v60.748a2.313 2.313 0 01-2.31 2.31zM379.28 195.607h-22.616a2.313 2.313 0 01-2.31-2.31V162.12a2.313 2.313 0 012.31-2.31h22.616a2.313 2.313 0 012.31 2.31v31.177a2.313 2.313 0 01-2.31 2.31zM420.524 195.607h-22.616a2.262 2.262 0 01-2.31-2.205v-72.63a2.262 2.262 0 012.31-2.206h22.616a2.262 2.262 0 012.31 2.206v72.63a2.262 2.262 0 01-2.31 2.205zM461.768 195.607h-22.616a2.313 2.313 0 01-2.31-2.31V99.865a2.313 2.313 0 012.31-2.31h22.616a2.313 2.313 0 012.31 2.31v93.432a2.313 2.313 0 01-2.31 2.31z" fill="#007bfc"/><circle cx="285.484" cy="145.803" r="4.669" fill="#3f3d56"/><circle cx="326.728" cy="115.454" r="4.669" fill="#3f3d56"/><circle cx="367.972" cy="145.803" r="4.669" fill="#3f3d56"/><circle cx="409.216" cy="100.668" r="4.669" fill="#3f3d56"/><circle cx="450.46" cy="83.548" r="4.669" fill="#3f3d56"/><path fill="#3f3d56" d="M368.07 146.849l-41.342-30.966-40.778 30.543-.933-1.246 41.711-31.242 41.145 30.819 40.888-44.744.164-.067 41.244-16.618.582 1.444-41.08 16.551-41.601 45.526z"/><path fill="#e6e6e6" d="M72.127 61.967h70.631v5.309H72.127z"/><path fill="#007bfc" d="M72.127 77.552h109.069v5.309H72.127z"/><path fill="#e6e6e6" d="M73.261 92.394h88.889v5.309H73.261zM72.127 108.68h51.892v5.309H72.127z"/><path fill="#007bfc" d="M72.127 124.587h78.318v5.309H72.127z"/><path fill="#e6e6e6" d="M39.935 60.297h8.649v8.649h-8.649z"/><path fill="#007bfc" d="M39.935 75.882h8.649v8.649h-8.649z"/><path fill="#e6e6e6" d="M39.935 90.724h8.649v8.649h-8.649zM39.935 107.01h8.649v8.649h-8.649z"/><path fill="#007bfc" d="M39.935 122.917h8.649v8.649h-8.649z"/><path fill="#e6e6e6" d="M72.127 140.594h70.631v5.309H72.127z"/><path fill="#007bfc" d="M72.127 156.179h109.069v5.309H72.127z"/><path fill="#e6e6e6" d="M73.261 171.021h88.889v5.309H73.261zM72.127 187.307h51.892v5.309H72.127zM72.127 203.214h78.318v5.309H72.127zM39.935 138.924h8.649v8.649h-8.649z"/><path fill="#007bfc" d="M39.935 154.509h8.649v8.649h-8.649z"/><path fill="#e6e6e6" d="M39.935 169.351h8.649V178h-8.649zM39.935 185.637h8.649v8.649h-8.649zM39.935 201.544h8.649v8.649h-8.649z"/><path d="M645.58 162.802c2.975-9.481 9.74-18.177 19.096-21.382 9.357-3.205 25.68-.21 30.092 8.688 6.36 12.822 3.503 28.525.13 42.448a344.823 344.823 0 00-5.312-.233l-2.518-8.391v8.308c-13.89-.43-28.352-.16-42.821.117-1.297-9.856-1.643-20.073 1.332-29.555z" fill="#2f2e41"/><path fill="#ffb7b7" d="M773.219 524.09l-11.686 4.897-24.449-42.74 17.246-7.228 18.889 45.071z"/><path d="M780.946 534.168l-37.678 15.79-.2-.476a15.902 15.902 0 018.52-20.812l23.012-9.644z" fill="#2f2e41"/><path d="M601.859 322.194a8.766 8.766 0 013.556-12.962l25.116-75.786 16.82 8.971-29.977 71.674a8.813 8.813 0 01-15.515 8.103zM632.825 537.677l-12.67-.001-6.027-48.869 18.699.001-.002 48.869z" fill="#ffb7b7"/><path d="M636.056 549.958l-40.853-.001v-.517a15.902 15.902 0 0115.901-15.9H636.057z" fill="#2f2e41"/><path fill="#ffb7b7" d="M683.623 259.72l2.871 7.464-.574 7.464-55.119-6.889 1.723-6.316 6.315-7.464 44.784 5.741z"/><circle cx="665.859" cy="172.485" r="20.067" fill="#ffb8b8"/><path d="M686.799 267.72l-54.657-5.815-2.368-7.744c-.736-1.009-7.673-10.84-6.135-20.67a17.118 17.118 0 017.395-11.462l13.29-15.56 11.69-6.959 23.047-2.304.08.018 20.69 4.682-.25 37.928z" fill="#ccc"/><path d="M633.519 271.739l-15.313-1.818.04-.481c.14-1.691 3.49-41.514 6.92-50.66 3.503-9.344 18.68-12.255 19.324-12.374l.186-.034 3.372 2.024-9.307 29.085z" fill="#ccc"/><path d="M686.494 271.778v12.753s14.928 19.4 6.89 34.327c0 0 17.225 32.153 18.373 43.636l16.076 52.823s40.191 40.19 36.746 68.898l2.297 9.187-26.411 11.483-5.742-8.038-44.784-76.937-37.894-70.047-6.89 82.678s4.593 64.306-8.038 71.196l-1.149 10.335h-26.804v-9.824s-9.941-34.96-4.2-61.372l-2.297-111.386s10.335-47.08 22.967-55.12l4.593-11.482z" fill="#2f2e41"/><path d="M667.406 298.146a9.028 9.028 0 011.358.42l35.032-24.114-.802-10.3 15.387-3.242 3.192 18.098a6.86 6.86 0 01-3.722 7.344l-43.394 21.4a9.002 9.002 0 11-7.051-9.606z" fill="#ffb7b7"/><path d="M703.465 275.784l-7.13-47.568-5.853-24.573 8.745-1.827c.238-.089 7.358-2.496 13.107 1.38 4.138 2.79 6.43 8.083 6.812 15.734l2.317 54.43z" fill="#ccc"/><path d="M652.07 146.354a25.205 25.205 0 0138.32 21.997c-11.216.516-23 .65-34.947.674l-2.824-6.911-1.665 6.916q-5.46 0-10.942-.015a25.735 25.735 0 0112.059-22.66z" fill="#2f2e41"/><path d="M862.36 551.172h-381a1 1 0 110-2h381a1 1 0 010 2z" fill="#cbcbcb"/></svg>