<?xml version="1.0" encoding="UTF-8" standalone="no"?>
<!-- Created with Inkscape (http://www.inkscape.org/) -->

<svg
   xmlns:dc="http://purl.org/dc/elements/1.1/"
   xmlns:cc="http://creativecommons.org/ns#"
   xmlns:rdf="http://www.w3.org/1999/02/22-rdf-syntax-ns#"
   xmlns:svg="http://www.w3.org/2000/svg"
   xmlns="http://www.w3.org/2000/svg"
   xmlns:xlink="http://www.w3.org/1999/xlink"
   xmlns:sodipodi="http://sodipodi.sourceforge.net/DTD/sodipodi-0.dtd"
   xmlns:inkscape="http://www.inkscape.org/namespaces/inkscape"
   version="1.1"
   id="svg2"
   width="1000"
   height="1000"
   viewBox="0 0 1000 1000"
   sodipodi:docname="OrchidGradient.svg"
   inkscape:version="0.92.4 5da689c313, 2019-01-14">
  <metadata
     id="metadata8">
    <rdf:RDF>
      <cc:Work
         rdf:about="">
        <dc:format>image/svg+xml</dc:format>
        <dc:type
           rdf:resource="http://purl.org/dc/dcmitype/StillImage" />
        <dc:title></dc:title>
      </cc:Work>
    </rdf:RDF>
  </metadata>
  <defs
     id="defs6">
    <linearGradient
       inkscape:collect="always"
       id="linearGradient4606">
      <stop
         style="stop-color:#007bfc;stop-opacity:1;"
         offset="0"
         id="stop4602" />
      <stop
         style="stop-color:#007bb1;stop-opacity:1"
         offset="1"
         id="stop4604" />
    </linearGradient>
    <linearGradient
       inkscape:collect="always"
       xlink:href="#linearGradient4606"
       id="linearGradient4608"
       x1="500.63159"
       y1="-1.2632037"
       x2="506.28839"
       y2="1149.9066"
       gradientUnits="userSpaceOnUse" />
  </defs>
  <sodipodi:namedview
     pagecolor="#ffffff"
     bordercolor="#666666"
     borderopacity="1"
     objecttolerance="10"
     gridtolerance="10"
     guidetolerance="10"
     inkscape:pageopacity="0"
     inkscape:pageshadow="2"
     inkscape:window-width="1600"
     inkscape:window-height="847"
     id="namedview4"
     showgrid="false"
     inkscape:pagecheckerboard="true"
     inkscape:zoom="0.35355339"
     inkscape:cx="302.17732"
     inkscape:cy="407.71669"
     inkscape:window-x="0"
     inkscape:window-y="0"
     inkscape:window-maximized="1"
     inkscape:current-layer="svg2" />
  <path
     style="fill:#000000"
     d=""
     id="path3719"
     inkscape:connector-curvature="0" />
  <path
     style="fill:#000000"
     d=""
     id="path3717"
     inkscape:connector-curvature="0" />
  <path
     style="fill:#000000"
     d=""
     id="path3715"
     inkscape:connector-curvature="0" />
  <ellipse
     style="fill:url(#linearGradient4608);fill-opacity:1;stroke-width:1.02783895"
     id="path3735"
     cx="499.99072"
     cy="500.0011"
     rx="499.99075"
     ry="499.99756" />
  <path
     style="fill:#fefefe;stroke-width:1.99910772"
     d="m 456.37889,793.96796 c -1.83558,-1.0711 -5.75463,-9.20596 -8.70911,-18.07742 -6.5073,-19.53997 -12.39687,-25.96649 -33.35152,-36.3924 -8.35806,-4.15842 -15.76096,-9.03255 -16.45125,-10.8314 -0.6903,-1.79887 0.64951,-11.51326 2.97747,-21.58757 5.22206,-22.59871 3.84048,-29.46889 -9.30505,-46.26538 -15.16743,-19.3799 -15.17363,-22.28872 -0.086,-40.34699 3.82109,-4.57348 8.47301,-12.31049 10.33779,-17.19338 3.24775,-8.50404 3.21236,-9.68813 -0.83963,-28.11317 -2.9083,-13.22345 -3.63338,-20.35077 -2.32017,-22.80458 1.05074,-1.96316 8.60676,-6.79262 16.79151,-10.73217 8.18455,-3.93954 15.47969,-8.13143 16.21136,-9.3153 3.3765,-5.46348 4.09298,0.19591 4.09298,32.33313 0,33.85693 0.10595,34.71248 5.8158,47.07893 7.34912,15.91587 21.14156,28.70173 37.32774,34.60351 l 11.83192,4.31412 v 43.71251 43.71251 h 9.95736 9.95715 l 0.53816,-44.26071 0.53796,-44.26073 8.40365,-2.48005 c 10.79378,-3.1855 26.49698,-14.72649 33.18239,-24.38732 9.82282,-14.19466 11.39032,-22.27285 11.39032,-58.70212 v -33.65069 l 15.49308,8.23202 c 8.5212,4.5276 17.14155,9.64467 19.15645,11.37127 4.042,3.46385 3.90286,9.31712 -0.75127,31.63314 -3.36709,16.14429 -1.13529,23.6908 12.01804,40.63758 6.15925,7.93558 10.02993,14.93277 10.04092,18.15168 0.02,3.15299 -3.98242,10.71293 -10.03132,18.99152 -13.14534,17.99107 -15.4567,25.67502 -12.16118,40.43056 6.63505,29.70834 5.96654,31.96769 -11.77454,39.79012 -20.88108,9.20701 -27.14489,16.36327 -34.79287,39.7501 -1.84538,5.64312 -5.08993,11.82998 -7.20998,13.7486 -3.67876,3.32938 -4.62254,3.24895 -20.70077,-1.76399 -20.89087,-6.51344 -27.16247,-6.54782 -46.44107,-0.25463 -17.30947,5.65034 -16.63258,5.55657 -21.13596,2.9287 z m -178.64187,-69.65672 63.91107,-64.11612 -6.87613,-7.09437 -6.87613,-7.09436 -63.53204,63.50874 c -39.69868,39.68413 -63.53205,62.13819 -63.53205,59.85531 0,-2.00939 1.81799,-10.77342 4.0398,-19.47565 12.67714,-49.65115 36.5185,-93.74992 71.31097,-131.9018 25.86666,-28.36438 34.65033,-35.59435 45.81515,-37.71175 5.396,-1.02332 18.79902,-5.14677 29.78431,-9.16324 10.9855,-4.01647 21.34348,-7.73075 23.01773,-8.25398 2.36954,-0.74051 3.84228,2.58479 6.64683,15.00726 4.07998,18.07098 4.21432,17.5721 -9.90958,36.75808 -16.07282,21.83343 -15.6716,31.15399 2.38674,55.44689 14.5673,19.59662 14.17947,22.03886 -6.61805,41.68804 -34.79186,32.87078 -85.29153,59.61721 -136.48728,72.28859 -4.94779,1.22463 -10.79518,2.70987 -12.9942,3.30055 -2.19902,0.59068 24.76174,-27.7783 59.91286,-63.04219 z m 487.84266,58.73741 c -53.79319,-13.51937 -96.31941,-37.30853 -140.43731,-78.56078 -11.71957,-10.95839 -11.50827,-16.81251 1.23265,-34.15012 12.72872,-17.32105 14.26043,-20.50376 14.26043,-29.62953 0,-8.74793 -5.48215,-20.01851 -15.33835,-31.53333 -3.73973,-4.36899 -7.34812,-10.12944 -8.01862,-12.80096 -1.3436,-5.35328 4.78086,-34.23251 7.25976,-34.23251 0.85442,0 8.01362,2.66388 15.90909,5.9197 7.89548,3.25583 22.40381,7.89356 32.24082,10.30606 l 17.88561,4.38636 21.62475,22.17945 c 32.56347,33.39889 52.23729,61.85135 67.86391,98.14553 8.69852,20.20301 20.50165,58.91834 20.50165,67.24694 0,1.48413 -28.58944,-25.88052 -63.53204,-60.81033 l -63.53185,-63.50874 -6.87613,7.09428 -6.87613,7.09427 62.82236,62.84591 c 34.55218,34.56526 62.41235,63.22474 61.91177,63.68774 -0.50078,0.46299 -9.00678,-1.19299 -18.90237,-3.67994 z M 482.70594,626.92391 c -12.81888,-5.55254 -25.9884,-22.14604 -25.9884,-32.74548 0,-3.9925 0.20771,-3.96919 7.49665,0.84216 11.32655,7.47638 23.61266,11.10121 37.62701,11.10121 10.81177,0 14.84337,-1.14256 27.93273,-7.91608 l 15.29757,-7.91608 -1.3504,5.4172 c -3.93144,15.77264 -15.46669,28.66131 -29.02944,32.43508 -10.08809,2.80701 -23.90813,2.28075 -31.98572,-1.21801 z m -1.1111,-44.56377 c -18.73545,-8.5099 -29.71534,-31.16313 -24.71998,-51.00144 5.32323,-21.13994 21.84785,-33.82994 44.07473,-33.84663 48.04296,-0.0362 60.81546,67.27075 16.30513,85.92293 -9.06336,3.79805 -26.05957,3.28574 -35.65988,-1.07486 z M 265.28117,560.80262 C 233.8724,543.17335 200.29998,474.95664 192.83811,413.6038 c -3.74673,-30.80506 3.28573,-53.73632 23.01472,-75.04592 5.85719,-6.32653 15.06149,-13.90409 20.45388,-16.83898 33.76753,-18.37864 82.2405,-14.14109 123.72038,10.81577 18.95954,11.40721 36.06751,29.00266 73.13397,75.21726 35.45137,44.20109 40.61066,51.4388 35.27405,49.48475 -1.49693,-0.54807 -28.36014,-7.76021 -59.69615,-16.02701 -68.50063,-18.07123 -80.42351,-23.24704 -100.90838,-43.80531 -10.0545,-10.09039 -16.31052,-18.60925 -21.68012,-29.52178 l -7.54743,-15.3387 -8.9668,3.05528 c -10.43194,3.55454 -10.42575,3.83713 0.55695,24.96336 13.59714,26.15527 41.48709,51.02038 69.19472,61.69027 7.90668,3.04472 41.13864,12.50822 73.84905,21.03004 32.7104,8.52179 59.45186,16.03432 59.42547,16.69446 -0.026,0.66015 -24.92247,16.00352 -55.3247,34.09639 -46.3959,27.61094 -58.9347,34.14228 -78.04497,40.6526 -19.52569,6.65185 -25.95302,7.89741 -45.13046,8.74589 -19.16385,0.8479 -23.29461,0.46609 -28.88112,-2.66955 z m 416.36717,0.0204 c -25.10499,-5.37882 -44.16928,-14.47388 -98.45725,-46.97134 -57.18507,-34.2316 -55.61378,-33.23188 -54.29757,-34.5481 0.48099,-0.4809 28.74337,-8.15182 62.80537,-17.04646 45.36415,-11.84604 66.20885,-18.26574 77.92362,-23.99882 30.40223,-14.87856 55.67856,-41.60467 67.49768,-71.36915 l 3.30992,-8.3357 -9.25467,-3.15336 c -5.08992,-1.73434 -9.33943,-2.93107 -9.44299,-2.65939 -11.01987,28.88263 -33.71155,54.32375 -59.98422,67.25228 -10.45334,5.14397 -130.79063,38.77865 -132.73396,37.09962 -0.36883,-0.31871 17.33706,-23.04327 39.34664,-50.499 50.28976,-62.7337 64.76529,-75.03011 104.36861,-88.65767 17.34007,-5.96664 20.92547,-6.50002 43.87203,-6.52643 21.17934,-0.0244 26.66509,0.64511 35.98394,4.39133 22.26806,8.95175 41.42631,28.19833 50.03626,50.26641 12.30791,31.54647 3.61599,83.96528 -23.0647,139.09959 -12.15078,25.10906 -25.75651,43.0718 -39.74786,52.47658 -9.12054,6.13065 -10.63965,6.4879 -26.93198,6.33412 -9.49636,-0.0896 -23.54949,-1.50917 -31.22887,-3.15452 z M 463.7508,414.02795 l -35.48656,-44.31357 2.44211,-15.13827 c 3.08262,-19.10967 12.07341,-51.24766 21.2875,-76.09399 7.72255,-20.82426 34.37825,-74.181 37.05886,-74.181 0.90739,0 1.64966,45.87953 1.64966,101.9545 v 101.9545 h 9.99554 9.99554 l 0.044,-102.45428 c 0.052,-117.87059 -1.7966,-111.31985 19.38875,-68.73596 15.4447,31.04481 25.0886,57.00504 33.41128,89.9399 11.48227,45.43795 14.46355,35.5705 -26.07396,86.29835 -19.30778,24.16158 -35.80762,44.18962 -36.66603,44.50678 -0.85842,0.31713 -17.52958,-19.36448 -37.04727,-43.73694 z"
     id="path3731"
     inkscape:connector-curvature="0"
     sodipodi:nodetypes="csscscccssssscscccccccscscccsscscsccsscscccsscssscccsscsscscsccssscsssscccsscsssscccsssscsssssscscssscsscssscsssscssscccscscssssscsccscssccccsssccc" />
</svg>
