<?xml version="1.0" encoding="UTF-8" standalone="no"?>
<svg
   xmlns:dc="http://purl.org/dc/elements/1.1/"
   xmlns:cc="http://creativecommons.org/ns#"
   xmlns:rdf="http://www.w3.org/1999/02/22-rdf-syntax-ns#"
   xmlns:svg="http://www.w3.org/2000/svg"
   xmlns="http://www.w3.org/2000/svg"
   xmlns:xlink="http://www.w3.org/1999/xlink"
   xmlns:sodipodi="http://sodipodi.sourceforge.net/DTD/sodipodi-0.dtd"
   xmlns:inkscape="http://www.inkscape.org/namespaces/inkscape"
   id="a622e68e-7a65-46e9-94a9-d455de519afc"
   data-name="Layer 1"
   width="971.44"
   height="502"
   viewBox="0 0 971.44 502"
   version="1.1"
   sodipodi:docname="responsive.svg"
   inkscape:version="1.0.2 (e86c870879, 2021-01-15)">
  <metadata
     id="metadata167">
    <rdf:RDF>
      <cc:Work
         rdf:about="">
        <dc:format>image/svg+xml</dc:format>
        <dc:type
           rdf:resource="http://purl.org/dc/dcmitype/StillImage" />
      </cc:Work>
    </rdf:RDF>
  </metadata>
  <sodipodi:namedview
     pagecolor="#ffffff"
     bordercolor="#666666"
     borderopacity="1"
     objecttolerance="10"
     gridtolerance="10"
     guidetolerance="10"
     inkscape:pageopacity="0"
     inkscape:pageshadow="2"
     inkscape:window-width="1920"
     inkscape:window-height="1015"
     id="namedview165"
     showgrid="false"
     inkscape:zoom="0.72686287"
     inkscape:cx="1085.9257"
     inkscape:cy="234.94439"
     inkscape:window-x="0"
     inkscape:window-y="32"
     inkscape:window-maximized="1"
     inkscape:current-layer="a622e68e-7a65-46e9-94a9-d455de519afc" />
  <defs
     id="defs12">
    <linearGradient
       id="341b0e5e-a21f-44db-b85f-76180f33f0d3"
       x1="599.5"
       y1="668.05"
       x2="599.5"
       y2="199"
       gradientUnits="userSpaceOnUse">
      <stop
         offset="0"
         stop-color="gray"
         stop-opacity="0.25"
         id="stop2" />
      <stop
         offset="0.54"
         stop-color="gray"
         stop-opacity="0.12"
         id="stop4" />
      <stop
         offset="1"
         stop-color="gray"
         stop-opacity="0.1"
         id="stop6" />
    </linearGradient>
    <linearGradient
       id="9c19d1ba-0c1d-4cca-8c15-e6f3831a5e67"
       x1="485.72"
       y1="258.88"
       x2="485.72"
       y2="71.12"
       xlink:href="#341b0e5e-a21f-44db-b85f-76180f33f0d3" />
    <linearGradient
       id="fe76f7c7-2126-4e48-920d-21143a22d340"
       x1="132"
       y1="515"
       x2="303"
       y2="515"
       xlink:href="#341b0e5e-a21f-44db-b85f-76180f33f0d3" />
    <linearGradient
       id="2cf89a04-5a05-413b-983a-d2bc296cbb5e"
       x1="933"
       y1="568.28"
       x2="1031"
       y2="568.28"
       xlink:href="#341b0e5e-a21f-44db-b85f-76180f33f0d3" />
  </defs>
  <title
     id="title14">responsive</title>
  <g
     opacity="0.7"
     id="g18">
    <path
       d="M852.69,199H346.31A16.37,16.37,0,0,0,330,215.42V563.94a16.37,16.37,0,0,0,16.31,16.42H520.47v60.16h-7.94a8.3,8.3,0,0,0-8.27,8.33v12.07h16.21v7.14H678.53v-7.14h16.21V648.85a8.3,8.3,0,0,0-8.27-8.33H679V640h-.51V580.36H852.69A16.37,16.37,0,0,0,869,563.94V215.42A16.37,16.37,0,0,0,852.69,199Z"
       transform="translate(-114.28 -199)"
       fill="url(#341b0e5e-a21f-44db-b85f-76180f33f0d3)"
       id="path16" />
  </g>
  <rect
     x="407.72"
     y="371"
     width="156"
     height="92"
     fill="#bdbdbd"
     id="rect20" />
  <g
     opacity="0.1"
     id="g24">
    <path
       d="M525.07,579H675.24c1.81-7.87,3.26-13,3.26-13h-157S523.11,571.11,525.07,579Z"
       transform="translate(-114.28 -199)"
       id="path22" />
  </g>
  <path
     d="M235.82,3h499.8a16.1,16.1,0,0,1,16.1,16.1V327a0,0,0,0,1,0,0h-532a0,0,0,0,1,0,0V19.1A16.1,16.1,0,0,1,235.82,3Z"
     fill="#535461"
     id="path26" />
  <path
     d="M849.9,576H350.1A16.1,16.1,0,0,1,334,559.9V526H866v33.9A16.1,16.1,0,0,1,849.9,576Z"
     transform="translate(-114.28 -199)"
     fill="#bdbdbd"
     id="path28" />
  <circle
     cx="485.72"
     cy="352"
     r="9"
     fill="#535461"
     id="circle30" />
  <path
     d="M399.89,436H571.55a8.17,8.17,0,0,1,8.17,8.17V456a0,0,0,0,1,0,0h-188a0,0,0,0,1,0,0V444.17A8.17,8.17,0,0,1,399.89,436Z"
     fill="#bdbdbd"
     id="path32" />
  <g
     opacity="0.5"
     id="g36">
    <rect
       x="320.72"
       y="71.12"
       width="330"
       height="187.76"
       rx="4.5"
       ry="4.5"
       fill="url(#9c19d1ba-0c1d-4cca-8c15-e6f3831a5e67)"
       id="rect34" />
  </g>
  <rect
     x="324.95"
     y="72.5"
     width="321.54"
     height="183.96"
     rx="4.5"
     ry="4.5"
     fill="#fff"
     id="rect38" />
  <g
     opacity="0.5"
     id="g42">
    <rect
       x="414.52"
       y="98.91"
       width="35.44"
       height="31.9"
       rx="4.5"
       ry="4.5"
       fill="#007bfc"
       id="rect40" />
  </g>
  <rect
     x="460.59"
     y="98.91"
     width="95.69"
     height="3.54"
     rx="1.77"
     ry="1.77"
     fill="#e0e0e0"
     id="rect44" />
  <rect
     x="460.59"
     y="109.55"
     width="79.54"
     height="3.54"
     rx="1.77"
     ry="1.77"
     fill="#e0e0e0"
     id="rect46" />
  <g
     opacity="0.5"
     id="g50">
    <rect
       x="414.52"
       y="148.53"
       width="35.44"
       height="31.9"
       rx="4.5"
       ry="4.5"
       fill="#007bfc"
       id="rect48" />
  </g>
  <rect
     x="460.59"
     y="148.53"
     width="95.69"
     height="3.54"
     rx="1.77"
     ry="1.77"
     fill="#e0e0e0"
     id="rect52" />
  <rect
     x="460.59"
     y="159.16"
     width="95.69"
     height="3.54"
     rx="1.77"
     ry="1.77"
     fill="#e0e0e0"
     id="rect54" />
  <g
     opacity="0.5"
     id="g58">
    <rect
       x="414.52"
       y="198.15"
       width="35.44"
       height="31.9"
       rx="4.5"
       ry="4.5"
       fill="#007bfc"
       id="rect56" />
  </g>
  <rect
     x="460.59"
     y="198.15"
     width="95.69"
     height="3.54"
     rx="1.77"
     ry="1.77"
     fill="#e0e0e0"
     id="rect60" />
  <rect
     x="460.59"
     y="208.78"
     width="96.33"
     height="3.54"
     rx="1.59"
     ry="1.59"
     fill="#e0e0e0"
     id="rect62" />
  <line
     x1="485.72"
     y1="42"
     x2="485.72"
     y2="20"
     stroke="#007bfc"
     stroke-miterlimit="10"
     stroke-width="2"
     id="line64" />
  <line
     x1="485.72"
     y1="79"
     x2="485.72"
     y2="50.13"
     stroke="#007bfc"
     stroke-miterlimit="10"
     stroke-width="2"
     id="line66" />
  <circle
     cx="485.72"
     cy="79"
     r="4"
     fill="#007bfc"
     id="circle68" />
  <circle
     cx="485.72"
     cy="46"
     r="4"
     fill="none"
     stroke="#fff"
     stroke-miterlimit="10"
     id="circle70" />
  <line
     x1="485.72"
     y1="42"
     x2="485.72"
     y2="20"
     stroke="#007bfc"
     stroke-miterlimit="10"
     stroke-width="2"
     id="line72" />
  <line
     x1="485.72"
     y1="79"
     x2="485.72"
     y2="50.13"
     stroke="#007bfc"
     stroke-miterlimit="10"
     stroke-width="2"
     id="line74" />
  <circle
     cx="485.72"
     cy="79"
     r="4"
     fill="#007bfc"
     id="circle76" />
  <circle
     cx="485.72"
     cy="46"
     r="4"
     fill="none"
     stroke="#fff"
     stroke-miterlimit="10"
     id="circle78" />
  <line
     x1="485.72"
     y1="279"
     x2="485.72"
     y2="310"
     stroke="#007bfc"
     stroke-miterlimit="10"
     stroke-width="2"
     id="line80" />
  <line
     x1="485.72"
     y1="251"
     x2="485.72"
     y2="279.87"
     stroke="#007bfc"
     stroke-miterlimit="10"
     stroke-width="2"
     id="line82" />
  <circle
     cx="485.72"
     cy="251"
     r="4"
     fill="#007bfc"
     id="circle84" />
  <line
     x1="305.72"
     y1="168.5"
     x2="274.22"
     y2="168.5"
     stroke="#007bfc"
     stroke-miterlimit="10"
     stroke-width="2"
     id="line86" />
  <line
     x1="333.22"
     y1="168.5"
     x2="304.35"
     y2="168.5"
     stroke="#007bfc"
     stroke-miterlimit="10"
     stroke-width="2"
     id="line88" />
  <circle
     cx="333.22"
     cy="168.5"
     r="4"
     fill="#007bfc"
     id="circle90" />
  <g
     opacity="0.1"
     id="g94">
    <rect
       x="408.22"
       y="435.5"
       width="156"
       height="3"
       id="rect92" />
  </g>
  <rect
     y="455.6"
     width="971.44"
     height="32.93"
     fill="#e0e0e0"
     id="rect128" />
  <rect
     x="41.16"
     y="488.53"
     width="889.11"
     height="13.47"
     fill="#e0e0e0"
     id="rect130" />
  <rect
     x="41.16"
     y="488.53"
     width="889.11"
     height="4.49"
     opacity="0.1"
     id="rect132" />
  <line
     x1="690.22"
     y1="168.5"
     x2="696.22"
     y2="168.5"
     stroke="#007bfc"
     stroke-miterlimit="10"
     stroke-width="2"
     id="line134" />
  <line
     x1="637.22"
     y1="168.5"
     x2="682.1"
     y2="168.5"
     stroke="#007bfc"
     stroke-miterlimit="10"
     stroke-width="2"
     id="line136" />
  <circle
     cx="637.22"
     cy="168.5"
     r="4"
     fill="#007bfc"
     id="circle138" />
  <circle
     cx="686.22"
     cy="168.5"
     r="4"
     fill="none"
     stroke="#fff"
     stroke-miterlimit="10"
     id="circle140" />
  <g
     id="g175"
     transform="matrix(0.98862656,0,0,0.98862656,-309.53746,-305.6924)">
	<path
   fill="#75d1df"
   d="m 462.302,353.369 c -0.228,-0.308 -0.577,-0.496 -0.95,-0.526 -0.377,-0.03 -0.746,0.109 -1.019,0.374 l -6.146,6.125 c -0.447,0.449 -0.503,1.159 -0.143,1.676 7.926,11.203 12.125,24.333 12.125,37.981 0,36.475 -29.728,66.159 -66.269,66.159 -2.534,0 -5.171,-0.185 -8.283,-0.569 -0.193,-0.029 -1.022,-0.156 -1.549,-0.242 -2.608,-0.399 -5.01,-0.896 -7.352,-1.52 0,0 -0.371,-0.095 -0.45,-0.121 -0.024,-0.004 -0.042,-0.012 -0.068,-0.023 -2.954,-0.83 -5.834,-1.857 -8.572,-3.057 -2.732,-1.181 -5.473,-2.62 -8.167,-4.295 l 80.479,-42.561 c 2.558,-1.356 4.115,-3.74 4.161,-6.379 0.054,-2.634 -1.405,-5.078 -3.915,-6.529 l -27.639,-15.997 40.897,-40.898 c 2.941,-2.934 2.707,-5.577 1.999,-7.26 -0.846,-2.082 -3.041,-3.538 -5.337,-3.538 -1.234,0 -2.38,0.33 -3.83,1.107 l -98.188,51.921 c -2.568,1.354 -4.13,3.746 -4.178,6.407 -0.039,2.647 1.442,5.08 3.954,6.509 l 27.688,15.933 -29.922,29.915 c -1.665,-1.806 -3.24,-3.693 -4.69,-5.643 -6.111,-8.244 -10.13,-17.354 -11.937,-27.07 -0.026,-0.139 -0.05,-0.281 -0.065,-0.419 -0.005,-0.028 -0.007,-0.055 -0.014,-0.089 l -0.039,-0.199 c -0.273,-1.602 -0.571,-3.463 -0.747,-5.318 -0.041,-0.432 -0.055,-0.889 -0.066,-1.323 0,-0.011 0,-0.02 -0.004,-0.03 l -0.097,-1.682 c -0.063,-0.953 -0.134,-2.03 -0.134,-3.127 0,-4.519 0.449,-9.009 1.341,-13.342 0.419,-2.028 0.932,-4.028 1.531,-5.941 0.023,-0.068 0.037,-0.119 0.049,-0.189 0.006,-0.036 0.016,-0.103 0.031,-0.149 0,0 0,-0.005 0.002,-0.007 8.654,-27.874 34.058,-46.602 63.213,-46.602 4.011,0 8.123,0.464 12.942,1.464 l 0.585,0.125 c 1.511,0.316 3.194,0.75 5.14,1.319 1.032,0.301 2.066,0.674 2.977,1.001 l 0.861,0.309 c 0.789,0.271 1.619,0.56 2.369,0.872 0.013,0.003 0.023,0.011 0.039,0.015 0.107,0.042 0.2,0.085 0.312,0.135 l 0.042,0.022 c 0.365,0.169 0.793,0.158 1.152,-0.035 l 9.68,-5.125 c 0.423,-0.221 0.688,-0.665 0.693,-1.149 0,-0.481 -0.271,-0.919 -0.693,-1.143 -11.087,-5.89 -23.574,-8.999 -36.099,-8.999 -42.655,0 -77.357,34.697 -77.357,77.356 0,17.283 5.676,33.694 16.414,47.456 1.417,1.814 2.982,3.629 4.658,5.414 l -3.156,3.161 c -2.926,2.907 -2.709,5.541 -2.01,7.236 0.867,2.09 3.069,3.549 5.357,3.549 1.209,0 2.387,-0.338 3.816,-1.096 l 6.563,-3.483 c 2.165,1.592 4.346,3.042 6.499,4.314 11.95,7.065 25.513,10.801 39.217,10.801 42.647,0 77.347,-34.699 77.347,-77.353 0.002,-16.49 -5.198,-32.269 -15.048,-45.628 z"
   id="path169" />

	<g
   id="g173">
		<path
   fill="#ffd633"
   d="m 343.908,461.127 c -0.381,0 -0.888,-0.314 -1.026,-0.646 -0.109,-0.265 -0.336,-0.818 0.983,-2.13 l 42.196,-42.189 c 0.741,-0.738 1.101,-1.804 0.966,-2.84 -0.14,-1.032 -0.766,-1.967 -1.669,-2.484 L 356.2,394.063 c -1.019,-0.586 -1.619,-1.481 -1.608,-2.395 0.016,-0.906 0.646,-1.777 1.685,-2.326 l 98.188,-51.924 c 0.936,-0.499 1.369,-0.562 1.649,-0.562 0.387,0 0.857,0.298 0.991,0.622 0.132,0.307 0.362,0.853 -0.964,2.173 l -42.107,42.109 c -0.74,0.734 -1.098,1.792 -0.964,2.829 0.136,1.037 0.758,1.966 1.657,2.487 l 29.109,16.843 c 1.004,0.582 1.596,1.468 1.575,2.372 -0.016,0.923 -0.641,1.796 -1.668,2.346 l -98.204,51.941 c -0.928,0.496 -1.358,0.549 -1.631,0.549 z"
   id="path171" />

	</g>

</g>
  <g
     id="g198"
     transform="matrix(0.5116259,0,0,0.5116259,133.06045,351.33862)">
	<path
   fill="#2ba977"
   d="m 125.646,176.425 0.165,-0.087 c -2.035,1.246 -4.238,2.454 -6.638,3.646 -2.425,1.21 -5.138,1.847 -7.847,1.847 -2.577,0 -5.173,-0.58 -7.519,-1.681 L 84.201,170.904 C 78.044,168 74.076,161.72 74.094,154.916 c 0.006,-0.828 0.065,-1.648 0.183,-2.457 -0.908,0.017 -1.822,0.025 -2.741,0.025 -35.598,-0.039 -56.848,-19.229 -56.848,-51.327 0,-28.259 18.333,-48.77 45.521,-52.274 v -13.72 c 0,-9.721 7.906,-17.627 17.627,-17.627 H 98.97 c 1.934,0 3.845,0.328 5.659,0.952 1.813,-0.624 3.728,-0.952 5.657,-0.952 h 21.126 c 9.723,0 17.629,7.906 17.629,17.627 v 21.466 c 0,1.062 -0.096,2.115 -0.281,3.148 1.539,2.651 2.384,5.687 2.384,8.801 v 43.243 c -0.396,-0.01 -0.785,-0.053 -1.188,-0.053 -2.621,0 -5.168,0.303 -7.623,0.851 v -44.04 c 0,-2.905 -1.422,-5.458 -3.588,-7.062 0.937,-1.398 1.482,-3.078 1.482,-4.888 V 35.163 c 0,-4.869 -3.945,-8.813 -8.814,-8.813 h -21.126 c -2.167,0 -4.126,0.811 -5.659,2.108 -1.533,-1.297 -3.492,-2.108 -5.657,-2.108 H 77.838 c -4.869,0 -8.813,3.945 -8.813,8.813 v 22 c -0.125,0 -0.252,0 -0.381,0 -27,0 -45.141,17.68 -45.141,43.993 0,26.983 17.51,42.479 48.043,42.515 0.002,0 0.005,0 0.007,0 8.419,0 16.118,-0.721 25.847,-2.43 -1.904,1.762 -4.727,3.564 -9.391,5.729 -3.101,1.439 -5.092,4.549 -5.102,7.967 -0.008,3.424 1.964,6.537 5.055,7.999 l 19.607,9.242 c 1.191,0.557 2.475,0.837 3.757,0.837 1.343,0 2.685,-0.305 3.921,-0.92 2.429,-1.206 4.6,-2.416 6.574,-3.659 0.366,0.483 0.727,0.972 1.117,1.435 0.602,0.711 1.215,1.391 1.871,2.047 l -1.434,1.438 c -0.82,0.805 -1.059,1.586 -0.73,2.367 0.254,0.625 0.969,1.102 1.656,1.102 0.412,-0.002 0.814,-0.127 1.345,-0.4 z M 98.97,132.001 c -10.829,2.047 -18.796,2.855 -27.416,2.855 -25.808,-0.025 -39.239,-11.555 -39.239,-33.7 0,-21.333 14.253,-35.179 36.329,-35.179 3.43,0 6.041,0.268 9.194,1.078 V 35.163 H 98.97 Z M 78.578,84.506 c -2.475,-0.805 -4.513,-1.077 -7.125,-1.077 -10.686,0 -16.858,6.517 -16.858,17.946 0,11.118 5.896,17.257 16.721,17.257 2.339,0 4.243,-0.129 7.262,-0.533 z m 38.522,75.583 c -1.59,-4.016 -2.492,-8.391 -2.492,-12.977 0,-2.766 0.352,-5.438 0.949,-8.023 1.094,-4.664 3.102,-8.977 5.844,-12.734 2.871,-3.922 6.512,-7.242 10.727,-9.719 0.455,-0.268 0.924,-0.512 1.392,-0.759 V 68.579 h -21.103 v 41.266 c 0,18.21 -0.949,25.133 -3.969,31.108 -2.881,5.847 -7.396,9.677 -16.725,14.012 l 19.604,9.24 c 2.297,-1.142 4.3,-2.256 6.068,-3.388 -0.046,-0.109 -0.103,-0.213 -0.147,-0.322 -0.051,-0.133 -0.09,-0.273 -0.148,-0.406 z M 131.412,35.163 h -21.126 v 21.466 h 21.126 z"
   id="path188" />

	<g
   id="g194">
		<path
   fill="#33cccc"
   d="m 175.111,122.315 -2.469,2.469 -2.492,2.484 c 5.027,5.117 8.145,12.125 8.145,19.844 0,15.625 -12.715,28.344 -28.34,28.344 -5.375,0 -10.379,-1.531 -14.668,-4.133 l -3.559,1.883 -3.078,1.625 -0.336,0.18 c 5.988,4.648 13.484,7.453 21.641,7.453 19.488,0 35.355,-15.852 35.355,-35.352 0.001,-9.656 -3.906,-18.406 -10.199,-24.797 z"
   id="path190" />

		<path
   fill="#33cccc"
   d="m 128.889,166.003 c -0.493,-0.552 -0.959,-1.126 -1.408,-1.713 -1.793,-2.343 -3.232,-4.957 -4.229,-7.787 -0.027,-0.077 -0.046,-0.158 -0.072,-0.235 -0.989,-2.879 -1.561,-5.945 -1.561,-9.155 0,-0.031 0,-0.055 0,-0.094 0.027,-6.492 2.258,-12.461 5.965,-17.234 1.665,-2.146 3.635,-4.043 5.838,-5.636 2.656,-1.921 5.658,-3.388 8.896,-4.298 2.312,-0.649 4.739,-1.023 7.251,-1.059 0.133,0 0.254,-0.016 0.387,-0.016 0.396,0 0.791,0.013 1.184,0.029 3.267,0.139 6.383,0.845 9.273,2.002 1.477,0.578 2.879,1.297 4.219,2.117 l 3.566,-1.891 3.406,-1.805 c -2.879,-2.242 -6.105,-4.039 -9.59,-5.305 -3.406,-1.242 -7.039,-1.969 -10.828,-2.102 -0.014,0 -0.028,-0.002 -0.042,-0.002 -0.396,-0.01 -0.785,-0.053 -1.188,-0.053 -2.621,0 -5.168,0.303 -7.623,0.851 -3.111,0.694 -6.065,1.803 -8.813,3.258 -0.468,0.247 -0.937,0.491 -1.392,0.759 -4.215,2.477 -7.855,5.797 -10.727,9.719 -2.742,3.758 -4.75,8.07 -5.844,12.734 -0.598,2.586 -0.949,5.258 -0.949,8.023 0,4.586 0.902,8.961 2.492,12.977 0.059,0.133 0.098,0.273 0.148,0.406 0.045,0.109 0.102,0.213 0.147,0.322 1.158,2.731 2.655,5.284 4.427,7.618 0.366,0.483 0.727,0.972 1.117,1.435 0.602,0.711 1.215,1.391 1.871,2.047 l 2.461,-2.461 2.496,-2.492 c -0.304,-0.311 -0.593,-0.639 -0.878,-0.959 z"
   id="path192" />

	</g>

	<path
   fill="#ffcc00"
   d="m 177.264,118.503 c -0.246,-0.625 -0.961,-1.094 -1.648,-1.094 -0.422,0 -0.813,0.125 -1.348,0.406 l -2.664,1.414 -3.406,1.805 -3.566,1.891 -5.824,3.07 -8.018,4.241 -7.799,4.126 -1.473,0.778 -9.818,5.188 -2.342,1.237 c -0.895,0.469 -1.438,1.289 -1.461,2.18 -0.008,0.906 0.5,1.719 1.387,2.227 l 0.488,0.28 3.063,1.759 4.618,2.661 3.519,2.026 c 0.461,0.266 0.781,0.727 0.848,1.266 0.031,0.195 -0.02,0.391 -0.059,0.578 -0.066,0.32 -0.199,0.625 -0.426,0.852 l -11.566,11.57 -2.496,2.492 -2.461,2.461 -1.434,1.438 c -0.82,0.805 -1.059,1.586 -0.73,2.367 0.254,0.625 0.969,1.102 1.656,1.102 0.41,0 0.813,-0.125 1.344,-0.398 l 0.165,-0.087 2.503,-1.327 0.336,-0.18 3.078,-1.625 3.559,-1.883 35.281,-18.664 c 0.895,-0.477 1.426,-1.273 1.445,-2.188 0.023,-0.883 -0.484,-1.711 -1.363,-2.219 l -11.68,-6.758 c -0.453,-0.266 -0.766,-0.734 -0.84,-1.266 -0.063,-0.516 0.117,-1.047 0.484,-1.43 l 11.535,-11.531 2.492,-2.484 2.469,-2.469 1.43,-1.43 c 0.819,-0.827 1.058,-1.609 0.722,-2.382 z"
   id="path196" />

</g>
  <g
     id="g229"
     transform="matrix(0.58615073,0,0,0.58615073,746.52711,16.582061)">
	<g
   id="g217">
		<path
   fill="#33cccc"
   d="m 179.363,122.633 -2.469,2.469 -2.492,2.484 c 5.027,5.117 8.145,12.125 8.145,19.844 0,15.625 -12.715,28.344 -28.34,28.344 -5.375,0 -10.379,-1.531 -14.668,-4.133 l -3.559,1.883 -3.078,1.625 -0.336,0.18 c 5.988,4.648 13.484,7.453 21.641,7.453 19.488,0 35.355,-15.852 35.355,-35.352 10e-4,-9.657 -3.906,-18.407 -10.199,-24.797 z"
   id="path213" />

		<path
   fill="#33cccc"
   d="m 133.141,166.32 c -2.461,-2.75 -4.391,-5.961 -5.637,-9.5 -1.039,-2.945 -1.633,-6.094 -1.633,-9.391 0,-0.031 0,-0.055 0,-0.094 0.027,-6.492 2.258,-12.461 5.965,-17.234 5.109,-6.586 13.043,-10.867 21.984,-10.992 0.133,0 0.254,-0.016 0.387,-0.016 3.699,0 7.219,0.734 10.457,2.031 1.477,0.578 2.879,1.297 4.219,2.117 l 3.566,-1.891 3.406,-1.805 c -2.879,-2.242 -6.105,-4.039 -9.59,-5.305 -3.406,-1.242 -7.039,-1.969 -10.828,-2.102 -0.41,-0.008 -0.813,-0.055 -1.23,-0.055 -6.508,0 -12.586,1.789 -17.828,4.867 -4.215,2.477 -7.855,5.797 -10.727,9.719 -2.742,3.758 -4.75,8.07 -5.844,12.734 -0.598,2.586 -0.949,5.258 -0.949,8.023 0,4.586 0.902,8.961 2.492,12.977 0.059,0.133 0.098,0.273 0.148,0.406 1.41,3.422 3.34,6.586 5.691,9.375 0.602,0.711 1.215,1.391 1.871,2.047 l 2.461,-2.461 2.496,-2.492 c -0.303,-0.309 -0.592,-0.637 -0.877,-0.958 z"
   id="path215" />

	</g>

	<g
   id="g225">
		<path
   fill="#539e43"
   d="m 136.379,116.953 c 0.789,-0.461 1.629,-0.836 2.453,-1.238 0.039,-0.504 0.094,-1 0.098,-1.523 0,-13.674 -9.223,-17.33 -28.781,-19.877 -19.715,-2.543 -21.781,-3.977 -21.781,-8.582 0,-3.816 1.746,-8.906 16.375,-8.906 13.039,0 17.969,2.863 19.875,11.605 0.16,0.797 0.957,1.434 1.75,1.434 h 8.27 c 0.477,0 0.953,-0.32 1.27,-0.637 0.32,-0.477 0.477,-0.953 0.477,-1.43 -1.27,-15.266 -11.285,-22.262 -31.641,-22.262 -18.125,0 -28.938,7.633 -28.938,20.512 0,13.832 10.813,17.648 28.141,19.396 20.832,2.066 22.422,5.086 22.422,9.223 0,7.156 -5.723,10.176 -19.078,10.176 -16.855,0 -20.512,-4.133 -21.789,-12.563 0,-0.953 -0.793,-1.586 -1.742,-1.586 h -8.273 c -1.113,0 -1.906,0.949 -1.906,1.906 0,10.813 5.727,23.531 33.551,23.531 5.414,0 10.18,-0.59 14.285,-1.695 1.102,-2.77 2.504,-5.391 4.238,-7.766 2.868,-3.921 6.509,-7.241 10.724,-9.718 z"
   id="path219" />

		<path
   fill="#539e43"
   d="M 67.539,142.016 V 69.67 c 0,-1.113 -0.957,-1.906 -1.914,-1.906 h -8.109 c -1.109,0 -1.906,0.953 -1.906,1.906 v 72.346 c 0,5.566 -5.883,11.133 -15.262,6.363 l -17.332,-10.02 c -0.637,-0.316 -0.957,-1.113 -0.957,-1.75 V 63.311 c 0,-0.637 0.32,-1.43 0.957,-1.75 l 63.441,-36.57 c 0.477,-0.316 1.27,-0.316 1.91,0 l 63.441,36.57 c 0.637,0.32 0.953,0.953 0.953,1.75 v 48.873 c 0.484,-0.02 0.953,-0.098 1.445,-0.098 0.418,0 0.82,0.047 1.23,0.055 3.105,0.109 6.07,0.711 8.93,1.574 V 63.471 c 0,-4.773 -2.539,-9.227 -6.676,-11.609 L 94.25,15.131 c -3.977,-2.227 -9.383,-2.227 -13.359,0 L 17.45,51.861 c -4.137,2.383 -6.676,6.836 -6.676,11.609 v 73.299 c 0,4.77 2.539,9.223 6.676,11.609 l 16.695,9.539 c 8.109,3.973 10.973,3.973 14.629,3.973 11.925,0.001 18.765,-7.312 18.765,-19.874 z"
   id="path221" />

		<path
   fill="#539e43"
   d="m 121.5,160.813 c -0.051,-0.133 -0.09,-0.273 -0.148,-0.406 -0.477,-1.203 -0.867,-2.445 -1.215,-3.711 l -31.77,18.395 c -0.48,0.316 -1.273,0.316 -1.91,0 l -16.219,-9.699 c -0.477,-0.32 -1.113,-0.477 -1.59,-0.156 -4.453,2.539 -5.25,2.859 -9.539,4.289 -0.957,0.32 -2.543,0.957 0.633,2.703 l 21.148,12.563 c 2.07,1.113 4.297,1.75 6.68,1.75 2.227,0 4.609,-0.477 6.68,-1.43 l 30.836,-17.852 c -1.387,-2.029 -2.641,-4.15 -3.586,-6.446 z"
   id="path223" />

	</g>

	<path
   fill="#ffcc00"
   d="m 181.516,118.82 c -0.246,-0.625 -0.961,-1.094 -1.648,-1.094 -0.422,0 -0.813,0.125 -1.348,0.406 l -2.664,1.414 -3.406,1.805 -3.566,1.891 -5.824,3.07 -15.816,8.367 -13.633,7.203 c -0.895,0.469 -1.438,1.289 -1.461,2.18 -0.008,0.906 0.5,1.719 1.387,2.227 l 3.551,2.039 8.137,4.688 c 0.461,0.266 0.781,0.727 0.848,1.266 0.031,0.195 -0.02,0.391 -0.059,0.578 -0.066,0.32 -0.199,0.625 -0.426,0.852 l -11.566,11.57 -2.496,2.492 -2.461,2.461 -1.434,1.438 c -0.82,0.805 -1.059,1.586 -0.73,2.367 0.254,0.625 0.969,1.102 1.656,1.102 0.41,0 0.813,-0.125 1.344,-0.398 l 2.668,-1.414 0.336,-0.18 3.078,-1.625 3.559,-1.883 35.281,-18.664 c 0.895,-0.477 1.426,-1.273 1.445,-2.188 0.023,-0.883 -0.484,-1.711 -1.363,-2.219 l -11.68,-6.758 c -0.453,-0.266 -0.766,-0.734 -0.84,-1.266 -0.063,-0.516 0.117,-1.047 0.484,-1.43 l 11.535,-11.531 2.492,-2.484 2.469,-2.469 1.43,-1.43 c 0.818,-0.828 1.057,-1.609 0.721,-2.383 z"
   id="path227" />

</g>
  <g
     id="g267"
     transform="translate(764.68202,261.40384)">
	<path
   fill="none"
   d="M 38.566,119.613 20.082,68.98 c -4.156,9.313 -6.484,19.621 -6.484,30.484 0,10.781 2.301,21.008 6.398,30.27 4.992,11.281 12.68,21.098 22.262,28.629 4.188,3.297 8.723,6.168 13.559,8.516 l -4.844,-13.273 z"
   id="path247" />

	<path
   fill="none"
   d="m 162.188,112.879 c 0.781,-4.348 1.23,-8.832 1.23,-13.414 0,-13.023 -3.328,-25.266 -9.172,-35.934 0.324,2.379 0.496,4.938 0.496,7.699 0,7.602 -1.41,16.141 -5.691,26.832 l -6.875,19.867 c 5.504,-3.23 11.887,-5.109 18.719,-5.109 0.437,0 0.863,0.051 1.293,0.059 z"
   id="path249" />

	<path
   fill="none"
   d="m 95.355,121.18 -5.535,-15.16 -9.613,27.949 -12.859,37.355 c 6.711,1.984 13.805,3.063 21.164,3.063 8.723,0 17.086,-1.52 24.871,-4.25 -0.195,-0.328 -0.387,-0.664 -0.535,-1.043 z"
   id="path251" />

	<path
   fill="none"
   d="m 126.176,164.223 c 0.125,-0.082 0.25,-0.164 0.375,-0.238 -0.051,-0.141 -0.094,-0.289 -0.152,-0.426 z"
   id="path253" />

	<path
   fill="none"
   d="m 133.375,119.906 c 3.238,-10.359 5.699,-17.809 5.699,-24.219 0,-8.406 -2.734,-14.461 -5.371,-19.234 -0.27,-0.48 -0.543,-0.969 -0.801,-1.426 -3.789,-6.172 -7.359,-11.391 -7.359,-17.57 0,-6.887 5.215,-13.293 12.574,-13.293 0.34,0 0.656,0.031 0.977,0.059 -5.941,-5.445 -12.781,-9.941 -20.246,-13.254 -9.281,-4.121 -19.539,-6.414 -30.336,-6.414 -26.176,0 -49.199,13.426 -62.594,33.762 1.758,0.059 3.418,0.09 4.824,0.09 7.828,0 19.965,-0.949 19.965,-0.949 4.031,-0.23 4.508,5.699 0.477,6.18 0,0 -4.063,0.473 -8.57,0.711 l 14.328,42.625 11.895,35.387 1.055,3.125 1.691,-5.078 L 86.289,96.32 81.941,84.41 74.613,64.347 c -4.035,-0.238 -7.855,-0.711 -7.855,-0.711 -4.043,-0.246 -3.566,-6.41 0.473,-6.18 0,0 12.367,0.949 19.73,0.949 5.223,0 12.328,-0.426 16.508,-0.703 2.082,-0.145 3.453,-0.246 3.453,-0.246 4.039,-0.23 4.523,5.699 0.484,6.18 0,0 -4.059,0.473 -8.574,0.711 l 13.371,39.777 12.574,37.383 c 1.148,-4.898 3.258,-9.426 6.137,-13.371 z"
   id="path255" />

	<path
   fill="#3d596d"
   d="m 126.176,164.223 0.223,-0.664 c -1.672,-4.219 -2.617,-8.813 -2.617,-13.629 0,-2.902 0.367,-5.707 0.996,-8.422 L 112.204,104.125 98.832,64.348 c 4.516,-0.238 8.574,-0.711 8.574,-0.711 4.039,-0.48 3.555,-6.41 -0.484,-6.18 0,0 -1.371,0.102 -3.453,0.246 -4.18,0.277 -11.285,0.703 -16.508,0.703 -7.363,0 -19.73,-0.949 -19.73,-0.949 -4.039,-0.23 -4.516,5.934 -0.473,6.18 0,0 3.82,0.473 7.855,0.711 l 7.328,20.063 4.348,11.91 -14.707,44.086 -1.691,5.078 L 68.836,142.36 56.941,106.973 42.613,64.348 c 4.508,-0.238 8.57,-0.711 8.57,-0.711 4.031,-0.48 3.555,-6.41 -0.477,-6.18 0,0 -12.137,0.949 -19.965,0.949 -1.406,0 -3.066,-0.031 -4.824,-0.09 13.396,-20.336 36.419,-33.761 62.595,-33.761 10.797,0 21.055,2.293 30.336,6.414 7.465,3.313 14.305,7.809 20.246,13.254 -0.32,-0.027 -0.637,-0.059 -0.977,-0.059 -7.359,0 -12.574,6.406 -12.574,13.293 0,6.18 3.57,11.398 7.359,17.57 0.258,0.457 0.531,0.945 0.801,1.426 2.637,4.773 5.371,10.828 5.371,19.234 0,6.41 -2.461,13.859 -5.699,24.219 l -2.461,8.23 c 3.012,-4.117 6.836,-7.605 11.262,-10.207 l 6.875,-19.867 c 4.281,-10.691 5.691,-19.23 5.691,-26.832 0,-2.762 -0.172,-5.32 -0.496,-7.699 5.844,10.668 9.172,22.91 9.172,35.934 0,4.582 -0.449,9.066 -1.23,13.414 3.977,0.137 7.793,0.902 11.367,2.207 0.934,-5.078 1.484,-10.281 1.484,-15.621 0,-22.125 -8.355,-42.328 -22.066,-57.648 -8.137,-9.078 -18.145,-16.418 -29.426,-21.434 -10.715,-4.766 -22.563,-7.438 -35.035,-7.438 -47.715,0 -86.531,38.813 -86.531,86.52 0,12.445 2.66,24.273 7.414,34.973 5.016,11.309 12.375,21.344 21.469,29.488 15.316,13.715 35.52,22.066 57.648,22.066 16.086,0 31.109,-4.488 44.016,-12.164 -2.469,-2.93 -4.492,-6.25 -5.977,-9.844 -0.125,0.075 -0.25,0.157 -0.375,0.239 z m -83.918,-5.86 c -9.582,-7.531 -17.27,-17.348 -22.262,-28.629 -4.098,-9.262 -6.398,-19.488 -6.398,-30.27 0,-10.863 2.328,-21.172 6.484,-30.484 l 18.484,50.633 12.406,33.992 4.844,13.273 c -4.836,-2.347 -9.371,-5.218 -13.558,-8.515 z m 46.254,16.024 c -7.359,0 -14.453,-1.078 -21.164,-3.063 l 12.859,-37.355 9.613,-27.949 5.535,15.16 17.492,47.914 c 0.148,0.379 0.34,0.715 0.535,1.043 -7.784,2.73 -16.148,4.25 -24.87,4.25 z"
   id="path257" />

	<g
   id="g263">
		<path
   fill="#33cccc"
   d="m 187.309,123.895 -2.59,2.594 -2.617,2.605 c 5.277,5.375 8.551,12.734 8.551,20.836 0,16.406 -13.352,29.762 -29.758,29.762 -5.645,0 -10.898,-1.605 -15.402,-4.34 l -3.734,1.977 -3.234,1.707 -0.352,0.191 c 6.289,4.879 14.16,7.824 22.723,7.824 20.465,0 37.125,-16.645 37.125,-37.121 -10e-4,-10.137 -4.103,-19.325 -10.712,-26.035 z"
   id="path259" />

		<path
   fill="#33cccc"
   d="m 138.773,169.766 c -2.582,-2.887 -4.609,-6.258 -5.918,-9.973 -1.09,-3.094 -1.715,-6.398 -1.715,-9.863 0,-0.031 0,-0.055 0,-0.098 0.031,-6.816 2.371,-13.082 6.266,-18.094 5.363,-6.918 13.695,-11.41 23.082,-11.543 0.141,0 0.266,-0.016 0.406,-0.016 3.883,0 7.582,0.77 10.98,2.133 1.551,0.605 3.023,1.359 4.43,2.223 l 3.746,-1.984 3.574,-1.895 c -3.023,-2.355 -6.41,-4.242 -10.07,-5.57 -3.574,-1.305 -7.391,-2.07 -11.367,-2.207 -0.43,-0.008 -0.855,-0.059 -1.293,-0.059 -6.832,0 -13.215,1.879 -18.719,5.109 -4.426,2.602 -8.25,6.09 -11.262,10.207 -2.879,3.945 -4.988,8.473 -6.137,13.371 -0.629,2.715 -0.996,5.52 -0.996,8.422 0,4.816 0.945,9.41 2.617,13.629 0.059,0.137 0.102,0.285 0.152,0.426 1.484,3.594 3.508,6.914 5.977,9.844 0.633,0.746 1.277,1.461 1.965,2.148 l 2.586,-2.586 2.621,-2.613 c -0.319,-0.328 -0.624,-0.675 -0.925,-1.011 z"
   id="path261" />

	</g>

	<path
   fill="#ffcc00"
   d="m 189.57,119.891 c -0.258,-0.656 -1.012,-1.148 -1.73,-1.148 -0.445,0 -0.855,0.133 -1.418,0.426 l -2.797,1.488 -3.574,1.895 -3.746,1.984 -6.117,3.223 -16.605,8.785 -14.316,7.563 c -0.938,0.492 -1.508,1.355 -1.531,2.289 -0.008,0.953 0.523,1.805 1.457,2.34 l 3.727,2.141 8.543,4.922 c 0.484,0.277 0.82,0.762 0.891,1.328 0.031,0.207 -0.02,0.41 -0.063,0.609 -0.07,0.336 -0.207,0.656 -0.445,0.891 l -12.145,12.152 -2.621,2.613 -2.586,2.586 -1.504,1.508 c -0.863,0.848 -1.113,1.668 -0.766,2.488 0.266,0.656 1.016,1.156 1.738,1.156 0.43,0 0.852,-0.133 1.41,-0.418 l 2.801,-1.484 0.352,-0.191 3.234,-1.707 3.734,-1.977 37.047,-19.598 c 0.938,-0.5 1.496,-1.336 1.516,-2.297 0.027,-0.926 -0.508,-1.793 -1.43,-2.328 l -12.262,-7.094 c -0.477,-0.281 -0.805,-0.773 -0.883,-1.332 -0.066,-0.539 0.121,-1.098 0.508,-1.5 l 12.113,-12.109 2.617,-2.605 2.59,-2.594 1.5,-1.5 c 0.863,-0.873 1.113,-1.693 0.761,-2.505 z"
   id="path265" />

</g>
</svg>
