<svg xmlns="http://www.w3.org/2000/svg" xmlns:xlink="http://www.w3.org/1999/xlink" data-name="Layer 1" width="971.44" height="502"><defs><linearGradient id="a" x1="599.5" y1="668.05" x2="599.5" y2="199" gradientUnits="userSpaceOnUse"><stop offset="0" stop-color="gray" stop-opacity=".25"/><stop offset=".54" stop-color="gray" stop-opacity=".12"/><stop offset="1" stop-color="gray" stop-opacity=".1"/></linearGradient><linearGradient id="b" x1="485.72" y1="258.88" x2="485.72" y2="71.12" xlink:href="#a"/></defs><path d="M852.69 199H346.31A16.37 16.37 0 00330 215.42v348.52a16.37 16.37 0 0016.31 16.42h174.16v60.16h-7.94a8.3 8.3 0 00-8.27 8.33v12.07h16.21v7.14h158.06v-7.14h16.21v-12.07a8.3 8.3 0 00-8.27-8.33H679V640h-.51v-59.64h174.2A16.37 16.37 0 00869 563.94V215.42A16.37 16.37 0 00852.69 199z" transform="translate(-114.28 -199)" fill="url(#a)" opacity=".7"/><path fill="#bdbdbd" d="M407.72 371h156v92h-156z"/><path d="M410.79 380h150.17c1.81-7.87 3.26-13 3.26-13h-157s1.61 5.11 3.57 13z" opacity=".1"/><path d="M235.82 3h499.8a16.1 16.1 0 0116.1 16.1V327h-532V19.1A16.1 16.1 0 01235.82 3z" fill="#535461"/><path d="M735.62 377h-499.8a16.1 16.1 0 01-16.1-16.1V327h532v33.9a16.1 16.1 0 01-16.1 16.1z" fill="#bdbdbd"/><circle cx="485.72" cy="352" r="9" fill="#535461"/><path d="M399.89 436h171.66a8.17 8.17 0 018.17 8.17V456h-188v-11.83a8.17 8.17 0 018.17-8.17z" fill="#bdbdbd"/><rect x="320.72" y="71.12" width="330" height="187.76" rx="4.5" ry="4.5" fill="url(#b)" opacity=".5"/><rect x="324.95" y="72.5" width="321.54" height="183.96" rx="4.5" ry="4.5" fill="#fff"/><rect x="414.52" y="98.91" width="35.44" height="31.9" rx="4.5" ry="4.5" fill="#007bfc" opacity=".5"/><rect x="460.59" y="98.91" width="95.69" height="3.54" rx="1.77" ry="1.77" fill="#e0e0e0"/><rect x="460.59" y="109.55" width="79.54" height="3.54" rx="1.77" ry="1.77" fill="#e0e0e0"/><rect x="414.52" y="148.53" width="35.44" height="31.9" rx="4.5" ry="4.5" fill="#007bfc" opacity=".5"/><rect x="460.59" y="148.53" width="95.69" height="3.54" rx="1.77" ry="1.77" fill="#e0e0e0"/><rect x="460.59" y="159.16" width="95.69" height="3.54" rx="1.77" ry="1.77" fill="#e0e0e0"/><rect x="414.52" y="198.15" width="35.44" height="31.9" rx="4.5" ry="4.5" fill="#007bfc" opacity=".5"/><rect x="460.59" y="198.15" width="95.69" height="3.54" rx="1.77" ry="1.77" fill="#e0e0e0"/><rect x="460.59" y="208.78" width="96.33" height="3.54" rx="1.59" ry="1.59" fill="#e0e0e0"/><path stroke="#007bfc" stroke-miterlimit="10" stroke-width="2" d="M485.72 42V20M485.72 79V50.13"/><circle cx="485.72" cy="79" r="4" fill="#007bfc"/><circle cx="485.72" cy="46" r="4" fill="none" stroke="#fff" stroke-miterlimit="10"/><path stroke="#007bfc" stroke-miterlimit="10" stroke-width="2" d="M485.72 42V20M485.72 79V50.13"/><circle cx="485.72" cy="79" r="4" fill="#007bfc"/><circle cx="485.72" cy="46" r="4" fill="none" stroke="#fff" stroke-miterlimit="10"/><path stroke="#007bfc" stroke-miterlimit="10" stroke-width="2" d="M485.72 279v31M485.72 251v28.87"/><circle cx="485.72" cy="251" r="4" fill="#007bfc"/><path stroke="#007bfc" stroke-miterlimit="10" stroke-width="2" d="M305.72 168.5h-31.5M333.22 168.5h-28.87"/><circle cx="333.22" cy="168.5" r="4" fill="#007bfc"/><path d="M408.22 435.5h156v3h-156z" opacity=".1"/><path fill="#e0e0e0" d="M0 455.6h971.44v32.93H0z"/><path fill="#e0e0e0" d="M41.16 488.53h889.11V502H41.16z"/><path opacity=".1" d="M41.16 488.53h889.11v4.49H41.16z"/><path stroke="#007bfc" stroke-miterlimit="10" stroke-width="2" d="M690.22 168.5h6M637.22 168.5h44.88"/><circle cx="637.22" cy="168.5" r="4" fill="#007bfc"/><circle cx="686.22" cy="168.5" r="4" fill="none" stroke="#fff" stroke-miterlimit="10"/><path fill="#75d1df" d="M147.507 43.658a1.298 1.298 0 00-.94-.52 1.3 1.3 0 00-1.007.37l-6.076 6.055a1.301 1.301 0 00-.142 1.657c7.836 11.075 11.988 24.056 11.988 37.549 0 36.06-29.39 65.406-65.516 65.406-2.505 0-5.112-.183-8.188-.562-.191-.029-1.01-.155-1.532-.24a67.759 67.759 0 01-7.268-1.502s-.367-.094-.445-.12c-.024-.004-.042-.012-.067-.023a64.898 64.898 0 01-8.475-3.022 61.75 61.75 0 01-8.074-4.246l79.564-42.077c2.529-1.34 4.068-3.697 4.113-6.306.054-2.605-1.389-5.02-3.87-6.455l-27.325-15.815 40.432-40.433c2.908-2.9 2.676-5.514 1.976-7.178-.836-2.058-3.006-3.497-5.276-3.497-1.22 0-2.353.326-3.786 1.094L40.52 75.123c-2.538 1.34-4.083 3.704-4.13 6.335-.039 2.617 1.425 5.022 3.909 6.435l27.373 15.751-29.582 29.575a68.98 68.98 0 01-4.636-5.579c-6.042-8.15-10.015-17.156-11.802-26.762a5.53 5.53 0 01-.064-.414c-.005-.028-.007-.054-.014-.088l-.038-.197c-.27-1.583-.565-3.423-.739-5.257a19.24 19.24 0 01-.065-1.308c0-.011 0-.02-.004-.03l-.096-1.663c-.062-.942-.132-2.007-.132-3.091 0-4.468.444-8.907 1.325-13.19a61.135 61.135 0 011.514-5.874c.023-.067.037-.117.048-.187.006-.035.016-.101.031-.147 0 0 0-.005.002-.007 8.556-27.557 33.67-46.072 62.494-46.072 3.966 0 8.03.459 12.795 1.448l.578.123c1.494.313 3.158.742 5.082 1.304 1.02.298 2.042.666 2.943.99l.851.305c.78.268 1.6.554 2.342.862.013.003.023.011.039.015.106.042.198.084.308.134l.042.021c.36.167.784.157 1.139-.034l9.57-5.067c.418-.218.68-.657.685-1.136 0-.475-.268-.908-.685-1.13a76.356 76.356 0 00-35.689-8.897c-42.17 0-76.477 34.303-76.477 76.477 0 17.086 5.611 33.31 16.227 46.916a78.114 78.114 0 004.605 5.352l-3.12 3.125c-2.893 2.874-2.678 5.478-1.987 7.154.857 2.066 3.034 3.509 5.296 3.509 1.195 0 2.36-.334 3.773-1.084l6.488-3.443a77.154 77.154 0 006.425 4.265c11.814 6.984 25.223 10.678 38.771 10.678 42.162 0 76.467-34.304 76.467-76.473.002-16.303-5.138-31.902-14.876-45.11z"/><path fill="#ffd633" d="M30.46 150.19c-.378 0-.879-.31-1.015-.639-.108-.262-.332-.808.972-2.105l41.716-41.71a3.376 3.376 0 00.955-2.807 3.377 3.377 0 00-1.65-2.456L42.61 83.889c-1.007-.58-1.6-1.464-1.59-2.368.016-.896.64-1.757 1.666-2.3l97.072-51.333c.925-.493 1.353-.556 1.63-.556.383 0 .847.295.98.615.13.304.358.844-.953 2.149l-41.628 41.63a3.354 3.354 0 00-.953 2.797 3.366 3.366 0 001.638 2.458l28.778 16.652c.992.575 1.577 1.451 1.557 2.345-.016.912-.634 1.775-1.65 2.319l-97.086 51.35c-.918.49-1.343.543-1.613.543z"/><path fill="#2ba977" d="M197.344 441.602l.085-.044a43.839 43.839 0 01-3.397 1.865 9.036 9.036 0 01-4.014.945 9.108 9.108 0 01-3.847-.86l-10.031-4.73a9.055 9.055 0 01-5.171-8.18c.003-.424.033-.844.093-1.257-.464.008-.932.012-1.402.012-18.213-.02-29.085-9.838-29.085-26.26 0-14.458 9.38-24.952 23.29-26.745v-7.02c0-4.973 4.045-9.018 9.018-9.018h10.813c.99 0 1.967.168 2.895.488a8.905 8.905 0 012.895-.488h10.808c4.975 0 9.02 4.045 9.02 9.019v10.982c0 .544-.05 1.083-.144 1.611a8.98 8.98 0 011.22 4.503v22.124c-.203-.005-.402-.027-.608-.027-1.341 0-2.644.155-3.9.435v-22.532a4.486 4.486 0 00-1.836-3.613c.48-.715.758-1.574.758-2.5v-10.983a4.508 4.508 0 00-4.51-4.509h-10.808a4.465 4.465 0 00-2.895 1.078 4.465 4.465 0 00-2.894-1.078h-10.813a4.508 4.508 0 00-4.509 4.509v11.256h-.195c-13.813 0-23.095 9.045-23.095 22.508 0 13.805 8.959 21.733 24.58 21.751h.004c4.307 0 8.246-.368 13.224-1.243-.974.902-2.419 1.824-4.805 2.931a4.511 4.511 0 00-.024 8.169l10.032 4.728c.609.285 1.266.429 1.922.429.687 0 1.373-.156 2.006-.471a38.035 38.035 0 003.363-1.872c.187.247.372.497.572.734.308.364.621.712.957 1.047l-.734.736c-.42.412-.542.811-.373 1.211a.96.96 0 00.847.564c.21-.001.417-.065.688-.205zm-13.648-22.728c-5.54 1.047-9.616 1.46-14.027 1.46-13.204-.012-20.075-5.911-20.075-17.241 0-10.915 7.292-17.999 18.586-17.999 1.755 0 3.091.137 4.704.552v-16.317h10.812zm-10.433-24.3c-1.266-.412-2.309-.55-3.645-.55-5.468 0-8.625 3.333-8.625 9.18 0 5.689 3.016 8.83 8.555 8.83 1.196 0 2.17-.066 3.715-.273zm19.709 38.67a17.999 17.999 0 01-1.275-6.64c0-1.414.18-2.781.485-4.104a18.024 18.024 0 012.99-6.515 18.298 18.298 0 015.489-4.972c.232-.137.472-.262.712-.389v-24.199h-10.797v21.113c0 9.317-.486 12.859-2.03 15.916-1.475 2.991-3.785 4.95-8.558 7.169l10.03 4.727a33 33 0 003.105-1.733c-.024-.056-.053-.11-.075-.165-.027-.068-.046-.14-.076-.208zm7.322-63.915h-10.808v10.982h10.808z"/><g fill="#3cc"><path d="M222.652 413.918l-1.263 1.263-1.275 1.271c2.572 2.618 4.167 6.204 4.167 10.153 0 7.994-6.506 14.501-14.5 14.501-2.75 0-5.31-.783-7.504-2.114l-1.821.963-1.575.832-.172.092c3.064 2.378 6.899 3.813 11.072 3.813 9.97 0 18.089-8.11 18.089-18.087 0-4.94-1.999-9.417-5.218-12.687zM199.003 436.27c-.252-.282-.49-.576-.72-.876a14.459 14.459 0 01-2.164-3.984c-.013-.04-.023-.081-.036-.12a14.37 14.37 0 01-.8-4.685v-.048a14.424 14.424 0 013.053-8.817 14.63 14.63 0 012.987-2.884 14.47 14.47 0 018.261-2.74c.068 0 .13-.009.198-.009a14.383 14.383 0 015.35 1.04c.756.295 1.473.663 2.158 1.083l1.825-.968 1.743-.923a17.963 17.963 0 00-4.907-2.714 17.97 17.97 0 00-5.54-1.076h-.021c-.203-.006-.402-.028-.608-.028a18.011 18.011 0 00-8.41 2.102c-.239.127-.479.251-.711.389a18.304 18.304 0 00-5.489 4.972 18.028 18.028 0 00-2.99 6.515 18.16 18.16 0 00-.485 4.105c0 2.346.461 4.585 1.275 6.64.03.067.05.139.076.207.023.056.052.109.075.165a18.198 18.198 0 002.265 3.897c.187.247.372.498.571.734.308.364.622.712.957 1.048l1.26-1.26 1.277-1.274c-.156-.16-.304-.327-.45-.49z"/></g><path fill="#fc0" d="M223.753 411.968c-.126-.32-.491-.56-.843-.56-.216 0-.416.064-.69.208l-1.362.723-1.743.924-1.825.967-2.98 1.57-4.101 2.17-3.99 2.112-.754.398-5.023 2.654-1.199.633c-.458.24-.735.66-.747 1.115-.004.464.256.88.71 1.14l.25.143 1.566.9 2.363 1.361 1.8 1.037c.236.136.4.372.434.648.016.1-.01.2-.03.295a.852.852 0 01-.218.436l-5.917 5.92-1.277 1.275-1.26 1.259-.733.736c-.42.411-.542.811-.374 1.21a.96.96 0 00.848.564c.21 0 .416-.064.687-.203l.085-.045 1.28-.679.172-.092 1.575-.831 1.82-.964 18.051-9.549c.458-.244.73-.65.74-1.119.012-.452-.248-.875-.698-1.135l-5.975-3.458a.895.895 0 01-.43-.648.907.907 0 01.248-.731l5.901-5.9 1.275-1.27 1.263-1.264.732-.731c.419-.424.541-.824.37-1.22z"/><g><g fill="#3cc"><path d="M851.66 88.463l-1.446 1.448-1.461 1.456c2.947 2.999 4.774 7.107 4.774 11.631 0 9.159-7.453 16.614-16.611 16.614-3.15 0-6.084-.897-8.598-2.422l-2.086 1.103-1.804.953-.197.105c3.51 2.725 7.903 4.369 12.685 4.369 11.423 0 20.723-9.292 20.723-20.722 0-5.66-2.29-10.789-5.978-14.535zM824.568 114.07a16.63 16.63 0 01-3.304-5.568 16.494 16.494 0 01-.958-5.504v-.055a16.525 16.525 0 013.497-10.102c2.995-3.86 7.645-6.37 12.886-6.443.078 0 .149-.01.227-.01 2.168 0 4.231.43 6.129 1.191.866.339 1.688.76 2.473 1.24l2.09-1.108 1.997-1.058a20.58 20.58 0 00-5.622-3.11 20.588 20.588 0 00-6.346-1.231c-.24-.005-.477-.032-.721-.032a20.561 20.561 0 00-10.45 2.852 20.97 20.97 0 00-6.288 5.697 20.654 20.654 0 00-3.425 7.464 20.805 20.805 0 00-.557 4.703c0 2.688.53 5.252 1.461 7.606.035.078.058.16.087.238a20.868 20.868 0 004.432 6.695l1.443-1.442 1.463-1.46c-.178-.182-.347-.374-.514-.562z"/></g><g fill="#539e43"><path d="M826.466 85.134c.462-.27.955-.49 1.438-.726.022-.295.055-.586.057-.892 0-8.015-5.406-10.158-16.87-11.651-11.556-1.49-12.767-2.331-12.767-5.03 0-2.237 1.023-5.22 9.598-5.22 7.643 0 10.533 1.677 11.65 6.802.094.467.561.84 1.026.84h4.847c.28 0 .559-.187.745-.373.187-.28.28-.559.28-.838-.745-8.949-6.615-13.05-18.547-13.05-10.624 0-16.962 4.475-16.962 12.024 0 8.107 6.338 10.344 16.495 11.369 12.21 1.21 13.142 2.98 13.142 5.406 0 4.194-3.354 5.964-11.182 5.964-9.88 0-12.023-2.422-12.772-7.363 0-.559-.465-.93-1.02-.93h-4.85c-.653 0-1.117.556-1.117 1.117 0 6.338 3.357 13.793 19.666 13.793 3.173 0 5.967-.346 8.373-.994.646-1.623 1.467-3.16 2.484-4.552a20.942 20.942 0 016.286-5.696z"/><path d="M786.115 99.825V57.419c0-.652-.56-1.117-1.122-1.117h-4.753c-.65 0-1.117.559-1.117 1.117v42.406c0 3.262-3.448 6.525-8.946 3.73l-10.159-5.874c-.373-.185-.561-.652-.561-1.025V53.692c0-.374.188-.838.561-1.026l37.186-21.435c.28-.186.744-.186 1.12 0l37.185 21.435c.374.188.56.559.56 1.026v28.647c.283-.012.558-.058.846-.058.245 0 .48.028.721.033 1.82.063 3.558.416 5.234.922v-29.45c0-2.798-1.488-5.409-3.913-6.805l-37.185-21.53c-2.331-1.305-5.5-1.305-7.83 0l-37.187 21.53c-2.424 1.396-3.913 4.006-3.913 6.804v42.964a7.863 7.863 0 003.913 6.805l9.786 5.591c4.753 2.329 6.432 2.329 8.575 2.329 6.99 0 11-4.286 11-11.65zM817.744 110.843c-.03-.078-.052-.16-.086-.238a20.966 20.966 0 01-.712-2.175l-18.623 10.782c-.28.185-.746.185-1.12 0l-9.506-5.685c-.28-.188-.652-.28-.932-.092-2.61 1.488-3.077 1.676-5.591 2.514-.561.188-1.49.561.37 1.585l12.397 7.363c1.213.653 2.519 1.026 3.915 1.026 1.306 0 2.702-.28 3.916-.838l18.074-10.464c-.813-1.19-1.548-2.432-2.102-3.778z"/></g><path fill="#fc0" d="M852.923 86.228c-.144-.366-.563-.64-.966-.64-.247 0-.477.073-.79.237l-1.562.829-1.996 1.058-2.09 1.108-3.414 1.8-9.27 4.904-7.992 4.222c-.524.275-.843.756-.856 1.278-.005.531.293 1.008.813 1.305l2.081 1.196 4.77 2.748a1 1 0 01.497.742c.018.114-.012.229-.035.338a.976.976 0 01-.25.5l-6.779 6.782-1.463 1.46-1.442 1.443-.84.843c-.482.471-.622.93-.429 1.387.15.366.568.646.97.646.241 0 .477-.073.789-.233l1.564-.83.196-.105 1.805-.952 2.086-1.104L849 106.25c.524-.28.836-.746.847-1.282.013-.518-.284-1.003-.8-1.3l-6.845-3.962a1.025 1.025 0 01-.493-.742 1.04 1.04 0 01.284-.838l6.761-6.76 1.46-1.455 1.448-1.448.838-.838c.48-.485.62-.943.423-1.397z"/></g><g><path fill="none" d="M803.248 381.017l-18.484-50.633a74.599 74.599 0 00-6.484 30.484 74.608 74.608 0 006.398 30.27 75.098 75.098 0 0022.262 28.629 74.635 74.635 0 0013.559 8.516l-4.844-13.273zM926.87 374.283c.781-4.348 1.23-8.832 1.23-13.414 0-13.023-3.328-25.266-9.172-35.934.324 2.379.496 4.938.496 7.699 0 7.602-1.41 16.14-5.691 26.832l-6.875 19.867c5.504-3.23 11.887-5.11 18.719-5.11.437 0 .863.052 1.293.06zM860.037 382.584l-5.535-15.16-9.613 27.949-12.859 37.355a74.501 74.501 0 0021.164 3.063c8.723 0 17.086-1.52 24.871-4.25a7.047 7.047 0 01-.535-1.043zM890.858 425.627c.125-.082.25-.164.375-.238-.051-.141-.094-.29-.152-.426z"/><path fill="none" d="M898.057 381.31c3.238-10.36 5.699-17.81 5.699-24.22 0-8.405-2.734-14.46-5.371-19.233-.27-.48-.543-.97-.801-1.426-3.789-6.172-7.359-11.391-7.359-17.57 0-6.887 5.215-13.293 12.574-13.293.34 0 .656.03.977.059a75.033 75.033 0 00-20.246-13.254 74.546 74.546 0 00-30.336-6.414c-26.176 0-49.199 13.426-62.594 33.762 1.758.059 3.418.09 4.824.09 7.828 0 19.965-.95 19.965-.95 4.031-.23 4.508 5.7.477 6.18 0 0-4.063.474-8.57.712l14.328 42.625 11.895 35.387 1.055 3.125 1.691-5.078 14.706-44.088-4.348-11.91-7.328-20.063a139.522 139.522 0 01-7.855-.711c-4.043-.246-3.566-6.41.473-6.18 0 0 12.367.949 19.73.949 5.223 0 12.328-.426 16.508-.703 2.082-.145 3.453-.246 3.453-.246 4.039-.23 4.523 5.699.484 6.18 0 0-4.059.473-8.574.71l13.371 39.778 12.574 37.383a36.978 36.978 0 016.137-13.371z"/><path fill="#3d596d" d="M890.858 425.627l.223-.664a36.91 36.91 0 01-2.617-13.63c0-2.901.367-5.706.996-8.421l-12.574-37.383-13.372-39.777c4.516-.238 8.574-.711 8.574-.711 4.039-.48 3.555-6.41-.484-6.18 0 0-1.371.102-3.453.246-4.18.277-11.285.703-16.508.703-7.363 0-19.73-.95-19.73-.95-4.039-.23-4.516 5.935-.473 6.18 0 0 3.82.474 7.855.712l7.328 20.063 4.348 11.91-14.707 44.086-1.691 5.078-1.055-3.125-11.895-35.387-14.328-42.625c4.508-.238 8.57-.711 8.57-.711 4.031-.48 3.555-6.41-.477-6.18 0 0-12.137.949-19.965.949-1.406 0-3.066-.031-4.824-.09 13.396-20.336 36.419-33.761 62.595-33.761a74.546 74.546 0 0130.336 6.414 75.033 75.033 0 0120.246 13.254c-.32-.027-.637-.06-.977-.06-7.359 0-12.574 6.407-12.574 13.294 0 6.18 3.57 11.398 7.359 17.57.258.457.531.945.801 1.426 2.637 4.773 5.371 10.828 5.371 19.234 0 6.41-2.461 13.859-5.699 24.219l-2.461 8.23a37.55 37.55 0 0111.262-10.207l6.875-19.867c4.281-10.691 5.691-19.23 5.691-26.832 0-2.762-.172-5.32-.496-7.7 5.844 10.669 9.172 22.91 9.172 35.935 0 4.582-.449 9.066-1.23 13.414 3.977.137 7.793.902 11.367 2.207.934-5.078 1.484-10.281 1.484-15.621 0-22.125-8.355-42.328-22.066-57.648a87.003 87.003 0 00-29.426-21.434 85.983 85.983 0 00-35.035-7.438c-47.715 0-86.531 38.813-86.531 86.52a85.913 85.913 0 007.414 34.973 86.92 86.92 0 0021.469 29.488c15.316 13.715 35.52 22.066 57.648 22.066 16.086 0 31.109-4.488 44.016-12.164a37.507 37.507 0 01-5.977-9.844c-.125.075-.25.157-.375.239zm-83.918-5.86a75.098 75.098 0 01-22.262-28.63 74.588 74.588 0 01-6.398-30.27 74.595 74.595 0 016.484-30.483l18.484 50.633 12.406 33.992 4.844 13.273a74.534 74.534 0 01-13.558-8.515zm46.254 16.024a74.466 74.466 0 01-21.164-3.063l12.859-37.355 9.613-27.95 5.535 15.16 17.492 47.915c.148.379.34.715.535 1.043a75 75 0 01-24.87 4.25z"/><g fill="#3cc"><path d="M951.991 385.299l-2.59 2.594-2.617 2.605c5.277 5.375 8.551 12.734 8.551 20.836 0 16.406-13.352 29.762-29.758 29.762-5.645 0-10.898-1.605-15.402-4.34l-3.734 1.977-3.234 1.707-.352.19c6.289 4.88 14.16 7.825 22.723 7.825 20.465 0 37.125-16.645 37.125-37.121-.001-10.137-4.103-19.325-10.712-26.035zM903.455 431.17a29.828 29.828 0 01-5.918-9.973c-1.09-3.094-1.715-6.398-1.715-9.863v-.098c.031-6.816 2.371-13.082 6.266-18.094 5.363-6.918 13.695-11.41 23.082-11.543.141 0 .266-.016.406-.016 3.883 0 7.582.77 10.98 2.133a27.714 27.714 0 014.43 2.223l3.746-1.984 3.574-1.895a36.798 36.798 0 00-10.07-5.57 36.763 36.763 0 00-11.367-2.207c-.43-.008-.855-.06-1.293-.06-6.832 0-13.215 1.88-18.719 5.11a37.55 37.55 0 00-11.262 10.207 36.994 36.994 0 00-6.137 13.37c-.629 2.716-.996 5.52-.996 8.423 0 4.816.945 9.41 2.617 13.629.059.137.102.285.152.426a37.48 37.48 0 005.977 9.844 35.15 35.15 0 001.965 2.148l2.586-2.586 2.621-2.613c-.319-.328-.624-.675-.925-1.011z"/></g><path fill="#fc0" d="M954.252 381.295c-.258-.656-1.012-1.148-1.73-1.148-.445 0-.855.133-1.418.426l-2.797 1.488-3.574 1.895-3.746 1.984-6.117 3.223-16.605 8.785-14.316 7.563c-.938.492-1.508 1.355-1.531 2.289-.008.953.523 1.805 1.457 2.34l3.727 2.14 8.543 4.923c.484.277.82.762.891 1.328.031.207-.02.41-.063.609-.07.336-.207.656-.445.89l-12.145 12.153-2.621 2.613-2.586 2.586-1.504 1.508c-.863.848-1.113 1.668-.766 2.488.266.656 1.016 1.156 1.738 1.156.43 0 .852-.133 1.41-.418l2.801-1.484.352-.191 3.234-1.707 3.734-1.977 37.047-19.598c.938-.5 1.496-1.336 1.516-2.297.027-.926-.508-1.793-1.43-2.328l-12.262-7.094a1.842 1.842 0 01-.883-1.332 1.856 1.856 0 01.508-1.5l12.113-12.11 2.617-2.604 2.59-2.594 1.5-1.5c.863-.873 1.113-1.693.761-2.505z"/></g></svg>