<?xml version="1.0" encoding="UTF-8" standalone="no"?>
<svg
   data-name="Layer 1"
   width="819.07"
   height="584"
   version="1.1"
   id="svg30"
   sodipodi:docname="secure.svg"
   inkscape:version="1.1.1 (3bf5ae0d25, 2021-09-20)"
   xmlns:inkscape="http://www.inkscape.org/namespaces/inkscape"
   xmlns:sodipodi="http://sodipodi.sourceforge.net/DTD/sodipodi-0.dtd"
   xmlns="http://www.w3.org/2000/svg"
   xmlns:svg="http://www.w3.org/2000/svg">
  <defs
     id="defs34" />
  <sodipodi:namedview
     id="namedview32"
     pagecolor="#ffffff"
     bordercolor="#666666"
     borderopacity="1.0"
     inkscape:pageshadow="2"
     inkscape:pageopacity="0.0"
     inkscape:pagecheckerboard="0"
     showgrid="false"
     inkscape:zoom="1.4914384"
     inkscape:cx="488.45465"
     inkscape:cy="530.69575"
     inkscape:window-width="952"
     inkscape:window-height="524"
     inkscape:window-x="963"
     inkscape:window-y="550"
     inkscape:window-maximized="1"
     inkscape:current-layer="svg30" />
  <path
     d="M192.566 405.92a75.19 75.19 0 01-18.64-2.412l-1.2-.332-1.113-.558c-40.242-20.176-74.192-46.827-100.907-79.211a299.865 299.865 0 01-50.95-90.47A348.21 348.21 0 01.067 110.272c.017-.876.031-1.552.031-2.018 0-20.29 11.262-38.092 28.692-45.354C42.128 57.342 163.244 7.595 171.995 4c16.48-8.257 34.062-1.365 36.875-.16 6.311 2.58 118.276 48.375 142.471 59.897 24.936 11.874 31.589 33.205 31.589 43.937 0 48.589-8.415 93.998-25.011 134.968a312.517 312.517 0 01-56.163 90.51c-45.846 51.595-91.705 69.885-92.148 70.046a50.11 50.11 0 01-17.042 2.721zm-10.785-26.715c3.976.892 13.13 2.229 19.096.052 7.58-2.764 45.962-22.668 81.83-63.032 49.557-55.769 74.703-125.875 74.74-208.371-.09-1.672-1.276-13.592-17.062-21.109C316.659 75.447 200.28 27.86 199.108 27.381l-.321-.137c-2.439-1.022-10.2-3.174-15.55-.37l-1.072.499c-1.297.532-129.863 53.337-143.575 59.05-9.592 3.997-13.01 13.898-13.01 21.83 0 .58-.014 1.424-.035 2.514-1.096 56.447 11.966 195.346 156.236 268.438z"
     fill="#3f3d56"
     id="path2" />
  <path
     d="M177.324 15.586S47.589 68.87 33.689 74.662s-20.85 19.691-20.85 33.592S2.414 303.532 177.324 391.228c0 0 15.875 4.392 27.919 0S370.188 312.7 370.188 107.674c0 0 0-20.85-24.325-32.433S203.929 15.586 203.929 15.586s-14.443-6.37-26.605 0z"
     fill="#007bfc"
     id="path4" />
  <path
     d="M191.224 57.286v284.25S60.331 278.53 61.49 112.888z"
     opacity=".1"
     id="path6" />
  <path
     fill="#fff"
     d="M192.931 261.581l-41.696-53.612 24.248-18.859 19.743 25.384 66.695-70.406 22.303 21.131-91.293 96.362z"
     id="path8" />
  <path
     fill="#ffb8b8"
     d="M547.206 568.237l15.465-.001 7.358-59.653-22.826.001.003 59.653z"
     id="path12" />
  <path
     d="M543.26 563.188l30.458-.002h.001a19.411 19.411 0 0119.41 19.41v.63l-49.868.003z"
     fill="#2f2e41"
     id="path14" />
  <path
     fill="#ffb8b8"
     d="M599.206 568.237l15.465-.001 7.358-59.653-22.826.001.003 59.653z"
     id="path16" />
  <path
     d="M595.26 563.188l30.458-.002h.001a19.411 19.411 0 0119.41 19.41v.63l-49.868.003zM571.514 358.75l3.71 189.25-30.011-1.861-20.82-120.542-6.576-82.189 53.697 15.342z"
     fill="#2f2e41"
     id="path18" />
  <path
     d="M623.018 326.97L627.224 551l-35-1-7.56-133.17-13.15-48.217-53.696-25.204 8.766-60.272 78.9-1.096z"
     fill="#2f2e41"
     id="path20" />
  <circle
     cx="562.676"
     cy="99.594"
     r="26.838"
     fill="#ffb8b8"
     id="circle22" />
  <path
     fill="#ccc"
     d="M584.936 137.738l4.111 6.228 10.959 30.683-8.767 119.446-51.505 1.097-6.574-136.981 13.773-17.216 38.003-3.257z"
     id="path24" />
  <path
     d="M512.338 161.499l-8.766-1.096s-2.192 1.096-3.288 8.767-14.246 75.613-14.246 75.613l17.534 83.284 19.725-26.3-12.054-46.026 12.054-46.025zM624.114 160.404h6.575l16.438 88.762-15.342 69.038L616.443 293l4.383-27.396-2.191-24.108-7.671-14.247 13.15-66.845zM578.535 99.594l-4.88-1.22s-3.66-20.739-12.2-18.299-30.497 4.88-30.497-4.88 20.738-18.298 32.938-17.078 27.779 5.267 31.718 23.178c6.313 28.713-13.027 35.966-13.027 35.966l.322-1.046a16.282 16.282 0 00-4.374-16.621z"
     fill="#2f2e41"
     id="path26" />
  <path
     d="M504.668 160.403l35.067-14.246 8.218-6.027 24.657 109.036 11.506-112.323 45.477 23.56-15.341 74.517-2.192 28.492 6.575 23.013s23.013 16.437 15.342 33.97-16.438 18.63-16.438 18.63-37.258-35.067-39.45-43.834-5.48-24.108-5.48-24.108-18.629 70.134-40.545 69.038-21.917-24.109-21.917-24.109l5.48-24.108 8.766-25.204-4.384-41.642z"
     fill="#2f2e41"
     id="path28" />
</svg>
