<?xml version="1.0" standalone="no"?>
<!DOCTYPE svg PUBLIC "-//W3C//DTD SVG 20010904//EN"
 "http://www.w3.org/TR/2001/REC-SVG-20010904/DTD/svg10.dtd">
<svg version="1.0" xmlns="http://www.w3.org/2000/svg"
 width="1000.000000pt" height="1000.000000pt" viewBox="0 0 1000.000000 1000.000000"
 preserveAspectRatio="xMidYMid meet">
<metadata>
Created by potrace 1.14, written by Peter Selinger 2001-2017
</metadata>
<g transform="translate(0.000000,1000.000000) scale(0.100000,-0.100000)"
fill="#000000" stroke="none">
<path d="M4505 9985 c-2114 -193 -3862 -1704 -4355 -3765 -91 -382 -130 -723
-130 -1145 0 -264 8 -399 36 -625 101 -813 424 -1623 912 -2290 31 -41 58 -77
62 -80 4 -3 33 -39 64 -80 163 -212 507 -556 756 -756 726 -582 1573 -942
2495 -1058 488 -61 1054 -41 1545 55 826 162 1618 545 2260 1095 147 126 408
387 531 530 702 822 1111 1836 1179 2919 62 989 -190 1996 -713 2855 -38 63
-75 124 -81 135 -15 29 -127 187 -211 299 -173 232 -452 529 -685 730 -801
690 -1775 1095 -2845 1186 -163 13 -648 11 -820 -5z m-2242 -3075 c400 -1108
939 -2380 1557 -3675 235 -490 341 -666 500 -825 216 -217 429 -255 667 -119
84 48 196 143 273 229 251 286 1132 1568 1610 2345 362 588 718 1273 820 1576
93 279 46 437 -144 480 -124 27 -699 -85 -1183 -231 -464 -140 -872 -297
-1943 -750 -565 -239 -1194 -484 -1213 -473 -4 3 27 32 70 66 115 90 228 186
519 442 308 272 476 411 637 528 233 170 358 238 649 353 875 345 1626 564
2346 684 262 44 648 90 751 90 201 0 403 -124 489 -299 36 -75 37 -78 37 -196
l0 -120 -84 -220 c-440 -1162 -880 -2085 -1384 -2905 -177 -288 -593 -911
-824 -1233 -478 -667 -912 -1144 -1383 -1517 -469 -372 -854 -440 -1096 -192
-64 66 -189 239 -273 380 -99 165 -346 653 -431 852 -580 1352 -1001 2944
-1264 4780 -64 444 -156 1199 -156 1270 0 14 92 -249 204 -585 112 -335 224
-666 249 -735z"/>
</g>
</svg>
