<svg xmlns="http://www.w3.org/2000/svg" xml:space="preserve" viewBox="0 0 801.6 647.2"><g data-name="Group 6" transform="translate(-231.2 -125)"><path fill="#3f3d56" d="M1001 125H760.4a51.1 51.1 0 0 0-50 39.9L589 704.2a41.3 41.3 0 0 0 38.3 50.4l247.4 12.1A54.6 54.6 0 0 0 931 722l69-381.3 5 1.5 13.3-72.3-5.3-1.3 19.3-106.4A31.5 31.5 0 0 0 1001 125z" data-name="Path 80"/><path fill="#fff" d="M792.1 136.6h-28a35.3 35.3 0 0 0-34.6 27.8l-116.7 535a21.9 21.9 0 0 0 20 26.4L879.3 742a28.4 28.4 0 0 0 29.8-23.3l99.6-552.8a24.8 24.8 0 0 0-24.5-29.3h-26.6a11.7 11.7 0 0 0-11.4 8.7 10.4 10.4 0 0 1-10 7.7H809.7a17.7 17.7 0 0 1-17.6-16.4z" data-name="Path 81"/><path fill="#007bfc" d="M928.4 510.5a2 2 0 0 0 2-1.6L985 208a2 2 0 0 0-.5-1.5 2 2 0 0 0-1.5-.8l-248-2.9a2 2 0 0 0-2 1.6l-64.2 291.1a2 2 0 0 0 .3 1.7 2 2 0 0 0 1.5.7z" data-name="Path 93"/><path fill="#e6e6e6" d="M713.1 530a1 1 0 0 0-1 .8l-2.3 10a1 1 0 0 0 1 1.2l131.2 9.3a1 1 0 0 0 1-.8l2.3-11.5a1 1 0 0 0-1-1.2L713.2 530z" data-name="Path 94"/><path fill="#e6e6e6" d="M872.6 588.3a1 1 0 0 0 1-.8l2.9-11.5a1 1 0 0 0-1-1.3L708 563a1 1 0 0 0-1 .7l-3 10a1 1 0 0 0 .9 1.3z" data-name="Path 95"/><path fill="#e6e6e6" d="M863.6 625.3a1 1 0 0 0 1-.8l2.9-11.5a1 1 0 0 0-1-1.3L699 600a1 1 0 0 0-1 .7l-3 10a1 1 0 0 0 .9 1.3z" data-name="Path 96"/><path fill="#007bfc" d="M786.4 688.5a1 1 0 0 0 1-.7l6-24a1 1 0 0 0-.8-1.3l-103-8.7a1 1 0 0 0-1 .8l-5.1 23a1 1 0 0 0 .9 1.3z" data-name="Path 97"/><path fill="#a0616a" d="M370.8 590.5a10.7 10.7 0 0 0 1.6-16.4l4.2-93-21.2 2.4 1.2 91a10.8 10.8 0 0 0 14.2 16z" data-name="Path 111"/><path fill="#a0616a" d="m409.5 748 12.1 2 12-45.5-15.9-3.1z" data-name="Path 112"/><path fill="#2f2e41" d="m443 765.4-38-6.7 2.6-14.6 23.2 4a14.9 14.9 0 0 1 12.1 17.3z" data-name="Path 113"/><path fill="#a0616a" d="M376.4 754h12.3l5.8-47.3h-18.1z" data-name="Path 114"/><path fill="#2f2e41" d="M412.3 765.4h-38.5v-14.9h23.6a14.9 14.9 0 0 1 14.9 14.9z" data-name="Path 115"/><path fill="#2f2e41" d="M427.5 737a4.7 4.7 0 0 1-.5 0l-14.5-1.2a4.9 4.9 0 0 1-4.2-5.6l14.3-70.7-9-47.5a1.6 1.6 0 0 0-3.2.2l-13.3 120.6a5 5 0 0 1-5.2 4.4l-13.6-.5a4.9 4.9 0 0 1-4.5-4.6l1-145.8 70.6-8.8 4.9 76v.2l-18 79.6a4.9 4.9 0 0 1-4.8 3.8z" data-name="Path 116"/><circle cx="24.6" cy="24.6" r="24.6" fill="#a0616a" data-name="Ellipse 16" transform="translate(373.6 371.7)"/><path fill="#007bfc" d="M421.3 597.4a20.1 20.1 0 0 1-10.9-3c-11.9-7.5-25.4-4.5-32.4-2.1a4.9 4.9 0 0 1-4.2-.5 4.8 4.8 0 0 1-2.2-3.6l-12.8-113.6c-2-19 9.4-37 27.3-42.5l2-.6a39.6 39.6 0 0 1 33 5.7 40.2 40.2 0 0 1 17.2 29.3L449 581a4.8 4.8 0 0 1-1.5 4c-3.8 3.5-14.7 12.5-26.2 12.5z" data-name="Path 117"/><path fill="#007bfc" d="m382.5 499-28.7-3.2a5.7 5.7 0 0 1-4.9-7.1l7.3-27.9a15.9 15.9 0 1 1 31.6 3.6l1 28.7a5.7 5.7 0 0 1-6.3 5.9z" data-name="Path 118"/><path fill="#a0616a" d="M448.9 586.5a10.7 10.7 0 0 0-.4-16.4l-7-92.9-20.9 4.7 12.2 90.4a10.8 10.8 0 0 0 16 14.2z" data-name="Path 119"/><path fill="#007bfc" d="M412.7 493.1a5.7 5.7 0 0 1-1.9-4.4l1.1-28.6a15.9 15.9 0 1 1 31.6-3.6l7.3 27.9a5.7 5.7 0 0 1-5 7l-28.6 3.2a5.7 5.7 0 0 1-4.5-1.5z" data-name="Path 120"/><path fill="#2f2e41" d="M396.7 421.7a5.7 5.7 0 0 1-1.3-.1h-.2c-21.6-3.3-26.3-15.9-27.4-21-1-5.5.2-10.7 3-12.7-1.6-4.8-1.3-9 .7-12.7 3.5-6.3 11-8.4 12.1-8.7 6-4.4 13.3-1.4 14.6-.8 11.7-4.4 16.2-.8 17 0 5.3 1 8.5 3 9.5 6 2 5.8-4.3 13-4.6 13.2v.2l-9.5.4a6.4 6.4 0 0 0-6 7.3 29.6 29.6 0 0 0 1 3.4c1.6 5 2.8 9.3 1.3 10.9a2.5 2.5 0 0 1-2.7.5c-1.4-.4-2.4-.4-3 .2-.7.9-.5 3 .7 6.1a5.7 5.7 0 0 1-1 5.9 5.6 5.6 0 0 1-4.2 2z" data-name="Path 121"/></g><path fill="#fff" d="M553.3 252v-18.5h5l.3 1.7.2 2v.1l.3-.2a15.6 15.6 0 0 1 5.6-3.5 15 15 0 0 1 4.3-.7c3.3 0 6.1 1 8.3 3.2 2.1 2 3.3 4.4 3.8 7.6.2 1 .2 4.1 0 5.2a12 12 0 0 1-10.4 10.3c-1.4.2-3.8.2-5 0a12 12 0 0 1-6-3l-.7-.7v15.1h-5.7V252zm5.6 10.8v7.5h-5.4v-36.5h4.7v.4-.3s.1-.2 0-.2h-4.8v36.7h5.5v-7.6zm10.2-3.6h-1.9 1.9zm-2 0h-.8.8zm2.8 0h-.7.7zm-3.7 0v-.2l-.3.1h.3zm4.2 0-.3-.2c-.1 0-.1 0 0 .1h.3zm-4.6-.2h-.3l.1.1h.2zm5 0h-.2c-.1 0-.1 0 0 0 .1.1.3.1.2 0zm-5.4 0v-.1h-.2v.1h.2zm5.8 0-.2-.1.1.1zm-6.1-.1h-.2.2zm6.4 0h-.1s-.1 0 0 0h.1zm-6.7 0v-.2l-.2.1h.2zm7 0-.1-.2v.1c0 .1 0 0 0 0h.1zm-7.3-.2h-.1v.1h.1zm7.6 0h-.1v.1h.1zm-7.8 0v-.1h-.1v.1h.1zm8 0v-.1.1s.1 0 0 0zm-8.2-.1h-.1.1zm8.5 0h-.1.1zm-8.7 0v-.1h-.2s0-.1 0 0c-.1 0-.1 0 0 0 0 .1.1.1.2 0zm9 0-.2-.1.1.1zm.1-.1v-.1h-.1l.1.1zm-9.5-.1h-.1l-.1-.1v.1h.2zm9.9 0v-.1h-.4c0 .2.1.2.3.1zm-10.2-.2h-.2l-.2-.1-.2-.1s0-.1-.1 0 0 0 0-.1h-.2l-.1-.1c-.1 0 0 0 0 0l-.1-.1h-.1c0-.1-.1-.2-.2-.1s0 0 0-.1c0 0-.1-.1-.2 0v-.1h-.1l-.1-.1-.1-.1-.2-.1-.1-.1h-.1l-.1-.2-.2-.1c-.1-.2-.2-.3-.3-.2l-.6-.6a5.5 5.5 0 0 1-.6-.7l-.2-.1s.1.1 0 .1l.2.2.2.2.4.5.4.3.2.1c0 .2.1.2.2.2l.1.1.2.1v.1l.2.1.1.1s.1.1.1 0l.2.2s.2.1.2 0l.1.2h.2c0 .1 1 .7 1.2.7zm-3.5-2.2-.4-.5.4.4.4.5-.4-.4zm14 2.3v-.2c0 .1-.1.1-.2 0v.1c0 .1 0 .1.2 0zm.7-.4.5-.3.6-.3h.1l.1-.2h.2v-.1h.2v-.2h.2l.2-.2.2-.1.1-.2.3-.1c0-.2.2-.2.2-.2l.4-.4.4-.5.2-.1c0-.1.2-.2.1-.3s0 0 .2-.1c0-.1.1-.2 0-.2h.2v-.3h.2v-.2h.1c0-.1.1-.1 0-.2l.2-.1v-.3h.1l.3-.5.2-.3c.1-.3.2-.3 0-.4v.3c-.1 0-.1 0 0 0l-.1.2-.1.1-.1.1v.1s-.1 0 0 0l-.1.2-.1.1s-.1.1 0 .1l-.1.1-.1.2-.1.1v.1l-.2.1v.2l-.2.1v.2l-.2.1-.2.2-.2.2a7.5 7.5 0 0 1-1.3 1.3l-.2.2-.2.2s-.2.1-.2 0v.2l-.3.1-.2.2-.2.1-.2.1-.1.1h-.1c0 .1 0 .1 0 0l-.2.2h-.1l-.1.1h-.1s0 .1 0 0l-.2.1h-.1v.1h-.1c0 .1 0 .1-.1 0s0 0 0 .1h-.2s-.1 0 0 0c0 .2 0 .2.5 0zm2.4-1.6.1-.2c.2 0 .2 0 0 0v.2zm.8-.8.4-.4-.3.4-.4.4.3-.4zm.6-.6.1-.1c.1-.1.1-.1 0 0l-.1.1zm-11 0a6 6 0 0 0-.8 0h.8zm-1.2-.2h-.3.3zm2.1 0h-.5.5zm-2.6 0c.1-.1 0-.1-.2 0-.2 0-.2 0 0 0h.2zm3 0-.2-.1s-.1 0 0 0v.1h.1zm-3.5-.1v-.1h-.1v.1h.1zm3.6-.2c1.2-.2 2.3-.7 3.2-1.4a9.2 9.2 0 0 0 2.9-3.4c1.5-3.6.4-7.7-2.8-10.1a7.7 7.7 0 0 0-5.4-1.5 8 8 0 0 0-6.1 3.6c-.5.6-1 1.6-1.1 2.4-.2.4-.2.7-.2 2.3 0 1.9 0 2.4.4 3.4a8 8 0 0 0 9.1 4.7zm.2.2-.2-.1.1.1s.1 0 0 0zm-4-.1h-.2.2zm4.3 0h-.1.1zm-4.6 0v-.1h-.1c-.1 0 0 .1 0 .1h.1zm4.9 0-.1-.1s-.1 0 0 0v.1h.1zm-5-.1-.1-.1h-.1c-.1 0 0 .1 0 .1h.1zm5.3 0-.2-.1.1.1zm-5.6-.1h-.1.1zm5.9 0c0-.2-.3-.1-.3 0h.3zm-6.2-.2h-.3.1s0 .1.1 0 0 0 0 .1h.2l-.1-.1zm6.4 0h-.1v.1zm.3 0v-.1h.2v-.1h.1s0-.1.1 0 0 0 0-.1h.2c0-.1 0-.2.1-.1l.1-.1h.1s0-.1 0 0l.2-.1.1-.1h.1l.1-.2h.1l.1-.1.2-.1.1-.1.3-.3.3-.2.2-.2.3-.3.2-.3.1-.1.1-.2.2-.2.1-.2v-.1c.1 0 .2 0 .1-.1l.1-.2.2-.2v-.1c0-.1 0 0 0 0l.1-.2v-.1l-.2.3-.1.3c-.1 0-.2.1-.1.2h-.1c0 .1-.1.2 0 .2l-.2.1c0 .1 0 .2-.2.3v.1l-.2.2-.2.2-.7.7-.3.2c0 .2-.2.3-.2.2l-.1.1-.2.2-.2.1h-.1l-.1.2-1.2.6h.2zm2-1.4.2-.1v.1l-.3.1.1-.1zm1-.9v-.1c.2-.1.2-.1 0 0v.1zm-10.3 2-.4-.1-.1-.1-.2-.1-.2-.2h-.2v-.1l-.2-.1-.3-.3-.4-.4-.2-.2-.3-.3-.2-.2v-.1l-.2-.2v-.1c-.1 0-.2 0-.1-.1l-.1-.1-.1-.1s0-.3-.2-.5l-.3-.4s.1.1 0 .1l.1.1v.2h.1v.1c.1 0 .1 0 0 0l.1.2.1.1.1.2.1.2.1.1v.1l.2.1v.2l.2.1.5.6.6.5.1.1s0 .1 0 0l.2.2s.2.1.2 0l.1.2h.1l.2.1c0 .1.1.2.2.1l.1.1c.1 0 0 0 0 0s.1.1.2 0 0 0 0 .1h.1c.1 0 0 0 0 0 0 .1.1.2.2.1l-.2-.2zm-1.8-1-.2-.4.2.3.3.3-.3-.3zm-.7-.8-.1-.1.1.1.2.2-.2-.2zm19.5-.4v.2h-.1v.1s-.1 0 0 0c0 .1 0 .1 0 0 .2-.2.2-.2.1-.3zm.1-.4v.2c0 .1 0 .1 0 0 .1 0 .1-.1 0-.2zm.1-.2v.1c.1 0 0 0 0 0zm.1-.2v.1zm.1-.2c0-.1-.1 0 0 0 0 .2 0 .2 0 0zm0-.3s0 .2.1.1zm.2-.2c-.1-.1-.2 0-.1 0 0 .2 0 .2 0 0zm-21.3-.3c0-.1-.1-.1-.1 0v.1c0 .1 0 .2 0 0 .1 0 .1 0 0-.1zm21.3 0c0-.1 0-.1 0 0s0 .2 0 0zm-6 0v-.2h.1c0-.1 0-.1-.1 0v.1c0 .2.1.1 0 0zm-15.4-.3-.2.1h.1zm21.5-.1h-.1c0 .1 0 .2.1.1v-.1zm-21.6 0v-.1h-.1v.1h.1zm15.7 0v-.2c-.1 0-.1.1 0 .2 0 .1 0 0 0 0zm6-.4c-.1-.1-.1-.1-.1 0v.2c.1 0 0-.2 0-.2zm-21.8 0-.1.1h.1zm16 0c-.1-.1-.2-.1-.2 0 0 0 .1.1.2 0zm-16-.3h-.1c-.1 0 0 0 0 0v.1-.1zm16 0c0-.1-.1-.1-.1 0 0 0 0 .1.1 0zm5.8-.2v-.2.5-.3zm-21.9 0v-.2l-.1.2h.1zm16.2 0v-.2l-.1.1v.1h.1zm5.8-.6v-.4.4c-.1.2 0 .3 0 .4v-.4zm-22.2-2.6v2-2zm16.5 2.9v-.1h-.2l.1.1c.1 0 0 0 0 0zm0-.6c-.1 0-.1 0 0 .2 0 .2 0 .2 0 0v-.2zm0-.7v.5l.1-.1v-.4zm5.8-.6v-1.2a65 65 0 0 0 0 1.2zm-5.6-.2v.5-.5zm0-.7c0-.4-.1-.3-.2 0v.4l.1-.4zm-.1-.6c0-.1 0-.1-.1 0s-.1.3 0 .2v-.2zm5.6-.2v-.4l-.1.4c0 .5 0 .5 0 0zm-5.7-.2-.2.1.1.1c.1 0 0-.1 0-.2zm-16.4-.3v.1c.1 0 0 0 0 0zm16.3 0h-.1v.1h.1zm5.8-.3h-.1c-.1 0 0 0 0 .2 0 .1 0 .1 0 0v-.2zm-22 0v.1zm16.1 0-.1.1h.1zm-16-.2h-.1s0 .2.1.1zm16 0h-.1c-.1 0 0 0 0 0v.1zm5.8-.3s0-.1 0 0l-.1.2c0 .1 0 .1 0 0v-.2zm-21.7 0h-.1c0 .2 0 .3.1.2v-.1zm15.7 0v-.1s0-.1 0 0c-.1 0 0 .3 0 .2.1 0 .1 0 0 0zm-15.7-.1v.1c.1 0 0 0 0-.1zm.2-.5c0-.1 0 0 0 0v.1s-.1 0 0 .1 0 0-.1 0v.2l.1-.2c.1-.1.1-.2 0-.2zm15.4.3v-.2c-.2.1-.1.3 0 .3v-.1zm6 0v-.1l-.1.1s0 .1 0 0h.1zm-6.2-.4v-.1s-.1 0 0-.1 0 0-.1 0v-.2h-.1v-.2c-.1 0-.1 0 0 0l-.2-.1v-.2h-.1s-.1-.1 0-.2h-.1l-.1-.2v-.1l-.2-.1-.1-.2-.2-.2-.5-.6-.6-.5h-.1c0-.2-.2-.2-.2-.2l-.2-.2h-.1l-.2-.2h-.1l-.1-.1h-.1l-.1-.1h-.1l-.1-.1c-.1 0 0 0 0 0s-.1-.1-.2 0 0 0 0-.1h-.1c-.1 0 0 0 0 0l-.1-.1h-.1c0-.1 0-.1-.1 0l.8.4h.2l.2.2.2.2h.1l.2.2s.1.1.1 0l.7.7c.4.3.7.7.7.8l.2.2s.1.1 0 .1l.2.1v.1l.1.2s.1 0 0 0l.2.2c0 .2.4.8.5.8zm-1.8-2.4-.5-.5a12.8 12.8 0 0 0 .5.5zm8 2.4s0-.1-.1 0v.1-.1zm-21-.6.2-.2v-.2l.1-.1h.1l.1-.3h.1l.1-.2.2-.2.6-.6a4.3 4.3 0 0 1 .7-.7s.1-.1.1 0l.1-.2h.1s.2 0 .3-.2l.2-.1.7-.4h-.2c0 .1 0 .1-.1 0s0 0 0 .1h-.2v.1h-.1c-.1 0 0 0 0 0l-.2.1c0 .1-.1.2-.2.1l-.1.1-.2.1-.1.1-.1.1s0 .1-.1 0l-.2.2-.1.1-.4.3-.4.5-.1.2c-.2 0-.2.1-.2.2l-.1.1c-.1 0-.2.1-.1.2h-.1c0 .1-.1.1 0 .2s0 0-.2 0v.2l-.1.1v.2h-.1v.1l-.1.1c0 .1 0 0 0 0s-.1.1 0 .2 0 0-.1 0v.1c0 .1 0 0 0 0l-.1.2s.3-.3.3-.6zm1.4-2 .4-.3-.3.4a3 3 0 0 1-.4.4l.3-.4zm19.5 2.3s0-.1 0 0h-.2l.1.1c.1 0 0 0 0-.1zm0-.3h-.2v.1h.1zm-.2-.2s0-.1 0 0h-.1.1zm0-.3h-.1c-.1 0 0 0 0 .1zm-.1-.2-.2.1h.1c.1 0 0 0 0 0zm0-.2h-.2v.1l.1-.1zm-.2-.2c0 .1 0 .1 0 0zm0-.3c-.1-.1-.2-.1-.2 0v.1c0 .1 0 .1.1 0v-.1zm-.5-1-.4-.6-.1-.3-.1-.1-.1-.1s-.1-.1 0-.1l-.2-.2v-.2h-.2v-.2h-.1c0-.1 0-.2-.2-.3l-.1-.1-.1-.2-.1-.1-.6-.7a4.8 4.8 0 0 0-.8-.7l-.2-.2-.2-.1-.2-.2h-.1l-.1-.1h-.1l-.1-.2h-.1l-.2-.1-.3-.2s-.1-.1-.2 0v-.1l-.4-.3c-.3-.1-.4-.1-.4 0-.1 0-.1 0 0 0h.2c.1 0 0 0 0 0l.1.1h.1l.2.1.1.1s.1.1.1 0l.1.1.2.1.1.1s.1.1.1 0l.2.1v.1l.2.1s0 .1 0 0c0 0 .2 0 .2.2 0 0 .1.1.2 0l.2.3.2.2.8.7a8.9 8.9 0 0 1 1.3 1.5l.1.2c.1 0 .2.1.1.2s0 0 .1 0c0 .1.1.2 0 .2l.2.1v.1l.1.1v.2h.1v.1l.1.1c0 .1 0 0 0 0 .1 0 .1.1 0 .1l.1.1.1.2v.1h.1v.2s.1 0 0 0h.1v.2l.1.2-.2-.7zm-2.4-3.2-.6-.6.6.6zm-13.6 2.1h-.1zm.3 0v-.2h-.1v.1h-.1c0 .1 0 .1.2 0zm6.2-.1c0-.1 0-.1 0 0l-.2-.1c-.1 0-.1 0 0 0 0 .2.1.2.2 0zm-6 0v-.1zm.3-.2h-.1.1zm5.3 0h-.1c-.1 0 0 0 0 0h.1zm-5 0-.1-.1v.1h.1zm4.8 0v-.1h-.2v.1h.2zm-4.6-.1h-.1.1zm4.3 0h-.1c-.1 0 0 0 0 0h.1zm-4 0-.1-.2v.1c0 .1 0 0 0 0h.1zm3.8 0-.1-.2-.2.1h.3zm-3.3-.2h-.2c-.2 0-.2 0 0 0 .1.1.3.1.2 0zm2.9 0h-.2v.1h.2zm-2.2 0-.4-.1h-.2.2c.3.1.4.1.4 0zm1.7 0c.2 0 .2-.1 0-.1h-.3.3zm-.7-.2h-.6.6zm-8.7 0 .1-.2.8-.8.3-.3.3-.2.2-.2.2-.1.1-.1c0-.1.1-.2.2-.1v-.1c.2-.1.2-.2.3-.1v-.1s.1-.1.2 0v-.2h.2v-.1c.1 0 .2-.1.2 0v-.1h.1l.1-.1s.1-.1.2 0v-.1s0-.1 0 0l.2-.1.1-.1c0-.1.1-.1.1 0l.1-.1h.2v-.1h.1v-.1h.2s0-.1 0 0l.1-.1h.1c.1 0 .1 0 0 0h-.5l-.5.4h-.1l-.2.1-.2.2-.2.1s-.1.1-.2 0v.2h-.2v.1h-.2v.1l-.2.1-.2.1v.1l-.2.1-.2.1-.2.2-.1.1-.3.3-.3.2-.2.2-.3.3-.2.3-.2.2v-.5.5h.2zm.3-.5.2-.2.2-.3-.2.3-.2.2zm.8-.7.2-.2-.2.2-.2.1.2-.1zm-1.4.3v-.3.3c0 .4 0 .3 0 0zm0-.8-.1.2c0 .2 0 .2 0 0v-.2zm0-.6h-.1l-.1.3c0 .2 0 .2 0 0l.1-.3zm-.2-.5v-.1.3c0 .2 0 .2 0 0v-.2zm0-.6s0-.1 0 0l-.2.2c0 .2 0 .2.1 0v-.2zm5.5-.3h.2c.1 0 .1 0 0 0 0-.2-.4 0-.3 0 0 .1 0 .1 0 0h.1zm9.9-.1c-.3-.1-.3-.1-.4 0h.4l.1.1c.1 0 0 0 0 0s.1.1.2 0l-.2-.1zm-9.3 0v-.1c0-.1-.3 0-.2 0 0 .1 0 .1 0 0h.2zm8.8-.2h-.3.2c0 .1 0 .1.1 0zm-8.5 0h-.2.1zm.2 0-.1-.2s-.1 0 0 .1c0 0 .1 0 0 0zm7.9 0v-.2l-.1.1c0 .1 0 0 0 0h.1zm-7.7-.2h-.2l.2.1zm7.5 0h-.2v.1h.2zm-7.2 0-.1-.1v.1s.1 0 0 0zm7 0-.1-.1h-.1v.1h.2zm-6.7-.1h-.3.3zm6.4 0h-.2.2zm-6 0-.2-.1.1.1h.1zm5.7 0v-.1h-.2v.1h.2zm-5.3-.1-.2-.1v.1h.2zm5 0h-.3c-.1 0-.1 0 0 0h.2zm-4.6-.1h-.3.2c.2 0 .2 0 0 0zm4 0c.2-.1 0-.1-.2 0h.3zm-3.2 0c0-.1-.6-.2-.6 0h.6zm2.9-.1h-.3c-.3 0-.4 0 0 0h.3zm-.7 0-1-.1h-1l1 .1h1zm-71.5 28.7-2.2-.3c-5-1.2-8-4.6-8.8-10a27 27 0 0 1 0-6.5c1-7.2 5-15.7 11-23.8a87.7 87.7 0 0 1 21-20.4 49 49 0 0 1 17.3-7.8c1.9-.3 2.5-.4 4.7-.4a12.6 12.6 0 0 1 8.6 2.6c.2.2.3.2.8.2s.7 0 .6.2h-1.7s0 .1-.1 0l-.2.1h-.2l-.1.1h-.3l-.1.1h-.1c0 .1-.1.1-.1 0v.1h-.3l-.1.1s-.1 0 0 0l-.5.3c-.6 0 .8-.6 1.6-.7l.8-.2h.1c0-.1-.1-.1-.2 0l-.2-.1.2-.1v-.1l-.3-.2-.2-.1c-.1-.1-.1-.2-.2-.1s0 0 0-.1c-.1 0-.2-.1-.2 0l-.1-.2h-.2c0-.2-.4-.4-.5-.3l-.3-.3h-.3.1l.1.1h.1c.1 0 0 0 0 0l.1.1h.2v.2h.2c.1 0 0 0 0 0l.2.1c0 .1.1.2.2.1s0 0 0 .1c.1 0 .1.1.2 0v.2h.2l.1.1s0 .1.1 0 .1.1.2.2c.1.2 0 .3-.2.4h-.2c0-.1 0-.1 0 0-.2.1-.3.1-.2 0h-.1c-.2.2-.3.2-.2 0v.1l-.3.1h-.1c0 .2 0 .2-.2.2h-.2c-.1 0-.1 0 0 0l-.2.1-.1.1-.2.2h-.3l-.4.4c0 .2 0 .2.1 0h.3l-.1.1c-.3 0-1.2 1-1.7 1.8 0 .3-.2.4-.3.4l.2-.3c.1-.1 0-.2 0-.2s-.1 0 0 0c0 .2 0 .2-.1.1v.2c-.2 0-.2.2-.2.3l-.1.1c0-.3.5-1.2.6-1.3l.1.1s.1-.1 0-.2l.4-.5.4-.5-.5-.2c-1.3-.5-2.7-.7-4.3-.7-1.2 0-2 0-3.5.3a43 43 0 0 0-14.6 6.1 82.5 82.5 0 0 0-26 26.5c-5.3 8.7-7.8 17.3-6.6 22.9.5 2.1 1.5 4 3 5a9.3 9.3 0 0 0 5.6 1.8 26 26 0 0 0 10.4-2.2c2-.8 4.5-2 4.5-2.2l-.3-.5c-1.8-2-3-5-3.2-8l-.1-15.3v-14.7h6V245l.2.6a9.9 9.9 0 0 0 2.5 4.7l.6.6.7-.5a87.4 87.4 0 0 0 15.7-14.2l.8-1v-19.5h6V227l.1-.2c.6-.9 2.4-4 3-5.4a42.2 42.2 0 0 0 4.7-13.5c0-.2 0-.2-.7-.3h-.6c0-.2.1-.2.6-.2a15.8 15.8 0 0 1 1 0h.3l.3-.2a3.8 3.8 0 0 1 .5 0l.3-.2.3-.1.5-.3h.2l.1-.2c.3.1 1.8-1.4 2.1-2.3l.2-.2c.1 0 .1 0 0 0l-.2.4v.3-.2h.1v-.1h.1v-.2c.1.1.2-.2.1-.3h.1v-.1.5c-.5.8-1 1.6-1.7 2.1-.4.4-.4.4-.4.7l-.5 4.1a55 55 0 0 1-10 21.4l-.5.7v5.4a40 40 0 0 1-.5 9.4 15.2 15.2 0 0 1-12.9 11.1 31 31 0 0 1-5.9 0 16.8 16.8 0 0 1-6.8-2.4l-1.5.8a39.6 39.6 0 0 1-12.7 4.3c-.9 0-4 .2-4.5.1zm2.7-.1h-2.4 2.4zm-2.5-.1h-.8.8zm3.5 0h-.9.9c0 .1 0 0 0 0zm-4.5 0c.1-.1.1-.1 0-.1h-.3.3zm5.1 0-.3-.1c-.2 0-.2 0 0 0h.3zm-5.6-.1c.1 0 .1 0 0 0h-.3.3zm6.2 0h-.3c-.2 0-.2 0 0 0h.3zm-6.6 0v-.2l-.2.1h.2zm7 0c0-.1 0-.2-.2-.2-.1 0-.1 0 0 .1s.3.1.2 0zm-7.4-.2h-.1v.1h.1zm7.8 0h-.2l.1.1s.1 0 0 0zm-8 0-.1-.1h-.1v.1h.2zm8.4 0-.2-.1c-.1 0-.1 0 0 0 .1.2.3.2.2 0zm-8.7-.1h-.2.2zm9 0h-.1.1s.1 0 0 0zm-9.3 0v-.1h-.1v.1h.1zm9.7 0-.1-.1s-.1 0 0 0v.1h.1zm-9.9-.1v-.1h-.1v.1h.1zm10.2 0v-.1h-.2l.2.1zm-10.4-.1h-.2.2zm10.8 0h-.2.1s.1 0 0 0zm-11 0v-.2l-.2.1h.2zm11.3 0-.1-.2-.1.1c0 .1 0 0 .1 0 0 0 .1 0 0 0zm-11.5-.2h-.2v.1h.2zm11.8 0h-.2l.1.1zm-12 0c0-.1 0-.1-.1 0l-.1-.1h-.1c-.1 0 0 0 0 0l-.2-.1.1.1c.2.2.3.2.3 0zm12.2 0-.1-.1v.1s.1 0 0 0zm.3-.1h-.2.1zm.3 0-.2-.1h.2zm-13.4-.2h-.2c-.1 0 0 0 0 0 0-.1-.1-.2-.2-.1l-.1-.1c-.1 0 0 0 0 0s-.1-.1-.1 0l-.2-.2h-.1c0-.1 0-.1-.1 0s0 0 0-.1h-.1l-.2-.1v-.1l-.2-.1-.2-.1v-.1s-.1-.1-.2 0 0-.1-.1-.2l-.2-.1-.2-.2-.3-.3a6 6 0 0 1-1.2-1.2s-.1-.1 0-.1l-.2-.2-.1-.1-.1-.1-.1-.2v-.1l-.2-.1v-.2h-.1s-.1-.1 0-.2h-.1v-.1c0-.1 0 0-.1 0v-.2l-.1-.1c0-.1 0 0 0 0s-.1-.1 0-.1l-.1-.1v-.2h-.1v-.1h-.1v-.2h-.1v-.2c0-.1 0-.1 0 0l.2.7.4.8s.1 0 0 0l.2.3s.1.1 0 .1l.2.1v.1l.2.2v.1l.1.1.2.2.1.2.2.2.3.4.3.3s.2 0 .3.2l.3.2.1.2h.2l.1.1.1.1.1.1.2.1.1.1h.1l.1.1s.4.3.5.2l.7.5h.1zm-2.6-1.6-.2-.2.2.2.2.2-.2-.2zm-.7-.6-.3-.3.3.3.3.3-.3-.3zm16.9 2.2h-.1s-.1 0 0 0v.1s.1 0 0 0zm.2 0h-.1c.1 0 .1 0 0 0zm.3 0-.1-.2-.1.1c0 .1 0 0 .1 0 0 0 .1 0 0 0zm.2-.2h-.1v.1c.1 0 .1 0 0 0zm.2 0-.1-.1v.1h.1zm.2-.1h-.1.1zm.2 0v-.2l-.1.1c0 .1 0 0 .1 0zm.3-.2h-.2l.1.1zm.2 0-.1-.1s-.1 0 0 0v.1s.1 0 0 0zm.2-.1h-.1c.1 0 .1 0 0 0zm.3 0v-.2s-.1.1-.2 0v.1c0 .1 0 .1.2 0zm.3-.2h-.2.1zm.2 0-.1-.2v.1c0 .1 0 0 0 0s.1 0 0 0zm.3-.2h-.2c0 .1 0 .1.2 0zm.4 0v-.2h-.2c-.1 0-.1 0 0 0 0 .2 0 .2.2.1zm.3-.2v-.1h-.2c0 .1 0 .1.2 0zm.4-.2c0-.1 0-.1 0 0h-.2s-.1 0 0 0c0 .1 0 .1.2 0zm16.6 0h-3 3zm-3-.1h-.8.7zm3.9 0h-.8.8zm-17 0v-.2h-.2l-.1.1h-.1c0 .2 0 .2.3 0zm12.1 0c.2 0 .1-.1 0-.1h-.3c0 .2.1.2.3 0zm5.4 0-.3-.1c-.2 0-.2 0 0 0 .2.2.3.2.3 0zm-5.9-.1c.2 0 .1 0 0 0h-.3.3zm6.4 0h-.3c-.2 0-.2 0 0 0h.3zm-6.8 0v-.2l-.2.1h.2zm7.1 0-.1-.2-.1.1c0 .1.1 0 .2 0zm-17.8-.2.1-.2h-.1c-.1 0 0 0 0 .1h-.2l-.1.1h-.1c0 .1 0 .1.4 0zm10.3 0h-.2v.1h.2zm7.9 0h-.2l.1.1s.1 0 0 0zm-30.4 0zm22.2 0h-.2.2zm8.5 0h-.1s-.1 0 0 0h.1zm-32.3 0-.3-.1c-.5 0-.5 0 0 0h.3zm3 0c0-.1-.8-.2-.8 0h.8zm20.4 0v-.2l-.1.1h.1zm9.2 0v-.2l-.2.1c0 .1.1 0 .2 0zm-33.4-.2h-.2c-.1 0-.1.1 0 .1h.2zm4.2 0h-.3l.2.1c.2 0 .2 0 0 0zm19.8 0h-.2v.1h.2zm9.7 0h-.1v.1h.1zm-34.1 0h-.3c-.1 0-.1 0 0 0h.3zm5 0c-.1-.1-.3-.1-.2 0h.2c.2 0 .2 0 0 0zm10.6-.1c.2 0 .2-.2.2-.2s-.1.1-.2 0 0 0 0 .1h-.1c-.1 0 0 0 0 0l-.2.1s-.1 0 0 0c0 .2 0 .2.3 0zm8.5 0h-.2v.1h.2zm10.3 0h-.1v.1h.1zm-35 0c.1 0 0 0 0 0h-.1.2zm6.2 0h-.3.2c.1 0 .1 0 0 0zm18.2 0h-.1.1zm10.8 0h-.1.1zm-35.4 0v-.2l-.2.1c0 .1 0 0 0 0h.2zm6.8 0-.2-.2v.1c0 .1 0 0 0 0h.2zm17.6 0v-.2l-.1.1h.1zm11.2 0v-.2l-.1.1c0 .1 0 0 .1 0zm-35.9-.2h-.2v.1h.2zm7.5 0h-.3l.2.1c.1 0 .1 0 0 0zm17 0h-.2v.1h.2zm11.7 0h-.2l.1.1zm-36.5 0v-.1h-.1v.1h.1zm8.1 0-.1-.1v.1h.1zm9.3 0v-.1h-.1v.1h.1zm7.2 0v-.1h-.2v.1h.2zm12 0v-.1s-.1 0 0 0v.1zm-36.8-.1h-.2.2zm8.7 0h-.2.1zm9.8-.3.7-.4 1.4-.8h.3l.3-.1h.1l.1.1.2.1.5.3.5.3c.1.1.1.1 0 0l-.1-.1s0-.1 0 0l-.1-.1h-.1l-.1-.1s0-.1-.1 0l-.1-.1h-.2v-.1l-.1-.1s0-.1-.1 0-.1 0-.1-.2h-.3c0-.2-.2-.2-.2-.1h-.2s0 .1 0 0l-.1.1-.2.1s0 .1-.1 0v.1h-.1l-.1.1h-.2v.1s-.1.1-.2 0 0 0 0 .1h-.1c-.1 0 0 0 0 0 0 .1-.1.2-.2.1l-.1.1c-.1 0 0 0 0 0s-.1.1-.1 0l-.2.1v.1h-.1c0 .1 0 .1-.1 0s0 0 0 .1h-.1l-.1.1h-.2v.1h-.1s0 .1 0 0l-.2.1-.2.1c0 .1 0 .1-.1 0s0 0 0 .1h-.2v.1l.8-.3zm6 .3h-.1l-.1-.1v.1h.3zm12.7 0v-.1h-.2s-.1 0 0 0c0 .2 0 .2.2.1zm-37.5-.2h-.2v.1h.2c.1 0 0 0 0 0zm9.3.1h-.2v.1h.2zm.2 0v-.1h-.1v.1h.1zm15 0c0-.1 0-.1 0 0l-.2-.1c-.1 0-.1 0 0 0 0 .1.1.1.2 0zm13.3 0c.1 0 .1-.1 0-.1h-.2c0 .1.1.1.2 0zm-38-.1h-.2.1zm10 0h-.1.1zm-10.7-.3-.5-.2-.1-.1-.1-.1h-.1l-.1-.2h-.2l-.1-.2-.2-.1-.2-.2-.6-.6-.2-.2-.1-.2-.1-.1-.2-.2v-.2a1 1 0 0 1-.3-.3l-.5-1v.3h.1v.1s.1 0 0 .1 0 0 .1 0v.2c.1 0 .2 0 .1.1l.1.1v.1s.1 0 0 0l.1.2.1.1c.1 0 .1.1 0 .1l.2.2.1.1v.2l.2.1s0 .2.2.3l.2.2v.1l.3.2.2.1.1.2h.2l.1.2h.2v.1l.2.1s0 .1 0 0l.2.1.1.1c0 .1.1.1.1 0l.1.1.2.1h.1v.1h.1s0 .1.1 0 0 0 0 .1h.2l-.4-.2zm-2-1.3-.1-.2.1.2.2.1-.2-.1zm-.4-.5c0-.1 0-.1 0 0l.2.1h-.2zm13.4 2h-.2.2zm14 0h-.1l-.1-.1c-.1 0 0 0 0 0h-.2v-.1h-.1c-.1 0 0 0 0 0l-.2-.1s0-.1-.1 0l.3.2c.4.2.5.2.5.1zm14.2 0 .2-.2h-.2v.1h-.2c-.2 0-.2 0-.1.1h.3zm-28 0v-.1.1s.1 0 0 0zm.3-.1v-.1h-.2l.2.1zm.3-.1h-.1s.1 0 0 0zm.2 0-.1-.1v.1h.1zm27.7-.1c0-.1 0-.1 0 0h-.2c0 .1 0 .1.1 0zm-27.5 0-.1-.1v.1h.1zm.2-.1h-.1.1zm11.7 0h-.1.1zm16 0 .2-.2h.2l.2-.3h.3l.2-.2.1-.1.3-.1.1-.1.1-.1.1-.1.2-.1.1-.1.1-.1.2-.1.2-.2.2-.1.2-.2.3-.2.4-.5.5-.4s0-.2.2-.3l.2-.2.1-.2.1-.2.1-.1c.2 0 .2-.2.2-.2l.1-.1.1-.2v-.1l.2-.1v-.1l.1-.1v-.1l.2-.1v-.2l.2-.2.2-.5.3-.4c.1-.2.1-.3 0-.4v.4h-.1v.1s-.1 0 0 0l-.2.2v.2h-.1v.1l-.1.2h-.1v.2s-.1 0 0 0l-.2.1v.1l-.1.1s-.1.1 0 .2h-.2v.2l-.1.1-.1.2-.2.1-.1.2-.1.2-.2.1-.2.2c0 .2-.2.3-.2.3a10.3 10.3 0 0 1-1.7 1.7s-.2 0-.2.2h-.1l-.2.1-.1.1-.1.1-.2.1-.1.1-.1.1s-.1.1-.2 0 0 0 0 .1l-.2.1-.2.2h-.1l-.1.1s-.1.1-.2 0v.1h-.2v.1h-.2v.2h-.2c-.1 0 0 0 0 0 0 .2 0 .2.2 0zm2.8-2v-.1c.2-.1.2-.1.1 0l-.1.1zm.9-.8.4-.5-.4.5-.4.4.4-.4zm.7-.8.1-.2v.2l-.2.1v-.1zm-31.9 3.5h-.1.1zm.3 0-.2-.1.1.1zm.2-.1-.1-.1v.1s.1 0 0 0zm.2-.1h-.1c.1 0 .1 0 0 0zm.2 0-.1-.2v.1c0 .1 0 0 0 0h.1zm.2-.2h-.1l.1.1zm.3 0c.1 0 .1 0 0 0 0-.2-.3-.1-.2 0h.2zm.3-.2h-.1v.1h.1zm.3 0c.1 0 .1 0 0-.1 0-.1-.3 0-.2 0 0 .1 0 .1 0 0h.2zm.4-.2c0-.2-.3 0-.3 0h.3zm.3-.2c.1 0 .1 0 0 0 0-.1-.3 0-.2 0 0 .1 0 .1 0 0h.2zm.3-.1h.2c.1 0 .1 0 0-.1 0-.1-.4 0-.3.2l.1-.1zm.6-.2s.1 0 0 0c0-.2-.3 0-.2 0h.2zm.3-.2h.2v-.1h.2s0-.1 0 0c.2 0 .2 0 .1-.1h-.4l-.3.3h.2zm.8-.3.1-.1h.1s0-.1 0 0l.1-.1h.1c.1 0 0 0 0 0l.2-.1s0-.1.2 0v-.1l-.5.1-.5.3h.1zm1-.5h.1l.1-.1c.1 0 0 0 0 0s.1-.1.2 0 0 0 0-.1h.1c.1 0 0 0 0 0l.1-.1h.1c0-.1 0-.1 0 0l.2-.2h.1l.1-.1h.1s0-.1 0 0l.2-.1h-.3l-.2.2h-.1l-.9.5h.2zm-24.8-.4-.1.1h.1zm-.1-.2v-.1s0-.1 0 0c-.2 0-.1.3 0 .2zm0-.3h-.2s0 .1 0 0h.1zm26.2-.1v-.2l-.3-.2-.2-.3v-.1l-.2-.1v-.2l-.2-.1v-.2l-.2-.1v-.1l-.2-.1v-.1l-.1-.2-.2-.2v-.2l-.2-.1v-.2l-.1-.1c0-.1 0 0 0 0-.1 0-.1-.1 0-.2s0 0-.2 0v-.2c0-.1 0-.1 0 0-.2 0-.2 0 0 .1v.1l.1.3.3.3.1.3.1.2.2.2.1.2v.1c.1 0 .2 0 .1.1l.2.2s.1 0 0 0c0 0 0 .2.2.2 0 .1.1.2 0 .2l.2.1s.1.2 0 .2l.3.2.2.3c.1 0 .1 0 0-.1zm-.3-.3-.1-.2.2.2.1.2-.2-.2zm-26 .1h-.1l-.1.1h.1zm-.1-.2h-.1c-.1 0 0 0 0 0v.1zm3.1-.1c0-.1 0-.1 0 0-.1 0 0 0 0 0v.1c0 .1 0 .1 0 0 0 0 .1 0 0-.1zm36 0h-.7.7zm-39.2-.2-.2.1h.1c.1 0 0 0 0 0zm38.1.1h-.3c-.4 0-.5 0 0 0h.3zm2.2 0h-.7.7zm-3 0c0-.1 0-.1-.2 0-.1 0-.1 0 0 0h.2zm3.4 0h-.3.2c.2 0 .2 0 0 0zm-37.5-.2h-.1v.1-.1zm33.7 0h-.2v.1h.2zm4 0a10 10 0 0 0 8-7.6c.2-.8.3-2 .3-3.8v-1.4l-.6.6a91.4 91.4 0 0 1-13.2 11.7 10.4 10.4 0 0 0 5.5.4zm.2 0h-.2l.1.1s.1 0 0 0zm-41.2 0v-.1l-.1.1h.1zm36.6 0h-.2.2zm5 0h-.2s-.1 0 0 0h.1zm-5.3 0v-.1h-.2v.1h.2zm5.6 0-.2-.1v.1h.2zm-38.7-.2h-.2c0 .1 0 .1.1 0zm32.8 0h-.2v.1h.2zm6.1 0h-.1v.1h.1zm-42.1 0s0-.1 0 0h-.1v.1l.1-.1zm35.9 0h-.2v.2l.2-.1zm6.6 0h-.2l.1.2v-.1zm-6.8 0h-.2.2zm7 0h-.1.1zm-39.5-.1h-.1s0 .1 0 0h.1zm32.2 0v-.2h.1l.1-.2h.2l.1-.2h.1l.1-.1.2-.1.1-.1h.1l.1-.2.2-.1s.1-.1.1 0l.2-.2.1-.1h.1l.2-.2.2-.2.2-.1.1-.1.1-.1.2-.1.1-.1s.2 0 .2-.2l.2-.1.2-.2.2-.1.1-.2.2-.1.2-.1.2-.2.2-.2.2-.1.2-.2.3-.2.2-.2.2-.2.2-.1.2-.2.3-.2c0-.2.2-.3.2-.3l.4-.3.4-.4.4-.4.5-.4.5-.5.6-.5a37.8 37.8 0 0 0 4.1-4.3s.2 0 .3-.2l.2-.2v3.3-3.3l-.3.1-.2.2-.5.5-.5.5a90 90 0 0 1-12.8 11.4c0 .1.2.1.2 0zm4.5-3.7h.1c.1-.2.1-.2 0 0 0 0-.1.1-.1 0zm.4-.3.1-.1c.1-.1.1-.1 0 0 0 .1-.1.1-.1 0zm.4-.4.2-.1-.2.1zm.5-.3v-.2h.1l-.1.2zm.5-.5.2-.2-.1.2-.2.1.1-.1zm.7-.6.3-.3-.3.3-.3.3.3-.3zm.8-.7.3-.4-.3.4-.3.3zm1-1 .3-.3s0 .2-.3.4l-.4.4.3-.4zm2.2-2zm2-2.3.5-.4-.4.4-.4.5.4-.5zm.8-.8.2-.1-.1.1-.2.2.1-.2zm-6.3 12.6h-.1l.1.1zm.3 0c.1 0 .1 0 0 0 0-.2-.3-.1-.2 0h.2zm-43.2-.3h-.1v.1zm3.1 0-.1.1h.1zm40.4 0c0 .1.1.1.1 0h.1c.1 0 .1 0 0 0 0-.1-.4 0-.3.2l.1-.1zm.6-.1v-.1h.2l.2-.1v-.1h.1s0-.1.1 0 0 0 0-.1h.1l.2-.1v-.1h.2v-.1l.2-.1s0-.1 0 0l.3-.2v-.1l.3-.1.1-.2.6-.5c.3-.2.5-.5.4-.5l.2-.2.2-.2v-.1h.1l.1-.2.1-.2.1-.1s.1 0 0-.1 0 0 .1-.1l.1-.1v-.1c.1 0 .1 0 0 0l.1-.2h.1v-.2l.1-.1c0-.1 0 0 0 0s.1-.1 0-.2 0 0 .1 0v-.1c0-.1 0 0 0 0l.1-.1v-.1c.1 0 .1 0 0-.1 0 0 0 .2-.3.5a3 3 0 0 0-.2.7h-.1l-.1.2-.1.1-.1.2h-.1c0 .1-.1.1 0 .2l-.2.2c-.2 0-.2.2-.2.2a9.6 9.6 0 0 1-2.3 2s0 .1 0 0l-.3.1-.2.2c-.2 0-.6.3-.5.3h.2zm2.5-1.9.5-.5-.5.5a5 5 0 0 1-.5.5l.5-.5zm.6-.7.1-.1c.2-.1.2-.1 0 0 0 .1 0 .1 0 0zm-44.1 2.5h-.1c-.1 0 0 0 0 0v.1-.1zm-3.2-.1v-.1l-.1.1v.1l.1-.1zm3.1-.2h-.1v.1h.1zm-3.2-.3c0-.2 0-.2 0 0-.1.2-.1.3 0 .2v-.2zm3.1 0v-.1l-.1.1v.1l.1-.2zm-3.2-.5c0-.3 0-.3 0 0-.1.2-.1.3 0 .2v-.2zm3.2 0h-.1c-.1 0 0 .1 0 .2v-.1zm-.1-.5-.2.2c0 .2 0 .2.1 0v-.2zm29.5.3.2-.1.1-.1h.1c0-.1 0-.2.1-.1s.1 0 .1-.1l.1-.1.2-.1.1-.1h.1l.1-.2h.1l.2-.1.1-.1.1-.1.2-.1.2-.1v-.1s.1-.1.1 0l.2-.2s.1-.1.1 0l.2-.2.1-.1h.1l.1-.2h.2l.1-.2h.2l.1-.2h.1l.2-.2.2-.1.2-.2.2-.1.1-.2.2-.1.2-.2.2-.1c0-.1.1-.2.2-.1l.1-.2.2-.1.2-.1.1-.2.2-.1c0-.1.1-.2.2-.1l.3-.3.2-.2.3-.3.2-.2s.2 0 .3-.2l.3-.2.2-.2c.1-.2.2-.3.3-.2l.3-.4.4-.3.6-.6.6-.5a35.5 35.5 0 0 0 4.2-4.3l.3-.4.3-.4.4-.4.2-.2c.2-.1.3-.3.2-.3l.3-.2.2-.3.2-.2.1-.2.2-.2.2-.3h-.2l-.1.2s0 .2-.2.3l-.2.2-.2.2-.2.3-.2.2c-.2.1-.3.3-.2.3l-.4.4-.4.4-.3.3-.3.4-.4.4-.3.4a84 84 0 0 1-13.6 11.6 6.7 6.7 0 0 1-1.5-1.4l-.1-.2v-.1l-.2-.1v-.2c-.2-.1-.2-.2-.2-.3h-.1l-.1-.1-.2-.6-.4-.5v.1h.1v.2s.1 0 0 0l.1.1v.1l.1.1c0 .1 0 0 0 0l.1.2v.1c0 .1 0 0 .1 0v.2h.1s.1.1 0 .2h.2v.2l.1.1.1.2.1.1v.1l.2.1v.2c.2 0 .3.2.3.2l1 1 .1.1h.1zm-.7-.6-.5-.5.5.5zm7.2-4.4.2-.1-.1.1-.2.2v-.2zm.5-.4.2-.2-.1.2c-.1.2-.1.1-.2.1l.1-.1zm.5-.5.2-.1v.1l-.3.2.1-.2zm.5-.4.2-.1v.1l-.3.1.1-.1zm.7-.5c0-.2.2-.3.2-.3l-.2.3-.3.2.3-.2zm.9-.9.5-.5-.4.5-.5.5.4-.5zm2.3-2.2zm2-2 .3-.4-.3.3a2 2 0 0 1-.3.3l.3-.3zm.7-.8c0-.2.2-.3.2-.3l-.2.3-.3.2.3-.2zm.6-.8.4-.3-.3.3a2 2 0 0 1-.3.3l.2-.3zm.6-.6.2-.2-.1.2-.2.1.1-.1zm.4-.5.2-.2v.2c0 .2-.2 0-.2 0zm.4-.4.1-.2c.1 0 .1 0 0 0l-.1.2zm.3-.5h.2c0-.2 0-.2 0 0h-.2zm-49.5 15c0-.6 0-.6-.1 0v.4-.5zm24.8 0s-.1 0 0 0l-.1-.1v-.1l-.1-.1c0-.1 0 0 0 0s-.1-.2 0-.2c0-.1 0-.1-.1 0v.3c.1.2.2.4.3.3zm-21.8-.3v-.3l-.1.4v-.1zm51.4-.4c-.1 0-.1 0 0 0l-.1.2v.1h-.1v.2c-.1 0-.1 0 0 0l.1-.2v-.3zm-54.5-1.1v-1.3l-.1 1.3a7 7 0 0 0 0 1.2l.1-1.2zm24.5 1v-.1c-.2 0 0 .3 0 .2zm-21.6-1.6v1.2-1.2zm51.7 1.3v.2h-.1c0 .1 0 .1.1 0v-.2zm-30.2 0h-.1c0 .1 0 .1 0 0h.1zm30.3-.2h-.1c0 .1 0 .2.1.1zm-30.4 0v-.2c-.2 0-.2 0-.1.2h.1zm30.5-.2h-.1c0 .1 0 .2.1.1zm0-.2v.1c.1 0 0 0 0-.1zm-30.6 0v-.1l-.1.1h.1zm30.7-.2v.1-.1zm-30.8 0v-.1l-.1.1h.1zm30.9-.2h-.1s0 .1.1 0zm-31-.1v.1-.1zm31-.2.1.1v-.1zm-31 0v-.2l-.1.2zm31.1-.3v.2-.2zm-31.2 0v-.1h-.1v.1h.1zm31.3-.3c0-.1-.1 0 0 .1v-.1zm-31.3-.1h-.1v.2-.2zm-20.9-.4v-.4.9-.5zm46.2.3v-.2l-.1.3s.1 0 0 0zm-19.3-.2h-.1v.2h.1v-.2zm25.4 0h-.1v.2h.1v-.2zm-55.3-.7v.6c0 .3 0 .3 0 0v-.6zm23.8.6-.2.1s0 .1.1 0zm25.5 0c0-.1-.1-.1-.1 0h.1zm-19.5-.1h-.1s0 .1 0 0h.1zm25.5-.2v.2-.2zm-31.6 0v-.1c-.2.1-.2.3 0 .2v-.2zm25.7 0h-.1s0 .2.1.1zm-19.6 0c0-.1 0-.1-.1 0zm19.6-.2v.1c.1 0 0 0 0-.1zm-46.3-.3v-.2.5-.3zm26.6.2-.2.1h.1c.1 0 0 0 0 0zm25.7-.1v-.2.4-.2zm-31.8-.1c0-.2 0-.2 0 0-.1.1-.1.3 0 .2v-.2zm25.9 0v.2-.1zm-19.9 0-.1.1h.1zm-29.5-.5s-.1 0 0 0v.4c0 .1 0 .1 0 0v-.4zm49.5.4v-.1h-.1v.1h.1zm-20-.2s0-.1-.1 0h-.1v.1l.1-.1zm25.9-.2v-.2l-.1.2v.3-.3zm-52.3 0v-.2.4-.3zm20.4-.2c0-.4 0-.4-.1 0v.4-.4zm26 .1v.2c.1 0 0-.1 0-.2zm-20.1 0h-.1c-.1 0 0 0 0 0v.1-.1zm-29.3-.5c-.1 0-.1 0 0 .1v.3-.4zm49.5.2c0-.1 0 0 0 0v.2-.2zm-46.4-.2-.1-.1v.4-.3zm26 0v.2c0 .1 0 .1 0 0v-.1zm26.2-.3v-.5 1.1-.6zm-32-14.4v-14.6h5.6v14.3-14.4H511v14.7zm26.3 14.4c0-.2-.1 0 0 .2 0 .1 0 .1 0 0v-.2zm-49.6-.1v.2c0 .1 0 .1 0 0 .1 0 0-.2 0-.2zm29.1-.1s0-.1 0 0l-.1.2c0 .2 0 .2 0 0l.1-.2zm-26 0v.2c.1 0 0 0 0-.1zm46.5-1v.7c0 .3 0 .3.1-.1v-.6zm-49.5.7c0-.1-.1 0 0 .2v-.2zm3.1 0v.2-.2zm52.2-5.7V233v5.6zM491 244h-.1c0 .1 0 .2.1.1v-.1zm-3.1-.1h-.1l.1.2v-.2zm3.1-.3c0 .2 0 .3.1.2v-.2zm-3-.1c-.1-.1-.2 0 0 .2 0 .1 0 .1 0 0v-.2zm3.2-.2c-.1 0-.2 0-.1.1v-.1zm-3.1 0v-.1h-.2l.1.1c.1 0 0 0 0 0zm3.1-.3s-.1 0 0 .1c0 .1 0 .1 0 0v-.1zm-3.1-.2v.2-.2zm3.2 0c0-.2-.1 0 0 0 0 .1 0 .1 0 0zm-3.1-.3c0-.1-.1-.1-.1 0s0 .2.1.1v-.1zm3.2 0c-.1-.2-.2 0-.1 0 0 .1 0 .1 0 0 .1 0 .1 0 0 0zm-3.1-.2v-.1h-.1v.1h.1zm3.1-.2v.2-.2zm-3-.1-.1-.1v.1zm3-.2c0 .1 0 .2.1.1zm-3-.1v-.1h-.1v.2l.1-.1zm3.2-.1c0-.1-.1 0 0 0 0 .2 0 .2 0 0zm-3-.2-.2-.1v.2l.1-.1zm3 0v-.1.1c.1 0 0 0 0 0zm.1-.3v.1-.1zm-3.1 0v-.1h-.2l.1.2c.1 0 0 0 0 0zm3.2-.3s-.1 0 0 .2v-.2zm-3.1 0h-.1c0-.1 0 0 0 0zm3.1-.2v.1c.1 0 0 0 0-.1zm-3 0-.1-.2h-.1v.2h.1zm3.1-.2s0 .1 0 0zm-3.2-.2c0 .1 0 .2.1.1zm3.3 0c0-.1-.1-.1-.1 0 0 0 0 .1.1 0zm-3.2-.2v.1zm3.3 0c0-.1-.1-.1-.1 0 0 0 0 .1.1 0zm-3.1-.2-.1-.1v.2zm3.1 0c0-.1 0-.1 0 0 .1 0 0 0 0 0zm-3.1-.3h-.1s0 .2.1.1zm3.2 0v.1zm-3.2-.2v.1c.1 0 0 0 0-.1zm3.3 0h-.1s0 .2.1.1v-.1zm-3.2-.2v.1-.1zm3.3-.2v.2c-.1 0-.1 0 0 0 0 .1 0 .1 0 0v-.2zm-3.2 0s-.1-.1-.1 0c0 0 0 .1.1 0zm3.3-.2v.1zm-3.2 0c-.1-.1-.1-.1-.1 0 0 0 0 .1.1 0zm3.3-.2h-.1s0 .2.1.1v-.1zm-3.3 0c0-.1 0-.1 0 0 0 0 0 .1 0 0zm3.3-.2v.1c.1 0 0 0 0-.1zm-3.2 0v-.1.1zm3.4-.4c-.1 0-.1 0 0 0l-.1.2c0 .1 0 .1 0 0 .1 0 .1-.1 0-.2zm-3.3 0h-.1c0 .2 0 .3.1.2v-.1zm0-.1v.1c.1 0 0 0 0-.1zm3.4-.2c0-.1 0-.1 0 0v.1c-.1 0-.1 0 0 .1v-.2zm-3.3 0s0 .1 0 0zm.1-.2v-.1s.1 0 0 0c0-.1 0-.1 0 0v.1c0 .1 0 .1 0 0zm3.4-.2c-.1 0-.1 0 0 0l-.1.2c0 .1 0 0 0 0 .1 0 .1-.1 0-.2zm-3.2-.2v-.2h-.1v.3s.1 0 0 0zm3.3-.2v.2h-.1c0 .1 0 .1.1 0v-.2zm-3.2-.2h-.1c0 .1 0 .2.1.1zm3.3-.1v.2c.1-.1.1-.2 0-.2zm-3.2 0v-.2l-.1.2c0 .1.1 0 0 0zm3.4-.4s-.1 0 0 0v.2h-.1c0 .1 0 .1.1 0v-.2zm-3.3 0v-.1s.1 0 0 0c0-.1 0-.1 0 0v.1c0 .1 0 .1 0 0zm3.6-.6c-.1-.1-.1 0 0 0l-.1.1v.1c0 .1 0 0 0 0l-.1.1v.1s-.1 0 0 .1l.1-.2v-.3zm-3.4.2v-.2c.1 0 .1 0 0 0 0-.1 0-.1 0 0l-.1.3s.1 0 0 0zm3.7-.9c-.1 0-.1 0 0 0l-.1.2v.1l-.1.1c0 .1 0 0 0 0-.1 0-.1.1 0 .2l.1-.2c.1-.2.1-.3 0-.4zm-3.5.4v-.2l-.1.3s.1 0 0 0zm49.7-19.4h2.7v5.8l.1 5.8.3-.2v-.1l.1-.1s.1-.1 0-.1l.2-.2.1-.2.1-.2.1-.1s.1-.1 0-.1l.1-.1v-.2h.1l.1-.1v-.2h.1l.1-.2s.1 0 0-.1h.1v-.1l.1-.2h.1v-.1s.1 0 0-.1 0 0 .2-.1v-.2c.1 0 .1 0 0 0l.1-.1v-.1c0-.1 0 0 .1 0v-.2h.1s.1-.1 0-.2h.1v-.2h.1l.1-.2.1-.2v-.1h.1v-.1s.1 0 0-.1.1 0 .2-.1v-.2h.1v-.2c0-.1 0 0 .1 0v-.2l.1-.1c0-.1 0 0 0 0s.1-.1 0-.2 0 0 .1 0v-.1c0-.1 0 0 0 0l.1-.1v-.1h.1v-.2s.1 0 0 0l.1-.1v-.1l.1-.1c0-.1 0 0 0 0 .1 0 .1-.1 0-.2s0 0 .1 0v-.1c0-.1 0 0 .1 0v-.2h.1v-.2s.1 0 0 0l-.6 1a9.1 9.1 0 0 0-.6 1.3l-.3.6-.3.5-.2.4-.1.3h-.1l-.1.3-.2.1v.2l-.2.2-.1.3-.2.2v.3l-.2.1-.1.2v.1l-.2.1v.1l-.1.1-.2.2v.3h-.1v-11.6h-3l-2.8.1v19.4-19.4h2.9zm-49.6 19c.1 0 .1 0 0-.1s0 0 .1 0v-.2l-.1.2v.2c0 .1 0 .1 0 0zm3.6-.6c0-.1 0 0 0 0v.2c0 .1 0 0 0 0-.1 0-.2.1-.1.2-.1 0-.1 0 0 .1l.1-.2v-.3zm-3.4.2v-.1l.1-.1c0-.1 0 0 0 0s.1-.1 0-.2 0 0 .1 0v-.1c0-.1 0 0 0 0l.1-.1v-.1c.1 0 .1 0 0-.1l-.2.3-.1.5c0 .1 0 0 0 0zm3.6-.5.1-.1c.1 0 .2-.2 0-.2s0 .2 0 .2c-.1 0-.2 0-.1.1l-.1.2h.1v-.2zm-3.1-.5v-.2h.1v-.2s.1 0 0 0l.1-.1v-.1l.1-.1c0-.1 0 0 0 0 .1 0 .1-.1 0-.2s0 0 .1 0v-.1c0-.1 0 0 .1 0v-.2l.1-.1c0-.1 0 0 0 0s.1-.1 0-.1l.1-.1v-.2h.1v-.1h.1v-.1s.1 0 0-.1 0 0 .1 0v-.2l.1-.1c0-.1 0 0 0 0 .1 0 .1-.1 0-.1l.1-.1v-.2h.1v-.1h.1v-.2s.1 0 0 0l.2-.1v-.2c.1 0 .1 0 0 0l.1-.2.1-.1v-.1l.1-.1c0-.1 0 0 0 0s.1-.1 0-.2 0 0 .2 0v-.2c.1 0 .1 0 0-.1s0 0 .1 0v-.2h.1v-.1l.1-.1s.1 0 0-.1l.1-.1v-.1c.1 0 .2 0 .1-.1s0 0 .1-.1c0 0 .1 0 0-.1l.1-.1v-.1l.1-.1v-.1l.2-.1v-.1l.1-.2s.1 0 0 0l.1-.2.1-.1s.1-.1 0-.2h.1l.1-.2.1-.1s.1-.1 0-.2 0 0 .2 0v-.2h.1v-.2h.1l.1-.2v-.1l.2-.1v-.2h.1s.1-.1 0-.2h.1l.1-.2v-.1l.2-.1v-.1l.1-.1v-.1l.2-.1v-.1l.1-.2c.1 0 .2-.1.1-.2s0 0 .1 0c0-.1.1-.1 0-.2s.1 0 .2-.1l.1-.2.1-.2.1-.1s.1 0 0-.1.1 0 .2-.1v-.1l.2-.2v-.1l.1-.1.2-.2v-.1l.1-.1.1-.1.1-.2.1-.1s.1 0 0-.1.1-.1.2-.2c0 0 .1-.1 0-.1l.2-.2.1-.1.1-.1.1-.2.1-.1.1-.2.1-.1.2-.2v-.1c.2 0 .2-.2.2-.2l.1-.1.2-.2.1-.2c.1 0 .2-.1.1-.2l.2-.1.1-.2.2-.2.1-.2.2-.2.1-.1s0-.2.2-.3l.2-.2.1-.2c.2 0 .2-.2.2-.2l.2-.2.2-.2s0-.2.2-.3l.2-.2.3-.4.3-.3.3-.3.3-.3.4-.5.4-.4.4-.5.4-.4a84 84 0 0 1-14.2 20.4zm10-15.8.1-.1c.2-.1.2-.1 0 0v.1zm.4-.4.1-.2c.1 0 .1 0 0 0l-.1.2zm.3-.5h.2c0-.2 0-.2 0 0h-.2zm.5-.5.2-.2-.1.2-.2.1.1-.1zm.3-.4.3-.2.2-.2-.2.2-.3.2zm.6-.6.2-.3.3-.2-.2.2-.3.3zm.9-1 .3-.3-.3.3-.4.4zm.8-.9.4-.4-.3.4a3 3 0 0 1-.4.4l.3-.4zm2-2.2zm2.3-2 .4-.5-.4.4-.4.4.4-.4zm1-1 .3-.2-.4.3-.3.3zm.5-.4s0-.2.2-.3l.3-.2-.3.3-.2.2zm.6-.6.3-.2.2-.3-.2.3-.3.2zm.8-.7.2-.2-.1.2-.2.1v-.1zm.4-.3.1-.2c.1 0 .1 0 0 0l-.1.2zm.5-.5h.1c.1-.2.1-.2 0 0 0 0-.1.1-.1 0zm-18 27a5.7 5.7 0 0 0 .5-1.1l.3-.6.3-.5.1-.3.1-.1.1-.2.2-.2v-.2l.2-.1v-.2l.2-.2v-.2l.2-.2.1-.1s0-.2.2-.3v-.2h.1l.1-.2.1-.1.1-.2v-.2h.2v-.2h.1v-.2h.1l.1-.2h.1l.1-.3.1-.2c.1-.1.2-.1.1-.2h.1c0-.1.1-.2 0-.2l.2-.1v-.1l.1-.1s.1-.1 0-.1l.2-.1v-.1l.1-.2.1-.1.1-.1s.1-.1 0-.1l.2-.2.1-.1v-.2h.1l.1-.2.2-.1v-.2h.1l.1-.2.1-.2h.1l.1-.2.1-.1s.1-.1 0-.1l.2-.2.1-.1.1-.2.2-.2.1-.2h.1l.1-.2.2-.2.1-.2.1-.1.1-.2.2-.2.1-.2h.1l.1-.2.2-.2.1-.2.2-.2.2-.2.2-.3.2-.2.2-.2s0-.2.2-.3l.2-.2s0-.2.2-.3l.2-.2.2-.2.2-.3.3-.3.4-.4s0-.2.3-.3l.3-.4.3-.4.4-.3a80.6 80.6 0 0 1 14.9-12.7h-.1l-.1.1-.1.1s-.1.1-.2 0 0 .1 0 .2h-.2v.1c-.1 0-.2.1-.2 0l-.1.2h-.1l-.1.1h-.1l-.1.1-.1.1h-.1l-.2.2-.2.1c-.1.1-.1.2-.2.1s0 0 0 .1c-.1 0-.2.1-.2 0l-.2.2-.1.1-.2.2h-.2v.2h-.2l-.2.2h-.1c0 .2-.2.2-.2.2-.1.1-.1.2-.2.1l-.2.2s0 .1 0 0l-.2.2s-.2.1-.2 0v.2h-.3v.2h-.2l-.2.2-.1.1-.2.2-.2.1-.2.2-.2.1-.1.1-.2.2-.2.1-.2.2-.2.1-.1.2-.2.1-.2.1-.2.3-.3.2-.3.2-.3.3-.2.2-.3.2-.2.2-.3.2-.3.4-.4.3-.7.6-.7.7a38.6 38.6 0 0 0-4.7 5c-.2 0-.4.3-.3.3l-.3.2-.2.3-.2.2-.1.2-.2.3c-.2 0-.3.2-.3.2l-.1.2-.2.2-.2.3-.3.3-.1.1-.1.2-.2.2-.1.2-.2.1v.2l-.2.1-.1.2-.2.2v.1l-.2.2s-.2.1-.1.2l-.2.1v.2l-.2.1-.1.2-.1.2-.2.1v.1l-.1.1-.1.2-.1.1-.1.1-.1.2-.1.1s-.1 0 0 .1l-.2.2s-.1 0 0 .1l-.2.1v.1l-.1.2-.2.1v.1l-.1.1-.1.2-.1.1v.1l-.2.1v.1l-.1.2c-.1 0-.2.1-.1.2h-.1c0 .1-.1.1 0 .2h-.2v.2l-.1.1s-.1 0 0 .1l-.1.1-.1.2s-.1 0 0 0l-.2.2-.1.2s-.1 0 0 .1 0 0-.2.1v.1l-.1.1v.1l-.1.1-.1.2s-.1 0 0 .1-.1 0-.2.1v.2h-.1v.2h-.1v.2h-.1v.1l-.2.1v.1l-.1.2s-.1 0 0 .1h-.1v.1l-.1.1s-.1.1 0 .2h-.1v.1l-.1.1-.1.1v.1s-.1 0 0 0l-.2.2v.2c-.1 0-.1 0 0 0l-.1.1-.1.1v.1c0 .1 0 0 0 0l-.1.2-.2.2v.1c0 .1 0 0 0 0l-.1.2s-.1 0 0 .1l-.1.1-.1.1v.1s-.1 0 0 0l-.1.1v.1c0 .1 0 0 0 0-.1 0-.2.1-.1.2l-.1.1c0 .1 0 0 0 0s-.1.1 0 .1l-.1.1v.2h-.1v.1c-.1 0-.1 0 0 0l-.1.1v.1c0 .1 0 0-.1 0v.2l-.1.1c0 .1 0 0 0 0s-.1.1 0 .2 0 0-.1 0l-.1.2.6-1zm8.6-13.2.2-.1-.1.1-.2.2v-.2zm.3-.4h.1c.2-.2.2-.2 0 0 0 0 0 .1 0 0zm.5-.5.2-.2-.1.2-.2.1v-.1zm.3-.4.1-.1c.2-.1.2-.1 0 0v.1zm.5-.5.1-.2v.2l-.2.1v-.1zm.5-.7.3-.2-.2.2-.3.3.2-.3zm.7-.7.2-.2-.2.2c0 .2-.2.3-.2.3l.2-.3zm.6-.7.3-.3s0 .2-.2.3l-.3.3s0-.2.2-.3zm2-2zm2.3-2.3.6-.6-.5.6-.6.6.5-.6zm1-1 .3-.2-.2.2-.3.3.2-.3zm.7-.5.1-.1v.1l-.2.1v-.1zm.5-.4.1-.2v.2l-.2.1v-.1zm.5-.5.2-.2-.1.2-.2.2.1-.2zm.5-.5.2-.1v.1l-.3.2.1-.2zm28.5 24.4.2-.2s.1 0 0-.1l.2-.1v-.1l.1-.2c.1 0 .2 0 .1-.1l.1-.1s.1 0 0-.1.1-.1.2-.1v-.1l.1-.1s.1-.1 0-.2h.1l.1-.2.2-.2.1-.2v-.1l.2-.1v-.1s.1-.1 0-.1l.2-.1v-.2h.1s.1-.1 0-.2h.2v-.2h.1v-.2l.1-.1h.1l.1-.3.1-.2h.1c0-.1.1-.2 0-.2l.2-.1v-.2l.2-.2.1-.2.1-.2.1-.1.1-.2.1-.2.2-.2.1-.2s.1-.2 0-.2h.1l.3-.5.3-.6s.3-.4.2-.5c.2 0 .6-.8.5-.9.1 0 .5-.6.8-1.3l.6-1.4v.1l-.1.1c0 .1 0 0 0 0s-.1.1 0 .2 0 0-.1 0v.1c0 .1 0 0 0 0l-.1.1v.1h-.1v.2s-.1 0 0 0l-.1.1v.2h-.1v.1c-.1 0-.1 0 0 0l-.1.1v.1c0 .1 0 0-.1 0v.2l-.1.1c0 .1 0 0 0 0s-.1.1 0 .1l-.1.1v.2h-.1v.1c-.1 0-.1 0 0 0l-.1.1v.1l-.1.1-.1.1v.1s-.1 0 0 0l-.1.2v.1h-.1v.1l-.1.1c0 .1 0 0 0 0s-.1.1 0 .1l-.1.2h-.1v.1s-.1 0 0 .1 0 0-.1 0v.2h-.1l-.1.2s-.1 0 0 .1 0 0-.1 0v.2h-.1s-.1.1 0 .2h-.1v.1l-.1.1-.1.2s-.1 0 0 0l-.1.2-.1.1s-.1.1 0 .1l-.1.1-.1.2-.1.1s-.1.1 0 .1l-.2.1v.2l-.1.1v.1c-.1 0-.2 0-.1.1v.1h-.1v.2h-.2v.2h-.1v.2c-.1 0-.2 0-.1.1l-.1.2c-.2 0-.2.1-.2.2l-.1.2-.2.2v.1l-.1.1v.1l-.1.1-.1.1s-.1.1 0 .1l-.2.2-.1.2s-.1 0 0 0l-.1.2-.1.1v.1l-.2.1v.1l-.1.1v.1l-.2.1v.2h-.1l-.1.2-.1.2-.2.1v.2l-.2.2-.2.3v.1l.1-.2zm7.2-12.2c-.1 0-.1 0 0 0l-.1.2-.1.2-.1.1c0 .1 0 0 0 0v.2l.2-.3c.1-.3.1-.4 0-.4zm.2-.7v.2l-.1.1v.1c0 .1 0 0 0 0l-.1.2.2-.2c.1-.2.1-.3 0-.4zm-3.4.4v-.2c0-.1 0 0 0 0 .1 0 .1-.1 0-.1l.1-.1.1-.2v-.1h.1l-.3.2-.1.5c0 .1.1.1 0 0zm3.7-.9c-.1 0-.1 0 0 0l-.1.2v.1l-.1.1h.1c.1-.2.1-.3 0-.4zm-3.3 0v-.3h.1v-.1l.1-.1c0-.1 0 0 0 0s.1-.1 0-.2 0 0 .1 0v-.1l-.2.3-.2.5s.1 0 0 0zm3.5-.5c-.1 0-.1 0 0 0l-.1.2v.1l-.1.1.2-.1v-.3zm.2-.5v.2h-.1v.1c-.1 0-.1 0 0 .1v-.1c.2-.2.2-.2 0-.3zm-3.3 0v-.1c.1 0 .1 0 0 0 0-.1 0-.1 0 0-.1 0-.1.1 0 .1zm3.4-.2h-.1c0 .1 0 .2.1.1zm-3.2-.2v-.1c0-.1 0 0 0 0l-.1.2c0 .1.1 0 0 0zm3.3-.2v.2c-.1 0-.1 0 0 .1v-.3zm-3.2-.1v-.1s.1 0 0-.1v.2c0 .1 0 .1 0 0zm3.3 0c0-.1 0-.1 0 0 0 0 0 .1 0 0zm.1-.4c0-.1 0 0 0 0v.1c-.1 0-.1 0 0 .1v-.2zm-3.2 0v-.2h-.1v.3s.1 0 0 0zm3.3-.2s0 .1 0 0zm-3.2-.1v-.2s-.1.2 0 .2c0 .1 0 0 0 0zm3.3 0v-.1.1zm.1-.5v.1c-.1 0-.1 0 0 .1v-.2zm-3.3.1v-.1h.1c0-.1 0-.1-.1 0v.1c0 .2 0 .1 0 0zm3.4-.3s0 .1 0 0zm-3.2-.1h-.1s0 .2.1.1v-.1zm3.3-.1c0-.1-.1-.1-.1 0 0 0 0 .1.1 0zm-3.3-.1v.1c.1 0 0 0 0-.1zm3.3-.2v.2c.1 0 0-.1 0-.2zm-3.2 0s0 .1 0 0zm3.3-.2v.1zm-3.2 0c0-.1-.1-.1-.1 0 0 0 0 .1.1 0zm3.3-.2h-.1s0 .2.1.1zm-3.3 0c0-.1 0-.1 0 0 0 0 0 .1 0 0 .1 0 0 0 0 0zm3.4-.2h-.1s0 .2.1.1v-.1zm-3.3 0v-.1l.1-.1h-.1v.2c0 .1.1 0 0 0zm3.3-.2v.1c.1 0 0 0 0-.1zm-3.1-.2s-.1-.1-.1 0c0 0 0 .1.1 0zm3.2 0c0-.2-.1 0 0 0 0 .1 0 .1 0 0zm-3.2-.3v.2c.1 0 0-.1 0-.2zm3.3 0h-.1s0 .1.1 0zm-3.2-.2v.1zm3.3 0c-.1-.2-.2 0-.1 0 0 .1 0 .1 0 0 .1 0 .1 0 0 0zm-3.2-.2c0-.1-.1 0-.1 0v.1h.1zm3.2-.1s0 .1 0 0zm-3.2-.2c0 .1 0 .2.1.1zm3.3 0c0-.2-.1 0 0 0 0 .1 0 .1 0 0zm-3.2-.2v.1-.1zm3.3-.2s-.1 0 0 .2v-.2zm-3.1 0-.1-.1v.2zm3.2-.3c-.1 0-.2 0-.1.2v-.2zm-3.2 0h-.1s0 .2.1.1v-.1zm0-.2v.1c.1 0 0 0 0-.1zm3.2 0c0-.1-.1 0 0 0 0 .2 0 .2 0 0zm-3-.2-.1-.1v.2-.1zm3.1-.1c0-.1-.1 0 0 0v.1-.1zm-3-.2-.1-.1h-.1v.2l.1-.1zm3-.1v.1c.1 0 .1-.1 0-.1zm-3-.2h-.1s0 .2.1.1v-.1zm3.1-.2v.2-.2zm-3 0-.2-.1s.1.2.2.1v-.1zm3.1-.3s-.1 0 0 .2v-.2zm-3 0-.1-.1v.2zm3-.3c0 .2 0 .3.1.2v-.2zm-3 0c0-.1-.1 0-.1 0h.1zm3.2-.3c-.1-.1-.2 0-.1.1.1 0 0-.1 0-.1zm-3.2-.1v.1c.1 0 0 0 0-.1zm3.2-.3c0-.1 0-.1 0 0v.2-.2zm-3-.1h-.2c0 .2.1.3.2.2v-.2zm3-.3c0-.1 0-.1 0 0 0 .2 0 .3.1.2v-.2zm-3 0c0-.1-.1-.1-.1 0l.1.1v-.2zm0-.5v.2c0 .2 0 .2.1 0v-.2zm3.1 0c0 .2 0 .4.1.3v-.2zm-3-.4v.2c0 .1 0 .1 0 0v-.2zm3.1 0v-.3.5-.2zm-3-.6v.4-.4zm3.1 0v-.2.5-.3zm-3-.5c0-.1-.1 0 0 .2 0 .2 0 .2 0 0v-.2zm3-.2v-.4.4c0 .3 0 .5.1.4v-.4zm-2-.5c-.1.1 0 .1 0 0 .2 0 .3-.1.2 0h.1c.1-.1.2-.1.2 0 .2-.2.3-.3.2-.1l.1-.1c.1-.1.2-.2.3-.1h.1v-.1h.2c0-.1 0-.1 0 0l.1-.1c0-.1 0 0 0 0h.2c0-.2.2-.4.4-.4s.3 0 .2-.2c-.1 0-.1 0 0 0l-.2.2h-.4l-.6.4s-.1 0 0 0h-.2l-1.3.5h-.3l.2.1h.2l.2-.1zm2.1-.4-.1-.4v.4c0 .3.1.5.2.5v-.5zm.7-1c0-.1-.1-.1-.2 0l-.2.3.4-.4zm.2-.2c0-.1-.2 0-.1 0l.1.1v-.1zm.5-.6-.3.2-.2.3c.1 0 .6-.4.5-.5zm.2-.2h-.2v.1h.2zm.1-.2h-.1c-.1 0-.1 0 0 0 0 .2.2.1.1 0zm.2-.2h-.2c.1.1.2 0 .2 0zm-26.7-5.6c.3-.1.5-.2.4-.3 0 .1 0 .1-.1 0s-.1 0-.1.1l-.1.1h-.1c-.1 0 0 0 0 0l-.2.1s0 .1-.1 0 0 0 0 .1h-.2s-.1 0 0 0c0 .2 0 .2.5 0zm1-.4s.1-.1 0-.2v.1h-.2s0 .1 0 0l-.1.1h-.1c0 .2 0 .2.3 0zm.4-.2v-.1h-.2c0 .2 0 .2.2.1zm14.9-.1c0-.2-.2-.2-.2 0 0 0-.1.1 0 .1l.2-.1zm-14.5 0c.2-.1.2-.2.1-.2h-.1c-.1 0 0 0 0 0l-.2.1s-.1 0 0 0c0 .1 0 .1.2 0zm.5-.3h-.2c0 .1 0 .1.2 0zm.3-.1c.1 0 .1 0 0-.1h-.2c0 .2.1.2.2.1zm.4-.1v-.2l-.2.1c0 .1 0 .1.2 0zm13.7-.2c-.1 0-.3 0-.3.2h.2c.1-.1.1-.2 0-.2zm-13.4 0h-.2.1zm.2 0-.1-.1v.1s.1 0 0 0zm.2-.1-.1-.1v.1c.1 0 .1 0 0 0zm13.7-.7s0-.1-.1 0l-.1-.1-.1-.1h-.1l.2.2-.3.3c-.1.2-.3.3-.2.4l.7-.7zm-13.5.6h-.1.1zm.3 0v-.2h-.2v.1c0 .1 0 .1.2 0zm.3-.2-.1-.1v.1c.1 0 .1 0 0 0zm.2-.1h-.1.1zm.3 0-.1-.1v.1s.1 0 0 0zm.2-.1-.1-.1v.1h.1zm.2-.1h-.1.1zm.2 0v-.2l-.1.1c0 .1 0 0 .1 0zm.3-.2h-.2l.1.1zm.2 0v-.1h-.1v.1h.1zm.3-.1h-.2.2zm.2 0v-.1h-.1l.1.1zm10.3 0v-.1h-.2c0-.1 0-.1 0 0-.1 0-.1 0 0 0 0 .1.1.1.2 0zm-10-.1v-.1h-.1v.1h.1zm.3-.1h-.2.2zm9.3 0h-.1.1zm-9 0-.1-.2v.1c0 .1 0 0 0 0h.1zm8.8 0v-.2l-.2.1c0 .1 0 0 0 0h.2zm-8.4-.2h-.2l.1.1zm8.2 0h-.2v.1h.2zm-7.9 0-.1-.1s-.1 0 0 0v.1h.1zm7.6 0v-.1h-.2l.1.1h.1zm-16.8-.1.1-.1c.1 0 0 0 0 0 0-.1 0-.1-.2 0 0 0-.1 0 0 .1zm9.7 0h-.2c-.2 0-.2 0 0 0h.2zm6.8 0h-.1.1zm-6.5 0-.1-.2-.1.1h.2zm6.2 0v-.2l-.1.1h.1zm-5.7-.2h-.2c-.2 0-.2 0 0 0 .1.1.3.1.2 0zm5.4 0h-.2v.1h.2zm-15.5 0h-.1.1zm10.6 0h-.2c-.2 0-.2 0 0 0h.2zm4.5 0c.1 0 .1 0 0 0-.1-.1-.2 0-.2 0h.2zm-14.9-.1c0-.1.2-.1.2 0 .1 0 .1 0 0-.1 0-.1-.4 0-.3.1h.1zm11.2 0h-.7.7zm3.2 0c.2 0 .2 0 0 0h-.3.3zm-1-.1zm-12.9-.1h.1l.1-.1c.1 0 .1 0 0 0 0-.2-.4 0-.3.1h.1zm.6-.2c0-.2-.3-.1-.2 0h.2zm.3-.2c.1 0 .2 0 0 0 0-.1-.2 0-.2 0 0 .1 0 .1.1 0h.1zm.4-.1c.1 0 .1 0 0 0 0-.2-.3-.1-.2 0h.2zm.4-.2h-.3c0 .1.1.1.1 0h.2zm.3-.1c.1 0 .1 0 0 0 0-.2-.3 0-.2 0h.2zm.3-.1-.1-.1v.1c.1 0 .1 0 0 0zm.2-.1h-.1.1zm.2 0v-.2l-.1.1c0 .1 0 0 .1 0zm.3-.2c.1 0 .1 0 0 0 0-.1-.3 0-.2 0 0 .1 0 .1 0 0h.2zm.3-.1h-.1.1zm.3 0-.2-.2v.1c0 .1 0 0 0 0h.2zm.2-.2h-.1v.1h.1zm.2 0v-.1h-.1l.1.1zm.2-.1h-.1.1zm.3 0-.2-.1.1.1zm.2-.1-.1-.1s-.1 0 0 0v.1h.1zm.3-.1h-.2.1zm13.2 0h-.1zm-13 0-.1-.2v.1c0 .1 0 0 0 0h.1zm12.7-.2h-.2s0 .1.1 0 0 0 0 .1h.2zm-12.4 0h-.1s-.1 0 0 0v.1h.1zm.3 0-.1-.1s-.1 0 0 0v.1zm11.9 0v-.1h-.1v.1zm-11.7-.1h-.1.1zm11.5 0h-.2.2zm-11.2 0-.1-.1s-.1 0 0 0v.1h.1zm11 0v-.1h-.2v.1h.2zm-10.6-.1-.2-.1.1.1s.1 0 0 0zm10.4 0v-.1h-.2v.1h.2zm-10-.1h-.2.1zm9.7 0h-.1c-.1 0 0 0 0 0h.1zm-9.5 0-.1-.2s-.1 0 0 .1h.1zm9.3 0v-.2l-.2.1c0 .1 0 0 .1 0h.1zm-8.9-.2h-.2l.1.1h.1zm8.6 0h-.1v.1h.1zm-8.2 0h-.3.2c.2 0 .2 0 0 0zm8 0-.1-.1h-.2l.1.1h.1zm-7.6-.1h-.2.1s.1 0 0 0zm7.2 0h-.2.2zm-6.8 0c-.2-.2-.3-.2-.3 0h.3c.1 0 .1 0 0 0zm6.5 0c0-.2 0-.2-.3 0-.1 0-.1 0 0 0h.3zm-5.7-.1h-.6.6zm5.2 0h-.3c-.1 0-.1 0 0 0h.3zm-4.4 0-.7-.1h.7zm3.9-.1h-.3c-.4 0-.4 0 0 0h.3zm-.7 0-1.5-.1H540h3zm61.6 67.6a805.5 805.5 0 0 1-8.5-20.3 763.5 763.5 0 0 1-2.2-5.2l-8-19.1v-.2h7.2l4.3 10.8a7786 7786 0 0 0 7.8 19.5l.4-.8 11.4-29.4h7a2293.3 2293.3 0 0 1-19 45c-.2 0-.2 0-.4-.3zm.5.2v-.2h-.1c0 .1-.1.1 0 .1l-.2-.1v-.2s0-.1 0 0c-.1 0-.1 0 0 .2 0 .2.4.3.3.2zm.1-.6v.2s-.1 0 0 0c0 .1 0 .1 0 0 .1 0 0-.1 0-.2zm-.5 0s-.1 0 0-.1h-.1c-.1 0-.1 0 0 .1 0 0 0 .1 0 0 .1 0 .1 0 0 0zm.7-.5v.4c-.1 0-.2 0-.1.1l.1-.1v-.3zm-.8.2h-.1zm-.1-.2s-.1 0 0-.2h-.1v.3c.1 0 .1 0 0-.1zm1-.3c0-.1 0-.1 0 0v.2h.1v-.2zm-1.2 0v-.2l-.1-.2c-.1 0 0 .5.1.4zm1.6-.7s-.1 0 0 0l-.1.2v.1h-.1v.2l.1-.1c.1-.3.1-.3 0-.4zm-1.8.1v-.1c-.2 0-.2 0-.1.1l.1.1zm2-.5h-.1v.2s-.1 0 0 .1v-.3zm-2 .2h-.2c-.1 0 0 0 0 0h.1zm-.2-.2v-.1c0-.1 0-.1-.1 0-.1 0 0 .3 0 .2.1 0 .1 0 0 0zm2.3-.5v.2l-.1.2h.1c.1-.2.1-.3 0-.4zm-2.5.2v-.2s-.1 0 0-.1c0-.1 0-.1-.1 0-.1 0 0 .4.1.3.1 0 0 0 0 0zm2.7-.5s-.1 0 0 0v.2h-.1.1v-.2zm-2.9 0v-.2c-.1 0-.1 0 0-.1 0-.1 0-.1-.1 0-.1 0 0 .4.1.3zm3.1-.5v.1l-.1.1c0 .1 0 0 0 0s-.1.1 0 .2v-.1c.2-.2.2-.3.1-.3zm-3.3 0v-.2s0-.1 0 0c-.2 0-.1.3 0 .2zm3.5-.5v.1c-.1 0-.1 0 0 .1s0 0-.1 0v.2l.1-.1v-.3zm-3.6 0s-.1 0 0 0h-.1v-.2s0-.1 0 0c-.2 0 0 .4 0 .4.1 0 .1 0 0-.1zm3.8-.3h-.1v.2l.1-.2zm-4-.1-.1-.1c0-.1 0 0 0 0v-.2c0-.1 0-.1-.1 0-.1 0 0 .4.2.4v-.1zm4.1 0v-.1h-.1.1zm0-.5v.2c0 .1 0 .1.1 0v-.2zm-4.4 0v-.2c-.2 0 0 .3 0 .3v-.1zm4.7-.5v.2h-.1v.1s-.1 0 0 .1v-.1c.2-.2.2-.2 0-.3zm-4.8.1v-.1c0-.1 0-.1 0 0-.2 0-.1.3 0 .2zm5-.6v.2h-.1v.2-.1c.2-.2.2-.2.1-.3zm-5.2.3v-.2s-.1 0 0 0l-.1-.1v-.2c-.2 0-.1.1 0 .3 0 .2.1.3.2.2zm5.4-.8v.2s-.1 0 0 0l-.1.1v.1l.1-.1v-.3zm-5.6.1s-.1 0 0-.1c0-.1 0-.1-.1 0-.1 0 0 .3 0 .2.1 0 .1 0 0 0zm5.8-.5c-.1 0-.1 0 0 0l-.1.2c0 .1 0 .1 0 0 .1 0 .1-.1 0-.2zm-6 .2v-.2s0-.1 0 0c-.2 0-.1.3 0 .2zm6.2-.7s-.1 0 0 0v.2h-.1v.1c-.1 0-.1 0 0 .1.2-.2.2-.3 0-.4zm-6.3.3s-.1 0 0-.1h-.1v-.2s0-.1 0 0c-.2 0 0 .4 0 .4.1 0 .1 0 0-.1zm6.5-.8v.2h-.1v.1s-.1 0 0 .1c.2-.2.2-.3.1-.4zm-6.8.3v-.3s0-.1-.1 0c-.1 0 0 .4.2.4v-.1zm7-.6h-.1v.2c.1-.1.1-.2 0-.2zm-7.2 0c-.1 0-.1 0 0 .1zm7.4-.5c-.1-.1-.1 0 0 0l-.1.1v.1c0 .1 0 0 0 0l-.1.2.1-.2c.1-.1.1-.2 0-.2zm-7.5.3zm0-.2-.1-.2c-.2 0 0 .3 0 .3v-.1zm7.6-.5v.2c-.1 0-.1 0 0 0 0 .1 0 .1 0 0v-.2zm-7.8.1s-.1 0 0 0l-.1-.1v-.2c-.2 0 0 .5 0 .4.1 0 .1 0 0 0zm8-.6v.2c-.1 0-.1 0 0 0l-.1.1v.1l.1-.1v-.3zm-8.2.1s-.1 0 0 0l-.1-.1c-.1 0-.1 0 0 .1 0 0 0 .1 0 0 .1 0 .1 0 0 0zm8.4-.6v.2l-.1.1c0 .1 0 .1.1 0v-.3zm-8.5.3h-.1zm-.2-.2v-.1c0-.1 0-.1 0 0-.1 0 0 .3 0 .2.1 0 .1 0 0 0zm9-.4h-.1v.1h-.1c0 .2.2 0 .2 0zm-9.1 0v-.1l-.1-.1c0-.1 0-.1 0 0-.2 0 0 .4.1.3zm9.1-.1v-.1c0-.1-.1 0-.1 0h.1zm.2-.6c-.1 0-.1 0 0 0l-.1.2v.1h-.1c0 .1 0 .1.2 0v-.3zm-9.5.2-.1-.1v-.1c0-.1 0-.1 0 0-.2 0 0 .4 0 .3.1 0 .1 0 0 0zm9.6-.6v.2c-.1 0-.1 0 0 0 0 .1 0 .1 0 0v-.2zm-9.8.1s-.1 0 0-.1c0 0 0-.1-.1 0-.1 0 0 .3 0 .2.1 0 .1 0 0 0zm10-.6v.2s-.1 0 0 0l-.1.1v.1h.1c0-.3.1-.3 0-.4zm-10.2.3v-.1c0-.1 0 0 0 0-.1 0-.1-.1 0-.2 0-.1 0-.1-.1 0l.1.4v-.1zm10.4-.8v.2l-.1.1v.1l.1-.1v-.3zm-10.6.3v-.1c0-.1 0 0 0 0l-.1-.2c0-.1 0-.1 0 0-.2 0 0 .4.1.4v-.1zm10.8-.6c0-.1 0 0 0 0v.1l-.1.1h.1v-.2zm-11 0v-.1c-.2 0-.1.3 0 .3v-.1zm11.2-.5c0-.1 0-.1 0 0v.1l-.1.1c0 .1 0 0 0 0v.2-.2c.2-.1.2-.2.1-.2zm-11.4.2v-.1c-.1 0-.1 0 0 .1 0 0 0 .1 0 0 .1 0 .1 0 0 0zm0-.3h-.2.2zm11.6-.2s-.1 0 0 0h-.1v.1l.1-.1zm-11.8 0v-.1s-.1-.1 0-.2h-.1c-.1 0 0 .5.1.4zm11.9-.2h-.1.1zm-5.7-.2v-.1h.1c0-.1 0-.1-.2 0v.2l.1-.1zm5.8-.2c-.1 0-.1 0 0 0l-.1.2c0 .1 0 0 0 0 .1 0 .1-.1 0-.2zm-12.2.1v-.1c0-.1 0-.1 0 0-.2 0 0 .3 0 .2zm6.2-.3h-.1v.2c0 .1 0 .1 0 0 .1 0 .2 0 .1-.2zm.4 0h-.1s0 .2.1.1v-.1zm5.8-.3s-.1 0 0 0l-.1.2v.1c-.1 0-.1 0 0 0 0 .1 0 0 0 0v-.3zm-12.5.2s-.1 0 0 0l-.1-.1c-.1 0-.1 0 0 .2.1 0 .1 0 0 0zm6.2-.2c0-.1-.1-.1-.2 0s.1 0 .1.1 0 .1 0 0c.1 0 .1 0 0-.1zm.6.1v-.2l-.1.3s.1 0 0 0zm-7-.2v.1zm12.9-.2h-.1v.1s-.1 0 0 0c0 .2.1 0 .1 0zm-13 0v-.1s0-.1 0 0c-.1 0 0 .3 0 .2.1 0 .1 0 0 0zm6.3 0c0-.2 0-.2-.1-.1s0 .1 0 .2h.1v-.2zm.9 0h-.1c0 .1 0 .2.1.1zm0-.2h.1v-.1c0-.1 0 0 0 0l-.1.2s.1 0 0 0zm5.9 0h-.1c-.1 0 0 0 0 0zm-13.2-.1v-.1l-.1-.2c0-.1 0-.1 0 0-.2 0 0 .4.1.4v-.1zm6.3-.1c0-.1-.1-.1-.1 0v.1c0 .1 0 .1 0 0 .1 0 .1 0 0-.1zm7-.3v.2c-.1 0-.1 0 0 0l-.1.1c0 .1 0 0 .1 0v-.3zm-5.8.2v-.1c.1 0 .1 0 0-.1v.2c0 .1 0 .1 0 0zm-1.4-.3s0-.1 0 0c-.1 0-.1 0 0 0v.2-.2zm-6.3 0v-.1h-.1l.1.2v-.1zm7.8-.1v.1c.1 0 0 0 0-.1zm5.9-.2c-.1 0-.1 0 0 0l-.1.2c0 .1 0 .1 0 0 .1 0 .1-.1 0-.2zm-7.5 0-.1-.1v.2c0 .1 0 .1 0 0 .1 0 .1 0 0-.2zm1.7 0v-.1h.1c0-.1 0-.1-.1 0v.1c0 .2 0 .1 0 0zm-8 0v-.1h-.1c-.1 0 0 .1 0 .1h.1zm14-.5c-.1 0-.1 0 0 0l-.1.2v.1l-.1.1.2-.1v-.3zm-14.1.3v-.2h-.1v.3c.1 0 .1-.1 0-.1zm6.2-.2c0-.1 0-.1 0 0-.1 0 0 0 0 0v.1c0 .1 0 .1 0 0v-.1zm2 0h.1v-.1c-.1 0-.1.1 0 .2 0 .1 0 0 0 0zm-8.4-.2v-.1s-.1-.1 0-.2h-.1c-.1 0 0 .5.1.4zm6.3-.2h-.1v.2l.1-.2zm8.2-.2v.2h-.1v.1c-.1 0-.1 0 0 .1v-.1c.2-.2.2-.2 0-.3zm-5.9.2v.2-.2zm.1-.1v-.2s-.1.2 0 .2c0 .1 0 .1 0 0zm-2.5-.1h-.1s0 .1 0 0h.1zm-6.4 0v-.2c-.2 0-.2 0-.1.1 0 0 0 .1.1 0zm14.8-.3c0-.1 0-.1 0 0v.2c.1-.1 0-.2 0-.2zm-8.5 0-.1-.1v.2c0 .1 0 .1 0 0 .1 0 .1 0 0-.2zm2.7 0 .1-.2h-.1v.3zm-9 0-.1-.2v.1c0 .1 0 0 0 0zm15-.6v.4h-.1c0 .1 0 0 .1 0 .1-.2.1-.3 0-.4zm-15.2.3v-.1c0-.1 0-.1 0 0-.2 0-.1.3 0 .2zm6.3-.1c0-.1 0-.1 0 0-.1 0-.1 0 0 0v.1c0 .1 0 .2 0 0v-.1zm3 0h.1v-.1c-.1 0-.1.2 0 .2 0 .1 0 0 0 0zm-9.4-.3s-.1 0 0 0l-.1-.1v-.1c0-.1 0-.1-.1 0-.1 0 0 .4.2.3zm6.3 0c0-.2 0-.2-.1-.1s0 .1 0 .2c.1 0 .1 0 0-.2zm3.3 0c0-.1 0-.1 0 0 0 0 0 .1 0 0zm6-.4c-.1 0-.1 0 0 0l-.1.2v.2h-.1.1c.1-.2.1-.3 0-.4zm-5.9.2v-.2s-.1.2 0 .2c0 .1 0 .1 0 0zm-3.5-.2c-.1-.1-.1-.1-.2 0s.1 0 0 .1c0 .1 0 .1.1 0 0 0 .1 0 0-.1zm-6.5 0v-.2c0-.1 0-.1 0 0-.1 0 0 .3 0 .2.1 0 .1 0 0 0zm16-.3v.2c-.1 0-.1 0 0 0v-.2zm-5.8.1v-.2h-.1v.3s.1 0 0 0zm-3.9 0zm-6.4-.2v-.1l-.1-.2c0-.1 0-.1 0 0-.2 0 0 .4.1.4v-.1zm6.4 0v-.1h-.1c-.1 0 0 .1 0 .1zm10-.4h-.1v.1s-.1 0 0 .1 0 0-.1 0v.2l.1-.1v-.3zm-6 .2h-.1s0 .2.1.1zm-4.1 0h-.1zm4.2-.2v-.1c0-.1 0 0 0 0l-.1.2s.1 0 0 0zm-4.3 0zm-6.4-.1v-.1h-.1v-.2c0-.1 0-.1 0 0-.2 0 0 .4 0 .4.1 0 .1-.1 0-.1zm6.3-.2c0-.1 0-.1-.1 0s0 0 0 .1 0 .2.1 0v-.1zm10.4 0h-.1v.2l.1-.2zm-5.9 0v-.1s.1 0 0-.1v.2c0 .1 0 .1 0 0zm-4.6-.4h-.1v.2c.1 0 .1 0 0-.2zm10.6.2h-.1.1zm-17-.1s-.1 0 0-.1h-.1v-.2c0-.1 0-.1 0 0-.2 0 0 .4 0 .4.1 0 .1-.1 0-.1zm11.1-.1s0 .1 0 0zm6-.3v.2c0 .1 0 0 0 0l-.1.2.1-.1v-.3zm-10.9 0c0-.1 0-.1 0 0-.1 0-.1 0 0 0v.1c0 .1 0 .1 0 0v-.1zm5 .1v-.1c.1 0 .1 0 0 0 0-.1 0-.1 0 0v.1c0 .2 0 .1 0 0zm-11.5-.2v-.2c-.1 0 0 .3 0 .2.1 0 .1 0 0 0zm17.6-.3v.2h-.1c0 .1 0 .1.1 0v-.2zm-11.2 0s-.1-.1-.1 0v.2c.1 0 .1-.1 0-.2zm5.3.1v-.1c0-.1 0 0 0 0l-.1.2s.1 0 0 0zm-11.8-.2v-.2h-.1v-.1c-.2 0 0 .5.1.4zm18-.4h-.1v.2c-.1 0-.1 0 0 0l-.1.1v.1l.1-.1v-.3zm-11.7.1c-.1 0-.1 0 0 0v.2c0 .1 0 .1 0 0v-.2zm5.6.1h-.1l.1.2v-.2zm0-.1.1-.1v-.1c-.1 0-.1.2 0 .2 0 .1 0 0 0 0zM596 239v-.1c0-.1 0-.1 0 0-.2 0-.1.3 0 .2zm6.4-.1c0-.1 0-.1-.1 0s0 0 0 .1 0 .2 0 0l.1-.1zm12 0-.1-.1s-.1 0 0 0l-.1.1v.1l.1-.2zm-6 0v-.2c0-.1 0-.1-.1 0v.1c0 .2 0 .1 0 0zm-12.6-.3v-.2c0-.1 0-.1-.1 0-.1 0 0 .4.2.3zm6.5 0c0-.2-.1-.2-.2-.1s.1.1 0 .2h.1c.1 0 .1-.1 0-.2zm12.1 0h-.1v.1h.1zm-6-.2v.1c.1 0 0 0 0-.1zm6-.2v.2c0 .1 0 .1.1 0v-.2zm-12.3 0c0-.1 0-.1-.1 0s0 0 0 .1 0 .1 0 0c.2 0 .2 0 .1-.1zm6.4 0 .1-.2h-.1v.3zm-12.9 0v-.2c-.1 0-.1 0 0-.1 0-.1 0-.2-.1 0-.1 0 0 .4.1.3zm19-.5v.4s-.1 0 0 0c.2-.2.2-.3 0-.4zm-12.6.1s-.1-.1-.2 0 .1 0 .1.2c.1 0 .1-.1 0-.2zm6.7 0v-.1c-.1 0-.1.2 0 .2 0 .1 0 0 0 0zm-13.3-.2v-.1c0-.1 0-.1 0 0-.2 0-.1.3 0 .2zm6.4-.2h-.1v.2c0 .1 0 .1.1 0v-.2zm13.1 0h-.1v.2l.1-.1zm-6.1 0v.2-.1zm-13.5-.1s-.1 0 0-.1h-.1v-.2c0-.1 0-.1 0 0-.2 0 0 .4 0 .4.1 0 .1-.1 0-.1zm13.6 0v-.1c0-.1 0-.1 0 0 0 0-.1 0 0 .1 0 .1 0 .1 0 0zm-7.2-.2c0-.1-.1-.1-.1 0v.1c0 .1 0 .1 0 0 .1 0 .1 0 0-.1zm13.3.2h-.2.1c.1 0 0 0 0 0zm.1-.6v.2s-.1 0 0 0l-.1.1v.1h.1v-.4zm-6 .2v-.2h-.1v.3s.1 0 0 0zm-7.6-.2c-.1 0-.1 0 0 0v.2-.2zm-6.5 0c-.1 0-.1 0 0 0v.2c.1 0 .1-.1 0-.1zm14.2-.2h-.1c0 .1 0 .2.1.1zm6-.1v.2c.1-.1.1-.2 0-.2zm-13.8 0-.1.1s0 .1 0 0h.1zm-6.4 0h-.1v.1zm14.3 0v-.2l-.1.2c0 .1.1 0 0 0zm-14.5-.1v-.2c-.2 0 0 .3 0 .2.1 0 0 0 0 0zm6.5-.2h-.1v.2c0 .1 0 .1.1 0v-.2zm14.2-.2c0-.1-.1 0 0 0v.1l-.1.1c0 .1 0 0 0 0-.1 0-.1.1 0 .2v-.2c.1-.1.2-.2 0-.2zm-6 .1c-.1 0-.1-.1 0-.1 0-.1-.1-.1-.1 0 0 0-.1.1 0 .1 0 .1 0 .1 0 0zm-14.8 0v-.2l-.1-.2c-.2 0 0 .5.1.4zm6.5-.2c0-.1-.1-.1-.1 0v.1c0 .1 0 .2 0 0 .1 0 .1 0 0-.1zm14.5-.4c0-.1 0 0 0 0v.1l-.1.1c0 .1 0 0 0 0s-.1.1 0 .2v-.2c.2-.1.2-.2.1-.2zm-6.2.2v.1-.1zm-8.5-.2c-.1 0-.1 0 0 0v.2-.2zm-6.5 0s-.1 0 0 0l-.1-.2c-.1 0-.1 0 0 .2 0 0 0 .1 0 0 .1 0 .1 0 0 0zm15.1 0c.1 0 .1-.1 0-.2v.3zm-8.7-.2h-.1v.1h.1zm15-.2h-.1v.2c0 .1 0 0 0 0 .1 0 .1-.1 0-.2zm-21.5.1h-.1zm15.4 0v-.2l-.1.2c0 .1.1 0 0 0zm-9 0v-.1.1zm-6.5-.2s-.1 0 0-.1c0-.1 0-.1-.1 0-.1 0 0 .2 0 .2.1 0 .1 0 0-.1zm6.5 0h-.2.2zm15.3-.4c-.1 0-.1 0 0 0l-.1.2v.1h-.1c0 .1 0 .1.1 0v-.3zm-6.2.2c0-.1-.1-.1-.1 0 0 0 0 .1.1 0zm-9.2 0v-.1.1zm-6.6-.2v-.1l-.1-.1c0-.1 0-.2 0 0-.1 0 0 .4.1.3zm6.5 0v.1zm9.4 0v-.2l-.1.2c0 .1.1.1 0 0zm6.3-.3h-.1v.1h-.1c0 .2.2 0 .2 0zm-15.7.1h-.1zm-.1-.3c-.1-.1-.1-.1-.2 0s.1 0 0 .1c0 .1 0 .2.1 0 0 0 .1 0 0-.1zm9.6.1c.1 0 .1-.1 0-.2v.3zm-16.2 0v-.2l-.1-.2c-.2.1 0 .5.1.4zm22.4 0v-.1c0-.1 0 0 0 0zm.1-.5v.2c-.1 0-.1 0 0 0 0 .1 0 .1 0 0v-.2zm-16 0h-.2v.2c.1 0 .2 0 .1-.2zm9.8.1v.1c.1 0 0 0 0 0zm-16.5-.2v-.1c0-.1 0-.1-.1 0-.1 0 0 .3 0 .2.1 0 .1 0 0 0zm16.6 0 .1-.1h-.1v.2c0 .1 0 0 0 0zm6.3-.4v.2l-.1.1v.1h.1c.1-.2.1-.3 0-.4zm-16.4.2c0-.1-.1-.1-.2 0s.1 0 .1.1 0 .1 0 0c.1 0 .1 0 0-.1zm-6.7-.1v-.1s-.1-.1 0-.2c0-.1 0-.1-.1 0-.1 0 0 .4.1.3.1 0 0 0 0 0zm17 0v-.2c-.1.1-.1.2 0 .2 0 .1 0 .1 0 0zM600 233s0-.1-.1 0 0 .1 0 .2h.1v-.2zm16.9 0-.1-.1c-.1 0 0 0 0 0v.1l-.1.1c0 .1.2 0 .2-.2zm-6.3-.1v.1-.1zm-17.3-.1v-.1c-.1 0-.1-.1 0-.2 0-.1 0-.1-.1 0-.1 0 0 .4.1.3zm6.6-.2h-.1v.2c0 .1 0 .1 0 0 .1 0 .1 0 0-.2zm10.8.1v-.2.3zm6.2 0h-.1v.1h.1zm.2-.5c-.1 0-.1 0 0 0l-.1.2v.1l-.1.1.2-.1v-.3zm-17.4 0c-.1 0-.1.1 0 .1v.1c0 .1 0 .2 0 0v-.1zm11.2.2v-.2h-.1v.2c0 .1.1 0 0 0zm-17.8-.1v-.2c-.2 0-.1.3 0 .2zm6.5-.4h-.1v.2c.1 0 .1 0 0-.2zm17.6 0c0-.1 0 0 0 0v.1c-.1 0-.1 0 0 .1v-.2zm-6.2 0h-.1l.1.2v-.2zm-18 0s-.1 0 0 0l-.1-.2c-.1 0-.1 0 0 .2 0 0 0 .1 0 0 .1 0 .1 0 0 0zm18-.1.1-.1v-.1l-.1.2c0 .1.1.1 0 0zm-11.6-.2c0-.1 0-.1 0 0-.1 0 0 0 0 0v.1c0 .1 0 .1 0 0v-.1zm18-.2c0-.1 0-.1 0 0v.1s-.1 0 0 .1 0 0-.1 0v.2l.1-.2c0-.1.1-.2 0-.2zm-24.5.2h-.1zm-.2-.2v-.2c0-.2 0-.2-.1-.1-.1 0 0 .4.2.4v-.1zm18.5 0s.1-.1 0-.2v.3zm-11.9-.2s0-.1-.1 0 0 .1 0 .2l.1-.2zm18.3-.3c0-.1 0-.1 0 0v.2c0 .1 0 0-.1 0v.1c0 .1 0 0 .1 0v-.3zm-6.3.1v.1zm-12.1-.2h-.2v.2c0 .1 0 .1.1 0 .1 0 .1 0 0-.2zm-6.7.1v-.2c-.2.1 0 .3 0 .3v-.1zm19 0v-.2c0-.1 0 0-.1 0v.2zm6.3-.4v.2h-.1c0 .1 0 0 .1 0v-.2zm-18.8 0c0-.1 0-.1-.1 0s0 0 0 .1 0 .2 0 0c.2 0 .2 0 .1-.1zm-6.6 0-.1-.1v.2c.1 0 .1 0 0 0zm19.2 0v-.2l-.1.2c0 .1.1.1 0 0zm6.4-.5v.2h-.1v.1c0 .1 0 .1 0 0 .2-.2.2-.2.1-.3zm-19.1.1h-.2l.1.2c.1 0 .1 0 0-.2zm-6.6.1h-.1c-.1 0 0 .1 0 .1h.1zm19.4 0v-.2s.1 0 0 0c0-.1 0-.1 0 0v.2zm-19.5-.2v-.1c0-.1 0-.1-.1 0-.1 0 0 .3 0 .2.1 0 .1 0 0 0zm6.6-.1h-.2s0 .1.1 0zm19.4-.2-.1.1c0 .2.1 0 .1 0zm-6.4 0v.1zm-19.8 0v-.1c-.1 0-.1-.1 0-.2 0-.1 0-.1-.1 0-.1 0 0 .4.1.3zm6.7-.2h-.2v.2c0 .1 0 .1.1 0 0 0 .1 0 0-.2zm13.2 0c.1 0 .1-.1 0-.1 0-.1 0 0 0 0v.2zm6.4 0h-.2.1c.1 0 0 0 0 0zm-19.8-.3c0-.1 0-.1-.1 0s0 0 0 .1 0 .2 0 0c.1 0 .2 0 .1-.1zm19.9 0c-.1-.1-.1-.1 0 0l-.1.1c0 .1 0 .1 0 0 .1 0 .1-.1 0-.2zm-26.6 0v-.1c0-.1 0 0 0 0h-.1c0 .1 0 .2.1.1zm20.3 0v-.2l-.1.2c0 .1.1.1 0 0zm-13.7-.4h-.2l.1.2s0 .1 0 0c.1 0 .1 0 0-.2zm20.2-.2s-.1 0 0 0l-.1.2v.1c-.1 0-.1 0 0 .1v-.4zm-26.9.3v-.1.1zm20.5-.1h-.1l.1.1v-.1zm-20.6-.1v-.2c-.2 0-.1.3 0 .2zm6.6 0v-.1.1zm14 0 .1-.2c0-.1 0-.1 0 0-.1 0-.1.1 0 .1 0 .2 0 .1 0 0zm6.6-.4h-.1v.1s-.1 0 0 .1l.1-.2zm-20.6.1h-.1c-.1 0 0 .1 0 .1h.1zm-6.8-.1v-.2c0-.2 0-.2-.1-.1-.1 0 0 .5.2.4v-.1zm6.7 0h-.1zm14.3 0v-.2c.1 0 .1 0 0 0v.2c0 .1 0 0 0 0zm6.5-.1h-.1c-.1 0 0-.1 0 0zM598 228v-.1h-.2v.1h.2zm21-.5h-.1v.2c-.1 0-.1 0 0 0l-.1.1v.1l.1-.1v-.3zm-21.2.3v.1zm14.6 0c0-.1 0-.1 0 0 0 0 0 .1.1 0zm-21.3-.1v-.1c-.1 0-.1 0 0 .1 0 0 0 .1 0 0zm6.7 0v-.2.1c0 .1-.1 0 0 0zm14.8-.1v-.2h-.1v.2c0 .1.1.1 0 0zm-15-.3c0-.1 0-.1 0 0v.1c0 .1 0 .2 0 0 .1 0 .1 0 0-.1zm-6.6 0v.2-.1zm28-.1c0-.1 0-.1 0 0v.2c.1-.1.1-.2 0-.2zm-28 0-.1-.2c-.2.1 0 .3 0 .3v-.1zm21.7 0v-.2.3zm-15.2-.3c-.1 0 0 0 0 0v.2s0 .1 0 0v-.2zm21.8-.3c-.1 0-.1 0 0 0l-.1.2v.2h-.1c0 .1 0 0 .2 0v-.4zm-28.5.2s-.1 0 0 0l-.1-.1v-.2c-.2.1 0 .5 0 .4.1 0 .1 0 0 0zm22 0v.1-.1zm-15.4-.2c0-.1 0-.1-.1 0s0 0 0 .1 0 .1 0 0l.1-.1zm15.5 0s.1-.1 0-.2v.3zm6.6-.5v.2h-.1v.2c-.1 0-.1 0 0 0 .2-.2.2-.3 0-.4zm-29 .2v-.3h-.1c-.1.1 0 .5.2.4zm6.8-.1h-.2v.2h.1c.1 0 .1-.1 0-.2zm15.8 0v-.1h-.1v.2c0 .1.1.1 0 0zm-16-.4h-.1v.2c0 .1 0 .1 0 0 .2 0 .2 0 .1-.2zm22.5 0v.2c.1 0 .1-.2 0-.2zm-6.4 0h-.1l.1.2v-.1zm-22.9 0v-.1c0-.1 0-.1 0 0-.1 0 0 .3 0 .2.1 0 .1 0 0 0zm23-.1v-.1c0-.1 0-.1 0 0l-.1.1c0 .1.1.1 0 0zm-16.3-.2c0-.1-.1-.1-.2 0s.1 0 .1.1 0 .2 0 0c.1 0 .1 0 0-.1zm22.8-.2v.2c0 .1 0 0 0 0l-.1.2.1-.1v-.3zm-29.6.2v-.1l-.1-.2c0-.1 0-.1 0 0-.2 0 0 .4.1.3zm23.2-.2s.1-.1 0-.1c0-.1 0 0 0 0v.2zm-16.6-.2h-.1v.2s0 .1.1 0v-.2zm23.3-.1h-.1l-.1.2s.2 0 .2-.2zm-30.1 0v-.1l-.1-.1v-.1c0-.1 0-.1 0 0-.2 0 0 .4 0 .3.1 0 .1 0 0 0zm23.5 0c0-.1 0-.1 0 0 0 0 0 .1 0 0 .1 0 0 0 0 0zm-16.8-.2c0-.1-.1-.1-.1 0v.1c0 .1 0 .1 0 0 .1 0 .1 0 0-.1zm17 0v-.2h-.1v.2c0 .1 0 0 0 0zm6.4 0h-.1.1zm.1-.4v.2c-.1 0-.1 0 0 0 0 .1 0 .1 0 0v-.2zm-23.7 0c-.1 0-.1 0 0 0v.2-.2zm-6.7 0s-.1 0 0 0c0-.2 0-.2-.1-.1-.1 0 0 .3 0 .2.1 0 .1 0 0 0zm24 0v-.1c0-.1 0-.1 0 0l-.1.1c0 .2.1.1 0 0zm6.6-.5v.2s-.1 0 0 0l-.1.1v.1l.1-.1v-.3zm-24 .1h-.1v.2c0 .1 0 .1 0 0 .1 0 .1 0 0-.2zm-6.8.1v-.1c-.2 0-.2 0-.1.1 0 0 0 .1.1 0zm24.3-.1h-.1s0 .2.1.1v-.1zm-17.7-.3c0-.1 0-.1 0 0-.1 0 0 0 0 0v.1c0 .1 0 .2 0 0 0 0 .1 0 0-.1zm17.8.1v-.2.3zm-24.5 0zm31.1-.2-.1.1v.1l.1-.2zm-31.2 0v-.1c0-.1 0 0 0 0l-.1-.2s0-.1 0 0c-.2 0 0 .4.1.4v-.1zm6.7-.3h-.1v.2c.1 0 .2 0 .1-.2zm18 .2v-.1l.1-.1h-.1v.2c0 .1 0 0 0 0zm6.6 0v-.1c0-.1-.1 0-.1 0v.1h.1zm.2-.6c-.1 0-.1 0 0 0l-.1.2v.1l-.1.1.1-.1v-.3zm-31.7.2v-.2c-.2 0-.1.3 0 .3v-.1zm6.8-.1c0-.1-.1-.1-.2 0s.1 0 .1.1 0 .1 0 0c.1 0 .1 0 0-.1zm18.3 0h-.1l.1.2v-.1zm0-.1v-.1l.1-.1h-.1v.2c0 .1.1.1 0 0zm-25.3-.2v-.1c-.1 0-.1 0 0 .1v.1c.1 0 .1 0 0 0zm6.9 0h-.1c-.1 0 0 0 0 0v.1zm25.1-.2v.2l-.1.1h.1v-.3zm-25.3-.1c0-.1 0-.1 0 0-.1 0 0 0 0 0v.2-.2zm18.8.1v-.2.3zm-25.5 0v-.1h-.1v.1zm32.2-.5v.2c-.1 0-.1 0 0 0l-.1.2h.1v-.4zm-32.4.2v-.1c0-.1 0-.1 0 0-.2 0 0 .3 0 .2zm6.8-.2h-.1v.2s0 .1 0 0l.1-.2zm19 .1v.1zm.1-.1v-.2s.1 0 0 0v.2c0 .1 0 0 0 0zm-26-.1v-.1c0-.1 0 0 0 0l-.1-.2c0-.1 0-.1 0 0-.2 0 0 .4.1.3zm32.7-.4v.2l-.1.1v.1h.1c.1-.2.1-.3 0-.4zm-26 .3c.1 0 0 0 0 0v.1zm0-.2v.1zm19.5 0v-.1c0-.1 0-.1-.1 0v.1c0 .1.1.1 0 0zm-19.6-.1zm-6.8-.1s-.1-.1 0-.1l-.1-.1c-.1 0-.1 0 0 .2.1 0 .1 0 0 0zm33-.2v.2h.1v-.2zm-26.2 0h-.1c-.1 0 0 .1 0 .1h.1zm19.7 0h-.1s0 .2.1.1v-.1zm-19.8 0v-.1h-.1v.1zm-6.8-.1v-.1h-.1v.1zm26.7 0v-.2c0-.1 0-.1 0 0l-.1.2s.1 0 0 0zm6.7-.4v.1l-.1.1c0 .1 0 0 0 0s-.1.1 0 .2v-.2c.2-.1.2-.2.1-.2zm-33.5.2s-.1-.1 0-.2h-.1c-.1 0 0 .3 0 .2.1 0 .1 0 0 0zm6.9 0h-.2.2zm-.2-.3c0-.1 0-.1 0 0-.1 0-.1 0 0 0v.1c0 .1 0 .2 0 0v-.1zm20.2 0s.1 0 0-.1v.2c0 .1 0 0 0 0zm-27-.1c-.1 0-.2 0-.1-.1l-.1-.2s0-.1 0 0c-.2 0 0 .4.1.4v-.1zm33.8-.1c-.1 0-.1 0 0 0h-.1v.2l.1-.2zm-27.1-.2h-.1v.2s0 .1 0 0c.1 0 .1 0 0-.2zm20.4 0v.2c.1 0 0-.1 0-.2zm6.8 0h-.2.1c.1 0 0 0 0 0zm-6.7-.1v-.1c.1 0 .1 0 0-.1v.2c0 .1 0 .1 0 0zM588 220v-.1c-.2 0-.2 0-.1.1 0 0 0 .1.1 0zm6.8-.1c0-.1 0-.1 0 0-.1 0-.1 0 0 0v.1c0 .1 0 .1 0 0v-.1zm27.5 0c-.1-.2-.1-.1 0 0h-.1v.2-.3zm-6.6-.2v-.2l-.1.3s.1 0 0 0zm-27.8 0h-.1c-.1 0 0 0 0 0h.1zm6.8-.2h-.1v.2c.1 0 .1-.1 0-.2zm27.8-.2c-.1 0-.1 0 0 0l-.1.2v.1l-.1.1.2-.1v-.3zm-34.7.2v-.2h-.1v.3c.1 0 .1 0 0-.1zm28-.2h-.1c0 .1 0 .2.1.1zm-21.3-.2c-.1 0 0 0 0 0v.2c0 .1 0 .1 0 0 0 0 .1 0 0-.2zm-6.9 0v-.1s-.1 0 0-.2h-.1c-.1 0 0 .5.1.4zm28.3 0v-.1c0-.1 0 0 0 0-.1 0-.1.1 0 .2zm6.8 0v-.1h-.1v.1c-.1 0-.1 0 0 0 0 .2 0 0 0 0zm-28.3-.3c0-.1 0-.1-.1 0s0 0 0 .1 0 .2 0 0c.1 0 .2 0 .1-.1zm21.6 0v-.1l.1-.1h-.1v.2c0 .1 0 .1 0 0zm6.8 0h-.1c-.1 0 0 0 0 0zm-35.4-.2v-.1c-.1 0-.1 0 0-.2h-.1c-.1 0 0 .5.1.4zm35.5-.3v.2h-.1v.1c0 .1 0 .1 0 0 .2-.2.2-.2.1-.3zm-28.6.1h-.2l.1.2s0 .1 0 0c.1 0 .1 0 0-.2zm21.9 0v-.2l-.1.3s.1 0 0 0zm-22-.3c-.1-.1-.2-.1-.2 0v.1c0 .1 0 .1.1 0v-.1zm-7 0v-.1c0-.1 0-.1 0 0-.2 0-.1.3 0 .2zm35.8-.2v.2c0 .1 0 .1 0 0 .1 0 .1-.1 0-.2zm-6.7.1v.1zm-22.3-.3h-.1v.2c.1 0 .1-.1 0-.2zm22.4.1v-.1c0-.1 0 0 0 0-.1 0-.1.1 0 .2 0 .1 0 0 0 0zm-29.3 0s-.1-.1 0-.1l-.1-.1v-.1c0-.1 0-.1 0 0-.2 0 0 .4 0 .3.1 0 .1 0 0 0zm36.2-.4c-.1 0-.1 0 0 0l-.1.2v.1l-.1.1h.1c.1-.2.1-.3 0-.4zm-29.5 0v-.1c-.1 0-.1 0 0 0v.2c0 .1 0 .1 0 0v-.2zm22.7 0 .1-.1h-.1v.2c0 .1 0 .1 0 0zm-29.7-.1v-.3c0-.1 0-.1-.1 0-.1 0 0 .4.2.3zm36.7-.4s-.1 0 0 0v.2h-.1v.1c-.1 0-.1 0 0 .1v-.1c.1-.2.2-.2 0-.3zm-29.8 0h-.1v.2c0 .1 0 .2 0 0 .1 0 .1 0 0-.1zm23 .2h-.1l.1.1v-.1zm0-.2.1-.2h-.1v.3s.1 0 0 0zm-30-.1-.1-.2s0-.1 0 0c-.2 0 0 .3 0 .2zm6.8-.2c-.1 0-.1 0 0 0v.2-.2zm30.1 0c0-.1 0 0 0 0v.1s-.1 0 0 .1v-.2zm-6.7 0v-.2s-.1.2 0 .2c0 .1 0 0 0 0zm-30.4-.2v-.1c0-.1 0 0-.1 0v.1c.1 0 .1 0 0 0zm6.9-.1c0-.1 0-.1-.1 0s0 0 0 .1 0 .1 0 0l.1-.1zm30.4-.2c0-.1 0 0 0 0v.2c0 .1 0 0-.1 0v.2l.1-.2c.1-.1.1-.2 0-.2zm-6.8 0v.2-.2zm-30.6 0h-.1c-.1 0 0 0 0 0zm7-.1h-.2v.1l.1-.1zm23.7 0c0-.2.3-.3 3.6-.3h3.3v.2h-.1c0 .1.2 0 .1-.2h-6.9v.3c0 .1 0 .1 0 0zm-30.8-.1-.1-.1h3.4a13.2 13.2 0 0 1 3.6 0c0-.2-7-.2-7-.1v.3c.1 0 .1 0 0-.1zm47.8 43.3c-2-.1-3.4-.5-5-1.3a12 12 0 0 1-6.7-9c-.1-.9-.2-1.3-.2-2.7 0-1.7 0-2.1.3-3.3a13.4 13.4 0 0 1 12.9-10 11.9 11.9 0 0 1 10.8 4.9 19 19 0 0 1 2.2 5c.3 1.1.6.9-3.4 2.3a6176.3 6176.3 0 0 1-15.4 5.4l-.3.1.1.2 1.8 1.8a8 8 0 0 0 6.7 1.3 13 13 0 0 0 3.4-1.5c.7-.5.7-.5 1.5.8a415.2 415.2 0 0 0 1.9 3.1 15.6 15.6 0 0 1-10.6 2.9zm2.7 0-1-.1h-1 2zm-2-.2h-1 1zm2.6 0h-.3c-.2 0-.2 0 0 0 .3.2.4.2.3 0zm-3.8 0c.1 0 .1 0 0 0h-.3.3zm4.4 0h-.3c-.2 0-.2 0 0 0h.3zm-4.9 0c.1-.1.1-.1 0-.1h-.3.3zm5.3 0-.2-.1v.1h.2zm-5.8-.1c.1 0 .1-.1 0-.1h-.2c0 .2 0 .2.2 0zm6.1 0-.1-.1h-.1l.2.1zm-6.5-.1h-.2.2zm6.8 0h-.1.1zm-7 0-.2-.2v.1c-.1 0 0 0 0 0h.1zm7.4 0-.2-.2v.1c0 .1 0 0 .1 0zm-7.7-.2h-.2v.1h.2zm7.9 0h-.1v.1s.1 0 0 0zm-8.2 0h-.2.2zm8.5 0h-.2.1zm-8.7 0v-.2l-.2.1h.2zm8.9 0-.1-.2v.1c0 .1 0 0 0 0 .1 0 .1 0 0 0zm-9.2-.2h-.1c-.1 0 0 .1 0 .1h.1zm9.6 0c0-.1 0 0 0 0h-.4.3zm-9.8 0v-.1h-.1v.1h.1zm-.2-.1h-.1.1zm10.2 0h-.1.1zm-10.4 0v-.1h-.2c0-.1 0-.1 0 0-.1 0-.1 0 0 0 0 .1.1.1.2 0zm10.7 0c.1-.1.1-.2 0-.2h-.1l-.1.1c0 .1.1.1.2 0zm-11-.2c0-.1 0-.1-.1 0l-.2-.1h-.1v-.1c-.1 0-.1 0 0 .1.2.2.3.2.3 0zm11.3 0-.1-.1v.1h.1zm.5-.2.1-.1h-.2c0 .1 0 .1 0 0l-.1.1h-.2c0 .2 0 .2.4 0zm-12.4 0c0-.1 0-.1 0 0l-.2-.1h-.1v-.1h-.1c0-.1 0-.1-.1 0s0 0 0-.1h-.2v-.1l-.2-.1s0-.1-.1 0 0-.1-.1-.2h-.1l-.1-.1s-.1-.1-.1 0l-.2-.1v-.1h-.2v-.2h-.2v-.1c-.1 0-.2 0-.3-.2l-.1-.1s-.2 0-.3-.2l-.2-.2a8 8 0 0 1-1.3-1.3l-.2-.2v-.1l-.2-.2v-.1l-.2-.2-.1-.2-.1-.1s-.1 0 0-.1h-.1v-.2h-.1l-.1-.2-.1-.2-.1-.1v-.1c-.1 0-.1 0 0 0l-.1-.1v-.1c0-.1 0 0-.1 0v-.2l-.1-.1c0-.1 0 0 0 0s-.1-.1 0-.1l-.1-.1v-.1c0-.1 0-.2 0 0-.2 0-.1.1.1.6l.4.6v.1c.2 0 .2.1.2.2v.2l.2.1v.1l.1.1.1.1v.1l.2.2s.1.1 0 .1l.2.2.1.1s0 .2.2.3l.2.2.3.4.4.3.2.2.3.2.2.2.2.1v.1c.1 0 .2.1.2 0l.1.1.1.1h.1l.1.2h.1l.1.1h.2v.2h.2l.2.2h.1l.7.4h.1zm-2.8-1.8c-.1-.1-.1-.1 0 0l.1.1-.1-.1zm-.8-.7-.3-.4.3.4.4.3-.4-.3zm-.6-.7c0-.1 0-.1 0 0l.2.1h-.2zm17.6 2.8.6-.4s0-.1.1 0l.2-.2h.2v-.1l.2-.1.2-.1c0-.1.1-.2.2-.1v-.1c0-.1 0-.1 0 0l-.2.1h-.1l-.1.1h-.1l-.1.1-.1.1s-.1.1-.2 0v.1l-.2.1-.1.1s-.1.1-.2 0 0 0 0 .1h-.1c-.1 0 0 0 0 0l-.1.1h-.1c0 .1 0 .1 0 0l-.2.1-.1.1h-.1l-.1.1c-.1 0 0 0 0 0h-.2s-.1 0 0 .1l.7-.2zm1.7-1.3s-.1-.1 0-.1l-.2-.3s-.1-.1 0-.1l-.2-.1v-.1l-.2-.2v-.2h-.1l-.1-.2v-.1l-.2-.1v-.2l-.2-.2-.1-.2s-.1-.1 0-.2h-.2v-.2l-.1-.2-.1-.1-.1-.1s-.1 0 0-.1l-.2-.2c0-.1-.1-.2 0-.2l-.2-.1v-.1l-.4-.4h-.1s0 .1-.1 0l-.1.1-.1.1h-.1l-.1.2h-.2v.1l-.5.3-.5.2-.4.3s0-.1.1 0 .1 0 .1-.1h.1l.1-.1c.1 0 0 0 0 0 0-.1.1-.1.2 0s0 0 0-.1h.1c.1 0 0 0 0-.1h.2v-.1h.2v-.1h.1c.1 0 0 0 0 0l.2-.1.2-.2.2-.1h.1l.2-.2c.3 0 .3 0 .3.2 0 0 .1 0 0 .1l.1.1.1.1v.1l.2.1v.1l.1.2v.1l.1.1.1.1c.1 0 .1.1 0 .2s.1 0 .2 0v.2h.1c0 .1.1.2 0 .2h.1v.1l.1.1s.1.1 0 .2h.1l.1.2.1.1v.1l.2.1v.1l.1.1v.1s.1 0 0 0l.1.2.1.1v.1l.2.1v.1c0 .2 0 .2.2.2zm-8-1.9zm-1.5 0c.1-.1 0-.1-.2 0-.2 0-.2 0 0 0h.2zm2.2 0h-.3.3c.1 0 .1 0 0 0zm-2.7-.1h-.2.2zm3.1 0h-.1s-.1 0 0 0h.1zm-3.4 0v-.2l-.2.1h.2zm3.7 0-.1-.2s-.1 0 0 .1zm-4-.2h-.2v.1h.1zm4.3 0h-.2l.1.1zm-4.6 0v-.1h-.2v.1h.2zm4.8 0v-.1h-.1l.1.1zm-5-.1h-.2.1zm5.2 0h-.1.1zm-5.6-.2h-.2v.1h.2c.1 0 .1 0 0 0zm5.9.1h-.2l.1.1zm.2 0-.1-.1v.1s.1 0 0 0zm-6.8-.4-.6-.3h-.1l-.1-.1h-.1l-.1-.2h-.2c0-.2-.2-.3-.2-.3a9.4 9.4 0 0 1-1.6-1.7s-.1 0 0 0l-.1-.2c-.1 0 0-.2.1-.1.1 0 .1 0 0 0 0-.1 0-.1-.2 0v.2l.1.1s.1.1 0 .2h.1l.1.2.2.2.1.1.4.5.6.5.1.1.2.2h.1c0 .1.1.2.2.1s0 0 0 .1c0 0 .1.1.2 0s0 0 0 .1l.2.1s.1.1.1 0l.1.1h.2v.1h.1v.1h.1s0 .1.1 0 0 0 0 .1h.2l.1.1s-.1-.2-.4-.3zm-2.1-1.4-.5-.5.5.5.5.5-.5-.5zm9.1 1.6h.1-.3v.1h.2zm.3 0v-.1c0-.1-.1 0-.1 0v.1h.1zm-16.2-2s-.1-.1 0-.2h-.1v-.1c0-.1 0-.2-.1-.1s0 .5.2.4zm-.2-.6-.1.1h.1zm0-.2h-.2v.1l.1-.1zm-.1-.2h-.1c-.1 0 0 0 0 0 0 .1 0 .1 0 0zm-.1-.2v-.1l-.2.1s0 .1.1 0zm6.7 0v-.1h-.2s-.1 0 0 0c0 .2 0 .2.2 0zm.2-.2h-.1l.1.1zm-7-.1h-.1c0 .1 0 .1 0 0h.1zm7.2 0h-.1l.1.1zm.3 0h-.2.1zm.2 0-.1-.2v.1c0 .1 0 0 0 0s.1 0 0 0zm-7.8-.2v-.1l-.1.1s0 .1 0 0h.1zm8 0h-.1v.1c.1 0 .1 0 0 0zm.3 0v-.1h-.2c0 .2 0 .2.2 0zm.3-.1v-.1c0-.1-.1 0-.1 0h.1zm-8.6-.3h-.1c-.1 0 0 0 0 .1 0 0 0 .1 0 0zm8.8.1h-.1v.1c.1 0 .1 0 0 0zm.2 0-.1-.1v.1h.1zm.2-.1h-.1.1zm.2 0v-.1h-.1l.1.1zm.3-.1c.1 0 .1-.1 0-.1h-.2c0 .1.1.2.2 0zm-9.8-.2s0-.1 0 0h-.2l.1.1v-.1zm10.1 0h-.1.1zm.2 0v-.1h-.1l.1.1zm.2-.1v-.1h-.1l.1.1zm.3-.1h-.2.1zm-10.9-.2c0-.2 0-.2 0 0-.1 0-.1.2 0 .2v-.2zm11.2.1c0-.1 0 0 0 0h-.2s-.1 0 0 0c0 .1 0 .1.2 0zm.2-.1h-.1.1zm.3 0-.2-.2v.1c0 .1 0 0 .1 0zm.2-.2h-.1s-.1 0 0 0v.1zm.2 0-.1-.1v.1c.1 0 .1 0 0 0zm-12.2-.3c0-.2 0-.2 0 0-.1.1-.1.3 0 .2v-.2zm12.5.2v-.1h-.2c0 .2 0 .2.2.1zm.3-.1h-.1.1zm.2-.1h-.1s.1 0 0 0zm.2 0-.1-.2v.1c0 .1 0 0 0 0 .1 0 .1 0 0 0zm.2-.2h-.1v.1h.1zm.2 0v-.1h-.1l.1.1zm-13.6-.4c0-.5 0-.4-.1 0v.3-.3zm14 .3v-.1h-.3c0 .2.1.2.2.1zm.2-.2h-.1v.1h.1zm.2 0-.1-.1v.1h.1zm.2-.1h-.1.1zm.3 0c.1-.1.1-.1 0-.2 0 0 0 .1-.1 0l-.1.1c0 .1.1.1.2 0zm.3-.2h-.1.1zm.2 0v-.2l-.1.1c0 .1 0 0 .1 0zm.2-.2h-.1l.1.1zm.3 0-.2-.1.1.1zm-16-1.2v-1l-.1 1v1.1l.1-1zm16.2 1.1h-.1s.1 0 0 0zm.3 0v-.2s-.1.1-.2 0c0 0-.1 0 0 .1 0 .1 0 .1.2 0zm-10.7-.2h-.1l-.1-.2h-.1c-.1.1 0 .2.2.2h.1zm11 0h-.2.1zm-10.7-.1c.1 0 .1 0 0 0 0-.2-.3 0-.2 0h.2zm10.9 0h-.1s-.1 0 0 0zm.2 0-.1-.1v.1s.1 0 0 0zm-7.2-1.7a7856.5 7856.5 0 0 1 9.3-3.3l.2-.1-.3-.4c-.4-1-1.4-2.1-2.3-2.7-2.3-1.7-5.8-1.5-8.3.5a8.2 8.2 0 0 0-3 6.2c0 1 0 1.5.2 1.4l4.2-1.6zm-3.6 1.6-.1-.1v.1s.1 0 0 0zm11 0-.1-.1v.1h.1zm-10.8-.1h-.1.1zm11 0h-.1.1zm-12.2-1.4v1-1zm1.4 1.3h-.1v.1zm11.1 0c.1 0 .1 0 0 0 0-.1 0-.1 0 0h-.2c0 .1.1.1.2 0zm-11 0zm.3-.1h-.1s-.1 0 0 0c0 0 .1 0 0 0zm11 0h-.1c.1 0 .1 0 0 0zm-10.8 0-.1-.2v.1c0 .1 0 0 0 0 .1 0 .1 0 0 0zm11 0-.1-.2v.1c0 .1 0 0 0 0h.1zm-10.7-.2s.1 0 0 0c0-.1-.3 0-.2 0 0 .1 0 .1 0 0h.2zm11 0h-.2l.1.1zm.1 0v-.1h-.1l.1.1zm-10.8-.1h-.2.1zm11.2 0v-.1h-.3c0 .2.1.2.3.1zm-11 0-.1-.2v.1c0 .1 0 0 0 0s.1 0 0 0zm.3-.2c0-.1-.3 0-.2 0 0 .1 0 .1 0 0h.2zm11 0h-.2v.1h.1zm.1 0v-.1h-.1l.1.1zm-10.8-.1h-.2.1zm11 0h-.1.1zm-10.8 0-.1-.1s-.1 0 0 0v.1s.1 0 0 0zm11 0v-.1s-.1 0 0 0v.1zm-10.7-.2c0-.1-.3 0-.2 0 0 .1 0 .1 0 0h.2zm11 0c.1 0 .2 0 0 0h-.1s-.1 0 0 0c0 .1 0 .2.2 0zm-10.8 0v-.2l-.1.1c0 .1 0 0 .1 0zm11.1 0v-.2l-.1.1c0 .1 0 0 .1 0zm-10.8-.2h-.2l.1.1zm11 0c-.1 0-.1 0 0 0v.1zm-10.7 0c0-.2-.3-.1-.3 0h.3zm11 0-.1-.1s-.1 0 0 0v.1zm.2-.1h-.1c.1 0 .1 0 0 0zm-11 0v-.1h-.1l.1.1zm11.2 0-.1-.1v.1h.1zm-11-.1v-.1c-.1 0-.1 0 0 0v.1zm11.3 0v-.1h-.2c0 .1 0 .1.2 0zm-11-.1h.1c0-.2-.3-.1-.3 0h.3zm11.3 0-.1-.2v.1c0 .1 0 0 0 0s.1 0 0 0zm-11-.2h-.1l.1.1zm11.2 0h-.1v.1c.1 0 .1 0 0 0zm-10.9 0c.1 0 .1 0 0-.1 0-.1-.3 0-.2 0 0 .1 0 .1 0 0h.2zm11.1 0-.1-.1v.1h.1zm.2-.1h-.1.1zm-22.7-.6v.5-.5zm11.7.5h-.1v.1h.1zm11.3 0c.1 0 .1 0 0 0 0-.1 0-.1 0 0h-.2c0 .1.1.1.2 0zm-17.5-.3v-.2.5-.3zm6.4.3v-.1h-.1l.1.1zm.3-.1c.1 0 .1 0 0 0 0-.2-.3-.1-.2 0h.2zm11.1 0h-.1.1zm.2 0-.1-.2v.1c0 .1 0 0 0 0h.1zm-11-.2h-.1v.1h.1zm11.2 0h-.1l.1.1zm-11 0-.1-.1v.1h.1zm11.3 0-.2-.1.1.1zm-11-.1c.1 0 .1 0 0 0 0-.2-.3-.1-.2 0h.2zm11.3 0v-.1h-.2c-.1 0-.1 0 0 0 0 .2 0 .2.2.1zm-11-.2h-.1v.1c.1 0 .1 0 0 0zm11.2 0h-.1l.1.1zm-19-.2c0 .2 0 .3.1.2v-.2zm8 .2-.1-.1v.1h.1zm11.2 0v-.1h-.1l.1.1zm-24.6-.3c-.1-.1-.1 0 0 .2 0 .1 0 .1 0 0v-.2zm13.6.2h-.1zm11.3 0h-.2.1zm-11.1 0v-.1c0-.1-.1 0-.1 0v.1h.1zm11.3 0-.1-.1v.1s.1 0 0 0zm-11.1-.1-.1-.1v.1c.1 0 .1 0 0 0zm11.3 0-.1-.1v.1c.1 0 .1 0 0 0zm-11.1-.1h-.1.1zm11.4 0v-.1h-.2c0 .2 0 .2.2.1zm-20-.2c-.1-.1-.2-.1-.2 0s.1.2.2.1v-.1zm9 0c0 .1 0 .1 0 0-.1 0-.4 0-.3.1h.2zm11.4-.2c0-.1 0-.1-.1 0l-.2.2c.1.2.3 0 .3-.2zm-26 0v.1c0 .2 0 .2.1 0v-.2zm14.8.2-.1-.1v.1s.1 0 0 0zm.2-.1h-.1c.1 0 .1 0 0 0zm.3 0s.1 0 0-.1c0-.1-.3 0-.2 0 0 .1 0 .1 0 0h.2zm-9.7-.3s-.1 0 0 .2v-.2zm10 0h-.1s-.1 0 0 0v.2-.1zm.2 0h-.1c.1 0 .1 0 0 0zm-15.6 0v-.2l-.2.1.1.1c.1 0 0 0 0 0zm15.9 0s.1 0 0-.1c0-.1-.3 0-.2 0 0 .1 0 .1 0 0h.2zm9.8-.1h-.1v.1l.1-.1zm-20.2-.1h-.1l.1.1v-.1zm10.7 0h-.2.1zm.2 0-.1-.1v.1s.1 0 0 0zm-16.3-.1-.1-.2v.2zm16.6 0v-.1c0-.1-.3 0-.2 0 0 .1 0 .1 0 0h.2zm9 0-.1-.2-.1.2h.1zm-20-.4h-.1v.2c-.1 0-.1 0 0 0 0 .1 0 .1 0 0v-.2zm11.3.2h-.2.1zm.1 0v-.1s-.1 0 0 0v.1zm-17-.1v-.1h-.1v.1h.1zm17.4 0v-.1c0-.1-.3 0-.2 0 0 .1 0 .1 0 0h.2zm8 0v-.1.1zm-19.8-.3v.2-.2zm12 .1h-.1.1zm-17.6-.1s0-.1 0 0c0 0 0 .1.1 0zm17.8 0s-.1 0 0 0v.1zm7.6 0h-.2c0 .1 0 .1.1 0zm-7.2 0c0-.2-.3-.1-.3 0h.3zm-12.5-.1s-.1 0 0 0zm12.7 0v-.1h-.1l.1.1zm7-.1s-.1-.1-.2 0h.1zm-25.2 0v-.1h-.2l.1.1c.1 0 0 0 0 0zm18.5 0c.1 0 .1 0 0-.1 0-.1-.2 0-.2 0 0 .1 0 .1.1 0h.1zm-12.9 0v-.1h-.1.1zm13.2-.2h-.1.1zm6.2 0c0-.1 0-.1 0 0h-.1.1zm-25-.1c0-.1 0-.1 0 0 0 0 0 .1 0 0zm5.9-.5.2-.2v-.2h.1c0-.1.1-.2 0-.2l.2-.1v-.1l.2-.2.1-.2.6-.6a4.3 4.3 0 0 1 .7-.6l.1-.1.2-.1.1-.1h.1l.1-.2s.3 0 .5-.2l.4-.3c0 .1-.1.1-.2 0s0 0 0 .1h-.1c-.1 0 0 0 0 .1h-.2v.1h-.2s0 .1 0 0l-.1.1-.2.1s0 .1-.1 0 0 .1-.1.2h-.1l-.2.1c0 .1 0 .2-.1.1l-.2.2s-.1.2-.2.1l-.4.4-.3.4-.1.1c-.2.1-.2.2-.2.3l-.2.2c0 .1-.1.1 0 .2s-.1 0-.2 0v.2l-.1.1v.2h-.1v.1l-.1.1c0 .1 0 0 0 0-.1 0-.1.1 0 .2s0 0-.1 0v.1c0 .1 0 0-.1 0v.2l.3-.6zm1.2-1.8.4-.3-.3.3a3 3 0 0 1-.4.4l.3-.4zM642 242h-.1v.1zm6-.2h-.1c-.1 0 0 0 0 .1zm-24.9 0s-.1 0 0 0v.1zm19 0c-.1 0-.2 0-.1-.1l-.1-.2c-.1 0-.1 0 0 .2 0 .1 0 .2.1.1zm-18.9-.1v-.1h-.1.1zm24.7 0v-.2l-.1.1c-.1.1 0 0 0 0h.1zm-24.6-.2-.1-.1v.1zm24.5-.1h-.1v.1l.1-.1zm-6 0v-.2h-.1v-.2h-.1v-.2h-.1l-.1-.2s-.1 0 0 0l-.2-.2-.1-.2-.1-.2-.3-.3-.2-.2v-.2h-.2l-.3-.3-.2-.2h-.2l-.1-.2h-.1l-.1-.1-.1-.1h-.2v-.1h-.1c-.1 0 0 0 0 0l-.1-.1h-.1s0-.1 0 0l-.2-.1.2.2.4.1.1.2h.2l.1.2.2.1.2.2.6.6.3.3.2.2.1.2.1.1.1.1c0 .1.1.1 0 .1l.2.2.1.3.2.2zm-1.1-1.6-.2-.2.2.2.2.2-.2-.2zm-17.4 1.5h-.1.1zm24.4-.2c0-.1 0-.1-.1 0s0 0 0 .1 0 .1 0 0l.1-.1zm-24.3 0v-.2c0-.1 0 0 0 0l.1-.2c.1 0 .1 0 0-.1s0 0 .1 0v-.1l.1-.1.1-.2s.1 0 0-.1h.1v-.2h.1l.1-.2s.1 0 0-.1 0 0 .1-.1l.1-.1v-.1l.2-.1v-.1l.1-.1.1-.2.1-.1.1-.2.1-.1.2-.2.2-.2.4-.5.4-.4s.1-.3.2-.2l.3-.3.4-.3.2-.2s.1-.2.2-.1l.1-.2.2-.1h.1l.1-.2h.1l.1-.1h.2v-.2h.2v-.1h.1s0-.1.1 0l.1-.1.1-.1h.1c0-.2.1-.2.2-.2h.2v-.1h.1s0-.1 0 0l.2-.1c0-.1.1-.2.2-.1l.1-.1c.1 0 0 0 0 0h.2c.1 0 .1 0 0-.1l-.6.2-.6.4h-.2v.1l-.3.1-.2.1v.1l-.2.1-.2.1v.1c-.1 0-.2.1-.2 0l-.1.2h-.1l-.2.2-.2.1-.2.2-.1.1-.8.7a5.4 5.4 0 0 0-.8 1l-.2.1-.1.2-.1.1-.1.2-.1.1-.1.1s-.1.1 0 .1l-.1.1-.1.2c-.2 0-.2.1-.2.2l-.1.2-.3.5-.5 1c0 .1.1 0 0 0zm1.7-3 .2-.1-.2.1zm.7-.7.3-.3-.3.3-.3.4zm.8-.8.3-.2-.2.2-.3.3s0-.2.2-.3zm21 4c-.1 0-.2-.1-.2 0v.1c.1 0 .1.1 0 .2h.1v-.3zm-.5-.9c-.1-.3-.3-.5-.4-.5v-.3l-.2-.2c0-.1 0-.2-.2-.2v-.2l-.2-.1v-.2c-.2 0-.2-.1-.2-.2l-.1-.2-.1-.1c-.1 0-.2-.1-.1-.2l-.2-.2-.3-.3-.5-.5-.5-.5-.2-.2-.2-.2h-.2l-.1-.2h-.1l-.1-.1h-.2v-.2h-.2v-.1h-.2c0-.1 0-.2-.1-.1 0-.1-.3-.3-.7-.4-.4-.3-.6-.3-.6-.2h.2c.1 0 0 0 0 0 0 .1.1.2.2.1l.1.1c.1 0 0 0 0 0s.1.1.2 0 0 0 0 .1h.2v.1h.1c0 .1 0 .1 0 0l.2.2.2.1s0 .1.1 0 0 0 .1.2h.1l.1.1s.1.1.1 0l.2.2s.1.1.1 0l.2.3.2.2a12.7 12.7 0 0 1 3.4 4.3s0 .1 0 .1.1.1 0 .2h.1l-.2-.7zm-1.7-2.5c-.1 0-.1 0 0 0l.1.2-.1-.2zm-.9-.9-.5-.5.6.5.5.6-.6-.6zm-.8-.7c0-.1 0-.1 0 0h.2c0 .1 0 .1-.2 0zm-10.9 2.5c.1 0 .1 0 0-.1h-.2c0 .2.1.2.2 0zm5.6-.1h-.2c0-.1 0-.1-.1 0h.3zm-5.3 0-.1-.1v.1h.1zm.2-.1-.1-.1v.1h.1zm4.7 0v-.1h-.1v.1h.1zm-4.5-.1h-.1.1zm4.2 0h-.1.1zm-3.8 0-.2-.2v.1c0 .1 0 0 .1 0 0 0 .1 0 0 0zm3.6 0v-.2l-.2.1h.2zm-3.2-.2h-.2c-.1 0-.1 0 0 0 .1.1.3.1.2 0zm2.9 0h-.3.3zm-2.4 0h-.2c-.2 0-.2 0 0 0h.2zm1.9 0c.1 0 .1 0 0 0h-.4.4zm-.8-.1h-.7.7zm-5.3-3.4s.1-.1.2 0c.1 0 .1 0 0-.1 0-.1-.4 0-.3.1 0 .1 0 0 0 0h.1zm10.4-.2h-.2.2v.1c.1 0 .1 0 0-.1zm-10 0c.1 0 .1 0 0 0zm.4 0s.1 0 0-.1c0-.1-.3 0-.2 0 0 .1 0 .1 0 0h.2zm9.3-.2h-.2c-.1.1-.1.1 0 .1h.2zm-9 0h-.2.1zm8.7 0h-.2.2zm-8.5 0-.1-.2v.1c0 .1 0 0 0 0h.1zm8.3 0v-.2l-.2.1h.2zm-8-.2h-.2l.1.1zm7.7 0h-.1v.1h.1zm-7.5 0-.1-.1v.1h.1zm7.3 0v-.1h-.2v.1h.2zm-7-.1h-.1s-.1 0 0 0h.1zm6.7 0h-.2.2zm-6.3 0-.2-.1.1.1h.1zm6 0v-.1h-.2v.1h.2zm-5.6-.1h-.3.3zm5.2 0v-.1h-.2v.1h.2zm-4.8-.1c-.1-.1-.3-.1-.2 0h.2c.1 0 .1 0 0 0zm4.5 0c0-.1-.1-.1-.4 0-.1 0-.1 0 0 0h.4zm-3.5 0c0-.1-.8-.1-.8 0h.8zm2.9 0c0-.1 0-.2-.2-.1h-.1.3zm-.7-.1-1-.1h-1l1 .1h1zm18 13.3v-12.5h5.3v.2a39.3 39.3 0 0 0 .5 3.8 10 10 0 0 1 2.8-3c2-1.4 4.3-2 7.2-2 1.8.1 2.9.4 4 1 1.8 1 3 2.6 3.5 4.5l.2.7v19.7h-5.9v-8.3c0-9 0-8.9-.4-9.9-.7-1.8-2-2.6-4.2-2.5a7 7 0 0 0-1.4.2c-2.8.8-4.8 3.2-5.5 6.7l-.2 7.3v6.5h-5.8v-12.4zm5.8 6.1a280.5 280.5 0 0 0-.1 0v6.1h-5.4v-24.5h4.8v.6-.3l.1-.3h-5v24.6h5.6v-6.2zm17.6-3.4v9.5H673v-16.5l-.1 8.3v8.3h5.6zM661 246v-.4.7-.3zm.1-.7v-.2.5-.3zm0-.4c0-.1 0 0 0 0l.1.1v-.1zm.2-.4h-.1c0 .2 0 .3.1.2v-.2zm0-.3v.1c.1 0 0 0 0 0zm.1-.3v.1zm0-.2c0 .1 0 .2.1.1zm.2-.2h-.1s0 .2.1.1v-.1zm0-.2v.1-.1zm.1-.2s0 .1 0 0zm.3-.6h-.1v.2h-.1v.2s-.1 0 0 0l.2-.4zm.1-.2h-.1.1zm0-.3.2-.1c.1-.1.2-.2.1-.3h.1s.1-.1 0-.2h.2v-.2l.2-.1v-.2l.2-.1.1-.2.9-.9.2-.1.2-.2.2-.2.2-.1.5-.2.3-.3h-.2v.1h-.1c0 .1 0 .1-.1 0s0 0 0 .1h-.2v.1h-.1l-.2.1c0 .1 0 .2-.1.1 0 .1 0 .2-.1.1l-.2.1-.1.1-.3.2-.2.2-.2.2-.2.3-.2.2-.2.2v.1c-.2 0-.2.2-.2.2l-.1.2-.1.1s-.1 0 0 .1-.1.1-.2.1v.2h-.1v.2c-.1 0-.2 0-.1.1l-.1.2s.1-.1 0-.2zm1.3-1.8.2-.2.3-.2-.2.2c-.2.3-.3.3-.3.2zm.7-.5v-.2h.1l-.1.2zm8.9 2.2c0-.2 0-.2 0 0-.2.1-.2.3 0 .2v-.2zm0-.4-.2-.1v.2l.1-.1zm-.2-.4-.1.1h.1zm0-.2h-.1c-.1 0 0 0 0 0v.1zm-.2-.3v-.1s0-.1 0 0c-.1 0 0 .3 0 .2.1 0 .1 0 0 0zm-.1-.3v-.1l-.1-.1v-.2h-.2v-.2l-.1-.2-.2-.1s0-.2-.2-.3l-.3-.2-.1-.1c0-.1-.1-.2-.2-.1l-.1-.1h-.1c0-.1 0-.1 0 0l-.1-.1h-.1l.4.3a5.6 5.6 0 0 1 1.3 1.3l.1.3v-.1zm-.9-1.2-.2-.2.2.2.3.3-.3-.3zm7 .2s0-.1 0 0l-.1.2c0 .1 0 .1 0 0l.1-.2zm0-.4h-.1l-.1.1s0 .1 0 0h.1zm-.1-.3h-.1c-.1 0 0 0 0 0v.2-.2zm-17.7 0v-.2h.2v-.1s.1 0 0-.1 0 0 .1 0v-.1l.2-.2v-.1l.1-.2h.1l.1-.2.1-.2.2-.1.1-.2a5.6 5.6 0 0 1 1.2-1.2l.3-.2.2-.1.1-.1v-.1c.1 0 .2-.1.2 0l.1-.1.1-.1h.1l.1-.2h.2v-.1c.1 0 .2-.1.2 0v-.1h.2v-.2h-.1s0 .1 0 0c-.1 0-.2 0-.3.2l-.2.1-.2.1s0 .1-.1 0l-.1.2h-.1l-.1.1s-.1.1-.1 0l-.1.2h-.1s-.2 0-.2.2l-.2.1-.2.2-.3.2-.3.3-.3.4-.2.1-.1.2-.1.2-.1.1-.1.1s-.1 0 0 .1l-.2.2s-.1 0 0 .1h-.1l-.3.6h-.2l.1.2zm1.6-2.2.3-.4-.3.4-.3.3zm.6-.5.1-.2c.1 0 .1 0 0 0l-.1.2zm3 2.6h-.1s-.1 0 0 0v.1zm.1 0h-.1.1zm.2-.1h-.1.1zm4.3 0h-.2v-.1c-.1 0-.1 0 0 .1h.2zm7.8 0v-.1l-.2.1h.1c.1 0 0 0 0 0zm-11.9 0v-.1h-.1l.1.1zm-5.8-.5v-.3l-.1.4c0 .4 0 .4.1 0zm6.1.4v-.1h-.1v.1h.1zm3.4 0v-.1h-.2v.1h.2zm-3-.1h-.2.1zm2.7 0h-.2.2zm8.4-.1h-.1v.1l.1-.1zm-10.7 0h-.2c-.2 0-.2 0 0 0h.2zm2 0h-.2.2zm-.7-.1h-.8.8zm9.3-.2c0-.1 0-.1-.1 0s0 0 0 .1 0 .2 0 0c.1 0 .1 0 0-.1zm-.2-.5-.3-.3v-.4l-.2-.2-.2-.2v-.2l-.2-.1-.1-.2-.2-.1-.1-.3-.3-.2-.2-.2-.3-.2-.2-.1-.2-.2-.2-.1h-.1c0-.1 0-.2-.1-.1l-.2-.1v.1h.2v.1c.1 0 .2.1.2 0l.1.1.1.1.1.1s0 .1.1 0l.2.2.2.2.8.8.2.2.1.1v.2l.2.1v.1l.2.1v.1l.1.2s.1 0 0 .1h.1v.2h.1v.2s.1 0 0 0c0 .2 0 .2.1.1v-.3zm-1.4-1.9-.3-.2.3.2.2.2-.2-.2zm-.6-.4c0-.2 0-.2 0 0h.2c0 .1-.1 0-.2 0zm-15.4 2v-.4.5c0 .5 0 .5 0 0zm0-1v-.3l-.1.4c0 .5 0 .5 0 0zm-.1-.8v-.4l-.1.4c0 .5 0 .5 0 0zm4.9-.9h.1c.1 0 0 0 0 0l.1-.1h.1s0-.1.1 0c.1 0 .1 0 0-.1h-.3l-.3.3h.2zm9.4-.2c0-.2-.4-.3-.5-.2 0 .1 0 .1 0 0l.2.1.2.1c0 .1 0 .1.1 0zm-8.6-.1c.1 0 .1 0 0 0 0-.2-.3 0-.2 0h.2zm.3-.1-.1-.1s-.1 0 0 0v.1s.1 0 0 0zm7.7-.1h-.2.1c0 .1 0 .1.1 0zm-7.5 0h-.1c.1 0 .1 0 0 0zm.2 0-.1-.2v.1c0 .1 0 0 0 0h.1zm7-.2h-.3c0 .1 0 .1 0 0l.2.1c.1 0 .1 0 0 0zm-6.8 0h-.1v.1h.1zm.3 0-.1-.1h-.1l.1.1h.1zm6 0v-.1c-.1.1-.1.1 0 .1zm-5.6-.1h-.2.1zm5.4 0h-.1.1zm-5 0-.2-.1s-.1 0 0 0v.1h.1zm4.8 0-.1-.1h-.1v.1h.2zm-4.4-.1h-.3.2c.2 0 .2 0 0 0zm4 0v-.1h-.1v.1h.2zm-3.5-.1h-.3.3c.2 0 .2 0 0 0zm3.2 0h-.3c-.4 0-.4 0 0 0h.3zm-.7 0-1.1-.1h-1.1 2.2zm18.8 15.6a279.3 279.3 0 0 1 0-10.1h-4.5V234h2.2a17.4 17.4 0 0 1 2.4.1v-11h5.8v5.5a87.2 87.2 0 0 1-.1 5.5h6.8v4.6h-3.3a35.6 35.6 0 0 1-3.5 0v20.1h-5.8zm5.7 0a713.9 713.9 0 0 0 0-.1v10h-5.5v-20 20h5.5v-10zm-6.2-10.2H686v-4.3h2.2a33.6 33.6 0 0 0-.1-.1h-2.2v4.4h3.9zm13-2.2v-2.2h-3.3 3.2v4.3h-6.6 3.3l3.3.1v-2.2zm-9.6-13h2.7v5.3a207.6 207.6 0 0 0 .1 0v-5.5h-2.8a19 19 0 0 0-2.8.1v5.4l.1 5.4v-10.8h2.7zm-143.7-16c-.2 0-.2-.1 0-.1h.1v.2c.2.2 0 .1 0 0zm-.3 0c-.1-.2-.1-.2 0-.2 0 0 .1 0 0 0l.1.2v.1l-.1-.1zm-.3 0v-.3s.1 0 0 0l.1.3h-.1zm-1.2-.4a5.1 5.1 0 0 1-.8-.6h.1v-.1h-.3l-1-1a6.3 6.3 0 0 1-.8-1.6h.1c0 .2 0 .5.1.4v.1s0 .1 0 0c.1 0 .2 0 .1.1l.1.1c.1 0 .1 0 0-.2l-.2-.2v-.1l.3.4c.6 1 1.5 1.9 2.5 2.4l.6.4c0 .1 0 .1 0 0l-.5-.3c-.4-.2-.4-.2-.4 0 0 0 .1 0 0 0 0 0 0 .1.2 0v.1h.1s.1 0 0 0c0 .1 0 .2.1.1h.1s0 .1 0 0l.2.1v.1l-.6-.2zm-.2-.4c0-.1-.1-.1-.1 0-.1 0 0 .2 0 .1v-.1zm-.3-.2c-.1.1 0 .2 0 .2v-.2zm-.8-.7-.4-.3s0 .2.3.4c.1.2.3.4.4.3l-.3-.4zm-.5-.5c-.1-.1-.2 0-.1 0 0 .1.1.2.2.1v-.1zm-.2-.3c-.1-.1-.2 0-.1 0 0 .1 0 .2.2.1zm0-.2-.4-.2.2.3.1-.1zm3 2.5c-.1 0-.1-.1 0-.1 0-.1 0 0 0 0 0 .2 0 .2 0 0zm-3.7-3.6h.2c0 .2 0 .2-.2 0zm11.2 0s0-.2.2-.2l-.1.2s-.1.1-.1 0zm-11.3-.2v-.1h.2l-.1.1h-.1zm11.4-.1h.1s.1 0 0 0h-.1zm-11.5-.2-.2-.1h.3v.1c0 .1 0 .2-.1 0zm11.6 0v-.1h.2l.1-.1-.3.2zm-11.7-.3-.1-.1h.2l.1.1c0 .2 0 .2-.2 0zm11.7 0 .1-.2h.2c.1-.1.1 0 0 .1-.2.2-.3.2-.3 0zm-11.8-.3v-.1l-.1-.1h.3v.2c0 .2-.1.2-.2 0zm12-.2v-.3h.2v.3c-.1.3-.3.3-.3 0zm-12-.2v-1.4c.1 0 .2.2.2.8l-.1.7h-.1zm12-.6v-.5c.1 0 .2.2.2.5l-.1.4-.1-.4zm.2-.6h-.2v-.2c0-.3 0-.4.1 0l.1.2zm-12.3-.3.1-.2c.1-.2.2-.2.2 0v.2h-.2s-.1.1-.1 0zm12.2-.3h-.2v-.2l.3.3h-.1zm-12.1-.1v-.1h.2v-.1l-.1-.1s0-.1 0 0l.1-.1c0-.1.2-.1.2 0h-.1c-.1 0-.1 0 0 .1v.3h-.5zm12-.2h-.1l-.1-.1v-.1l.3.2zm-.3-.4h.2-.2zm-11.4 0v-.1h.2l-.2.1zm11.3-.2h.2-.2zm-11.2-.1c.2-.2.2-.2.2 0l-.2.1v-.1zm11-.3a7 7 0 0 0-1.2-1.8c-.4-.4-1.2-1-1.6-1.1l-.2-.2c0-.1 0-.1 0 0l.4.2h.3-.1s-.1 0 0 0c0-.1 0-.2-.1-.1h-.1v-.1h-.2v-.1l1 .5c.7.5 1.8 1.7 1.6 1.7v.1s.2 0 .4.4l.2.6s0-.1-.1 0v-.2l-.1-.1c0-.1 0-.1 0 0v-.2h-.1l-.1-.2c-.1 0-.1.1 0 .4l.3.4s-.2 0-.3-.2zm0-.7h-.2c.1.1.2 0 .2 0zm-.3-.5h-.2v.1h.2zm-.2-.3h-.3l.1.1c.2.2.3.1.2 0zm-.4-.4-.2-.1.1.2.2.1v-.2zm-.4-.4c-.3-.2-.4-.1-.2.1l.3.2-.1-.3zm-.4-.3s-.2 0-.1.2l.1-.2zm-.2-.1c0-.1-.2 0-.1.1 0 .1 0 .1 0 0 .1 0 .1 0 0-.1zm-.2-.1c0-.2-.2 0-.1 0v.1-.2zm-6.8.4.5-.2-.2.2h-.3zm5.6-.7v-.2.1c.2.2.2.2 0 0zm-.3-.2v-.1l-.1-.2.2.4h-.1zm.5 0h-.1c0-.1 0 0 .1 0 .2 0 .2 0 0 0zm-.8 0v-.2c-.1 0-.1-.1 0-.1l.2.3h-.2zm-.4-.1v-.2c-.2 0-.2-.1-.1-.1l.2.2c.2 0 .2.2 0 .2-.1 0-.2 0-.1-.1z"/></svg>