<svg xmlns="http://www.w3.org/2000/svg" width="879.5" height="581.4" data-name="Layer 1"><path fill="#3f3d56" d="M22 579h858v2H22z"/><path fill="#3f3d56" d="M553 134v65a2 2 0 0 1-2 3h-1v342a36 36 0 0 1-36 36H300a36 36 0 0 1-36-36V214h-1a2 2 0 0 1-1-2v-37a2 2 0 0 1 1-2h1v-14h-1a2 2 0 0 1-2-2v-37a2 2 0 0 1 2-1h1v-19h-1a1 1 0 0 1-1-2V78a2 2 0 0 1 1-2h1V36a36 36 0 0 1 36-36h214a36 36 0 0 1 36 36v95h1a2 2 0 0 1 2 3z"/><rect width="39.8" height="8.1" x="380" y="18" fill="#e6e8ec" rx="2.5"/><circle cx="430.4" cy="22.4" r="4.6" fill="#e6e8ec"/><path fill="#007bfc" d="M532 43v504a23 23 0 0 1-7 17 23 23 0 0 1-15 5H305a23 23 0 0 1-10-2 21 21 0 0 1-2-1 23 23 0 0 1-10-19V43a23 23 0 0 1 22-23h31v4a19 19 0 0 0 18 19h105a19 19 0 0 0 18-19v-4h33a23 23 0 0 1 22 23z"/><path fill="#fff" d="M532 475v72a23 23 0 0 1-7 17 23 23 0 0 1-15 5H305a23 23 0 0 1-10-2 21 21 0 0 1-2-1 23 23 0 0 1-10-19v-72a187 187 0 0 1 249 0z" opacity=".3"/><path fill="#fff" d="M520 567a22 22 0 0 1-10 2H305a23 23 0 0 1-10-2 122 122 0 0 1 225 0z" opacity=".3"/><path fill="#fff" d="M476 568a14 14 0 0 1-7 2H346a14 14 0 0 1-7-2 74 74 0 0 1 137 0z" opacity=".3"/><path fill="#fff" d="M460 215c-21 0-44-4-61-17a95 95 0 0 0-76-13 165 165 0 0 0-40 13l-1-2a167 167 0 0 1 41-13c21-4 52-5 77 14 47 35 131 3 132 3l1 2a242 242 0 0 1-49 12 186 186 0 0 1-24 1z"/><path fill="#fff" d="M283 197s69-16 117 7 133-1 133-1" opacity=".3"/><path fill="#fff" d="M348 223a131 131 0 0 1-25-2 167 167 0 0 1-41-14l1-2a165 165 0 0 0 40 14c21 4 51 5 76-13 25-19 60-19 85-16a242 242 0 0 1 49 12l-1 2c-1 0-85-32-132 3a86 86 0 0 1-52 16z" opacity=".3"/><path fill="#fff" d="M348 215c-35 0-65-12-66-12l1-2c1 0 69 28 116 0 48-28 133-3 134-3l-1 2c-1 0-85-25-132 3-16 9-35 12-52 12z" opacity=".3"/><path fill="#fff" d="M283 200s68 23 116 0 133-2 133-2" opacity=".3"/><path fill="#ffb8b8" d="M550 261v30s3 32 15 49c0 0 21 29 24 23l-3-21-12-12-7-36-2-33zm129 264v22l-17 6v-25l17-3zm-35-2 11 26-16 7-4-26 9-7z"/><path fill="#2f2e41" d="M673 321s23 211 14 212-25 11-25 4l-14-107-13-50v70l14 79s-13 17-22 7l-20-78s-26-117-25-127c0 0 60-51 91-10zm-5 227s5-10 15-4l9 11s22 18 6 22-26 0-26 0l-5-2c-2 0-8-4-8-5l2-22a4 4 0 0 1 4 1c2 2 3-1 3-1z"/><path fill="#2f2e41" d="M634 544s11-9 16 1c0 0 3 2 4 0s3-1 3 5 3 22 0 23-6 2-5 5-3 2-17 2-14-6-14-6 0-8 4-12 9-18 9-18z"/><path fill="#ffb8b8" d="M612 162s-3 22 16 29-42 33-47 19 1-20 1-20 6-6 0-21z"/><circle cx="593.4" cy="151.8" r="25.7" fill="#ffb8b8"/><path fill="#f2f2f2" d="M623 198s-17 10-34 3-17 23-17 23l9 23 61-6-4-35z"/><path fill="#3f3d56" d="M614 178a21 21 0 0 1 15 12l28 8 7 10-8 72s15 15 15 23 19 36 9 32-26-15-26-15-43 1-56 13-19 8-19 8-14-60-14-70-17-65-17-65l29-16 8-9 20 33 19-23s-9-7-10-13z"/><path fill="#ffb8b8" d="m673 253 3 19s16 58 14 78c0 0 1 44-9 39s-4-37-4-37l-14-58-8-34z"/><path fill="#3f3d56" d="m658 205 6 3s22 46 17 50-28 11-28 11zm-96 1h-14l-3 5 4 57 21 4-8-66z"/><path fill="#2f2e41" d="m614 130 5-2s-10-9-23-8l4-4s-10-4-18 5c-4 5-10 10-13 17h-5l2 4-7 4 8-1a21 21 0 0 0 0 11l2 4 7-15v4s4-3 4-6l3 3 1-5 16 5-3-4 10 2-4-5s11 5 11 10 4 11 4 11l3-4s5-20-7-26z"/><ellipse cx="615" cy="152.1" fill="#ffb8b8" rx="2" ry="5.2"/><path fill="#fff" d="M283 197s68-36 116 0 133 4 133 4" opacity=".3"/><circle cx="407.8" cy="552.7" r="11" fill="#fff"/></svg>