<svg xmlns="http://www.w3.org/2000/svg" data-name="Layer 1" viewBox="0 0 717.7 556.3"><path fill="#e6e6e6" d="M587.4 0h-458a14.9 14.9 0 0 0-14.8 14.8V324a14.9 14.9 0 0 0 14.8 14.8h458a14.9 14.9 0 0 0 14.8-14.8V15a14.9 14.9 0 0 0-14.8-15z"/><path fill="#fff" d="M584.6 328.5H284.5a159.2 159.2 0 0 1-158.7-158.7V18.7a8.5 8.5 0 0 1 8.4-8.5h450.4a8.5 8.5 0 0 1 8.4 8.5V320a8.4 8.4 0 0 1-8.4 8.4z"/><path fill="#cacaca" d="M561 52.2H139.4a1.7 1.7 0 0 1 0-3.3H561a1.7 1.7 0 0 1 0 3.3z"/><ellipse cx="168.2" cy="30.3" fill="#3f3d56" rx="9.8" ry="10"/><ellipse cx="202.2" cy="30.3" fill="#3f3d56" rx="9.8" ry="10"/><ellipse cx="236.1" cy="30.3" fill="#3f3d56" rx="9.8" ry="10"/><path fill="#007bfc" d="M426.5 202.9H256a12.2 12.2 0 0 1-12.4-11.2 12 12 0 0 1 11.2-12.8h171.8a12 12 0 0 1 0 24z"/><circle cx="426.8" cy="124.8" r="10.8" fill="#e6e6e6"/><path fill="#fff" d="M425.4 130.5a1.2 1.2 0 0 1-1-.5l-3-4a1.2 1.2 0 1 1 2-1.4l1.9 2.6 5-7.5a1.2 1.2 0 0 1 2 1.4l-6 8.8a1.2 1.2 0 0 1-1 .6z"/><circle cx="426.8" cy="256.8" r="10.8" fill="#e6e6e6"/><path fill="#fff" d="M425.4 262.5a1.2 1.2 0 0 1-1-.5l-3-4a1.2 1.2 0 1 1 2-1.4l1.9 2.6 5-7.5a1.2 1.2 0 0 1 2 1.4l-6 8.8a1.2 1.2 0 0 1-1 .6z"/><path fill="#007bfc" d="M339.5 136.9H256a12.2 12.2 0 0 1-12.4-11.2 12 12 0 0 1 11.2-12.8h84.8a12 12 0 0 1 0 24z"/><path fill="#3f3d56" d="M426.5 137.4h-171a12.5 12.5 0 0 1 0-25h171a12.5 12.5 0 0 1 0 25zm-171-23a10.5 10.5 0 0 0 0 21h171a10.5 10.5 0 0 0 0-21zm171 89h-171a12.5 12.5 0 0 1 0-25h171a12.5 12.5 0 0 1 0 25zm-171-23a10.5 10.5 0 0 0 0 21h171a10.5 10.5 0 0 0 0-21z"/><path fill="#007bfc" d="M303.5 268.9H256a12.2 12.2 0 0 1-12.4-11.2 12 12 0 0 1 11.2-12.8h48.8a12 12 0 0 1 0 24z"/><path fill="#3f3d56" d="M426.5 269.4h-171a12.5 12.5 0 0 1 0-25h171a12.5 12.5 0 0 1 0 25zm-171-23a10.5 10.5 0 0 0 0 21h171a10.5 10.5 0 0 0 0-21z"/><path fill="#ccc" d="M287.5 100h-40a4 4 0 0 1 0-8h40a4 4 0 0 1 0 8zm0 66h-40a4 4 0 0 1 0-8h40a4 4 0 0 1 0 8zm0 66h-40a4 4 0 0 1 0-8h40a4 4 0 0 1 0 8z"/><ellipse cx="227.5" cy="96.4" fill="#3f3d56" rx="4.3" ry="4.4"/><ellipse cx="227.5" cy="162.4" fill="#3f3d56" rx="4.3" ry="4.4"/><ellipse cx="227.5" cy="228.4" fill="#3f3d56" rx="4.3" ry="4.4"/><path fill="#ffb6b6" d="M514 544.2h-10l-4.7-38.2H514v38.2z"/><path fill="#2f2e41" d="M514.3 554.5h-30.5v-.4a11.9 11.9 0 0 1 11.9-11.8l5.6-4.2 10.3 4.2h2.7z"/><path fill="#ffb6b6" d="M553 544.2h-10l-4.7-38.2H553v38.2z"/><path fill="#2f2e41" d="M553.3 554.5h-30.5v-.4a11.9 11.9 0 0 1 11.9-11.8l5.6-4.2 10.3 4.2h2.7zM479.9 305l-7 24 8.2 101.6S477 437 480 437s6.8 1.4 4.4 5.2 5.9 17.4 5.9 17.4L502 532l14.9-.2s7.6-4.2 3.3-8.5-7.2-4.3-3.2-8.3 4-2.8 4-5.9 4-41-5.5-55.6l2.8-59.3 6.8 58.2L539 530l14.4-.1s6.6-6.4 6.6-11.2-4.1-5-1-7.9 3-45.9-6-69.8V334s8.9-24.1 0-33.6-73 4.6-73 4.6z"/><path fill="#ffb6b6" d="m570 263.1 6-62.4a10.1 10.1 0 0 0-9-11 10.1 10.1 0 0 0-11.1 9v.5l-4.3 65-4.3 39.5a8.8 8.8 0 1 0 10.4 4.4z"/><path fill="#3f3d56" d="m547.4 169 21.7 2.7s16.3 30.7 13 33.3-18.5 18.9-29.7 11.4-5-47.4-5-47.4z"/><circle cx="510" cy="116.5" r="23.1" fill="#ffb6b6"/><path fill="#2f2e41" d="M519 137.7c-6.7-.2-7.3-2-14-2.2-2 0-4.5-.3-5.5-2.2a4.9 4.9 0 0 1 .2-4.3 39.5 39.5 0 0 0 2-4 7 7 0 0 0-6.9-9.3c-2 .1-3.9 1-5.9 1.3-2.8.2-8.8-8.9-7.6-11.4 1.3-2.3 3.7-4.2 4.1-6.8.3-1.8-.4-3.5-.5-5.2-.2-2.6 6.4 3.2 5.2 1-3-5.8 25-12.8 29.6-5.7 1.7 2.7 4.8 2.5 7.5 4 1.8 1.1 6.3 4.7 7.4 7a17.5 17.5 0 0 1 1.3 7.2c0 11.5-1.7 22.1-11 29"/><path fill="#3f3d56" d="m503.9 146 19-4 14.6 7s34.5 14 34.4 27.6-6.2 43.7-13.2 46.7 6 13 2 19-10 47-10 47 14.2 28.2 2.2 33.7-62.7 10.7-65.9 3.5-3.3-3.3-10.8-5.3 0-29.4 6.8-32.1 10.8-62.8 10.8-62.8L483 179.6l16.4-23z"/><path fill="#ffb6b6" d="m490.6 274.2 17.1-60.3a10.1 10.1 0 0 0-6.8-12.5 10.1 10.1 0 0 0-12.6 6.9l-.2.5-15.9 63.2-11.3 38a8.8 8.8 0 1 0 9.5 6.3z"/><path fill="#3f3d56" d="m485.3 177.6 20.8 6.6s13.6 20 8.5 22.8-7 2.2-4.3 7.2 6.3 3 2.6 5-21.6 15.3-31.3 6 3.7-47.6 3.7-47.6z"/><circle cx="426.8" cy="190.8" r="20.4" fill="#007bfc"/><path fill="#fff" d="M424 201.5a2.3 2.3 0 0 1-1.8-1l-5.5-7.4a2.3 2.3 0 0 1 3.6-2.7l3.6 4.9 9.4-14a2.3 2.3 0 0 1 3.8 2.4l-11.2 16.8a2.3 2.3 0 0 1-1.8 1z"/></svg>