<svg xmlns="http://www.w3.org/2000/svg" width="876.3" height="661.5" data-name="Layer 1"><path fill="#2f2e41" d="M505 32c7 16-8 21-27 29s-32 18-39 2-14-48 12-60c27-12 46 13 54 29z"/><circle cx="467.7" cy="39.1" r="24.6" fill="#ffb8b8"/><path fill="#2f2e41" d="m589 148-2-3-3-4c-13-15-27-24-42-25l-30 29-10 10h1l5 14h95a235 235 0 0 0-14-21zM441 49l9-4-1-13 5 11 5-2-1-8 3 6 32-14a26 26 0 0 0-35-13l-4 2a26 26 0 0 0-13 35z"/><path fill="#f2f2f2" d="M645 495H132a17 17 0 0 1-17-17V170a12 12 0 0 1 12-12h522a12 12 0 0 1 12 12v308a17 17 0 0 1-16 17z"/><path fill="#fff" d="M148 478h481a16 16 0 0 0 16-16V201a16 16 0 0 0-16-16H148a16 16 0 0 0-16 16v261a16 16 0 0 0 16 16z"/><path fill="#007bfc" d="M661 169H115v-8a17 17 0 0 1 17-17h512a17 17 0 0 1 17 17z"/><circle cx="145.1" cy="156.8" r="4.3" fill="#fff"/><circle cx="161.3" cy="156.8" r="4.3" fill="#fff"/><circle cx="177.6" cy="156.8" r="4.3" fill="#fff"/><path fill="#ccc" d="M403 422h-43a10 10 0 0 1-9-10v-43a10 10 0 0 1 9-9h43a10 10 0 0 1 10 9v43a10 10 0 0 1-10 10zm-43-60a8 8 0 0 0-7 7v43a8 8 0 0 0 7 8h43a8 8 0 0 0 8-8v-43a8 8 0 0 0-8-7z"/><path fill="#ccc" d="M395 410h-26a3 3 0 0 1-3-3v-32a3 3 0 0 1 3-3h18a3 3 0 0 1 2 0l7 6a3 3 0 0 1 2 2v27a3 3 0 0 1-3 3zm-26-36a1 1 0 0 0-1 1v32a1 1 0 0 0 1 1h26a1 1 0 0 0 1-1v-27a1 1 0 0 0-1 0l-7-6a1 1 0 0 0-1 0z"/><path fill="#ccc" d="M390 386h-16a1 1 0 0 1 0-2h16a1 1 0 0 1 0 2zm0 6h-16a1 1 0 0 1 0-2h16a1 1 0 0 1 0 2zm0 6h-16a1 1 0 0 1 0-2h16a1 1 0 0 1 0 2zm115 24h-43a10 10 0 0 1-9-10v-43a10 10 0 0 1 9-9h43a10 10 0 0 1 10 9v43a10 10 0 0 1-10 10zm-43-60a8 8 0 0 0-7 7v43a8 8 0 0 0 7 8h43a8 8 0 0 0 8-8v-43a8 8 0 0 0-8-7z"/><path fill="#ccc" d="M498 402h-28a3 3 0 0 1-3-3v-16a3 3 0 0 1 3-3h28a3 3 0 0 1 3 3v16a3 3 0 0 1-3 3zm-28-20a1 1 0 0 0-1 1v16a1 1 0 0 0 1 1h28a1 1 0 0 0 1-1v-16a1 1 0 0 0-1-1z"/><path fill="#ccc" d="M484 393a3 3 0 0 1-2 0l-15-10a1 1 0 0 1 1-1l15 9a1 1 0 0 0 1 0l15-9a1 1 0 0 1 1 1l-15 10a3 3 0 0 1-1 0zm-183 29h-43a10 10 0 0 1-9-10v-43a10 10 0 0 1 9-9h43a10 10 0 0 1 10 9v43a10 10 0 0 1-10 10zm-43-60a8 8 0 0 0-7 7v43a8 8 0 0 0 7 8h43a8 8 0 0 0 8-8v-43a8 8 0 0 0-8-7z"/><path fill="#ccc" d="M294 402h-28a3 3 0 0 1-3-3v-16a3 3 0 0 1 3-3h28a3 3 0 0 1 3 3v16a3 3 0 0 1-3 3zm-28-20a1 1 0 0 0-1 1v16a1 1 0 0 0 1 1h28a1 1 0 0 0 1-1v-16a1 1 0 0 0-1-1z"/><path fill="#ccc" d="M289 402h-20a2 2 0 0 1-2-3l6-11a2 2 0 0 1 4 0l4 7 2-4a2 2 0 0 1 3 0l5 8a2 2 0 0 1-2 3zm0-2-4-8-3 5a1 1 0 0 1-1 1 1 1 0 0 1-1-1l-5-8-6 11z"/><circle cx="290.6" cy="385.6" r="2" fill="#ccc"/><path fill="#ffb8b8" d="M769 648h-12l-6-47h18v47z"/><path fill="#2f2e41" d="M772 660h-40a15 15 0 0 1 16-16h24z"/><path fill="#ffb8b8" d="M819 648h-12l-6-47h18v47z"/><path fill="#2f2e41" d="M822 660h-40a15 15 0 0 1 16-16h24zm-7-32-11-4a4 4 0 0 1-3-4l-11-100h-1l-18 97a5 5 0 0 1-5 4l-15-3a5 5 0 0 1-3-5l11-159 73-8-11 178a5 5 0 0 1-5 4 5 5 0 0 1-1 0z"/><circle cx="815.1" cy="290.5" r="24.6" fill="#ffb8b8"/><path fill="#007bfc" d="m759 455 15-100a38 38 0 0 1 48-31 38 38 0 0 1 27 44l-17 89z"/><path fill="#ffb8b8" d="M822 473a10 10 0 0 0 2-16l16-31-18 1-13 30a10 10 0 0 0 13 16z"/><path fill="#007bfc" d="M825 452a5 5 0 0 1-2-1l-6-6a5 5 0 0 1-1-5l12-30-2-59a14 14 0 1 1 29 4l3 37a46 46 0 0 1-9 31l-19 27a5 5 0 0 1-4 2 4 4 0 0 1-1 0z"/><path fill="#ffb8b8" d="M674 277a10 10 0 0 0 13 8l23 27 5-18-22-23a10 10 0 0 0-19 6z"/><path fill="#007bfc" d="M692 288a5 5 0 0 1 2-1l7-4a5 5 0 0 1 5 1l23 23 55 22a14 14 0 1 1-15 24l-35-11a46 46 0 0 1-26-21l-16-28a5 5 0 0 1-1-4 4 4 0 0 1 1-1z"/><path d="m835 376-1 32-18 32 15-36 4-28z" opacity=".1"/><path fill="#2f2e41" d="M812 295a6 6 0 0 1-7-5 10 10 0 0 0-7-7c-4-1-10 1-13-2a7 7 0 0 1-2-6c1-3 3-6 6-8a34 34 0 0 1 19-7 68 68 0 0 1 10 1 47 47 0 0 1 11 2 26 26 0 0 1 16 18 30 30 0 0 1-6 24 32 32 0 0 1-12 10 5 5 0 0 1-4 0c-2-1-2-5-1-7 2-3 4-6 3-9a6 6 0 0 0-3-3c-3-2-6-1-10-1z"/><path fill="#fff" d="M665 309H361a17 17 0 0 1-16-17v-65a17 17 0 0 1 16-16h304a17 17 0 0 1 17 16v65a17 17 0 0 1-17 17z"/><path fill="#3f3d56" d="M665 309H361a17 17 0 0 1-17-17v-65a17 17 0 0 1 17-17h304a17 17 0 0 1 17 17v65a17 17 0 0 1-17 17zm-304-97a15 15 0 0 0-15 15v65a15 15 0 0 0 15 15h304a15 15 0 0 0 15-15v-65a15 15 0 0 0-15-15z"/><path fill="#f2f2f2" d="M628 293H398a17 17 0 0 1-16-17v-34a17 17 0 0 1 16-16h230a17 17 0 0 1 17 16v34a17 17 0 0 1-17 17z"/><circle cx="447.9" cy="254.9" r="19.7" fill="#ff6584"/><path fill="#3f3d56" d="m614 291-28-23-27-23a4 4 0 0 0-5 0l-28 23-6 5-10-8-31-26a4 4 0 0 0-5 0l-30 26-31 26a1 1 0 0 0 0 2h200a1 1 0 0 0 1-2z"/><path fill="#ccc" d="M875 661H683a1 1 0 0 1 0-2h192a1 1 0 0 1 0 2z"/><path fill="#ffb8b8" d="M604 132a11 11 0 0 0-7-5 10 10 0 0 0-2 0l-76-69a9 9 0 0 0-6-2 8 8 0 0 0-1 0 9 9 0 0 0-6 15l29 26 48 41a12 12 0 0 0 1 3 11 11 0 0 0 9 8 11 11 0 0 0 6-1 11 11 0 0 0 4-3 11 11 0 0 0 1-13zm-130 66-1-29-1-24v-17l-1-33a9 9 0 0 0-16-5 7 7 0 0 0 0 1 9 9 0 0 0-2 6l2 48 1 24 1 30a12 12 0 0 0-1 2 11 11 0 0 0-1 9 11 11 0 0 0 16 6 11 11 0 0 0 3-18z"/><path fill="#ccc" d="m542 116-7-19-11-31a16 16 0 0 0-10-10h-1a16 16 0 0 0-13 2l-38 24a16 16 0 0 0-6 22 276 276 0 0 0 16 24c5 6 13 7 14 17h29l28-26z"/><circle cx="101.2" cy="326.7" r="23.2" fill="#a0616a"/><path fill="#a0616a" d="M158 311h1a10 10 0 0 1-1 16 10 10 0 0 1-1 0l2 53a8 8 0 0 1-5 8h-1l-43 5a9 9 0 1 1-1-18l30-3 6-45a10 10 0 0 1-1-1 10 10 0 0 1 14-15zm-19 338h12l5-44h-17v44z"/><path fill="#2f2e41" d="M136 645h23a15 15 0 0 1 15 15h-38z"/><path fill="#a0616a" d="m24 633 10 6 28-35-15-9-23 38z"/><path fill="#2f2e41" d="m24 628 19 12a15 15 0 0 1 5 20l-32-19zm130 5h-13a4 4 0 0 1-5-3l-13-123a1 1 0 0 0-2-1l-24 53-42 68a4 4 0 0 1-5 1l-17-7a4 4 0 0 1-1-6l38-64 12-54c-4-24 12-59 12-59l44-17c17 56 28 117 20 209a4 4 0 0 1-4 3z"/><path fill="#3f3d56" d="M92 443s-10-21-17-43a32 32 0 0 1 2-25 33 33 0 0 1 21-16 33 33 0 0 1 38 19c6 15 4 31 2 43v1z"/><path fill="#2f2e41" d="M129 314H92v-16c9-4 16-6 21 0a16 16 0 0 1 16 16z"/><path fill="#2f2e41" d="M90 295c-22 0-28 27-28 43 0 9 4 12 10 13l3-12 5 12h5l2-3 4 3c15 0 28 2 28-13 0-16-6-43-29-43z"/><path fill="#ccc" d="M193 661H1a1 1 0 1 1 0-2h192a1 1 0 0 1 0 2z"/><path fill="#fff" d="M197 332h-43a10 10 0 0 1-10-9v-43a10 10 0 0 1 10-10h43a10 10 0 0 1 9 10v43a10 10 0 0 1-9 9z"/><path fill="#3f3d56" d="M197 332h-43a10 10 0 0 1-10-9v-43a10 10 0 0 1 10-10h43a10 10 0 0 1 9 10v43a10 10 0 0 1-9 9zm-43-60a8 8 0 0 0-8 8v43a8 8 0 0 0 8 7h43a8 8 0 0 0 7-7v-43a8 8 0 0 0-7-8z"/><path fill="#007bfc" d="M189 315h-28a3 3 0 0 1-3-3v-21a3 3 0 0 1 3-3h8a3 3 0 0 1 3 1l2 4h15a3 3 0 0 1 3 3v16a3 3 0 0 1-3 3z"/><path fill="#a0616a" d="M188 326h1a10 10 0 0 1-7 14 10 10 0 0 1-1 1l-19 49a8 8 0 0 1-8 5l-42-12a9 9 0 1 1 6-17l29 9 23-40a10 10 0 0 1-1-1 10 10 0 0 1 19-8z"/></svg>