<svg xmlns="http://www.w3.org/2000/svg" width="711.2" height="669.7" data-name="Layer 1"><path fill="#e6e6e6" d="M516 380v185l31 50 3 4h122l2-239H516z"/><path d="M516 380v185l31 50 2-235h-33z" opacity=".1"/><path fill="#e6e6e6" d="M222 375v185l-31 51-3 3H66l-2-239h158z"/><path d="M222 375v185l-31 51-2-236h33z" opacity=".1"/><path fill="#e6e6e6" d="M711 371v11H48v-16l61-32h548l54 37z"/><path d="M711 371v11H48v-16l663 5z" opacity=".1"/><path fill="#3f3d56" d="M143 427h-30l-12-9h55l-13 9zm0 36h-30l-12-9h55l-13 9zm0 50h-30l-12-8h55l-13 8zm0 51h-30l-12-9h55l-13 9zm452-132h30l12-9h-55l13 9zm0 36h30l12-9h-55l13 9zm0 50h30l12-8h-55l13 8zm0 51h30l12-9h-55l13 9zm20-449H366a9 9 0 0 0-9 10v168a9 9 0 0 0 9 9h95l-4 23s-20 11-6 11h82s13 0-8-12l-3-22h93a9 9 0 0 0 10-9V130a9 9 0 0 0-10-10z"/><path fill="#f2f2f2" d="M366 130h250v140H366z"/><circle cx="490.8" cy="126" r="1.6" fill="#f2f2f2"/><circle cx="490.8" cy="294.3" r="6" fill="#f2f2f2"/><path fill="#3f3d56" d="M481 358v3H311v-3l5-11h162l3 11zm66-3-4 4c-10 5-29-1-29-1s-15-3-15-10a12 12 0 0 1 1 0c4-2 18-8 41 0a10 10 0 0 1 5 3 5 5 0 0 1 1 4z"/><path d="M547 355c-12 4-22 5-33-3a23 23 0 0 0-14-4c4-2 18-8 41 0a10 10 0 0 1 5 3 5 5 0 0 1 1 4z" opacity=".1"/><ellipse cx="532.4" cy="351" fill="#f2f2f2" rx="4.1" ry="1.3"/><path d="M481 358v3H311v-3h170z" opacity=".1"/><path fill="#2f2e41" d="M95 0a9 9 0 0 0-5 1l-4 5a53 53 0 0 1-14 16c-4 3-10 7-9 13a17 17 0 0 0 2 5c4 8 15 14 14 23 4-6-2-9 2-16 2-3 5-7 8-5l3 3c2 1 5-2 7-3 7-7 17-5 26-3 4 1 9 2 11 6 4 5-3 11-4 17a3 3 0 0 0 3 4c3 0 6 0 6-2 4 1 8 0 9-3a15 15 0 0 0 1-5c0-6 3-11 4-16s3-13 0-18a20 20 0 0 0-4-4C136 3 115 0 95 0z"/><path fill="#ffb8b8" d="M82 75s4 29-9 31 11 41 11 41l58 7-14-46s-9-3-3-26-43-7-43-7zM47 569l5 64h24l-7-64H47zm177-119 4 53 26-12-10-44-20 3z"/><path fill="#2f2e41" d="M30 328s1 66 8 88 6 23 4 27-2 1-2 7-2 96 0 104-7 22 0 23 39 0 40-7-9-9-4-13 11-99 11-99l16-66 30-34h64l19 75s-8 22-2 22 40 7 40-18-11-100-14-103 2-10-2-13-44-28-59-33l-36-10zm224 154s-17-6-25 11-5 22-5 22 27 9 31 5c2-2 9-3 15-3 10 0 13-14 4-18h-1c-10-2-19-17-19-17z"/><circle cx="108" cy="59.4" r="34.5" fill="#ffb8b8"/><path fill="#007bfc" d="M63 120s57 12 70-7 20 52 20 52l7 74-11 40s-54 44-71 47l-44 6 8-130 21-82z"/><path fill="#2f2e41" d="M80 99s-12-7-16 0-35 24-39 24 7 95 2 107-26 95-13 102 3-7 16 11 75 17 78 10-28-59-22-107 15-115 7-124-13-23-13-23zm42 8 1-6s48 16 51 26 1 83-7 89-20 15-12 29 18 28 24 30 20 9 17 17-45-7-45-7-28-21-27-53-2-125-2-125z"/><path fill="#ffb8b8" d="m162 242-27 52s-41 42-18 46 36-38 36-38l30-42z"/><path fill="#2f2e41" d="M96 9a8 8 0 0 0-4 1 9 9 0 0 0-2 3 40 40 0 0 1-12 11c-4 3-8 5-8 10a11 11 0 0 0 2 3 30 30 0 0 1 4 19l9-14c2-2 5-4 7-3l2 2c2 1 4-1 6-3 5-4 14-3 21-2 4 1 7 2 9 5 4 5 0 11 2 17a5 5 0 0 0 2-3c3 0 6-1 7-3a9 9 0 0 0 1-3c0-4 3-8 4-12s2-9 0-12a15 15 0 0 0-3-3C130 11 113 9 96 9zm66 114 11 3s25 63 19 107-9 35-9 35-9-21-30-16zM49 624c-3 4-3 9-5 13s-6 6-9 9a22 22 0 0 0-2 3c-3 4-5 9-2 14 2 3 6 4 10 5s9 2 14 1 10-3 12-8a33 33 0 0 1 1-3c2-6 11-6 13-11 2-3 0-8-1-11l-6-12c-1-3-8-1-12-2-5-1-10-2-13 2z"/><path fill="#ffb8b8" d="m10 265 49 75s29 38 39 21-33-46-33-46l-31-58z"/><path fill="#2f2e41" d="m34 125-9-2s-18 5-23 30-1 120 5 122 28-17 32-13-8-16-5-27 0-110 0-110z"/><g fill="#007bfc" data-name="Group 13"><path d="M437 176h30v8h-30z" data-name="Rectangle 55"/><path d="M560 176h10v8h-10z" data-name="Rectangle 56"/><path d="M581 176h10v8h-10z" data-name="Rectangle 57"/><path d="M478 176h71v8h-71z" data-name="Rectangle 58"/><path d="M400 223h30v7h-30z" data-name="Rectangle 59"/><path d="M522 223h11v7h-11z" data-name="Rectangle 60"/><path d="M543 223h11v7h-11z" data-name="Rectangle 61"/><path d="M440 223h71v7h-71z" data-name="Rectangle 62"/><path d="M523 192h30v8h-30z" data-name="Rectangle 63"/><path d="M563 192h30v8h-30z" data-name="Rectangle 64"/><path d="M400 192h10v8h-10z" data-name="Rectangle 66"/><path d="M421 192h10v8h-10z" data-name="Rectangle 67"/><path d="M442 192h71v8h-71z" data-name="Rectangle 68"/><path d="M461 208h30v7h-30z" data-name="Rectangle 69"/><path d="M421 208h30v7h-30z" data-name="Rectangle 70"/><path d="M400 208h10v7h-10z" data-name="Rectangle 71"/><path d="M582 208h11v7h-11z" data-name="Rectangle 73"/><path d="M501 208h71v7h-71z" data-name="Rectangle 74"/></g></svg>