<svg xmlns="http://www.w3.org/2000/svg" xmlns:xlink="http://www.w3.org/1999/xlink" data-name="Layer 1" width="1116.21" height="857.08"><defs><linearGradient id="a" x1="654.32" y1="613.24" x2="654.32" y2="117" gradientUnits="userSpaceOnUse"><stop offset="0" stop-color="gray" stop-opacity=".25"/><stop offset=".54" stop-color="gray" stop-opacity=".12"/><stop offset="1" stop-color="gray" stop-opacity=".1"/></linearGradient><linearGradient id="b" x1="475.65" y1="861.71" x2="475.65" y2="223.28" xlink:href="#a"/></defs><g data-name="browser"><path d="M1130 606.13V117H178.65v461.07c12.15 10.14 26.76 18.67 42 25.68q11.26 5.19 23 9.49h875z" transform="translate(-41.9 -21.46)" fill="url(#a)"/><path d="M1086.26 584.87V109.54H138.83v448.1c12.1 9.86 26.65 18.15 41.8 25q11.22 5 22.92 9.22h871.38z" fill="#fff"/><path fill="#5a5773" d="M138.84 96.93h947.42v25.14H138.84z"/></g><g data-name="buttons" fill="#fff"><circle cx="157.76" cy="109.5" r="6.5"/><circle cx="175.26" cy="109.5" r="6.5"/><circle cx="192.76" cy="109.5" r="6.5"/></g><g data-name="boxes"><path fill="#007bfc" d="M380.95 177.32h156.5v98.34h-156.5z"/><path fill="#5a5773" opacity=".2" d="M164.26 177.32h156.5v98.34h-156.5zM597.64 177.32h156.5v98.34h-156.5zM164.26 317.91h156.5v98.34h-156.5zM380.95 317.91h156.5v98.34h-156.5zM597.64 317.91h156.5v98.34h-156.5zM164.26 458.49h156.5v98.34h-156.5zM380.95 458.49h156.5v98.34h-156.5zM597.64 458.49h156.5v98.34h-156.5z"/></g><g data-name="woman"><path d="M551.37 445.2s-28.11-51.38-23.37-59.74 8.23-20.46 8.23-20.46 10.38-7.1 10.38-10 8.22-9.61 12.55-12.53 2.16-16.71 0-18.38-5.59-7.52-5.59-7.52 3-8.35 0-10.86.44-5 0-7.52 0-11.69 0-11.69c-3.51-4.88-7.4-7.16-11.06-8l-.32-1.32-1.85-7.79s9-17.25-5.6-26.28a24.4 24.4 0 00-3.23-1.7s0-.42-.08-1.13c-.2-2.58-.81-9-2.12-13.21-.76-2.42-1.75-4.05-3-3.68a2 2 0 00-.82.47 9.12 9.12 0 00-1.55 1.83.41.41 0 01-.07.11 31.36 31.36 0 00-3.44 9.55 55.16 55.16 0 00-1 6 33 33 0 00-1.67 3.71c-1.77 4.59-3.84 12.54-.07 18.42 3.2 5 7.51 11.87 10.64 16.87l.1.16.19.31-.33.21v.77l.29 4.21 2.42 36.38a15.45 15.45 0 00-2.22-.47 20.17 20.17 0 00-3.23-.21c-2.11-8.29-7.9-16-9-24.66a22.87 22.87 0 01-.17-2.61c.09-5.45 1.45-10.92 1.34-16.36 0-1 0-2-.1-3 0-.27-.05-.55-.08-.83a24.59 24.59 0 00-13.37-18.63c-2.51-1.25-5.23-2.08-7.67-3.45-5.64-3.16-9.25-8.86-14.37-12.77-3.81-2.91-9.5-4.47-13.75-3a63.49 63.49 0 00-6.69 1.38 60.35 60.35 0 00-15.31 6.36c-.65.39-1.3.79-1.92 1.25a8.46 8.46 0 00-3.09 3.61 9.46 9.46 0 00-.48 3.89c0 .95 0 1.92.06 2.87-.28 16-17.52 28.38-18.94 44 0 .37-.06.74-.08 1.11v2.96c.25 6.85 3.81 13.23 4.46 20.05.06.61.09 1.21.1 1.82a30.24 30.24 0 01-1.77 9.18 26.87 26.87 0 00-6.21 2.52c-5.24 3.37-14.7 9.19-18.15 20.32a29.76 29.76 0 00-1.31 8.92 186.26 186.26 0 01-2.92 31.85 59.53 59.53 0 01-1.84 7.83 1.84 1.84 0 00-.06.77l-2.08 27-.37 4.75-.52 6.76s.15.41.37 1.1a31.8 31.8 0 01.82 3.12 16.78 16.78 0 01.27 7 4.82 4.82 0 01-1.46 2.57 1.08 1.08 0 00-.17.19c-.59.83-1.12 3.3-1.58 6.88-.18 1.4-.35 3-.52 4.66-1 10.65-1.62 26.59-2 39.77-.36 13-.49 23.27-.49 23.27a26.54 26.54 0 005.37 2.66c-.14.35-.29.71-.43 1.09a52.53 52.53 0 00-3.26 13.74c-.84 9.83 1.91 20.75 15.62 26.37a22.06 22.06 0 002.69.92c3 .8 5.21.58 6.84-.42 0 .59.07 1.16.1 1.73.14 2.44.26 4.67.32 6.54.43 11.7 3.33 32.16 3.33 32.16s1 8.36.13 10.86 0 12.53 0 12.53 3 5 0 7.52-3.89 15-3 16.71a.56.56 0 01.05.19c.66 4.15-3.07 65.81-3.07 65.81s-3.53 9.44-6.34 19.24c-2.74 9.54-4.8 19.42-2.26 21.27 1.26.92 4.19 1.61 7.91 2.14 0 .41-.06.82-.1 1.24-.36 4.41-.93 9.16-1.75 10.36-1.19 1.7-2.44 14.88-3.05 22l-.06.79a73.7 73.7 0 00-3.22 9.34s-9.57 24-6.33 30.23a5.11 5.11 0 001.19 1.47 2.7 2.7 0 00.31.28c4.61 3.69 16.16 4.46 20.35 4.63l-.16 5.94v.22h5.45v-.15c0-.75.12-4.19.3-8.79 0-.82.06-1.68.1-2.56 0-.69.07-1.39.1-2.11a37 37 0 002.37-13.35 58.58 58.58 0 012.1-15.48 43 43 0 012.77-7.55s1.7-9-.67-15.37a11.1 11.1 0 00-2-3.46v-.64-.73-.63a57.69 57.69 0 011.28-12.82 1.42 1.42 0 010-.2c.08-.35.17-.68.26-1l.06-.22 1.77.06c5.43.15 9.42.15 9.42.15s4.33-22.14 3.9-31.74v-1.3c-.15-9.54 2.62-22.51 2.62-22.51l3.49-33.85s-1.73-5.86 0-10c1.07-2.58 3.28-7.37 4.82-10.67.72-1.53 1.29-2.73 1.53-3.25l.14-.28a6.47 6.47 0 01-1.54-.77c-1.41-.94-2.67-2.78 1.55-5.49 6.49-4.18 4.33-14.62 4.33-14.62s-1.91-3.76.34-7.1 0-15.87 0-15.87a52.47 52.47 0 004.44-10.45c1.61-5 5.68-29.45 7.6-41.24.63-3.87 1-6.37 1-6.37l.06.61.06.66.54 5.57.07.74 1 10.53s2 27.68.75 38.53v.2a12.82 12.82 0 01-.73 3.29c-2.3 5.2-1.88 25.86-1.76 30.43v.92c0 .25-1.63 4.08-1.22 7.06a4.53 4.53 0 00.79 2.1 5.32 5.32 0 01.77 3.25v.1a11.81 11.81 0 01-.12 1.44 27.46 27.46 0 01-1.52 5.66s-2.32 6.1-1.44 9.29a2.94 2.94 0 00.57 1.13 2.67 2.67 0 01.33 1.2.43.43 0 000 .11c.81 6.73-1.28 36.44-2.52 52.7-.5 6.42-.86 10.74-.86 10.74l-3.43 35.5.34.24c.39.28 1.12.76 2.1 1.34v.08l-.15 1.07c-.49 3.42-1.15 7.4-1.87 10.44-.06.23-.11.45-.17.66a9.57 9.57 0 00-3.67 1.47c-7.28 12.93-4.06 23.18 0 26.16 1.15.84 1.93 3.19 2.45 6.11l1 12.89v1.48a3.84 3.84 0 00.19 1.18l.31 3.91.42 5.44h3.32V849h.18c5.24.18 13.69.4 17.37.11h.1c.39 0 .72-.07 1-.11a2.51 2.51 0 00.58-.16c1.95-.94 6.81-14.72 2.43-17.85s-5.35-12-5.35-12c-.38-1.16-.76-2.26-1.15-3.31V815c-.12-4.29-.07-8.94.52-11.46.66-2.77 1-8.59 1.14-13.69v-1.27a17.07 17.07 0 002.23-.73l.16-.07a15.71 15.71 0 003.73-2.21L506 731.33l1.29-6.31 7.35-35.89s-2.59-12.53 0-14.61c.95-.76 1.21-4 1.15-7.75-.1-6.56-1.15-14.81-1.15-14.81s3.46-5.43 5.2-8.77 0-12.11 0-12.11l3.41-20.08s3.9-23.81 13.41-43.86c7-14.75 2.54-54.58-2-75.78-.12-.55-.24-1.09-.36-1.61v-.08c2.14-1.06 4.76-2.34 7.56-3.68l1.06-.5c3.55-1.67 7.31-3.39 10.68-4.82l.22-.09a74.58 74.58 0 017.43-2.78 12.47 12.47 0 012.28-.47c6.01-.39-12.16-32.13-12.16-32.13zm-135.31 67.95h1.8c-.21.39-.41.79-.61 1.19-.12.24-.24.47-.35.71-.66 1.37-1.27 2.77-1.77 4.14.2-1.48.45-3.09.73-4.81.07-.38.14-.83.2-1.23zm-4.86 26.07a.74.74 0 000-.14l-.15-.47c-.11-.32-.21-.64-.31-1q.93-.28 1.89-.63h.13v.33c-.05.47-.11.94-.17 1.4a1 1 0 010 .18c0 .38-.09.74-.13 1.1-.09.72-.18 1.42-.26 2.09-.19-.63-.38-1.25-.58-1.86-.2-.33-.31-.67-.42-1z" transform="translate(-41.9 -21.46)" fill="url(#b)"/><path d="M499.1 263.46l-10.8 3.82-3.92-6.5c-3-5-7.16-11.84-10.23-16.81-5.42-8.74 1.67-22.06 1.67-22.06s1.28-13.37 5.84-17.49 5.83 17.49 5.83 17.49c18.31 8.32 8.5 27.89 8.5 27.89l1.78 7.76z" fill="#efb7b9"/><path d="M499.1 263.46l-10.8 3.82-3.92-6.5v-.57s6.19-4.25 13.41-2.65z" opacity=".1"/><path d="M481.66 307.26l5.41-4.58-2.71-41.22s14-9.58 24.36 5.41c0 0-.42 9.16 0 11.66s-2.91 5 0 7.49 0 10.83 0 10.83 3.29 5.83 5.37 7.49 4.17 15.41 0 18.32-11.99 9.58-11.99 12.49-10 10-10 10l-8.78-11.61z" fill="#ff6484"/><path d="M364.66 557.48c-20.18-8.56-15.7-29.47-11.9-40a54.46 54.46 0 012.67-6.24l11.32-6.87s2.31 5.89 4.78 13.79c5.73 18.38 12.32 47.47-6.87 39.32zM392.4 748.27a34 34 0 00-3 8.42 60.81 60.81 0 00-1.3 14.33c.08 3.33.36 5.51.36 5.51l-22.48 15.46s.13-1.81.35-4.47c.58-7.08 1.79-20.22 2.93-21.92.79-1.18 1.34-5.92 1.69-10.32s.49-8.26.49-8.26 27.05-10.14 20.96 1.25zM445.49 759.36s0 4.3-.16 9.3-.46 10.9-1.09 13.65c-.58 2.52-.62 7.15-.51 11.42.15 5 .51 9.5.51 9.5s-22.95-21.7-20.61-23.42c.63-.46 1.25-2.31 1.82-4.77.7-3 1.33-7 1.8-10.4.56-4.05.91-7.31.91-7.31z" fill="#efb7b9"/><path d="M392.4 748.27a34 34 0 00-3 8.42 183.72 183.72 0 01-18.4-1.41c.34-4.3.49-8.26.49-8.26s27-10.14 20.91 1.25zM445.49 759.36s0 4.3-.16 9.3c-7.16 1.83-14.52-1.83-18.08-4 .56-4.05.91-7.31.91-7.31z" opacity=".1"/><path d="M492.48 546.66c-9.16 20-12.91 43.72-12.91 43.72l-3.33 20s1.67 8.74 0 12.07-5 8.75-5 8.75 2.5 20.4 0 22.48 0 14.57 0 14.57l-8.33 42-11.66 54.12c-11.24 9.17-26.2-2.49-26.2-2.49l3.3-35.39s5-62 2.92-64.54.83-10.41.83-10.41 2.92-7.5.84-10.41.41-9.16.41-9.16-.83-25.4 1.67-31.23 0-41.89 0-41.89l-1-11.23-.58-6.22-.05-.61s-.38 2.49-1 6.35c-1.84 11.75-5.76 36.1-7.31 41.11a53.53 53.53 0 01-4.27 10.41s2.16 12.49 0 15.82-.33 7.08-.33 7.08 2.08 10.41-4.17 14.57 0 6.25 0 6.25-4.58 10-6.24 14.15 0 10 0 10l-3.33 33.72s-2.92 14.15-2.5 23.73-3.75 31.64-3.75 31.64-32.06 0-37-3.75 8.25-40.33 8.25-40.33 3.75-64.12 2.91-65.78 0-14.16 2.92-16.65 0-7.5 0-7.5-.83-10 0-12.49-.13-10.83-.13-10.83-2.79-20.4-3.2-32.06-2.5-37.88-2.5-37.88 2.18-16.22 2.51-23.94c.12-2.84 1.39-6.39 3-9.73a86.81 86.81 0 016.2-10.88s98.65-29.16 102.79-26.26c1.1.77 2.7 6 4.28 13.57 4.4 21.15 8.7 60.85 1.96 75.55z" fill="#444053"/><circle cx="431.7" cy="263.46" r="28.73" fill="#a1616a"/><path d="M490.52 471.13c-3.31 1.7-5.53 2.87-5.53 2.87s-46.63 22.07-59.89 20.82c-10.26-1-36.45-.43-47.86-.15a86.81 86.81 0 016.2-10.88s98.66-29.15 102.8-26.25c1.1.79 2.7 6 4.28 13.59z" opacity=".1"/><path d="M411.71 309.34s-26.61 4.2-32.89 8.32-18.72 12.08-18.72 29.15-2.91 34.56-4.58 39.55 26.23 45.38 26.23 45.38l-10 61.21s40-1.25 53.32 0S485 472.13 485 472.13s27.48-14.57 33.31-15-11.66-32.06-11.66-32.06-27.07-51.2-22.49-59.53 7.94-20.4 7.94-20.4l-5-42.46s-7.49-2.5-13.74 2.08-27.48 2.08-27.48 2.08z" fill="#ff6484"/><path d="M366.54 383.45l-10.44 2.91-2.89 39.18s3.75 10.41 0 13.74-4.58 74.53-4.58 74.53 12.08 8.74 26.23 2.08c0 0-2.08-7.91 4.17-36.64s6.24-43.3 6.24-43.3 0-35.81 2.92-41.64 0-20.4 0-20.4-5.83-7.91-5.42-10.82-16.23 20.36-16.23 20.36z" opacity=".1"/><path d="M371.53 518.19a26.59 26.59 0 01-18.77-.68 54.46 54.46 0 012.67-6.24l11.32-6.87s2.35 5.89 4.78 13.79z" opacity=".1"/><path d="M365.91 383.45l-10.41 2.91-2.91 39.18s3.75 10.41 0 13.74-4.58 74.53-4.58 74.53 12.09 8.73 26.23 2.04c0 0-2.08-7.91 4.16-36.64s6.25-43.3 6.25-43.3 0-35.81 2.91-41.64 0-20.4 0-20.4-5.83-7.91-5.41-10.82-16.24 20.4-16.24 20.4z" fill="#ff6484"/><path d="M472.5 389.69s-5.41 46.63-21.24 55.38c0 0 35.39-9.99 21.24-55.38zM392.98 393.86s19.56 9.57 15 16.23-15-16.23-15-16.23zM392.98 413.01s12.49 12.91 10 17.49-10-17.49-10-17.49zM493.73 306.01s4.9 8.32 5.37 13.74-5.37-13.74-5.37-13.74zM493.73 294.77s2.46-2.09 8.74 0-8.74 0-8.74 0zM469.69 538.12a57.9 57.9 0 01-30.45-3.9l-5.25 13.44-.58-6.22c.86-5.22 2.53-10.81 5.83-12.22 0 0 11.56 9.21 30.45 8.9zM384.28 555.61s25.61 5.31 32.79 4.37zM386.94 562.32s10.93-.47 16.39 1.72zM388.19 566.85a98 98 0 0015.14 2zM387.56 624.15c.47-.31 21.86-5.31 24.52-1.72zM387.56 630.71s18.58-2.19 19.05 0-19.05 0-19.05 0zM387.56 636.64s19.83-4.1 22.17-3.1-22.17 3.1-22.17 3.1zM388.5 776.54L366.02 792s.13-1.81.35-4.47c5-12.3 11.51-18.79 11.51-18.79 5.07-1.32 8.27-.1 10.26 2.29.08 3.32.36 5.51.36 5.51z" opacity=".1"/><path d="M390.69 790.43a55.79 55.79 0 00-4.69 23 35.67 35.67 0 01-4.76 18.51 18.24 18.24 0 01-1.58 2.26s-15.62-.13-21.09-4.66a5.41 5.41 0 01-1.47-1.8c-3.13-6.24 6.09-30.13 6.09-30.13 4.84-18.42 14.67-28.26 14.67-28.26 17.51-4.53 12.83 21.08 12.83 21.08z" fill="#444053"/><path d="M381.24 831.89a18.24 18.24 0 01-1.58 2.26s-15.62-.13-21.09-4.66c2.69-8.9 11.27-35.83 15.29-31.25 3.78 4.3 6.41 24.99 7.38 33.65z" opacity=".1"/><path d="M379.1 799.91l-1.09 40.34h5.24s.85-35.39 3.19-40.34-7.34 0-7.34 0z" fill="#444053"/><path d="M444.24 803.23s-22.95-21.7-20.61-23.42c.63-.46 1.25-2.31 1.82-4.77 4.41-.77 12 1.07 18.28 18.69.15 5 .51 9.5.51 9.5z" opacity=".1"/><path d="M447.67 827.43a2.33 2.33 0 01-.55.16c-2.7.47-12.65.2-18.22 0a3.94 3.94 0 01-3.81-3.93c0-1.5 0-3.33-.12-5.28-.26-6.16-1-13.49-3.21-15.14-3.91-3-7-13.18 0-26.07 0 0 13.42-10.25 23.1 20.56 0 0 .94 8.79 5.15 11.91s-.46 16.9-2.34 17.79z" fill="#444053"/><path d="M447.1 827.59c-2.7.47-12.65.2-18.22 0a3.94 3.94 0 01-3.81-3.93c0-1.5 0-3.33-.12-5.28 1.69-7.46 4.12-15.14 7.25-16.89.02-.01 9.49-1.08 14.9 26.1z" opacity=".1"/><path fill="#444053" d="M423.46 800.58l2.52 33.57h3.2v-36.43l-5.72 2.86z"/><path d="M431.28 217.68a57.42 57.42 0 00-25.62 8.23c-2 1.21-4 2.68-4.83 4.85-.72 1.88-.42 4-.39 6 .27 17.22-18.93 30.25-18.33 47.46.24 6.83 3.67 13.19 4.3 20 1.05 11.36-5.67 21.81-12.11 31.22a25.86 25.86 0 0018.25-6.05 138.39 138.39 0 012.55 69.75h9.21a7 7 0 012.69.33 6.76 6.76 0 012.13 1.59c8.61 8.57 14.38 21.24 11.09 32.94l19.6-7.35c4.69-1.76 9.45-3.55 13.53-6.45s7.5-7.11 8.36-12.05c.53-3 .36-6.58 2.83-8.32a15.4 15.4 0 013.86-1.43c5.38-1.9 7.76-8.12 8.86-13.72a79 79 0 001.25-20.87c-.87-11.7-4.33-23.58-1.48-35 1.61-6.41 5.19-12.38 5.48-19 .47-10.91-8.06-20.31-9.33-31.16-.89-7.56 1.84-15.21.95-22.77a24.46 24.46 0 00-12.87-18.57c-2.41-1.24-5-2.07-7.38-3.44-5.43-3.15-8.9-8.82-13.83-12.72s-13.14-5.37-16.85-.3z" opacity=".1"/><path d="M431.28 216.43a57.42 57.42 0 00-25.62 8.23c-2 1.21-4 2.68-4.83 4.85-.72 1.88-.42 4-.39 6 .27 17.22-18.93 30.25-18.33 47.47.24 6.82 3.67 13.18 4.3 20 1.05 11.36-5.67 21.81-12.11 31.23a26 26 0 0018.25-6.05 138.34 138.34 0 012.55 69.73h9.21a7 7 0 012.69.34 6.58 6.58 0 012.13 1.58c8.61 8.58 14.38 21.24 11.09 32.94l19.6-7.35c4.69-1.76 9.45-3.55 13.53-6.45s7.5-7.11 8.36-12.05c.53-3 .36-6.58 2.83-8.32a15.4 15.4 0 013.86-1.43c5.38-1.9 7.76-8.12 8.86-13.72a79 79 0 001.28-20.89c-.87-11.7-4.33-23.58-1.48-35 1.61-6.41 5.19-12.38 5.48-19 .47-10.91-8.06-20.31-9.33-31.16-.89-7.56 1.84-15.2.95-22.77a24.48 24.48 0 00-12.87-18.57c-2.41-1.24-5-2.07-7.38-3.43-5.43-3.16-8.9-8.83-13.83-12.73s-13.14-5.37-16.85-.3z" fill="#925978"/><g opacity=".1"><path d="M400.42 231.35a11.12 11.12 0 00-.06 1.16c.03-.38.05-.77.06-1.16zM473.1 271.38c.36-5.3 1.54-10.62 1.1-15.9-.33 5.3-1.51 10.62-1.1 15.9zM386.41 297.73c-.58-6.2-3.47-12-4.15-18.19a22.8 22.8 0 00-.15 3.42c.24 6.75 3.59 13.06 4.27 19.78a27 27 0 00.03-5.01zM477.1 322.36a42.88 42.88 0 00-1 12.42 37.65 37.65 0 011-7.21c1.61-6.41 5.19-12.38 5.48-19a20.61 20.61 0 00-.16-3.52c-.78 5.95-3.89 11.49-5.32 17.31zM392.55 322.9a26 26 0 01-14.76 6c-1.14 1.78-2.32 3.52-3.49 5.24a26 26 0 0018.25-6.05 138 138 0 015.82 37.45 138.31 138.31 0 00-5.82-42.64zM477.29 378.19c-1.1 5.6-3.48 11.82-8.86 13.71a15 15 0 00-3.86 1.44c-2.47 1.74-2.3 5.34-2.83 8.32-.86 4.94-4.27 9.14-8.36 12s-8.84 4.7-13.53 6.46l-18.7 7a25.81 25.81 0 01-.9 5.55l19.6-7.35c4.69-1.76 9.45-3.55 13.53-6.45s7.5-7.11 8.36-12.05c.53-3 .36-6.58 2.83-8.32a15.4 15.4 0 013.86-1.43c5.38-1.9 7.76-8.12 8.86-13.72a78.42 78.42 0 001.41-17.7 78.3 78.3 0 01-1.41 12.54zM409.16 394.54a6.61 6.61 0 00-2.13-1.59 7.15 7.15 0 00-2.69-.34h-8.17c-.32 1.74-.66 3.48-1 5.21h9.21a7 7 0 012.69.34 6.58 6.58 0 012.13 1.58c6.3 6.28 11.07 14.74 11.89 23.42 1.01-10.38-4.37-21.06-11.93-28.62z"/></g><path d="M363.47 428.62s7.44-3.12 9.1 0-9.1 0-9.1 0zM366.1 433.97s7.44-3.12 9.11 0-9.11 0-9.11 0z" opacity=".1"/></g><path d="M888.53 408.91a14.31 14.31 0 1014.31 14.31 14.35 14.35 0 00-14.31-14.31zm-41.84-112.29v14.31H861l25.76 52.18-10.77 17.53a13.76 13.76 0 00-1.79 6.8c0 9.58 6.55 14.31 15.43 14.31h83.67v-13.76h-81.92a1.69 1.69 0 01-1.79-1.79 9 9 0 01.76-1.78l7.15-11.29h53.31a14 14 0 0012.52-7.51l25.77-44.31a8.31 8.31 0 00.72-3.58 6.88 6.88 0 00-7.16-6.8H876.75l-6.8-14.31zm112.29 112.29a14.31 14.31 0 1014.32 14.31 14.35 14.35 0 00-14.32-14.31z" fill="#007bfc"/><path fill="#fff" d="M940.67 336.21h-12v-12h-9v12h-12v9h12v12h9v-12h12v-9z"/></svg>