<svg xmlns="http://www.w3.org/2000/svg" xmlns:xlink="http://www.w3.org/1999/xlink" width="1116.2" height="857.1" data-name="Layer 1"><defs><linearGradient id="a" x1="654.3" x2="654.3" y1="613.2" y2="117" gradientUnits="userSpaceOnUse"><stop offset="0" stop-color="gray" stop-opacity=".3"/><stop offset=".5" stop-color="gray" stop-opacity=".1"/><stop offset="1" stop-color="gray" stop-opacity=".1"/></linearGradient><linearGradient xlink:href="#a" id="b" x1="475.6" x2="475.6" y1="861.7" y2="223.3"/></defs><g data-name="browser"><path fill="url(#a)" d="M1130 606V117H179v461c12 10 26 19 42 26l23 9h875z" transform="translate(-42 -21)"/><path fill="#fff" d="M1086 585V110H139v448c12 10 26 18 42 25l23 9h871z"/><path fill="#5a5773" d="M139 97h947v25H139z"/></g><g fill="#fff" data-name="buttons"><circle cx="157.8" cy="109.5" r="6.5"/><circle cx="175.3" cy="109.5" r="6.5"/><circle cx="192.8" cy="109.5" r="6.5"/></g><g data-name="boxes"><path fill="#007bfc" d="M381 177h156v99H381z"/><path fill="#5a5773" d="M164 177h157v99H164zm434 0h156v99H598zM164 318h157v98H164zm217 0h156v98H381zm217 0h156v98H598zM164 458h157v99H164zm217 0h156v99H381zm217 0h156v99H598z" opacity=".2"/></g><g data-name="woman"><path fill="url(#b)" d="M551 445s-28-51-23-60 8-20 8-20 11-7 11-10 8-10 12-13 2-16 0-18l-5-7s3-9 0-11 0-5 0-8v-11c-4-5-8-8-11-8l-1-2-2-8s9-17-5-26a24 24 0 0 0-3-2l-1-1c0-2 0-9-2-13 0-2-1-4-3-4a2 2 0 0 0-1 1 9 9 0 0 0-1 2 31 31 0 0 0-4 9 55 55 0 0 0-1 6 33 33 0 0 0-1 4c-2 5-4 13 0 18l10 17v1h1-1v1l1 4 2 36a15 15 0 0 0-2 0 20 20 0 0 0-3 0c-3-9-8-16-9-25a23 23 0 0 1-1-3l2-16v-4a25 25 0 0 0-14-18l-8-4c-5-3-9-9-14-13-4-3-9-4-14-3a63 63 0 0 0-6 2 60 60 0 0 0-16 6l-2 1a8 8 0 0 0-3 4 9 9 0 0 0 0 4v3c0 16-18 28-19 44v4c0 7 4 13 4 20v2a30 30 0 0 1-1 9 27 27 0 0 0-6 2c-6 4-15 10-19 21a30 30 0 0 0-1 9 186 186 0 0 1-3 31 60 60 0 0 1-2 8 2 2 0 0 0 0 1l-2 27v5l-1 7 1 1a32 32 0 0 1 0 3 17 17 0 0 1 1 7 5 5 0 0 1-2 2 1 1 0 0 0 0 1l-1 6-1 5-2 40-1 23a27 27 0 0 0 6 3l-1 1a53 53 0 0 0-3 14c-1 9 2 20 16 26a22 22 0 0 0 2 1h7v1l1 7c0 11 3 32 3 32v23s3 5 0 8-4 15-3 17c1 4-3 66-3 66l-6 19c-3 9-5 19-2 21l7 2v1l-1 11c-2 2-3 15-3 22v1a74 74 0 0 0-4 9s-9 24-6 30a5 5 0 0 0 1 2c5 4 17 4 21 5v6h5v-9l1-3v-2a37 37 0 0 0 2-13 59 59 0 0 1 2-16 43 43 0 0 1 3-7s2-9-1-16a11 11 0 0 0-2-3v-2a58 58 0 0 1 1-13l1-1h11s4-22 4-32v-1c0-10 3-23 3-23l3-34s-2-5 0-10l5-10 1-3v-1a6 6 0 0 1-1-1c-1 0-3-2 1-5 7-4 5-15 5-15s-2-3 0-7 0-16 0-16a52 52 0 0 0 5-10 624 624 0 0 0 8-48v2l1 5v1l1 10s2 28 1 39a13 13 0 0 1-1 3c-2 6-2 26-2 31v1l-1 7a5 5 0 0 0 1 2 5 5 0 0 1 1 3 12 12 0 0 1-1 2 27 27 0 0 1-1 5l-2 10a3 3 0 0 0 1 1 3 3 0 0 1 0 1 572 572 0 0 1-3 64l-3 35 2 2v1l-2 10v1a10 10 0 0 0-4 1c-7 13-4 24 0 27l3 6 1 13v1a4 4 0 0 0 0 1v10h4v-7h18a3 3 0 0 0 1 0c2-1 7-15 2-18s-5-12-5-12l-1-3v-12l2-14v-1a17 17 0 0 0 2-1 16 16 0 0 0 4-2l12-55 1-6 8-36s-3-12 0-14l1-8-1-15 5-9c2-4 0-12 0-12l3-20s4-24 14-44c7-15 2-54-2-76l-1-1 8-4 1-1 11-4a75 75 0 0 1 7-3 12 12 0 0 1 3-1c6 0-13-32-13-32zm-135 68h2l-1 1v1l-2 4a183 183 0 0 1 1-6zm-5 26v-1l2-1v2l-1 1v2-2l-1-1z" transform="translate(-42 -21)"/><path fill="#efb7b9" d="m499 263-11 4-4-6-10-17c-5-9 2-22 2-22s1-13 6-18 5 18 5 18c19 8 9 28 9 28l2 8z"/><path d="m499 263-11 4-4-6v-1s7-4 14-2z" opacity=".1"/><path fill="#ff6484" d="m482 307 5-4-3-42s14-9 25 6v12c1 3-3 5 0 7s0 11 0 11l5 7c2 1 4 16 0 19s-12 9-12 12-10 10-10 10l-9-11z"/><path fill="#efb7b9" d="M365 557c-21-8-16-29-12-40a54 54 0 0 1 2-6l12-7 5 14c5 19 12 48-7 39zm27 191a34 34 0 0 0-3 9 61 61 0 0 0-1 14v6l-22 15v-4l3-22 2-11v-8s27-10 21 1zm53 11v10l-1 13v21s-23-21-20-23l1-5 2-10 1-8z"/><path d="M392 748a34 34 0 0 0-3 9 184 184 0 0 1-18-2v-8s27-10 21 1zm53 11v10c-7 1-14-2-18-4l1-8z" opacity=".1"/><path fill="#444053" d="M492 547c-9 20-12 43-12 43l-4 20s2 9 0 12l-5 9s3 21 0 23 0 14 0 14l-8 42-12 54c-11 10-26-2-26-2l3-36s5-62 3-64 1-10 1-10 3-8 1-11 0-9 0-9 0-25 2-31 0-42 0-42l-1-11-1-7-1 6c-1 12-5 36-7 41a54 54 0 0 1-4 11s2 12 0 15-1 8-1 8 3 10-4 14 0 6 0 6l-6 15c-2 5 0 10 0 10l-3 33s-3 14-3 24-4 32-4 32-32 0-37-4 9-40 9-40l3-66c0-1 0-14 3-17s0-7 0-7v-13c1-3-1-11-1-11l-3-32-2-38 2-24 3-9a87 87 0 0 1 6-11s99-29 103-26l5 13c4 21 8 61 1 76z"/><circle cx="431.7" cy="263.5" r="28.7" fill="#a1616a"/><path d="m491 471-6 3s-47 22-60 21h-48a87 87 0 0 1 6-11s99-29 103-26l5 13z" opacity=".1"/><path fill="#ff6484" d="M412 309s-27 5-33 9-19 12-19 29-3 34-4 39 26 46 26 46l-10 61h53c13 1 60-21 60-21s27-14 33-15-11-32-11-32-27-51-23-59l8-21-5-42s-7-3-14 2-27 2-27 2z"/><path d="m367 383-11 3-3 40s4 10 0 13-4 75-4 75 12 9 26 2c0 0-2-8 4-37s6-43 6-43 0-36 3-42 0-20 0-20-6-8-5-11-16 20-16 20z" opacity=".1"/><path d="M372 518a27 27 0 0 1-19 0 54 54 0 0 1 2-7l12-7 5 14z" opacity=".1"/><path fill="#ff6484" d="m366 383-10 3-3 40s3 10 0 13-5 75-5 75 12 9 26 2c0 0-2-8 4-37s7-43 7-43 0-36 3-42 0-20 0-20-6-8-6-11-16 20-16 20z"/><path d="M473 390s-6 46-22 55c0 0 36-10 21-55zm-80 4s20 9 15 16-15-16-15-16zm0 19s12 13 10 17-10-17-10-17zm101-107s5 8 5 14-5-14-5-14zm0-11s2-2 8 0-8 0-8 0zm-24 243a58 58 0 0 1-31-4l-5 14-1-7c1-5 3-10 6-12 0 0 12 9 31 9zm-86 18s26 5 33 4zm3 6s11 0 16 2zm1 5a98 98 0 0 0 15 2zm0 57s21-5 24-2zm0 7s18-2 19 0-19 0-19 0zm0 6s19-4 22-3-22 3-22 3zm1 140-23 15v-4c5-13 12-19 12-19 5-2 8 0 10 2v6z" opacity=".1"/><path fill="#444053" d="M391 790a56 56 0 0 0-5 23 36 36 0 0 1-5 19 18 18 0 0 1-1 2s-16 0-21-4a5 5 0 0 1-2-2c-3-6 6-30 6-30 5-19 15-29 15-29 17-4 13 21 13 21z"/><path d="M381 832a18 18 0 0 1-1 2s-16 0-21-5c2-8 11-35 15-31 4 5 6 25 7 34z" opacity=".1"/><path fill="#444053" d="m379 800-1 40h5s1-35 3-40-7 0-7 0z"/><path d="M444 803s-23-21-20-23l1-5c5-1 12 1 19 19v9z" opacity=".1"/><path fill="#444053" d="M448 827a2 2 0 0 1-1 1h-18a4 4 0 0 1-4-4v-6c0-6-1-13-3-15-4-3-7-13 0-26 0 0 13-10 23 21 0 0 1 9 5 12s0 17-2 17z"/><path d="M447 828h-18a4 4 0 0 1-4-4v-6c2-7 4-15 7-17 0 0 10-1 15 27z" opacity=".1"/><path fill="#444053" d="m423 801 3 33h3v-36l-6 3z"/><path d="M431 218a57 57 0 0 0-25 8l-5 5-1 6c1 17-18 30-18 47 0 7 4 13 4 20 1 12-5 22-12 31a26 26 0 0 0 19-6 138 138 0 0 1 2 70h9a7 7 0 0 1 3 0 7 7 0 0 1 2 2c9 9 15 21 11 33l20-7 13-7c4-3 8-7 9-12 0-3 0-6 3-8a15 15 0 0 1 3-2c6-2 8-8 9-13a79 79 0 0 0 2-21c-1-12-5-24-2-35l6-19c0-11-9-21-10-31-1-8 2-16 1-23a24 24 0 0 0-13-19l-7-3c-6-3-9-9-14-13s-13-5-17 0z" opacity=".1"/><path fill="#925978" d="M431 216a57 57 0 0 0-25 9c-2 1-4 2-5 5l-1 6c1 17-18 30-18 47 0 7 4 13 4 20 1 11-5 22-12 31a26 26 0 0 0 19-6 138 138 0 0 1 2 70h9a7 7 0 0 1 3 0 7 7 0 0 1 2 2c9 8 15 21 11 33l20-8c5-1 9-3 13-6s8-7 9-12c0-3 0-7 3-8a15 15 0 0 1 3-2c6-2 8-8 9-14a79 79 0 0 0 2-20c-1-12-5-24-2-35l6-19c0-11-9-21-10-32-1-7 2-15 1-22a24 24 0 0 0-13-19l-7-3c-6-4-9-9-14-13s-13-5-17 0z"/><path d="M400 231a11 11 0 0 0 0 2v-2zm73 40c0-5 2-10 1-16l-1 16zm-87 27c0-6-3-12-4-18a23 23 0 0 0 0 3c0 7 4 13 4 20a27 27 0 0 0 0-5zm91 24a43 43 0 0 0-1 13 38 38 0 0 1 1-7l6-19a21 21 0 0 0-1-4c0 6-3 12-5 17zm-84 1a26 26 0 0 1-15 6l-4 5a26 26 0 0 0 19-6 138 138 0 0 1 5 38 138 138 0 0 0-5-43zm84 55c-1 6-3 12-9 14a15 15 0 0 0-3 1c-3 2-3 6-3 9-1 5-5 9-9 12l-13 6-19 7a26 26 0 0 1-1 6l20-8c5-1 9-3 13-6s8-7 9-12c0-3 0-7 3-9a15 15 0 0 1 3-1c6-2 8-8 9-14a78 78 0 0 0 2-17 78 78 0 0 1-2 12zm-68 17a7 7 0 0 0-2-2 7 7 0 0 0-3 0h-8l-1 5h9a7 7 0 0 1 3 0 7 7 0 0 1 2 2c6 6 11 14 12 23 1-10-4-21-12-28zm-46 34s8-3 10 0-10 0-10 0zm3 5s8-3 9 0-9 0-9 0z" opacity=".1"/></g><path fill="#007bfc" d="M889 409a14 14 0 1 0 14 14 14 14 0 0 0-14-14zm-42-112v14h14l26 52-11 18a14 14 0 0 0-2 6c0 10 7 15 16 15h83v-14h-82a2 2 0 0 1-1-2 9 9 0 0 1 0-2l8-11h53a14 14 0 0 0 12-7l26-45a8 8 0 0 0 1-3 7 7 0 0 0-7-7H877l-7-14zm112 112a14 14 0 1 0 14 14 14 14 0 0 0-14-14z"/><path fill="#fff" d="M941 336h-12v-12h-9v12h-12v9h12v12h9v-12h12v-9z"/></svg>