<?xml version="1.0" encoding="UTF-8"?>
<svg data-name="Layer 1" version="1.1" viewBox="0 0 1077.4 752.86" xmlns="http://www.w3.org/2000/svg">
<path d="M833.082 473.432l15.975-11.104 33.11-42.618a5.803 5.803 0 00-1.023-8.142A5.803 5.803 0 00873 412.59l-33.11 42.618zM975.678 68.288s-20.09-18.013-47.11 15.934-69.279 50.574-78.978 63.737c0 0 40.182-16.627 54.038-23.555s13.163-5.542 13.163-5.542-18.705 13.163-22.17 26.326-.692 24.247-6.927 37.41 119.16 9.007 119.16 9.007 12.47-21.477 9.006-43.646-1.386-76.9-40.182-79.671z" fill="#2f2e41"/>
<path d="m936.19 121.63s4.849 33.947-15.935 41.567-13.163 18.013-13.163 18.013l31.175 15.241 33.254-10.392 11.085-16.627s-18.012-4.156-13.163-16.627 6.235-16.627 6.235-16.627z" fill="#ffb9b9"/>
<path d="m936.19 121.63s4.849 33.947-15.935 41.567-13.163 18.013-13.163 18.013l31.175 15.241 33.254-10.392 11.085-16.627s-18.012-4.156-13.163-16.627 6.235-16.627 6.235-16.627z" opacity=".1"/>
<path d="m1023.5 218.62s-4.849 63.736-3.463 66.507 0 99.07 0 99.07 9.699 51.959-2.771 54.73-9.7-58.194-9.7-58.194l-12.47-80.364 1.386-79.671z" fill="#ffb9b9"/>
<path d="m1023.5 218.62s-4.849 63.736-3.463 66.507 0 99.07 0 99.07 9.699 51.959-2.771 54.73-9.7-58.194-9.7-58.194l-12.47-80.364 1.386-79.671z" opacity=".1"/>
<path d="m888.39 410.53s-22.863 86.599-22.17 128.86 9.7 101.15 9.7 101.15 1.385 25.634-0.694 28.405 10.392 14.548 10.392 14.548l13.163-7.62 4.85-5.543v-4.85s-7.62-23.554-1.386-42.26 9.7-65.815 3.464-80.363l42.953-127.47z" fill="#ffb9b9"/>
<path d="m887 672.4s-8.313-10.392-13.855-6.928-14.548 27.019-14.548 27.019-31.176 29.79-9.007 31.175 31.869-6.235 34.64-11.777 28.404-20.091 28.404-20.091-2.771-26.326-6.928-27.02-10.392 10.393-10.392 10.393z" fill="#2f2e41"/>
<path d="m963.9 416.07v85.906a265.62 265.62 0 0 0 2.08 31.176c2.077 15.241-11.778 128.86-11.778 128.86l1.385 20.09 17.32-1.385 2.078-17.32 24.94-76.207s8.314-46.417 4.158-63.736 21.476-128.17 21.476-128.17z" fill="#ffb9b9"/>
<path d="m950.04 677.25 5.13-1.115s3.876-8.584 8.726-6.506a52.3 52.3 0 0 1 9.643 5.778l2.134 3.921s4.85 10.392 11.085 17.32 13.163 22.17 2.771 23.555-24.248 2.079-28.404-1.385-1.386-9.007-5.543-10.392-7.62-5.543-6.928-6.928 1.386-24.248 1.386-24.248z" fill="#2f2e41"/>
<circle cx="963.9" cy="114.7" r="33.254" fill="#ffb9b9"/>
<path d="m905.71 168.74 9.151-3.195s-3.608 5.966 15.79 9.43 39.487 4.69 48.494-6.661c0 0 3.465-1.653 8.315 3.197s7.62 3.464 7.62 3.464l-3.464 18.012-6.928 33.254-9.006 24.94-25.633-5.541-27.712-20.091-10.392-27.02v-24.94z" fill="#007bfc"/>
<path d="m990.23 178.44 6.928-4.85s23.555 4.157 24.94 15.242l-18.012 34.64a39.437 39.437 0 0 1-0.693 29.79c-6.928 15.933-6.235 19.397-6.235 19.397l-4.85 20.784-87.984 6.928s-3.464-8.314-4.85-9.7-1.385-6.234 0-6.234 0-2.079-1.385-4.157-2.079-2.771 0-5.542-3.464-27.712-3.464-27.712v-27.019l-23.555-31.175s8.313-12.47 12.47-13.856 23.93-6.85 23.93-6.85l4.474 6.588 6.235 50.143 9.007 30.482 37.92-6.443 14.732-24.732 9.699-29.097z" fill="#007bfc"/>
<path d="m1016.6 184.68 5.542 4.157s4.85 38.796 3.464 41.567-25.633 5.542-26.326 4.157 17.32-49.881 17.32-49.881z" fill="#007bfc"/>
<path d="m866.22 226.94s4.85 63.737 3.464 66.508 0 99.07 0 99.07-9.699 51.958 2.771 54.73 9.7-58.195 9.7-58.195l12.47-80.364-1.386-79.67z" fill="#ffb9b9"/>
<path d="m902.24 165.28 6.928 45.724s-6.235 67.893-4.85 81.75l1.386 4.156s-2.77-1.386-3.464 1.386 0 11.777 0 11.777-4.156 4.157-5.542 27.019-18.013 77.592-11.777 79.67 43.645 12.471 63.736 10.393 92.141-26.326 91.449-32.562-35.333-94.22-35.333-94.22-6.235-10.39-6.235-11.777 8.314-6.927 6.235-12.47-13.163-63.737-13.163-63.737l7.621-41.567-10.392-2.771-7.62 40.182s-29.79 14.548-60.966 1.385l-6.928-47.11z" fill="#2f2e41"/>
<path d="m876.61 186.76-5.543 2.079s-10.392 43.645-7.621 43.645 36.025 4.157 36.025 2.772-6.235-35.333-6.235-35.333z" fill="#007bfc"/>
<path d="m937.58 85.608s51.266 35.332 65.122 19.398-24.248-29.79-24.248-29.79l-31.868-3.464z" fill="#2f2e41"/>
<path d="M139.613 0v676h581V0zm31 620a10 10 0 1110-10 10 10 0 01-10 10zm0-49a10 10 0 1110-10 10 10 0 01-10 10zm0-48a10 10 0 1110-10 10 10 0 01-10 10zm0-49a10 10 0 1110-10 10 10 0 01-10 10zm0-49a10 10 0 1110-10 10 10 0 01-10 10zm0-48a10 10 0 1110-10 10 10 0 01-10 10zm0-49a10 10 0 1110-10 10 10 0 01-10 10zm0-49a10 10 0 1110-10 10 10 0 01-10 10zm0-48a10 10 0 1110-10 10 10 0 01-10 10zm0-49a10 10 0 1110-10 10 10 0 01-10 10zm0-49a10 10 0 1110-10 10 10 0 01-10 10zm0-47a10 10 0 1110-10 10 10 0 01-10 10z" fill="#f2f2f2"/>
<path d="M720.613 51.338v-2H208.369V0h-2v49.338h-66.756v2h66.756V98h-66.756v2h66.756v46.662h-66.756v2h66.756v46.661h-66.756v2h66.756v46.661h-66.756v2h66.756v46.662h-66.756v2h66.756v46.661h-66.756v2h66.756v46.662h-66.756v2h66.756v46.661h-66.756v2h66.756v46.661h-66.756v2h66.756v46.662h-66.756v2h66.756v46.661h-66.756v2h66.756v46.661h-66.756v2h66.756V676h2v-40.725h512.244v-2H208.369v-46.661h512.244v-2H208.369v-46.661h512.244v-2H208.369v-46.662h512.244v-2H208.369V440.63h512.244v-2H208.369v-46.661h512.244v-2H208.369v-46.662h512.244v-2H208.369v-46.661h512.244v-2H208.369v-46.662h512.244v-2H208.369v-46.661h512.244v-2H208.369v-46.661h512.244v-2H208.369V100h512.244v-2H208.369V51.338h512.244z" fill="#3f3d56" opacity=".3"/>
</svg>
