<svg xmlns="http://www.w3.org/2000/svg" data-name="Layer 1" viewBox="0 0 863 551"><path fill="#e6e6e6" d="M0 15h532v252H0z" data-name="Rectangle 62"/><path fill="#fff" d="M15 36h502v211H15z" data-name="Rectangle 75"/><path fill="#007bfc" d="M0 0h532v23H0z" data-name="Rectangle 80"/><path fill="#3f3d56" d="M492 204H244a1 1 0 0 1-1-1V84a1 1 0 0 1 1 0v119h248a1 1 0 0 1 0 1z"/><path fill="#007bfc" d="M297 196h-23a2 2 0 0 1-2-3v-31a2 2 0 0 1 2-2h23a2 2 0 0 1 2 2v31a2 2 0 0 1-2 3zm41 0h-23a2 2 0 0 1-2-3v-60a2 2 0 0 1 2-3h23a2 2 0 0 1 2 3v60a2 2 0 0 1-2 3zm41 0h-22a2 2 0 0 1-3-3v-31a2 2 0 0 1 3-2h22a2 2 0 0 1 3 2v31a2 2 0 0 1-3 3zm42 0h-23a2 2 0 0 1-2-3v-72a2 2 0 0 1 2-2h23a2 2 0 0 1 2 2v72a2 2 0 0 1-2 3zm41 0h-23a2 2 0 0 1-2-3v-93a2 2 0 0 1 2-2h23a2 2 0 0 1 2 2v93a2 2 0 0 1-2 3z"/><circle cx="285.5" cy="145.8" r="4.7" fill="#3f3d56"/><circle cx="326.7" cy="115.5" r="4.7" fill="#3f3d56"/><circle cx="368" cy="145.8" r="4.7" fill="#3f3d56"/><circle cx="409.2" cy="100.7" r="4.7" fill="#3f3d56"/><circle cx="450.5" cy="83.5" r="4.7" fill="#3f3d56"/><path fill="#3f3d56" d="m368 147-41-31-41 30-1-1 42-31 41 31 41-45 41-17 1 2-41 16-42 46z"/><path fill="#e6e6e6" d="M72 62h71v5H72z"/><path fill="#007bfc" d="M72 78h109v5H72z"/><path fill="#e6e6e6" d="M73 92h89v6H73zm-1 17h52v5H72z"/><path fill="#007bfc" d="M72 125h78v5H72z"/><path fill="#e6e6e6" d="M40 60h9v9h-9z"/><path fill="#007bfc" d="M40 76h9v9h-9z"/><path fill="#e6e6e6" d="M40 91h9v8h-9zm0 16h9v9h-9z"/><path fill="#007bfc" d="M40 123h9v9h-9z"/><path fill="#e6e6e6" d="M72 141h71v5H72z"/><path fill="#007bfc" d="M72 156h109v5H72zm-32-1h9v8h-9z"/><path fill="#2f2e41" d="M646 163c3-10 9-18 19-22 9-3 25 0 30 9 6 13 3 29 0 43a345 345 0 0 0-5-1l-3-8v8h-43c-1-9-1-20 2-29z"/><path fill="#ffb7b7" d="m773 524-11 5-25-43 17-7 19 45z"/><path fill="#2f2e41" d="m781 534-38 16v-1a16 16 0 0 1 9-20l23-10z"/><path fill="#ffb7b7" d="M602 322a9 9 0 0 1 3-13l26-76 16 9-30 72a9 9 0 0 1-15 8zm31 216h-13l-6-49h19v49z"/><path fill="#2f2e41" d="M636 550h-41v-1a16 16 0 0 1 16-15h25z"/><path fill="#ffb7b7" d="m684 260 2 7v8l-55-7 2-7 6-7 45 6z"/><circle cx="665.9" cy="172.5" r="20.1" fill="#ffb8b8"/><path fill="#ccc" d="m687 268-55-6-2-8c-1-1-8-11-6-21a17 17 0 0 1 7-11l13-16 12-6 23-3 21 5v38z"/><path fill="#ccc" d="m634 272-16-2v-1c0-1 4-41 7-50 4-10 19-12 19-13h1l3 2-9 29z"/><path fill="#2f2e41" d="M686 272v13s15 19 7 34c0 0 18 32 19 43l16 53s40 41 37 69l2 9-27 12-5-8-45-77-38-70-7 83s5 64-8 71l-1 10h-27v-10s-10-35-4-61l-2-112s10-47 23-55l4-11z"/><path fill="#ffb7b7" d="M667 298a9 9 0 0 1 2 1l35-25-1-10 15-3 4 18a7 7 0 0 1-4 7l-44 22a9 9 0 1 1-7-10z"/><path fill="#ccc" d="m703 276-7-48-6-24 9-2s8-3 13 1c4 3 7 8 7 16l2 54z"/><path fill="#2f2e41" d="M652 146a25 25 0 0 1 38 22l-35 1-2-7-2 7h-11a26 26 0 0 1 12-23z"/></svg>