<?xml version="1.0" encoding="UTF-8"?>
<svg data-name="Layer 1" version="1.1" viewBox="0 0 863.36 551.17" xmlns="http://www.w3.org/2000/svg">
<path d="M.227 14.583h531.924V266.99H.227z" fill="#e6e6e6" data-name="Rectangle 62"/>
<path d="m15.437 36.227h501.5v210.59h-501.5z" fill="#fff" data-name="Rectangle 75"/>
<path d="M0 0h531.924v22.598H0z" fill="#007bfc" data-name="Rectangle 80"/>
<path d="M492.323 204.167H243.664a.778.778 0 01-.778-.778V84.207a.778.778 0 011.557 0V202.61h247.88a.778.778 0 010 1.556z" fill="#3f3d56"/>
<path d="M296.792 195.607h-22.616a2.313 2.313 0 01-2.31-2.31V162.12a2.313 2.313 0 012.31-2.31h22.616a2.313 2.313 0 012.31 2.31v31.177a2.313 2.313 0 01-2.31 2.31zM338.036 195.607H315.42a2.313 2.313 0 01-2.31-2.31V132.55a2.313 2.313 0 012.31-2.31h22.616a2.313 2.313 0 012.31 2.31v60.748a2.313 2.313 0 01-2.31 2.31zM379.28 195.607h-22.616a2.313 2.313 0 01-2.31-2.31V162.12a2.313 2.313 0 012.31-2.31h22.616a2.313 2.313 0 012.31 2.31v31.177a2.313 2.313 0 01-2.31 2.31zM420.524 195.607h-22.616a2.262 2.262 0 01-2.31-2.205v-72.63a2.262 2.262 0 012.31-2.206h22.616a2.262 2.262 0 012.31 2.206v72.63a2.262 2.262 0 01-2.31 2.205zM461.768 195.607h-22.616a2.313 2.313 0 01-2.31-2.31V99.865a2.313 2.313 0 012.31-2.31h22.616a2.313 2.313 0 012.31 2.31v93.432a2.313 2.313 0 01-2.31 2.31z" fill="#007bfc"/>
<circle cx="285.48" cy="145.8" r="4.669" fill="#3f3d56"/>
<circle cx="326.73" cy="115.45" r="4.669" fill="#3f3d56"/>
<circle cx="367.97" cy="145.8" r="4.669" fill="#3f3d56"/>
<circle cx="409.22" cy="100.67" r="4.669" fill="#3f3d56"/>
<circle cx="450.46" cy="83.548" r="4.669" fill="#3f3d56"/>
<path d="M368.07 146.849l-41.342-30.966-40.778 30.543-.933-1.246 41.711-31.242 41.145 30.819 40.888-44.744.164-.067 41.244-16.618.582 1.444-41.08 16.551-41.601 45.526z" fill="#3f3d56"/>
<path d="M72.127 61.967h70.631v5.309H72.127z" fill="#e6e6e6"/>
<path d="m72.127 77.552h109.07v5.309h-109.07z" fill="#007bfc"/>
<path d="M73.261 92.394h88.889v5.309H73.261zM72.127 108.68h51.892v5.309H72.127z" fill="#e6e6e6"/>
<path d="m72.127 124.59h78.318v5.309h-78.318z" fill="#007bfc"/>
<path d="m39.935 60.297h8.649v8.649h-8.649z" fill="#e6e6e6"/>
<path d="m39.935 75.882h8.649v8.649h-8.649z" fill="#007bfc"/>
<path d="m39.935 90.724h8.649v8.649h-8.649zm0 16.286h8.649v8.649h-8.649z" fill="#e6e6e6"/>
<path d="m39.935 122.92h8.649v8.649h-8.649z" fill="#007bfc"/>
<path d="m72.127 140.59h70.631v5.309h-70.631z" fill="#e6e6e6"/>
<path d="m72.127 156.18h109.07v5.309h-109.07z" fill="#007bfc"/>
<path d="m39.935 154.51h8.649v8.649h-8.649z" fill="#007bfc"/>
<path d="M645.58 162.802c2.975-9.481 9.74-18.177 19.096-21.382 9.357-3.205 25.68-.21 30.092 8.688 6.36 12.822 3.503 28.525.13 42.448a344.823 344.823 0 00-5.312-.233l-2.518-8.391v8.308c-13.89-.43-28.352-.16-42.821.117-1.297-9.856-1.643-20.073 1.332-29.555z" fill="#2f2e41"/>
<path d="m773.22 524.09-11.686 4.897-24.449-42.74 17.246-7.228 18.889 45.071z" fill="#ffb7b7"/>
<path d="M780.946 534.168l-37.678 15.79-.2-.476a15.902 15.902 0 018.52-20.812l23.012-9.644z" fill="#2f2e41"/>
<path d="M601.859 322.194a8.766 8.766 0 013.556-12.962l25.116-75.786 16.82 8.971-29.977 71.674a8.813 8.813 0 01-15.515 8.103zM632.825 537.677l-12.67-.001-6.027-48.869 18.699.001-.002 48.869z" fill="#ffb7b7"/>
<path d="m636.06 549.96-40.853-1e-3v-0.517a15.902 15.902 0 0 1 15.901-15.9h24.953z" fill="#2f2e41"/>
<path d="m683.62 259.72 2.871 7.464-0.574 7.464-55.119-6.889 1.723-6.316 6.315-7.464 44.784 5.741z" fill="#ffb7b7"/>
<circle cx="665.86" cy="172.48" r="20.067" fill="#ffb8b8"/>
<path d="M686.799 267.72l-54.657-5.815-2.368-7.744c-.736-1.009-7.673-10.84-6.135-20.67a17.118 17.118 0 017.395-11.462l13.29-15.56 11.69-6.959 23.047-2.304.08.018 20.69 4.682-.25 37.928z" fill="#ccc"/>
<path d="M633.519 271.739l-15.313-1.818.04-.481c.14-1.691 3.49-41.514 6.92-50.66 3.503-9.344 18.68-12.255 19.324-12.374l.186-.034 3.372 2.024-9.307 29.085z" fill="#ccc"/>
<path d="m686.49 271.78v12.753s14.928 19.4 6.89 34.327c0 0 17.225 32.153 18.373 43.636l16.076 52.823s40.191 40.19 36.746 68.898l2.297 9.187-26.411 11.483-5.742-8.038-44.784-76.937-37.894-70.047-6.89 82.678s4.593 64.306-8.038 71.196l-1.149 10.335h-26.804v-9.824s-9.941-34.96-4.2-61.372l-2.297-111.39s10.335-47.08 22.967-55.12l4.593-11.482z" fill="#2f2e41"/>
<path d="M667.406 298.146a9.028 9.028 0 011.358.42l35.032-24.114-.802-10.3 15.387-3.242 3.192 18.098a6.86 6.86 0 01-3.722 7.344l-43.394 21.4a9.002 9.002 0 11-7.051-9.606z" fill="#ffb7b7"/>
<path d="m703.46 275.78-7.13-47.568-5.853-24.573 8.745-1.827c0.238-0.089 7.358-2.496 13.107 1.38 4.138 2.79 6.43 8.083 6.812 15.734l2.317 54.43z" fill="#ccc"/>
<path d="M652.07 146.354a25.205 25.205 0 0138.32 21.997c-11.216.516-23 .65-34.947.674l-2.824-6.911-1.665 6.916q-5.46 0-10.942-.015a25.735 25.735 0 0112.059-22.66z" fill="#2f2e41"/>
</svg>
