<svg xmlns="http://www.w3.org/2000/svg" width="945" height="583.2" data-name="Layer 1"><path fill="#f1f1f1" d="M731 355H467a8 8 0 0 1-8-8v-89a8 8 0 0 1 8-8h264a8 8 0 0 1 8 8v89a8 8 0 0 1-8 8z"/><path fill="#007bfc" d="M500 274h70v8h-70z"/><circle cx="662.7" cy="278.7" r="4.8" fill="#007bfc"/><circle cx="678.6" cy="278.7" r="4.8" fill="#007bfc"/><circle cx="694.5" cy="278.7" r="4.8" fill="#007bfc"/><path fill="#f1f1f1" d="M731 468H467a8 8 0 0 1-8-8v-89a8 8 0 0 1 8-8h264a8 8 0 0 1 8 8v89a8 8 0 0 1-8 8z"/><path fill="#007bfc" d="M500 387h70v8h-70z"/><circle cx="662.7" cy="391.7" r="4.8" fill="#007bfc"/><circle cx="678.6" cy="391.7" r="4.8" fill="#007bfc"/><circle cx="694.5" cy="391.7" r="4.8" fill="#007bfc"/><path fill="#f1f1f1" d="M731 581H467a8 8 0 0 1-8-8v-89a8 8 0 0 1 8-8h264a8 8 0 0 1 8 8v89a8 8 0 0 1-8 8z"/><path fill="#007bfc" d="M500 500h70v8h-70z"/><circle cx="662.7" cy="504.8" r="4.8" fill="#007bfc"/><circle cx="678.6" cy="504.8" r="4.8" fill="#007bfc"/><circle cx="694.5" cy="504.8" r="4.8" fill="#007bfc"/><path fill="#3f3d56" d="M632 163h-1a4 4 0 0 0-5 0l-59 81h-7v-2a1 1 0 0 0-1-1h-4a1 1 0 0 0-2 1v2h-2v-2a1 1 0 0 0-1-1h-4a1 1 0 0 0-2 1v2h-2v-2a1 1 0 0 0-1-1h-4a1 1 0 0 0-2 1v2h-2v-2a1 1 0 0 0-1-1h-4a1 1 0 0 0-2 1v2h-2v-2a1 1 0 0 0-1-1h-4a1 1 0 0 0-2 1v2h-2v-2a1 1 0 0 0-1-1h-4a1 1 0 0 0-2 1v2h-2v-2a1 1 0 0 0-1-1h-4a1 1 0 0 0-2 1v2h-2v-2a1 1 0 0 0-1-1h-4a1 1 0 0 0-2 1v2h-2v-2a1 1 0 0 0-1-1h-4a1 1 0 0 0-2 1v2h-2v-2a1 1 0 0 0-1-1h-4a1 1 0 0 0-2 1v2h-3a4 4 0 0 0-3 3v4a4 4 0 0 0 3 3h97a5 5 0 0 0 5-4l61-82a4 4 0 0 0 0-5z"/><path fill="#ffb7b7" d="m256 551 12 6 29-43-18-10-23 47z"/><path fill="#2f2e41" d="m254 545 24 12a17 17 0 0 1 7 23v1l-39-20z"/><path fill="#ffb7b7" d="M394 568h14l6-52h-20v52z"/><path fill="#2f2e41" d="M391 563h26a17 17 0 0 1 17 17v1h-43zm-60-420s-9-7-9 10l-1 56 16 53 9-18-4-37zm97 153s10 51-3 93l-7 161-27-2-10-120-9-59-19 54-62 115-28-23s31-86 55-105l12-134z"/><circle cx="523.5" cy="202.3" r="30.7" fill="#ffb7b7" transform="rotate(-61 326 231)"/><path fill="#2f2e41" d="M394 50c3 1 6-3 8-6s2-8 5-10c4-2 10 1 15 0 6-1 9-7 10-13s-2-11-5-16v6a13 13 0 0 0-6-11l1 10a10 10 0 0 0-12-9v6c-6-1-13-2-19-1s-13 3-18 7c-8 6-10 17-10 27s5 19 10 28c1 2 2 4 5 5 2 0 4-2 4-4a13 13 0 0 0 0-7V52c1-4 3-6 6-7s7 4 5 7z"/><path fill="#cbcbcb" d="m430 309-103-6 8-32 94 21 1 17z"/><path fill="#2f2e41" d="m367 86 6-9 26 12 2 8 33 206-60-3h-17l-5-13-7 12h-16l-17-10 17-49 5-45-8-43s-10-39 29-60z"/><path fill="#ffb7b7" d="M503 241a10 10 0 0 1-13-9l-36-10 15-13 32 11a11 11 0 0 1 2 21z"/><path fill="#2f2e41" d="M487 236a6 6 0 0 1-5 0l-59-22a63 63 0 0 1-34-29l-25-44a20 20 0 1 1 30-26l43 67 53 32a6 6 0 0 1 3 6l-3 12a6 6 0 0 1-2 3 6 6 0 0 1-1 1z"/></svg>