<svg xmlns="http://www.w3.org/2000/svg" data-name="Layer 1" width="945" height="583.224"><path d="M731.16 355.093H466.834a7.97 7.97 0 01-7.962-7.962v-89.17a7.97 7.97 0 017.962-7.961h264.324a7.97 7.97 0 017.962 7.962v89.17a7.97 7.97 0 01-7.962 7.96z" fill="#f1f1f1"/><path fill="#007bfc" d="M500.274 273.885h70.062v7.962h-70.062z"/><circle cx="662.69" cy="278.662" r="4.777" fill="#007bfc"/><circle cx="678.613" cy="278.662" r="4.777" fill="#007bfc"/><circle cx="694.536" cy="278.662" r="4.777" fill="#007bfc"/><path d="M731.16 468.147H466.834a7.97 7.97 0 01-7.962-7.962v-89.17a7.97 7.97 0 017.962-7.96h264.324a7.97 7.97 0 017.962 7.96v89.17a7.97 7.97 0 01-7.962 7.962z" fill="#f1f1f1"/><path fill="#007bfc" d="M500.274 386.939h70.062v7.962h-70.062z"/><circle cx="662.69" cy="391.716" r="4.777" fill="#007bfc"/><circle cx="678.613" cy="391.716" r="4.777" fill="#007bfc"/><circle cx="694.536" cy="391.716" r="4.777" fill="#007bfc"/><path d="M731.16 581.201H466.834a7.97 7.97 0 01-7.962-7.961v-89.17a7.97 7.97 0 017.962-7.961h264.324a7.97 7.97 0 017.962 7.961v89.17a7.97 7.97 0 01-7.962 7.961z" fill="#f1f1f1"/><path fill="#007bfc" d="M500.274 499.993h70.062v7.962h-70.062z"/><circle cx="662.69" cy="504.77" r="4.777" fill="#007bfc"/><circle cx="678.613" cy="504.77" r="4.777" fill="#007bfc"/><circle cx="694.536" cy="504.77" r="4.777" fill="#007bfc"/><path d="M631.512 162.927l-.293-.216-.007-.006a3.576 3.576 0 00-5.003.74l-59.496 80.105h-6.545v-1.538a1.43 1.43 0 00-1.43-1.43h-3.906a1.43 1.43 0 00-1.43 1.43v1.538h-2.261v-1.538a1.43 1.43 0 00-1.43-1.43h-3.906a1.43 1.43 0 00-1.43 1.43v1.538h-2.253v-1.538a1.43 1.43 0 00-1.431-1.43h-3.905a1.43 1.43 0 00-1.43 1.43v1.538h-2.261v-1.538a1.43 1.43 0 00-1.43-1.43h-3.906a1.43 1.43 0 00-1.43 1.43v1.538h-2.254v-1.538a1.43 1.43 0 00-1.43-1.43h-3.905a1.43 1.43 0 00-1.43 1.43v1.538h-2.261v-1.538a1.43 1.43 0 00-1.43-1.43h-3.906a1.43 1.43 0 00-1.43 1.43v1.538h-2.26v-1.538a1.43 1.43 0 00-1.431-1.43h-3.906a1.43 1.43 0 00-1.43 1.43v1.538h-2.253v-1.538a1.43 1.43 0 00-1.43-1.43h-3.906a1.43 1.43 0 00-1.43 1.43v1.538h-2.26v-1.538a1.43 1.43 0 00-1.431-1.43h-3.906a1.43 1.43 0 00-1.43 1.43v1.538h-2.253v-1.538a1.43 1.43 0 00-1.43-1.43h-3.906a1.43 1.43 0 00-1.43 1.43v1.538h-2.833a3.576 3.576 0 00-3.576 3.576v3.412a3.576 3.576 0 003.576 3.576h96.762a5.33 5.33 0 005.217-4.247l.037.028 60.871-81.958.006-.007a3.577 3.577 0 00-.74-5.003z" fill="#3f3d56"/><path fill="#ffb7b7" d="M255.504 550.825l12.019 6.151 29.443-43.432-17.738-9.078-23.724 46.359z"/><path d="M254.446 545.332l23.67 12.113h.001a16.946 16.946 0 017.364 22.805l-.25.49-38.755-19.833z" fill="#2f2e41"/><path fill="#ffb7b7" d="M394.317 567.652h13.502l6.423-52.077h-19.927l.002 52.077z"/><path d="M390.873 563.244h26.59a16.946 16.946 0 0116.945 16.944v.55l-43.534.002zM331.163 142.873s-9.041-6.927-9.041 9.993l-1.428 55.912 15.941 52.82 9.28-17.13-3.808-37.117zM427.877 295.804s10.485 51.058-2.795 92.96l-7.34 161.107-26.909-2.097-9.436-119.52-9.086-59.41-18.871 54.168-62.207 114.627-28.656-22.366s31.756-86.65 55.216-104.842L329.56 276.42z" fill="#2f2e41"/><circle cx="523.48" cy="202.314" r="30.683" transform="rotate(-61.337 326.185 230.622)" fill="#ffb7b7"/><path d="M393.809 50.434c3.678.478 6.452-3.285 7.74-6.764s2.266-7.528 5.464-9.407c4.37-2.568 9.96.52 14.955-.327 5.642-.956 9.31-6.936 9.598-12.651s-1.987-11.213-4.218-16.482l-.78 6.549A12.987 12.987 0 00420.893 0l1.004 9.61a10.199 10.199 0 00-11.733-8.44l.158 5.726c-6.516-.775-13.09-1.551-19.626-.96s-13.117 2.658-18.071 6.962c-7.41 6.439-10.116 17.04-9.208 26.815s4.944 18.957 9.149 27.827c1.058 2.232 2.521 4.75 4.975 5.035 2.204.255 4.221-1.588 4.907-3.698a13.404 13.404 0 00-.06-6.585c-.62-3.295-1.401-6.662-.818-9.963s2.957-6.564 6.285-6.969 6.734 3.4 5.134 6.346z" fill="#2f2e41"/><path fill="#cbcbcb" d="M429.776 309.458l-102.419-6.608 7.709-31.937 93.608 20.925 1.102 17.62z"/><path d="M366.614 85.77l6.424-8.918s7.18 2.44 26.41 12.011l1.358 8.357 33.379 205.301-60.671-2.617-16.522-.351-5.407-12.12-6.667 11.863-16.134-.344-16.417-9.517 16.179-49.488 5.234-45.206-8.09-42.59s-10.179-39.108 29.028-60.194z" fill="#2f2e41"/><path d="M503.363 241.185a10.486 10.486 0 01-13.041-9.406l-35.995-9.64 14.48-12.858 31.961 11.127a10.543 10.543 0 012.595 20.777z" fill="#ffb7b7"/><path d="M487.241 235.742a6.142 6.142 0 01-4.987.396l-59.213-22.474a63.227 63.227 0 01-34.032-28.684l-24.693-44.05a19.765 19.765 0 1129.491-26.322l42.74 67.741 53.787 31.535a6.155 6.155 0 012.617 6.546l-2.675 11.334a6.143 6.143 0 01-1.866 3.15 6.074 6.074 0 01-1.169.828z" fill="#2f2e41"/></svg>