<svg xmlns="http://www.w3.org/2000/svg" xml:space="preserve" data-name="Layer 1" viewBox="0 0 1041 554"><path fill="#f2f2f2" d="m961 438-3 8-5 11-3 4-23 46a73 73 0 0 1-64 39l-152 2h-61l-17 1h-1l-107 1-95 1h-11l-69 1h-46l-141 2h-42a88 88 0 0 1-11 0l-4-1a87 87 0 0 1-51-28c-18-20-32-43-40-68l-4-11c-31-105 7-239 74-329l9-11c21-25 44-47 69-62 44-27 93-34 141-12a315 315 0 0 0 126 31c84 3 163-27 256-47l11-2C763 1 836-6 924 8a189 189 0 0 1 26 7q6 1 11 4c42 17 65 48 74 87l3 11c17 95-33 228-77 321z"/><path fill="#65617d" d="M863 534v13l-152 1h-1l-58 1h-20l-107 1-175 1-45 1h-1l-198 2v-15l47-28 93-1h5l45-1h55l278-2h12l38-1h53l75-1 56 29z"/><path d="M863 534v13l-152 1h-1l-58 1h-20l-107 1-175 1-45 1h-1l-198 2v-15l47-28 93-1h5l45-1h55l278-2h12l38-1h53l75-1 56 29z" opacity=".2"/><path fill="#3f3d56" d="M296 484v24a6 6 0 0 1-3 6 6 6 0 0 1-3 0l-35 1a6 6 0 0 1-2-1 6 6 0 0 1-4-5v-25z"/><path d="M296 484v24a6 6 0 0 1-3 6 6 6 0 0 1-3 0l-35 1a6 6 0 0 1-2-1 6 6 0 0 1-4-5v-25z" opacity=".1"/><path fill="#3f3d56" d="M298 484v24a6 6 0 0 1-3 6 6 6 0 0 1-3 0l-35 1a6 6 0 0 1-2-1 6 6 0 0 1-4-5v-25zm383 0h47v31h-47z"/><path d="M681 484h47v31h-47z" opacity=".1"/><path fill="#3f3d56" d="M679 484h47v31h-47z"/><path d="M298 484v5l-47 1v-6h47z" opacity=".1"/><path fill="#65617d" d="M381 312v169a4 4 0 0 1-3 4l-192 5a4 4 0 0 1-4-4V312a4 4 0 0 1 4-4h191a4 4 0 0 1 4 4z"/><path d="M186 308v182a4 4 0 0 1-4-4V312a4 4 0 0 1 4-4z" opacity=".1"/><path fill="#007bfc" d="M195 319h177v148l-177 4V319z"/><path d="M726 484v6l-47-1v-5h47z" opacity=".1"/><path fill="#65617d" d="M788 312v174a4 4 0 0 1-4 4l-191-5a4 4 0 0 1-4-4V312a4 4 0 0 1 4-4h191a4 4 0 0 1 4 4z"/><path d="M788 312v174a4 4 0 0 1-4 4V308a4 4 0 0 1 4 4z" opacity=".1"/><path fill="#007bfc" d="M776 319H598v148l178 4V319z"/><path fill="#65617d" d="M584 312v169a4 4 0 0 1-4 4l-192 5a4 4 0 0 1-4-4V312a4 4 0 0 1 4-4h192a4 4 0 0 1 4 4z"/><path fill="#007bfc" d="M397 319h178v148l-178 4V319z"/><path d="M863 534v13l-152 1h-1l-58 1h-20l-107 1-175 1-45 1h-1l-198 2v-15l203-2h41l283-2h87l143-1z" opacity=".1"/><circle cx="487.3" cy="298.1" r="51.3" fill="#fbbebe"/><path fill="#fbbebe" d="M539 377s-100 12-90 0c3-4 4-17 4-32l-1-13-3-44s87-41 77-8c-4 13-3 31 0 49l3 14a345 345 0 0 0 10 34z"/><path fill="#ff6584" d="M506 373c12-2 24-6 35-1l8 3 9 2c11 3 20 11 25 20s9 20 11 31l7 26c6 22 12 45 14 68a2438 2438 0 0 1-251 2c5-11 11-22 10-33s-7-24-4-35c1-7 6-14 9-20 9-20 2-46 18-61 6-7 17-9 26-9l37 6c16 3 30 4 46 1z"/><path d="M637 484v4l-2 19-1 22-1 6-1 14-107 1-175 2v1-16l1-28 1-24v-2a11 11 0 0 1 11-10l18 1h3a1619 1619 0 0 0 241-1 11 11 0 0 1 12 11z" opacity=".1"/><path fill="#3f3d56" d="M350 553v-1l175-2 107-1h1l1-14v-6l2-22 1-18v-1a11 11 0 0 0 0-2 10 10 0 0 0-2-5 11 11 0 0 0-10-4 937 937 0 0 1-36 3h-5c-79 5-157 1-200-2h-3l-18-1a11 11 0 0 0-11 8 11 11 0 0 0 0 2l-1 22-1 28v16z"/><path d="m637 491-1 16-2 22v6l-1 13v2-1h-1l-107 1-175 2v-15l1-28 1-19a6 6 0 0 1 3-5 6 6 0 0 1 4-1 996 996 0 0 0 73 4 1563 1563 0 0 0 198-4 6 6 0 0 1 4 1 5 5 0 0 1 1 1 6 6 0 0 1 2 2 4 4 0 0 1 0 1 6 6 0 0 1 0 2zm-339 14v3a6 6 0 0 1-3 6h-40a6 6 0 0 1-4-5v-3z" opacity=".1"/><path fill="#3f3d56" d="m299 516-53 1v-9l53-1v9z"/><path d="m299 516-53 1v-9l53-1v9z" opacity=".1"/><path fill="#3f3d56" d="m301 516-53 1v-9l53-1v9z"/><path d="M679 507v3a6 6 0 0 0 4 6h40a6 6 0 0 0 3-5v-3z" opacity=".1"/><path d="m679 518 52 1v-9l-52-1v9z" opacity=".1"/><path fill="#3f3d56" d="m677 518 52 1v-9l-52-1v9zM455 314c0 7-3 13-6 20a163 163 0 0 0-13 75c1 11 3 22 1 33s-8 21-19 24c17 11 41 10 58-2 8-7 15-16 21-24a98 98 0 0 1-13 44 103 103 0 0 0 74-40c4-6 8-13 9-20 3-13-1-26-4-39a266 266 0 0 1-6-33v-11l5-11c6-11 6-23 3-35s-8-22-14-33c-4-8-9-17-17-22-5-3-11-4-17-6l-25-5-17-2c-10 2-16 9-22 16-5 5-16 15-17 23-1 6 5 17 6 24 1 9 2 6 7 12 4 3 6 7 6 12z"/><path fill="#f2f2f2" d="M300 334h-99a1 1 0 0 1 0-1h99a1 1 0 0 1 0 1zm0 9h-99a1 1 0 0 1 0-1h99a1 1 0 0 1 0 1zm0 9h-99a1 1 0 0 1 0-1h99a1 1 0 0 1 0 1z"/><path fill="#007bfc" d="M684 463h-66V324h139v139h-73m-17-95c2-1 2-3 0-4l-2-1-5-1-5 1-10 7-5 6-4 8-1 6 3 4 4 1 7-2h7c3-1 6-3 6-7v-5l1-2 4-9v-2m22 14-3-9h-4l9 21 9-21h-3l-2 5-3 9h-1l-2-5m-20 0v-1h-2v18h2v-7h1c2 1 3 2 5 1 2 0 4-1 4-3v-6l-3-3-6 1-1 1v-1m39 11 2-1-1-2-3 1c-2 0-3 0-3-2l9-3v-1l-3-3c-3-2-7-1-8 2-1 1-2 3-1 5l3 4h5m18-11-3-1-5 2v1-2h-3v11h3v-7l3-3c2 0 2 1 3 2v8h2v-11m9-2v-4h-3v6h-2v2h2v9h3v-9h3v-2h-3v-2m-58 32-2-3h-1v5h1v-3l2 3h1v-5h-1v3m35-1h-2v1h2l-2 1-1-1v-1l1-1h1v1h2l-1-1-3-1c-1 1-2 2-1 4l3 1c1 0 2-1 2-3h-1m-9-1a3 3 0 0 0-5 2c1 1 3 3 4 2 2-1 2-2 1-4m-20 3 3 1 2-3-2-2-3 1v3m-15-4v2h-2v-2h-1v5h1v-2h2v2h2v-5h-2m-9 0h-2l-1 4 4 1 1-2h-3l-1-1 1-1 2 1h1l-2-2m74 4-1-2h-1v-1h2l-1-1h-1l-2 1 1 2h2l-1 1h-2l2 1 2-1m-84-2v3h3v-1h-2v-1h2v-1h-2v-1h2v-1h-3v2m76-2h-3v5h3v-1h-2v-1h2v-1h-2v-1h2v-1m-81 3v-2h1v-1h-4v1h1v4h2v-2m51 2v-1h-2v-4h-1v5h3m23-5h-1v5h1v-5z"/><path fill="#f6f8fa" d="M667 368v2l-4 9-1 2v5c0 4-3 6-6 7h-7l-7 2-4-1-3-4 1-6 4-8a42 42 0 0 1 15-13l5-1 5 1-2 1-2-1-5 1-6 4a39 39 0 0 0-13 16v6l1 3h3l4-1 3-1-2-5v-13h3v13l1 3h1l8-7v-9h3v5l3-6v-3l2-1m-10 22 2-2v-4c-2 3-4 5-7 6h5z"/><path fill="#f7f8fa" d="m689 382 2 5h1l3-9 2-5h3l-9 21-9-21h4l3 9z"/><path fill="#f6f8fa" d="M669 382v1l1-1 6-1 3 3v6c0 2-2 3-4 3-2 1-3 0-5-1h-1v7h-2v-18h2v1m8 7v-2c0-2-2-4-3-4-2 0-4 1-4 3l-1 2c0 2 2 3 4 3l4-2z"/><path fill="#f7f8fa" d="M708 393h-5l-3-4c-1-2 0-4 1-5 1-3 5-4 8-2l3 3v1l-9 3c0 2 1 2 3 2l3-1 1 2-2 1m-5-9-1 3v1l6-2 1-1-2-1h-4z"/><path fill="#f7f9fa" d="M726 382v11h-2v-8c-1-1-1-2-3-2l-3 3v7h-3v-11h3v2-1l5-2 3 1zm9-2v2h3v2h-3v9h-3v-9h-2v-2h2v-6h3v4z"/><path fill="#363738" d="m663 364 2-1 2 1c2 1 2 3 0 4l-2 1c-2 0-3-2-3-4l1-1z"/><path fill="#f4f7fa" d="M677 412v-3h1v5h-1l-2-3v3h-1v-5h1l2 3z"/><path fill="#f6f8fa" d="M712 411h1c0 2-1 3-2 3l-3-1c-1-2 0-3 1-4l3 1 1 1h-2v-1h-1l-1 1v1l1 1 2-1h-2v-1h2zm-9-1c1 2 1 3-1 4-1 1-3-1-4-2a3 3 0 0 1 5-2m-3 3h2v-2l-1-1c-1 0-2 2-1 3zm-17 0v-3l3-1 2 2-2 3-3-1m1-2v2h2v-3h-1l-1 1zm-16-2h2v5h-2v-2h-2v2h-1v-5h1v2h2v-2zm-9 0 2 2h-1l-2-1-1 1 1 1h3l-1 2-4-1 1-4h2zm74 4-2 1-2-1h2l1-1h-2l-1-2 2-1h1l1 1h-2v1h1l1 2z"/><path fill="#f9f9fa" d="M649 411v-2h3v1h-2v1h2v1h-2v1h2v1h-3v-3z"/><path fill="#fafafa" d="M725 409v1h-2v1h2v1h-2v1h2v1h-3v-5h3z"/><path fill="#f9f9fa" d="M644 412v2h-2v-4h-1v-1h4v1h-1v2z"/><path fill="#f2f6fa" d="M695 414h-3v-5h1v4h2v1z"/><path fill="#fafafa" d="M718 409v5h-1v-5h1z"/><path fill="#017cfc" d="m663 364-1 1c0 2 1 4 3 4v3l-3 6v-5h-3v9l-8 7h-1l-1-3v-13h-3v13l2 5-3 1-4 1h-3l-1-3v-6l6-10 7-6 6-4 5-1 2 1z"/><path fill="#047dfc" d="M657 390h-5c3-1 5-3 7-6v4l-2 2z"/><path fill="#027cfc" d="m677 389-4 2c-2 0-4-1-4-3l1-2c0-2 2-3 4-3 1 0 3 2 3 4v2z"/><path fill="#047dfc" d="M703 384h4l2 1-1 1-6 2v-1l1-3z"/><path fill="#027cfc" d="M700 413c-1-1 0-3 1-3l1 1v2h-2z"/><path fill="#047dfc" d="m684 411 1-1h1v3h-2v-2z"/></svg>