<?xml version="1.0" encoding="UTF-8"?>
<svg data-name="Layer 1" version="1.1" viewBox="0 0 1041.3 554.17" xml:space="preserve" xmlns="http://www.w3.org/2000/svg"><path d="M961.48 438.21q-1.74 3.75-3.47 7.4-2.7 5.67-5.33 11.12c-.78 1.61-1.56 3.19-2.32 4.77-8.6 17.57-16.63 33.11-23.45 45.89a73.21 73.21 0 01-63.81 38.7l-151.65 1.65h-1.6l-13 .14-11.12.12-34.1.37h-1.38l-17.36.19h-.53l-107 1.16-95.51 1-11.11.12-69 .75h-.08l-44.75.48h-.48l-141.5 1.53-42.33.46a88 88 0 01-10.79-.54c-1.22-.14-2.44-.3-3.65-.49a87.38 87.38 0 01-51.29-27.54c-18.21-20.03-31.46-43.4-40.36-68.76q-1.93-5.49-3.6-11.12c-30.81-104.15 6.75-238.52 74.35-328.44q4.25-5.64 8.64-11l.07-.08c20.79-25.52 44.1-46.84 68.93-62 44-26.91 92.75-34.49 140.7-11.9 40.57 19.12 78.45 28.11 115.17 30.55 3.71.24 7.42.42 11.11.53 84.23 2.65 163.17-27.7 255.87-47.29 3.69-.78 7.39-1.55 11.12-2.28C763 .54 836.36-6.4 923.6 8.19a189.09 189.09 0 0126.76 6.4q5.77 1.86 11.12 4c41.64 16.94 64.35 48.24 74 87.46q1.37 5.46 2.37 11.11c17.11 94.34-33 228.16-76.37 321.05z" fill="#f2f2f2"/><path d="M863.09 533.65v13l-151.92 1.4-1.62.03-57.74.53-1.38.02-17.55.15h-.52l-106.98.99-175.61 1.63h-.15l-44.65.42-.48.01-198.4 1.82v-15l46.65-28 93.6-.78 2-.01.66-.01 2-.03 44.94-.37 2.01-.01.64-.01 2-.01 14.41-.12.38-.01 35.55-.3h.29l277.4-2.34 6.79-.05h.68l5.18-.05 37.65-.31 2-.03 1.85-.02h.96l11.71-.09 2.32-.03 3.11-.02 9.75-.09 15.47-.13 2-.02 3.48-.02h.65l74.71-.64 56.16 28.5z" fill="#65617d"/><path d="M863.09 533.65v13l-151.92 1.4-1.62.03-57.74.53-1.38.02-17.55.15h-.52l-106.98.99-175.61 1.63h-.15l-44.65.42-.48.01-198.4 1.82v-15l46.65-28 93.6-.78 2-.01.66-.01 2-.03 44.94-.37 2.01-.01.64-.01 2-.01 14.41-.12.38-.01 35.55-.3h.29l277.4-2.34 6.79-.05h.68l5.18-.05 37.65-.31 2-.03 1.85-.02h.96l11.71-.09 2.32-.03 3.11-.02 9.75-.09 15.47-.13 2-.02 3.48-.02h.65l74.71-.64 56.16 28.5z" opacity=".2"/><path d="M296.1 483.66v24.49a6.13 6.13 0 01-3.5 5.54 6 6 0 01-2.5.6l-34.9.74a6 6 0 01-2.7-.57 6.12 6.12 0 01-3.57-5.57v-25.23z" fill="#3f3d56"/><path d="M296.1 483.66v24.49a6.13 6.13 0 01-3.5 5.54 6 6 0 01-2.5.6l-34.9.74a6 6 0 01-2.7-.57 6.12 6.12 0 01-3.57-5.57v-25.23z" opacity=".1"/><path d="M298.1 483.66v24.49a6.13 6.13 0 01-3.5 5.54 6 6 0 01-2.5.6l-34.9.74a6 6 0 01-2.7-.57 6.12 6.12 0 01-3.57-5.57v-25.23zM680.92 483.65h47.17v31.5h-47.17z" fill="#3f3d56"/><path d="m680.92 483.65h47.17v31.5h-47.17z" opacity=".1"/><path d="m678.92 483.65h47.17v31.5h-47.17z" fill="#3f3d56"/><path d="m298.09 483.65v4.97l-47.17 1.26v-6.23h47.17z" opacity=".1"/><path d="M381.35 312.36v168.2a4 4 0 01-3.85 3.95l-191.65 5.1h-.05a4 4 0 01-3.95-3.95v-173.3a4 4 0 013.95-3.95h191.6a4 4 0 013.95 3.95z" fill="#65617d"/><path d="M185.85 308.41v181.2h-.05a4 4 0 01-3.95-3.95v-173.3a4 4 0 013.95-3.95z" opacity=".1"/><path d="M194.59 319.15h177.5V467.4l-177.5 4V319.15z" fill="#007bfc"/><path d="m726.09 483.65v6.41l-47.17-1.26v-5.15h47.17z" opacity=".1"/><path d="M788.35 312.36v173.3a4 4 0 01-4 3.95l-191.69-5.1a4 4 0 01-3.85-3.95v-168.2a4 4 0 013.95-3.95h191.6a4 4 0 013.99 3.95z" fill="#65617d"/><path d="M788.35 312.36v173.3a4 4 0 01-4 3.95v-181.2a4 4 0 014 3.95z" opacity=".1"/><path d="M775.59 319.15h-177.5V467.4l177.5 4V319.15z" fill="#007bfc"/><path d="M583.85 312.36v168.2a4 4 0 01-3.85 3.95l-191.65 5.1a4 4 0 01-4-3.95v-173.3a4 4 0 013.95-3.95h191.6a4 4 0 013.95 3.95z" fill="#65617d"/><path d="M397.09 319.15h177.5V467.4l-177.5 4V319.15z" fill="#007bfc"/><path d="M863.09 533.65v13l-151.92 1.4-1.62.03-57.74.53-1.38.02-17.55.15h-.52l-106.98.99-175.61 1.63h-.15l-44.65.42-.48.01-198.4 1.82v-15l202.51-1.33h.48l40.99-.28h.19l283.08-1.87h.29l.17-.01h.47l4.79-.03h1.46l74.49-.5 4.4-.02.98-.01 142.7-.95z" opacity=".1"/><circle cx="487.26" cy="298.15" r="51.33" fill="#fbbebe"/><path d="M538.6 377.16s-99.5 12-90 0c3.44-4.34 4.39-17.2 4.2-31.85-.06-4.45-.22-9.06-.45-13.65-1.1-22-3.75-43.5-3.75-43.5s87-41 77-8.5c-4 13.13-2.69 31.57.35 48.88.89 5.05 1.92 10 3 14.7a344.67 344.67 0 009.65 33.92z" fill="#fbbebe"/><path d="M506.13 373.09c11.51-2.13 23.7-6 34.53-1.54 2.85 1.17 5.47 2.88 8.39 3.86s6.12 1.22 9.16 1.91c10.68 2.42 19.34 10.55 24.9 20s8.44 20.14 11.26 30.72l6.9 25.83c6 22.45 12 45.09 13.39 68.3a2437.62 2437.62 0 01-250.84 1.43c5.44-10.34 11-21.31 10.54-33s-7.19-23.22-4.76-34.74c1.55-7.34 6.57-13.39 9.64-20.22 8.75-19.52 1.94-45.79 17.32-60.65 6.92-6.68 17-9.21 26.63-8.89 12.28.41 24.85 4.24 37 6.11 15.56 2.36 30.26 3.76 45.94.88z" fill="#ff6584"/><path d="M637.03 484.26l-.1 1.43v.1l-.17 2.3-1.33 18.51-1.61 22.3-.46 6.28-1 13.44v.17l-107 1-175.59 1.9v.84h-.14v-1.12l.45-14.36.86-28.06.74-23.79.07-2.37a10.53 10.53 0 0111.42-10.17c4.72.4 10.85.89 18.18 1.41l3 .22c42.33 2.94 120.56 6.74 199.5 2 1.66-.09 3.33-.19 5-.31 12.24-.77 24.47-1.76 36.58-3a10.53 10.53 0 0111.6 11.23z" opacity=".1"/><path d="M349.74 552.53v-.84l175.62-1.91 107-1h.3v-.17l1-13.44.43-6 1.64-22.61 1.29-17.9v-.44a10.62 10.62 0 00-.11-2.47.3.3 0 000-.1 10.39 10.39 0 00-2-4.64 10.54 10.54 0 00-9.42-4 937.419 937.419 0 01-36.58 3c-1.67.12-3.34.22-5 .31-78.94 4.69-157.17.89-199.5-2l-3-.22c-7.33-.52-13.46-1-18.18-1.41a10.54 10.54 0 00-11.24 8.53 11 11 0 00-.18 1.64l-.68 22.16-.93 28.07-.44 14.36v1.12z" fill="#3f3d56"/><path d="M637.33 491.27l-1.23 15.33-1.83 22.85-.46 5.72-1 12.81-.06.64v.17l-.15 1.48.11-1.48h-.29l-107 1-175.65 1.9v-.28l.49-14.36 1-28.06.64-18.65a6.36 6.36 0 013.06-5.25 6.25 6.25 0 013.78-.9c2.1.17 4.68.37 7.69.59 4.89.36 10.92.78 17.94 1.22 13 .82 29.31 1.7 48 2.42 52 2 122.2 2.67 188.88-3.17 3-.26 6.1-.55 9.13-.84a6.26 6.26 0 013.48.66 5.16 5.16 0 01.86.54 6.14 6.14 0 012 2.46 3.56 3.56 0 01.25.61 6.28 6.28 0 01.36 2.59zM298.1 504.96v3.19a6.13 6.13 0 01-3.5 5.54l-40.1.77a6.12 6.12 0 01-3.57-5.57v-3z" opacity=".1"/><path d="m298.59 515.57-52.25 1v-8.67l52.25-1v8.67z" fill="#3f3d56"/><path d="m298.59 515.57-52.25 1v-8.67l52.25-1v8.67z" opacity=".1"/><path d="m300.59 515.57-52.25 1v-8.67l52.25-1v8.67z" fill="#3f3d56"/><path d="M679.22 506.96v3.19a6.13 6.13 0 003.5 5.54l40.1.77a6.12 6.12 0 003.57-5.57v-3z" opacity=".1"/><path d="m678.72 517.57 52.25 1v-8.67l-52.25-1v8.67z" opacity=".1"/><path d="M676.72 517.57l52.25 1v-8.67l-52.25-1v8.67zM454.79 313.88c.08 7-3.16 13.6-5.91 20.07a163.49 163.49 0 00-12.66 74.71c.73 11 2.58 22 .73 32.9s-8.43 21.77-19 24.9c17.53 10.45 41.26 9.35 57.76-2.66 8.79-6.4 15.34-15.33 21.75-24.11a97.86 97.86 0 01-13.31 44.75 103.43 103.43 0 0073.51-40.82c4.31-5.81 8.06-12.19 9.72-19.23 3.09-13-1.22-26.51-4.51-39.5a266.06 266.06 0 01-6.17-33c-.43-3.56-.78-7.22.1-10.7 1-4.07 3.67-7.51 5.64-11.22 5.6-10.54 5.73-23.3 2.86-34.88s-8.49-22.26-14.06-32.81c-4.46-8.46-9.3-17.31-17.46-22.28-5.1-3.1-11-4.39-16.88-5.64l-25.37-5.43c-5.55-1.19-11.26-2.38-16.87-1.51-9.47 1.48-16.14 8.32-22 15.34-4.59 5.46-15.81 15.71-16.6 22.86-.72 6.59 5.1 17.63 6.09 24.58 1.3 9 2.22 6 7.3 11.52 3.21 3.42 5.28 7.37 5.34 12.16z" fill="#3f3d56"/><path d="M300.26 333.59h-99.6a.5.5 0 010-1h99.6a.5.5 0 010 1zM300.26 342.59h-99.6a.5.5 0 010-1h99.6a.5.5 0 010 1zM300.26 351.59h-99.6a.5.5 0 010-1h99.6a.5.5 0 010 1z" fill="#f2f2f2"/><g transform="matrix(.069389 0 0 .069389 617.76 323.98)"><path d="m955 2001h-954v-2e3h2e3v2e3h-1046m-245.91-1361.8c0.78589-0.61358 1.5867-1.2093 2.3555-1.8435 20.225-16.685 20.359-46.978 0.50427-64.044-9.0635-7.7904-19.586-10.04-31.479-10.08-1.2791-1.0519-2.5018-2.1827-3.8458-3.1439-19.371-13.853-41.464-16.458-64.311-14.896-28.94 1.978-56 11.163-82.103 23.235-51.028 23.6-95.282 56.899-135.48 95.821-26.358 25.52-50.405 53.062-71.725 82.974-26.239 36.813-48.223 75.831-61.866 119.14-8.6215 27.367-13.834 55.259-9.384 84.081 3.9098 25.325 15.341 46.031 38.565 58.634 19.32 10.484 40.261 12.057 61.642 9.7053 32.727-3.5991 63.095-14.678 91.85-30.264 7.452-4.0392 14.061-7.0369 21.246-0.2005 0.57943 0.55121 1.4462 0.80829 2.1927 1.1749 28.992 14.234 59.242 16.107 89.929 7.5468 44.332-12.367 74.481-49.252 75.615-96.496 0.59589-24.813 0.12879-49.65 0.30689-74.475 0.0167-2.3308 0.70904-4.983 1.9596-6.9246 7.2094-11.192 15.025-22.004 22.002-33.335 23.507-38.177 42.166-78.392 49.692-123.02 1.2782-7.5786 1.3032-15.369 2.3377-23.589m321.13 198.71c-17.47-43.826-34.989-87.632-52.307-131.52-1.2188-3.0885-3.1154-2.9327-5.4266-2.9344-12.996-0.01-25.992-0.0175-38.987 0.0158-1.2198 3e-3 -2.4388 0.29528-4.0396 0.50262 43.191 102.67 86.153 204.8 129.11 306.93 0.4548 0.013 0.9097 0.026 1.3644 0.039 43.151-102.24 86.302-204.49 129.76-307.47-15.414 0-29.87-0.0991-44.319 0.16833-1.3035 0.0241-3.1474 2.1834-3.7555 3.7367-8.6519 22.093-17.135 44.253-25.656 66.397-16.469 42.797-32.928 85.598-49.415 128.39-1.5052 3.9066-3.1755 7.7497-4.7692 11.622-0.4339-0.01-0.8679-0.0198-1.3018-0.0298-10.006-25.04-20.012-50.08-30.267-75.843m-291.69 0.99322c-0.57746-3.8978-1.1549-7.7955-1.7369-11.724h-32.16v252.04h37.56v-103.86c4.8142 4.2238 8.4438 7.9219 12.57 10.942 21.14 15.473 44.78 19.568 70.131 14.448 28.912-5.8383 50.856-21.286 62.43-48.892 11.162-26.624 10.319-53.838-0.82221-80.272-9.068-21.515-24.892-37.158-47.221-44.501-29.586-9.731-57.508-5.2686-82.759 13.36-5.4868 4.0478-10.49 8.7509-16.215 13.573-0.54419-5.1174-1.0298-9.684-1.7764-15.11m556.57 160.62c12.514-3.6085 24.494-8.3712 35.554-16.287-5.9437-9.5358-11.781-18.901-17.745-28.468-14.53 10.129-29.686 16.371-47.193 14.498-17.77-1.9017-31.467-10.386-41.516-25.874 2.4505-0.96606 4.2594-1.7494 6.1145-2.4002 40.691-14.275 81.376-28.567 122.1-42.746 3.6831-1.2823 5.8351-2.6078 3.9557-7.0013-1.4245-3.33-2.0235-7.0028-3.2673-10.422-7.6464-21.022-19.9-38.537-40.156-48.996-40.789-21.061-93.668-6.8044-119.9 31.9-14.067 20.76-17.716 43.548-13.302 67.961 4.8682 26.926 18.957 47.416 43.217 60.082 22.566 11.782 46.6 13.842 72.131 7.7538m258.01-158.18c-9.8357-11.584-22.624-17.394-37.533-18.236-30.061-1.697-54.99 7.8122-71.851 34.121-0.4069 0.63519-1.041 1.1248-2.2239 2.3732-0.9003-10.61-1.7291-20.379-2.5431-29.972h-33.865v168.93h38.096c0-1.9677 2e-4 -3.7502 2e-4 -5.5327 0-24.992-0.4069-49.994 0.216-74.97 0.224-8.9865 1.7016-18.353 4.7439-26.774 6.8123-18.856 19.669-31.805 40.431-34.958 21.182-3.2163 35.154 7.459 37.108 28.195 0.1558 1.6528 0.1 3.3279 0.1 4.9926 0.01 34.322 0 68.644 0 102.97 0 1.9619-1e-4 3.9238-1e-4 6.0093h38.657c0-2.1552-1e-4 -3.9633-1e-4 -5.7714 0-39.82-0.011-79.64 0.01-119.46 0.01-11.735-3.4477-22.244-11.348-31.918m131.89-39.868v-46.156h-38.5v74.984h-30.563v30.415h31.038v137.71h38.304v-138.08h45.937v-30.32h-46.215v-28.561m-833.19 461.15c-7.9122-12.125-15.789-24.273-23.785-36.342-0.92035-1.3892-2.4462-3.2339-3.7996-3.3289-5.4317-0.3817-10.906-0.1579-16.527-0.1579v75.02h18.531v-45.032c9.7291 14.735 18.592 28.216 27.547 41.636 0.94885 1.4218 2.3736 3.4513 3.6913 3.5416 5.7069 0.3917 11.456 0.168 17.082 0.168v-75.056h-18.59v45.56c-1.7372-2.4871-2.7507-3.9381-4.1497-6.0082m506.61-6.8338h-28.28v13.455h22.021c-2.2845 8.4316-9.1305 13.4-18.003 13.484-9.959 0.095-17.862-5.0977-19.739-14.232-1.0399-5.0615-0.9473-10.66 0.016-15.756 1.3801-7.2972 6.5439-11.99 13.848-13.405 7.0993-1.3749 13.59 0.043 18.182 6.4219 0.6149 0.8542 1.7056 1.9034 2.6033 1.9297 5.8802 0.1728 11.768 0.089 18.482 0.089-1.5027-3.7531-2.3841-6.7907-3.86-9.5049-9.3808-17.252-33.085-19.3-47.24-13.336-18.835 7.9363-26.98 30.715-18.748 51.637 6.9013 17.542 27.071 26.892 46.355 20.707 18.329-5.8781 27.353-19.971 23.237-41.49h-8.8756m-122.94-12.794c-7.5289-16.072-26.13-24.726-43.334-20.535-17.042 4.1524-30.619 19.353-29.257 41.394 1.5848 25.652 30.211 43.114 53.434 32.074 19.975-9.4963 27.95-30.868 19.157-52.934m-297.68 37.633c11.981 17.829 33.308 23.64 51.085 13.919 14.715-8.0469 21.855-23.421 19.267-41.489-2.17-15.15-13.132-26.739-29-30.66-14.297-3.5325-31.257 2.5759-39.335 14.524-9.3318 13.803-9.4204 28.278-2.0159 43.705m-208.44-57.463v28.498h-29.387v-28.566h-17.8v74.608h18.053v-30.573h28.781v30.708h18.3v-74.954c-5.8477 0-11.471 0-17.947 0.2792m-130.2 0.046c-1.6419-0.2756-3.2752-0.627-4.9272-0.8139-9.6918-1.0962-19.081-0.1471-27.244 5.6288-15.405 10.9-20.212 34.99-10.781 52.733 8.1982 15.425 27.857 22.254 45.971 15.969 11.491-3.9868 20.559-14.949 21.257-25.938-4.6589 0-9.3173 0.2029-13.948-0.07-3.2158-0.1892-4.9604 0.9085-6.7501 3.6734-6.7637 10.449-22.976 9.8863-29.321-0.8276-3.7743-6.3734-4.2344-13.261-2.4741-20.273 1.8311-7.2938 5.9916-12.794 13.795-14.08 7.864-1.2961 14.433 1.0887 18.802 8.2894 0.66168 1.0903 2.1583 2.3058 3.3166 2.3559 5.6194 0.2438 11.255 0.1101 16.951 0.1101-2.4554-13.379-10.566-22.312-24.648-26.758m1063 60.159c2.9181-13.118-1.4542-21.776-13.627-26.866-3.532-1.4769-7.143-2.7654-10.672-4.2485-2.753-1.1568-5.6091-2.2082-8.1069-3.7976-3.3591-2.1379-4.4404-5.4733-2.6513-9.1228 1.7661-3.6031 5.4309-4.4806 8.5331-2.9391 2.9532 1.4674 5.14 4.4775 8.198 7.3028h17.801c-0.5864-6.7395-3.1739-12.308-8.3114-16.186-7.9371-5.9906-17.237-6.7409-26.688-5.3516-10.651 1.5657-18.65 9.1038-19.593 17.844-1.2659 11.735 3.1117 18.9 14.614 23.68 4.6109 1.9166 9.3741 3.4769 13.936 5.4984 2.2299 0.9882 4.5025 2.3361 6.1494 4.0902 3.7661 4.0114 1.6516 9.9033-3.7372 11.086-5.6294 1.2357-9.0332-1.2428-11.825-8.6431h-18.768c-0.087 11.072 7.6004 18.579 18.675 21.916 15.151 4.5649 30.18-1.0535 36.074-14.264m-1213.4-29.902v44.253h46.637v-14.1h-28.218v-16.836h25.291v-13.99h-25.181v-15.832h28.172v-13.792h-46.701c0 10.011 0 19.654 6e-5 30.297m1102.3-23.012v-7.3252h-46.897v74.712h46.649v-14.038h-28.02v-16.986h24.79v-13.894h-24.85v-16.04h28.33v-6.4284m-1178 40.012v-33.378h20.406v-14.022h-58.698v14.237h20.203v60.464h18.089c0-9.0085 0-17.655-6e-5 -27.301m736.03 24.417v-11.01h-24.588v-60.795h-17.907v75.072c13.544 0 26.84 0.042 40.134-0.1042 0.7939-0.01 1.5713-1.5193 2.3607-3.1625m329.23-72.126h-12.289v75.201h17.564v-75.201c-1.6618 0-2.9786 0-5.2747-1e-4z" fill="#007bfc"/><path d="m708.66 639.76c-0.60394 7.6923-0.62891 15.482-1.9071 23.061-7.5261 44.624-26.185 84.839-49.692 123.02-6.9768 11.331-14.792 22.143-22.002 33.335-1.2506 1.9415-1.9429 4.5938-1.9596 6.9246-0.1781 24.825 0.289 49.663-0.30689 74.475-1.1346 47.244-31.283 84.129-75.615 96.496-30.687 8.5606-60.937 6.687-89.929-7.5468-0.74655-0.36658-1.6133-0.62366-2.1927-1.1749-7.1852-6.8364-13.794-3.8387-21.246 0.2005-28.755 15.586-59.123 26.665-91.85 30.264-21.381 2.3513-42.322 0.7788-61.642-9.7053-23.224-12.603-34.655-33.309-38.565-58.634-4.4497-28.822 0.76244-56.714 9.384-84.081 13.642-43.305 35.627-82.324 61.866-119.14 21.32-29.911 45.366-57.454 71.725-82.974 40.202-38.922 84.456-72.221 135.48-95.821 26.102-12.072 53.163-21.258 82.103-23.235 22.847-1.5616 44.94 1.0435 64.311 14.896 1.344 0.96112 2.5667 2.0919 3.6598 3.4611-8.5458 1.3061-15.635 5.3726-22.983 9.3554-9.6288-2.5169-18.832-6.0726-28.259-6.8235-24.91-1.9844-48.52 4.6267-71.54 13.461-34.312 13.168-65.438 31.983-94.761 53.926-34.78 26.027-66.124 55.705-94.016 89.007-35.821 42.768-66.162 88.855-84.948 141.81-9.4346 26.593-15.597 53.804-11.603 82.251 2.4723 17.608 9.5983 32.833 25.405 42.704 11.091 6.9267 23.453 9.2004 36.224 9.5386 21.971 0.58179 42.993-4.4314 63.312-12.216 13.904-5.3265 27.403-11.711 41.605-17.848-1.4902-2.0928-2.1526-3.1918-2.9753-4.1538-15.901-18.594-23.769-40.28-23.844-64.581-0.19531-63.487-0.0659-126.98-0.0659-190.46 0-1.8072-3e-5 -3.6144-3e-5 -5.7247h39.71v6.1912c0 61.655 0.0503 123.31-0.0302 184.97-0.0246 18.833 6.7494 34.634 19.947 47.951 2.6421 2.666 4.4494 2.8151 7.4891 0.70484 41.95-29.124 79.474-63.086 112.02-102.46 1.8847-2.2796 3.0267-5.8917 3.0411-8.8907 0.19623-40.825 0.13196-81.651 0.13196-122.48v-5.9935h39.112v80.238c1.8431-2.5644 2.8774-3.835 3.7316-5.217 16.481-26.66 30.882-54.342 40.521-84.271 4.9938-15.506 9.4226-31.185 10.307-47.796 7.1641-2.437 14.002-4.7244 20.84-7.0117m-147.56 312.96c13.156-7.9053 23.26-18.747 27.979-33.338 2.9218-9.0349 3.8677-18.794 4.938-28.313 0.72918-6.4852 0.13952-13.119 0.13952-19.686-0.39056-0.1723-0.78106-0.3446-1.1716-0.5169-29.441 32.306-61.819 61.317-98.388 87.389 23.689 7.4828 45.18 6.327 66.503-5.5352z" fill="#f6f8fa"/><path d="m1030.3 838.3c10.131 25.402 20.137 50.442 30.142 75.482 0.4339 0.01 0.8679 0.0199 1.3018 0.0298 1.5937-3.8726 3.264-7.7156 4.7692-11.622 16.486-42.79 32.946-85.591 49.415-128.39 8.5212-22.144 17.005-44.304 25.656-66.397 0.6081-1.5533 2.452-3.7126 3.7555-3.7367 14.449-0.26739 28.905-0.16833 44.319-0.16833-43.462 102.98-86.614 205.23-129.76 307.47-0.4547-0.013-0.9096-0.026-1.3644-0.039-42.962-102.13-85.924-204.25-129.11-306.93 1.6008-0.20734 2.8198-0.49951 4.0396-0.50262 12.996-0.0332 25.992-0.0255 38.987-0.0158 2.3112 2e-3 4.2078-0.15406 5.4266 2.9344 17.318 43.886 34.837 87.692 52.431 131.88z" fill="#f7f8fa"/><path d="m738.66 839.36c0.61609 4.9964 1.1017 9.563 1.6459 14.68 5.7254-4.822 10.729-9.5251 16.215-13.573 25.251-18.629 53.173-23.091 82.759-13.36 22.329 7.3439 38.153 22.986 47.221 44.501 11.141 26.434 11.984 53.648 0.82221 80.272-11.574 27.607-33.518 43.054-62.43 48.892-25.351 5.1194-48.991 1.0249-70.131-14.448-4.1259-3.02-7.7556-6.7181-12.57-10.942v103.86h-37.56v-252.04h32.16c0.58197 3.9285 1.1594 7.8262 1.8674 12.154m115.19 90.757c2.3516-9.1187 2.5771-18.247 1.1144-27.594-3.45-22.049-23.013-45.277-50.937-47.247-25.212-1.779-46.945 9.4614-58.2 33.583-4.6666 10.001-3.6641 20.417-3.8689 30.837-0.54547 27.758 22.771 51.08 51.623 52.263 25.892 1.0611 51.107-13.36 60.268-41.841z" fill="#f6f8fa"/><path d="m1294.7 999.65c-25.131 5.9887-49.164 3.9285-71.731-7.8534-24.26-12.666-38.349-33.156-43.217-60.082-4.4139-24.414-0.7657-47.202 13.302-67.961 26.228-38.705 79.106-52.962 119.9-31.9 20.256 10.459 32.509 27.974 40.156 48.996 1.2438 3.4194 1.8428 7.0922 3.2673 10.422 1.8794 4.3935-0.2726 5.719-3.9557 7.0013-40.724 14.179-81.41 28.471-122.1 42.746-1.8551 0.65082-3.664 1.4342-6.1145 2.4002 10.048 15.487 23.745 23.972 41.516 25.874 17.508 1.8737 32.663-4.3689 47.193-14.498 5.9636 9.5677 11.801 18.933 17.745 28.468-11.06 7.9154-23.04 12.678-35.955 16.386m-59.709-134.2c-14.433 13.108-19.956 29.758-19.403 48.822 0.148 5.1011 0.675 5.4634 5.5709 3.6917 26.136-9.4578 52.273-18.913 78.395-28.409 4.7632-1.7314 9.4606-3.6439 14.155-5.4598-3.8272-10.756-12.83-21.637-22.38-25.992-19.889-9.0691-38.514-6.2091-56.337 7.3477z" fill="#f7f8fa"/><path d="m1553.3 841.63c7.6627 9.411 11.116 19.92 11.11 31.655-0.018 39.82-0.01 79.64-0.01 119.46 0 1.8082 1e-4 3.6163 1e-4 5.7714h-38.657c0-2.0855 1e-4 -4.0474 1e-4 -6.0093v-102.97c-2e-4 -1.6647 0.056-3.3398-0.1-4.9926-1.9539-20.736-15.927-31.412-37.108-28.195-20.762 3.1526-33.619 16.102-40.431 34.958-3.0423 8.4211-4.5199 17.788-4.7439 26.774-0.6229 24.976-0.216 49.978-0.216 74.97 0 1.7825-2e-4 3.565-2e-4 5.5327h-38.096v-168.93h33.865c0.814 9.593 1.6428 19.362 2.5431 29.972 1.1829-1.2484 1.817-1.738 2.2239-2.3732 16.861-26.309 41.79-35.818 71.851-34.121 14.909 0.84162 27.697 6.6524 37.771 18.5z" fill="#f7f9fa"/><path d="m1685 802v28.061h46.215v30.32h-45.937v138.08h-38.304v-137.71h-31.038v-30.415h30.563v-74.984h38.5v46.656z" fill="#f7f9fa"/><path d="m657.63 573.18c7.0248-4.2224 14.114-8.2889 22.867-9.357 11.871-0.51502 22.394 1.7348 31.457 9.5252 19.855 17.066 19.721 47.36-0.50427 64.044-0.7688 0.63422-1.5696 1.2299-2.5707 2.1078-7.0531 2.5516-13.891 4.839-21.518 7.1571-1.4548-4.9e-4 -2.1198-0.0508-2.7853-0.0602-27.068-0.38153-46.094-25.051-39.878-51.334 2.0843-8.8124 7.2119-15.551 12.932-22.083z" fill="#363738"/><path d="m852 1263c1.2062 1.7606 2.2198 3.2116 3.957 5.6987v-45.56h18.59v75.056c-5.6264 0-11.376 0.2237-17.082-0.168-1.3177-0.09-2.7424-2.1198-3.6913-3.5416-8.9551-13.42-17.818-26.901-27.547-41.636v45.032h-18.531v-75.02c5.6206 0 11.095-0.2238 16.527 0.1579 1.3533 0.095 2.8792 1.9397 3.7996 3.3289 7.9965 12.069 15.873 24.217 23.978 36.652z" fill="#f4f7fa"/><path d="m1358.9 1255.8h8.3907c4.1161 21.519-4.9082 35.612-23.237 41.49-19.284 6.1845-39.454-3.1659-46.355-20.707-8.2312-20.922-0.087-43.7 18.748-51.637 14.155-5.9642 37.859-3.9165 47.24 13.336 1.4759 2.7142 2.3573 5.7518 3.86 9.5049-6.7139 0-12.601 0.084-18.482-0.089-0.8977-0.026-1.9884-1.0755-2.6033-1.9297-4.5921-6.3794-11.083-7.7968-18.182-6.4219-7.3043 1.4146-12.468 6.1074-13.848 13.405-0.9638 5.0954-1.0564 10.694-0.016 15.756 1.8768 9.1347 9.7796 14.327 19.739 14.232 8.8725-0.084 15.718-5.0524 18.003-13.484h-22.021v-13.455h28.765z" fill="#f6f8fa"/><path d="m1235.6 1243.4c8.6229 21.724 0.6477 43.096-19.327 52.592-23.223 11.04-51.849-6.4227-53.434-32.074-1.3619-22.042 12.215-37.242 29.257-41.394 17.204-4.1918 35.805 4.4622 43.504 20.876m-46.23 34.872c5.9804 3.9055 12.313 4.7858 19.026 2.16 8.9611-3.5047 12.729-11.27 11.672-23.986-1.1067-13.318-14.061-21.322-26.476-16.358-14.007 5.5997-16.658 26.375-4.223 38.184z" fill="#f6f8fa"/><path d="m937.6 1280.3c-7.2122-15.11-7.1236-29.585 2.2082-43.388 8.0783-11.949 25.038-18.057 39.335-14.524 15.869 3.9208 26.83 15.51 29 30.66 2.5879 18.068-4.5514 33.442-19.267 41.489-17.777 9.7211-39.104 3.91-51.277-14.236m13.521-22.521c-0.51062 7.4713 0.9071 14.37 6.8147 19.489 7.7309 6.6997 20.247 5.9658 26.704-1.316 7.6365-8.6121 7.1984-25.216-0.88825-32.454-5.7614-5.1565-12.521-5.9642-19.616-3.8491-8.4333 2.5146-11.779 9.1427-13.015 18.13z" fill="#f6f8fa"/><path d="m729.77 1223.1c6.0499-0.1396 11.673-0.1396 17.52-0.1396v74.954h-18.3v-30.708h-28.781v30.573h-18.053v-74.608h17.8v28.566h29.387c0-9.3934 0-18.946 0.42694-28.637z" fill="#f6f8fa"/><path d="m599.55 1223.3c13.68 4.3517 21.79 13.284 24.246 26.664-5.6958 0-11.332 0.1337-16.951-0.1101-1.1584-0.05-2.655-1.2656-3.3166-2.3559-4.3692-7.2007-10.938-9.5855-18.802-8.2894-7.8034 1.2861-11.964 6.7867-13.795 14.08-1.7603 7.0116-1.3002 13.899 2.4741 20.273 6.3447 10.714 22.557 11.276 29.321 0.8276 1.7897-2.7649 3.5344-3.8626 6.7501-3.6734 4.6304 0.2725 9.2888 0.07 13.948 0.07-0.69757 10.989-9.7658 21.951-21.257 25.938-18.114 6.2845-37.773-0.5446-45.971-15.969-9.4306-17.743-4.6244-41.834 10.781-52.733 8.1632-5.7759 17.552-6.725 27.244-5.6288 1.652 0.1869 3.2853 0.5383 5.3291 0.908z" fill="#f6f8fa"/><path d="m1662.1 1283.8c-5.7568 12.828-20.786 18.447-35.936 13.882-11.075-3.3369-18.762-10.844-18.675-21.916h18.768c2.7918 7.4003 6.1956 9.8788 11.825 8.6431 5.3888-1.1829 7.5033-7.0748 3.7372-11.086-1.6469-1.7541-3.9195-3.102-6.1494-4.0902-4.5614-2.0215-9.3246-3.5818-13.936-5.4984-11.503-4.7808-15.88-11.946-14.614-23.68 0.9429-8.7405 8.942-16.279 19.593-17.844 9.4508-1.3893 18.751-0.639 26.688 5.3516 5.1375 3.8774 7.725 9.446 8.3114 16.186h-17.801c-3.058-2.8253-5.2448-5.8354-8.198-7.3028-3.1022-1.5415-6.767-0.664-8.5331 2.9391-1.7891 3.6495-0.7078 6.9849 2.6513 9.1228 2.4978 1.5894 5.3539 2.6408 8.1069 3.7976 3.5293 1.4831 7.1403 2.7716 10.672 4.2485 12.172 5.0905 16.545 13.748 13.49 27.248z" fill="#f6f8fa"/><path d="m448.83 1253c-3e-5 -10.143-3e-5 -19.786-3e-5 -29.797h46.701v13.792h-28.172v15.832h25.181v13.99h-25.291v16.836h28.218v14.1h-46.637c0-14.732 0-29.492-3e-5 -44.753z" fill="#f9f9fa"/><path d="m1551.2 1231v5.944h-28.33v16.04h24.85v13.894h-24.79v16.986h28.02v14.038h-46.649v-74.712h46.897v7.8096z" fill="#fafafa"/><path d="m373.17 1271c3e-5 9.1465 3e-5 17.793 3e-5 26.801h-18.089v-60.464h-20.203v-14.237h58.698v14.022h-20.406c0 11.472 0 22.425 3e-5 33.878z" fill="#f9f9fa"/><path d="m1109.2 1295.3c-0.7873 1.2274-1.5647 2.7381-2.3586 2.7467-13.294 0.1459-26.59 0.1042-40.134 0.1042v-75.072h17.907v60.795h24.588v11.426z" fill="#f2f6fa"/><path d="m1438.9 1222.8c1.8065 1e-4 3.1233 1e-4 4.7851 1e-4v75.201h-17.564v-75.201h12.779z" fill="#fafafa"/><path d="m657.3 572.94c-5.3959 6.7725-10.524 13.511-12.608 22.323-6.2163 26.283 12.809 50.953 39.878 51.334 0.66559 9e-3 1.3306 0.0598 2.459 0.20978-0.0949 16.58-4.5237 32.26-9.5175 47.765-9.6389 29.929-24.04 57.611-40.521 84.271-0.85425 1.382-1.8886 2.6526-3.7316 5.217v-80.238h-39.112v5.9935c0 40.826 0.0643 81.652-0.13196 122.48-0.0145 2.999-1.1564 6.6111-3.0411 8.8907-32.549 39.37-70.073 73.331-112.02 102.46-3.0397 2.1103-4.847 1.9611-7.4891-0.70484-13.198-13.317-19.972-29.118-19.947-47.951 0.0805-61.655 0.0302-123.31 0.0302-184.97v-6.1912h-39.71c0 2.1102 3e-5 3.9174 3e-5 5.7247 6e-5 63.488-0.12937 126.98 0.0659 190.46 0.0748 24.302 7.9429 45.987 23.844 64.581 0.82266 0.96198 1.4851 2.0609 2.9753 4.1538-14.202 6.1369-27.701 12.521-41.605 17.848-20.319 7.7841-41.341 12.797-63.312 12.216-12.771-0.3382-25.133-2.6119-36.224-9.5386-15.807-9.8716-22.933-25.097-25.405-42.704-3.9943-28.448 2.1683-55.658 11.603-82.251 18.786-52.953 49.128-99.041 84.948-141.81 27.892-33.301 59.236-62.98 94.016-89.007 29.323-21.943 60.449-40.758 94.761-53.926 23.02-8.8347 46.63-15.446 71.54-13.461 9.4268 0.75092 18.63 4.3066 28.259 6.8235z" fill="#017cfc"/><path d="m560.77 952.88c-20.993 11.7-42.483 12.856-66.172 5.3733 36.569-26.072 68.947-55.083 98.388-87.389 0.39057 0.1723 0.78107 0.3446 1.1716 0.5169 0 6.5672 0.58966 13.201-0.13952 19.686-1.0704 9.5195-2.0162 19.278-4.938 28.313-4.7184 14.59-14.823 25.433-28.31 33.5z" fill="#047dfc"/><path d="m853.78 930.52c-9.0886 28.082-34.303 42.504-60.195 41.442-28.852-1.1825-52.169-24.504-51.623-52.263 0.20477-10.42-0.79773-20.837 3.8689-30.837 11.256-24.121 32.988-35.362 58.2-33.583 27.923 1.9703 47.487 25.198 50.937 47.247 1.4627 9.3477 1.2372 18.476-1.1871 27.993z" fill="#027cfc"/><path d="m1235.3 865.25c17.526-13.359 36.152-16.219 56.04-7.1497 9.5503 4.3548 18.553 15.236 22.38 25.992-4.6941 1.8159-9.3915 3.7284-14.155 5.4598-26.122 9.4955-52.259 18.951-78.395 28.409-4.8959 1.7717-5.4229 1.4094-5.5709-3.6917-0.5531-19.063 4.9706-35.713 19.7-49.02z" fill="#047dfc"/><path d="m1189.1 1278c-12.138-11.59-9.4863-32.364 4.5204-37.964 12.415-4.9634 25.369 3.0405 26.476 16.358 1.0565 12.716-2.7114 20.481-11.672 23.986-6.7137 2.6258-13.046 1.7455-19.324-2.3801z" fill="#027cfc"/><path d="m951.15 1257.4c1.2062-8.551 4.5519-15.179 12.985-17.694 7.0943-2.1151 13.854-1.3074 19.616 3.8491 8.0867 7.2378 8.5247 23.842 0.88825 32.454-6.457 7.2818-18.973 8.0157-26.704 1.316-5.9076-5.1196-7.3253-12.018-6.785-19.925z" fill="#047dfc"/></g></svg>
