<svg xmlns="http://www.w3.org/2000/svg" xmlns:xlink="http://www.w3.org/1999/xlink" xml:space="preserve" data-name="Layer 1" viewBox="0 0 971 502"><defs><path id="c" stroke="#007bfc" stroke-miterlimit="10" stroke-width="2" d="M486 42V20m0 59V50"/></defs><defs><linearGradient id="a" x1="599.5" x2="599.5" y1="668" y2="199" gradientUnits="userSpaceOnUse"><stop offset="0" stop-color="gray" stop-opacity=".3"/><stop offset=".5" stop-color="gray" stop-opacity=".1"/><stop offset="1" stop-color="gray" stop-opacity=".1"/></linearGradient><linearGradient xlink:href="#a" id="b" x1="485.7" x2="485.7" y1="258.9" y2="71.1"/><linearGradient id="d" x1="6" x2="235" y1="33" y2="344" gradientUnits="userSpaceOnUse"><stop offset="0" stop-color="#41D1FF"/><stop offset="1" stop-color="#BD34FE"/></linearGradient><linearGradient id="e" x1="194.7" x2="236.1" y1="8.8" y2="293" gradientUnits="userSpaceOnUse"><stop offset="0" stop-color="#FFEA83"/><stop offset=".1" stop-color="#FFDD35"/><stop offset="1" stop-color="#FFA800"/></linearGradient></defs><path fill="url(#a)" d="M853 199H346a16 16 0 0 0-16 16v349a16 16 0 0 0 16 16h174v61h-7a8 8 0 0 0-9 8v12h16v7h159v-7h16v-12a8 8 0 0 0-9-8h-7v-1h-1v-60h175a16 16 0 0 0 16-16V215a16 16 0 0 0-16-16z" opacity=".7" transform="translate(-114 -199)"/><path fill="#bdbdbd" d="M408 371h156v92H408z"/><path d="M411 380h150l3-13H407l4 13z" opacity=".1"/><path fill="#535461" d="M236 3h500a16 16 0 0 1 16 16v308H220V19a16 16 0 0 1 16-16z"/><path fill="#bdbdbd" d="M736 377H236a16 16 0 0 1-16-16v-34h532v34a16 16 0 0 1-16 16z"/><circle cx="485.7" cy="352" r="9" fill="#535461"/><path fill="#bdbdbd" d="M400 436h172a8 8 0 0 1 8 8v12H392v-12a8 8 0 0 1 8-8z"/><rect width="330" height="187.8" x="321" y="71" fill="url(#b)" opacity=".5" rx="4.5" ry="4.5"/><rect width="321.5" height="184" x="325" y="73" fill="#fff" rx="4.5" ry="4.5"/><rect width="35.4" height="31.9" x="415" y="99" fill="#007bfc" opacity=".5" rx="4.5" ry="4.5"/><rect width="95.7" height="3.5" x="461" y="99" fill="#e0e0e0" rx="1.8" ry="1.8"/><rect width="79.5" height="3.5" x="461" y="110" fill="#e0e0e0" rx="1.8" ry="1.8"/><rect width="35.4" height="31.9" x="415" y="149" fill="#007bfc" opacity=".5" rx="4.5" ry="4.5"/><rect width="95.7" height="3.5" x="461" y="149" fill="#e0e0e0" rx="1.8" ry="1.8"/><rect width="95.7" height="3.5" x="461" y="159" fill="#e0e0e0" rx="1.8" ry="1.8"/><rect width="35.4" height="31.9" x="415" y="198" fill="#007bfc" opacity=".5" rx="4.5" ry="4.5"/><rect width="95.7" height="3.5" x="461" y="198" fill="#e0e0e0" rx="1.8" ry="1.8"/><rect width="96.3" height="3.5" x="461" y="209" fill="#e0e0e0" rx="1.6" ry="1.6"/><use xlink:href="#c" stroke-miterlimit="10" stroke-width="2"/><circle cx="485.7" cy="79" r="4" fill="#007bfc"/><circle cx="485.7" cy="46" r="4" fill="none" stroke="#fff" stroke-miterlimit="10"/><use xlink:href="#c" stroke-miterlimit="10" stroke-width="2"/><circle cx="485.7" cy="79" r="4" fill="#007bfc"/><circle cx="485.7" cy="46" r="4" fill="none" stroke="#fff" stroke-miterlimit="10"/><path stroke="#007bfc" stroke-miterlimit="10" stroke-width="2" d="M486 279v31m0-59v29"/><circle cx="485.7" cy="251" r="4" fill="#007bfc"/><path stroke="#007bfc" stroke-miterlimit="10" stroke-width="2" d="M306 169h-32m59 0h-29"/><circle cx="333.2" cy="168.5" r="4" fill="#007bfc"/><path d="M408 436h156v3H408z" opacity=".1"/><path fill="#e0e0e0" d="M0 456h971v33H0zm41 33h889v13H41z"/><path d="M41 489h889v4H41z" opacity=".1"/><path stroke="#007bfc" stroke-miterlimit="10" stroke-width="2" d="M690 169h6m-59 0h45"/><circle cx="637.2" cy="168.5" r="4" fill="#007bfc"/><circle cx="686.2" cy="168.5" r="4" fill="none" stroke="#fff" stroke-miterlimit="10"/><path fill="#75d1df" d="M148 44a1 1 0 0 0-1-1 1 1 0 0 0-1 1l-7 6a1 1 0 0 0 0 1 66 66 0 0 1-63 102 68 68 0 0 1-7-1h-1a65 65 0 0 1-8-3 62 62 0 0 1-8-5l79-42c3-1 4-3 4-6s-1-5-3-6l-28-16 41-41c3-3 2-5 2-7-1-2-3-3-6-3l-3 1-97 51c-3 1-5 4-5 6 0 3 2 5 4 7l28 16-30 29a69 69 0 0 1-5-5c-6-9-10-18-11-27a6 6 0 0 1 0-1l-1-5a19 19 0 0 1 0-1v-5l1-13a61 61 0 0 1 1-6v-1a65 65 0 0 1 76-44l5 1 3 1 1 1h3v1h1l10-6v-2a76 76 0 0 0-36-9 77 77 0 0 0-60 124 78 78 0 0 0 4 5l-3 3c-3 3-3 6-2 7 1 2 3 4 5 4l4-1 7-4a77 77 0 0 0 6 5A76 76 0 0 0 148 44z"/><path fill="#ffd633" d="M30 150h-1l1-3 42-41a3 3 0 0 0 1-3 3 3 0 0 0-2-3L43 84l-2-2 2-3 97-51 1-1 1 1s1 1-1 2l-41 42a3 3 0 0 0-1 3 3 3 0 0 0 1 2l29 17 2 2-2 2-97 52h-2z"/><g fill="none"><path d="m803 381-18-51a75 75 0 0 0-7 31 75 75 0 0 0 7 30 75 75 0 0 0 22 29 75 75 0 0 0 13 8l-4-13zm124-7a76 76 0 0 0-8-49v8c0 7-1 16-5 26l-7 20c5-3 12-5 19-5h1zm-67 9-5-16-10 28-13 38a75 75 0 0 0 21 3c9 0 17-2 25-4a7 7 0 0 1 0-2zm31 43v-1z"/><path d="M898 381c3-10 6-17 6-24 0-8-3-14-6-19v-2c-4-6-8-11-8-17 0-7 5-13 13-13h1a75 75 0 0 0-20-14 75 75 0 0 0-31-6c-26 0-49 13-62 34h4l20-1c4 0 5 6 1 6l-9 1 15 42 12 36 1 3 1-5 15-44-4-12-8-20a140 140 0 0 1-8-1c-4 0-3-6 1-6a339 339 0 0 0 36 0h4c4 0 4 6 0 6l-8 1 13 40 12 37a37 37 0 0 1 7-13z"/></g><path fill="#ff3e00" d="M924 143a36 36 0 0 0-48-11l-28 18c-7 5-13 12-14 21-1 7 0 15 3 21-2 4-4 8-4 12-2 9 0 18 5 26 11 15 33 20 48 10l28-17c7-5 13-13 14-22 1-7 0-14-3-21l5-12c1-9-1-18-6-25"/><path fill="#fff" d="M873 231c-9 2-18-1-23-9-4-4-5-9-4-15l1-2v-2l2 1 10 5 1 1v1l1 4a7 7 0 0 0 9 2l28-18 2-4-1-4a7 7 0 0 0-9-2l-10 7-6 2c-9 2-18-1-23-9-3-4-5-10-4-15s5-10 9-13l28-17 5-3c9-2 18 2 24 9a20 20 0 0 1 2 18v2l-2-1c-3-3-6-5-10-6h-1v-1l-1-4a7 7 0 0 0-9-2l-28 17-2 4 1 5a7 7 0 0 0 9 2l10-7 6-3c9-2 18 2 23 9 3 5 5 10 4 15-1 6-4 10-9 13l-27 18-6 2"/><path fill="url(#d)" d="M400 60 216 389c-4 6-14 6-18 0L11 60c-5-8 2-17 10-15l184 33h4l180-33c8-2 15 7 11 15z" transform="matrix(.3 0 0 .3 36 342)"/><path fill="url(#e)" d="M293 2 157 28c-2 1-4 3-4 5l-9 141c0 4 3 6 7 5l37-8c4-1 7 2 6 6l-11 55c-1 3 3 7 7 6l23-8c4-1 7 3 6 6l-18 87c-1 5 6 8 9 4l2-4 111-221c2-4-1-8-5-7l-39 7c-4 1-7-2-6-6l26-88c1-4-2-7-6-6z" transform="matrix(.3 0 0 .3 36 342)"/></svg>