<svg xmlns="http://www.w3.org/2000/svg" xmlns:xlink="http://www.w3.org/1999/xlink" width="866" height="720.4" data-name="Layer 1"><defs><linearGradient id="a" x1="660.5" x2="660.5" y1="458.7" gradientUnits="userSpaceOnUse"><stop offset="0" stop-color="gray" stop-opacity=".3"/><stop offset=".5" stop-color="gray" stop-opacity=".1"/><stop offset="1" stop-color="gray" stop-opacity=".1"/></linearGradient><linearGradient xlink:href="#a" id="b" x1="802.9" x2="802.9" y1="120.1" y2="40"/><linearGradient xlink:href="#a" id="c" x1="802.9" x2="802.9" y1="269.1" y2="189"/><linearGradient xlink:href="#a" id="d" x1="802.9" x2="802.9" y1="417.1" y2="337"/><linearGradient xlink:href="#a" id="e" x1="475.1" x2="475.1" y1="785.2" y2="418.2"/><linearGradient xlink:href="#a" id="f" x1="475.5" x2="475.5" y1="810.2" y2="750.5"/><linearGradient xlink:href="#a" id="g" x1="459.6" x2="459.6" y1="723.3" y2="473.2"/></defs><path fill="url(#a)" d="M455 0h411v459H455z" opacity=".8"/><path fill="#fff" d="M462 306h397v143H462z"/><path fill="#64ffda" d="M494 340h16v73h-16z"/><path fill="#64ffda" d="M525 340h15v73h-15z" opacity=".7"/><path fill="#64ffda" d="M555 340h16v73h-16z" opacity=".6"/><path fill="#64ffda" d="M586 340h15v73h-15zm30 0h15v73h-15z" opacity=".5"/><path fill="#64ffda" d="M646 340h16v73h-16z" opacity=".4"/><path fill="#64ffda" d="M677 340h15v73h-15z" opacity=".3"/><circle cx="802.9" cy="376.1" r="37.2" fill="#007bfc"/><path fill="#fff" d="M462 158h397v143H462z"/><path fill="#64ffda" d="M494 192h16v73h-16z"/><path fill="#64ffda" d="M525 192h15v73h-15z" opacity=".7"/><path fill="#64ffda" d="M555 192h16v73h-16z" opacity=".6"/><path fill="#64ffda" d="M586 192h15v73h-15zm30 0h15v73h-15z" opacity=".5"/><path fill="#64ffda" d="M646 192h16v73h-16z" opacity=".4"/><path fill="#64ffda" d="M677 192h15v73h-15z" opacity=".3"/><circle cx="802.9" cy="228.1" r="37.2" fill="#007bfc"/><path fill="#fff" d="M462 10h397v143H462z"/><path fill="#64ffda" d="M494 44h16v73h-16z"/><path fill="#64ffda" d="M525 44h15v73h-15z" opacity=".7"/><path fill="#64ffda" d="M555 44h16v73h-16z" opacity=".6"/><path fill="#64ffda" d="M586 44h15v73h-15zm30 0h15v73h-15z" opacity=".5"/><path fill="#64ffda" d="M646 44h16v73h-16z" opacity=".4"/><path fill="#64ffda" d="M677 44h15v73h-15z" opacity=".3"/><circle cx="802.9" cy="80.1" r="40.1" fill="url(#b)"/><circle cx="802.9" cy="229.1" r="40.1" fill="url(#c)"/><circle cx="802.9" cy="377.1" r="40.1" fill="url(#d)"/><circle cx="802.9" cy="80.1" r="37.2" fill="#007bfc"/><path fill="url(#e)" d="M750 785H200V434a16 16 0 0 1 16-16h518a16 16 0 0 1 16 16z" opacity=".8" transform="translate(-167 -90)"/><path fill="#fff" d="M56 335h504a16 16 0 0 1 16 16v344H41V351a16 16 0 0 1 15-16z"/><path fill="#f5f5f5" d="M58 356h500v328H58z"/><path fill="#e0e0e0" d="M60 372h498v295H60z" opacity=".8"/><path fill="#f5f5f5" d="M60 356h498v16H60z"/><circle cx="70.5" cy="363.7" r="3.8" fill="#ff5252"/><circle cx="80.9" cy="363.7" r="3.8" fill="#ff0"/><circle cx="91.4" cy="363.7" r="3.8" fill="#69f0ae"/><path fill="url(#f)" d="M766 809c-31 2-557 1-575 0-24-12-24-57-24-57l241-1 1 13h103l4-12h267s6 41-17 57z" opacity=".8" transform="translate(-167 -90)"/><path fill="#f5f5f5" d="M613 666H351a8 8 0 0 1-7 13H244a8 8 0 0 1-6-13H4s-1 39 23 49c18 1 538 2 568 0 23-13 18-49 18-49z"/><circle cx="58.1" cy="674.4" r="3.2" fill="#e0e0e0"/><circle cx="67.8" cy="674.4" r="3.2" fill="#e0e0e0"/><circle cx="77.4" cy="674.4" r="3.2" fill="#e0e0e0"/><path fill="url(#g)" d="m460 473-98 60s0 123 98 190c97-67 97-190 97-190z" opacity=".7" transform="translate(-167 -90)"/><path fill="#007bfc" d="m293 390-92 57s0 116 92 179c91-63 91-179 91-179z"/><path d="m294 390-1 1v234l1 2c92-64 92-180 92-180z" opacity=".1"/><path fill="#007bfc" d="m293 404-81 50s0 103 81 159c81-56 81-159 81-159z"/><path d="M293 404v209c81-56 81-159 81-159z" opacity=".1"/><path fill="none" stroke="#3ad29f" stroke-dasharray="12" stroke-miterlimit="10" stroke-width="2" d="M239 306V99h171"/><path fill="none" stroke="#3ad29f" stroke-dasharray="12" stroke-miterlimit="10" stroke-width="2" d="M186 243V36h171m359 441v162h-90"/><path fill="none" stroke="#3ad29f" stroke-dasharray="12" stroke-miterlimit="10" stroke-width="2" d="M770 513v162h-90"/></svg>