<svg xmlns="http://www.w3.org/2000/svg" data-name="Layer 1" viewBox="0 0 819 584"><path fill="#3f3d56" d="M193 406a75 75 0 0 1-19-2l-1-1h-1c-41-21-75-47-101-80a300 300 0 0 1-51-90A348 348 0 0 1 0 110v-2c0-20 11-38 29-45L172 4c16-8 34-1 37 0 6 2 118 48 142 60 25 12 32 33 32 44 0 48-8 94-25 135a313 313 0 0 1-56 90c-46 52-92 70-92 70a50 50 0 0 1-17 3zm-11-27c4 1 13 2 19 0 7-3 46-22 82-63 49-56 74-126 74-208 0-2-1-14-17-21-23-12-140-59-141-60-3-1-10-3-16 0h-1L39 86c-10 4-13 14-13 22v3c-2 56 12 195 156 268z"/><path fill="#007bfc" d="M177 16 34 75c-14 6-21 19-21 33S2 304 177 391c0 0 16 5 28 0s165-78 165-283c0 0 0-21-24-33S204 16 204 16s-15-7-27 0z"/><path fill="#fff" d="m166 262-41-54 24-19 20 25 66-70 23 21z"/><path fill="#ffb8b8" d="M547 568h16l7-59h-23v59z"/><path fill="#2f2e41" d="M543 563h31a19 19 0 0 1 19 20h-50z"/><path fill="#ffb8b8" d="M599 568h16l7-59h-23v59z"/><path fill="#2f2e41" d="M595 563h31a19 19 0 0 1 19 20h-50zm-23-204 3 189-30-2-21-120-6-83 54 16z"/><path fill="#2f2e41" d="m623 327 4 224-35-1-7-133-13-48-54-26 9-60 78-1z"/><circle cx="562.7" cy="99.6" r="26.8" fill="#ffb8b8"/><path fill="#ccc" d="m585 138 4 6 11 31-9 119-51 1-7-137 14-17 38-3z"/><path fill="#2f2e41" d="m512 162-8-2s-3 1-4 9l-14 76 18 83 19-26-12-46 12-46zm112-2h7l16 89-15 69-16-25 5-27-2-25-8-14 13-67zm-45-60-5-2s-4-20-13-18-30 5-30-5 21-18 33-17 28 5 32 23c6 29-13 36-13 36v-1a16 16 0 0 0-4-16z"/><path fill="#2f2e41" d="m505 160 35-14 8-6 25 109 11-112 46 23-16 75-2 28 7 23s23 17 15 34-16 19-16 19-38-35-40-44l-5-24s-19 70-41 69-22-24-22-24l6-24 8-25-4-42z"/></svg>