<?xml version="1.0" encoding="UTF-8"?>
<svg data-name="Layer 1" version="1.1" viewBox="0 0 810.57 710.71" xmlns="http://www.w3.org/2000/svg">
<path d="M810.572 168.892h-3.9V61.915A61.915 61.915 0 00744.757 0h-226.65a61.915 61.915 0 00-61.916 61.914v586.884a61.915 61.915 0 0061.915 61.915h226.648a61.915 61.915 0 0061.915-61.915V245.04h3.9z" fill="#3f3d56" data-name="Path 339"/>
<path d="M794.045 57.768v595.175a46.959 46.959 0 01-46.942 46.952h-231.3a46.966 46.966 0 01-46.973-46.952V57.768a46.965 46.965 0 0146.971-46.951h28.058a22.329 22.329 0 0020.656 30.74h131.868a22.329 22.329 0 0020.656-30.74h30.055a46.959 46.959 0 0146.951 46.942z" fill="#fff" data-name="Path 340"/>
<path d="M633.918 295.875a99.3 99.3 0 01-99.337-99.254v-.088c0-.208 0-.427.012-.635.3-54.4 44.863-98.7 99.325-98.7a99.337 99.337 0 01.011 198.674h-.011zm0-196.587a97.454 97.454 0 00-97.233 96.677c-.011.222-.011.4-.011.569a97.258 97.258 0 1097.27-97.246h-.026z" fill="#e6e6e6" data-name="Path 45"/>
<path d="M736.639 400.316H531.102a3.81 3.81 0 01-3.806-3.806v-50.984a3.811 3.811 0 013.806-3.806h205.537a3.811 3.811 0 013.806 3.806v50.985a3.811 3.811 0 01-3.806 3.806zm-205.537-57.074a2.286 2.286 0 00-2.284 2.284v50.985a2.286 2.286 0 002.284 2.284h205.537a2.286 2.286 0 002.284-2.284v-50.985a2.286 2.286 0 00-2.284-2.284z" fill="#e6e6e6" data-name="Path 39"/>
<path d="M594.666 360.361a2.664 2.664 0 000 5.329h125.605a2.665 2.665 0 00.204-5.326q-.058-.002-.117-.002H594.666z" fill="#e6e6e6" data-name="Path 40"/>
<path d="M594.666 376.347a2.664 2.664 0 000 5.329h125.605a2.665 2.665 0 00.204-5.326q-.058-.002-.117-.002H594.666z" fill="#e6e6e6" data-name="Path 41"/>
<path d="M736.639 485.576H531.102a3.81 3.81 0 01-3.806-3.806v-50.984a3.811 3.811 0 013.806-3.806h205.537a3.811 3.811 0 013.806 3.806v50.985a3.811 3.811 0 01-3.806 3.805zm-205.537-57.074a2.286 2.286 0 00-2.284 2.284v50.985a2.286 2.286 0 002.284 2.284h205.537a2.286 2.286 0 002.284-2.284v-50.985a2.286 2.286 0 00-2.284-2.284z" fill="#e6e6e6" data-name="Path 42"/>
<path d="M594.666 445.617a2.664 2.664 0 000 5.329h125.605a2.665 2.665 0 00.087-5.328H594.666z" fill="#e6e6e6" data-name="Path 43"/>
<path d="M594.666 461.607a2.664 2.664 0 000 5.329h125.605a2.665 2.665 0 00.087-5.328H594.666z" fill="#e6e6e6" data-name="Path 44"/>
<path d="M736.639 570.834H531.102a3.81 3.81 0 01-3.806-3.806v-50.984a3.811 3.811 0 013.806-3.806h205.537a3.811 3.811 0 013.806 3.806v50.985a3.811 3.811 0 01-3.806 3.806zM531.102 513.76a2.286 2.286 0 00-2.284 2.284v50.985a2.286 2.286 0 002.284 2.284h205.537a2.286 2.286 0 002.284-2.284v-50.985a2.286 2.286 0 00-2.284-2.284z" fill="#e6e6e6" data-name="Path 39-2"/>
<path d="M594.666 530.878a2.664 2.664 0 000 5.329h125.605a2.665 2.665 0 00.204-5.326q-.058-.002-.117-.002H594.666z" fill="#e6e6e6" data-name="Path 40-2"/>
<path d="M594.666 546.865a2.664 2.664 0 000 5.329h125.605a2.665 2.665 0 00.204-5.326q-.058-.002-.117-.002H594.666z" fill="#e6e6e6" data-name="Path 41-2"/>
<path d="m665.31 194.12h-28.97v-28.971h-4.829v28.971h-28.97v4.828h28.97v28.971h4.829v-28.971h28.97z" fill="#007bfc" data-name="Path 1221"/>
<g data-name="Group 76">
<path d="m220.42 558.44s-23.688 25.944-27.072 85.727-4.512 66.551-4.512 66.551h84.6l15.784-40.603 18.052 40.6h80.087s9.024-124.08 0-127.46-166.94-24.812-166.94-24.812z" fill="#2f2e41" data-name="Path 1236"/>
<circle cx="333.78" cy="212.71" r="40.607" fill="#ffb8b8" data-name="Ellipse 232"/>
<path d="m509.19 559.57-62.039-112.8-36.1-58.655 42.867-19.177 23.688 46.248s31.584 46.247 39.479 84.6 15.792 56.4 15.792 56.4z" fill="#ffb8b8" data-name="Path 1238"/>
<path d="m167.4 526.85 92.495-81.215-4.507-65.424h-25.944l-7.9 33.84-74.447 98.135z" fill="#ffb8b8" data-name="Path 1239"/>
<path d="m286.97 273.06s33.5 14.044 58.484-3.13c0 0 61.082 9.9 64.466 13.282s-3.384 104.9-3.384 104.9l-13.534 57.53s19.176 87.983-9.024 110.54l5.64 30.456s-125.21 9.024-174.84-21.432l9.022-30.458 23.688-95.879-14.664-133.1s11.276-30.456 54.144-32.712z" fill="#e4e4e4" data-name="Path 1240"/>
<path d="m381.16 288.28 29.328-4.508s14.664 2.256 28.2 30.456 28.2 65.423 28.2 65.423l-50.759 22.56-41.735-65.423z" fill="#e4e4e4" data-name="Path 1241"/>
<path d="m239.6 300.13-6.768 5.64s-9.024 32.712-9.024 55.271v30.456l40.608 4.512z" fill="#e4e4e4" data-name="Path 1242"/>
<path d="M293.188 223.727s-5.52-5.961-4.961-13.423a42.546 42.546 0 00-.805-12.685s1.728-12.213 4.279-19.293.4-9.543 11.366-13.408 3.985-17.841 36.314-6.7a8.844 8.844 0 009.619 1.968c5.969-2.186 9.566 6.014 9.566 6.014s3.723-3.055 5.812.121 12.193-4.062 15.9 19.041-9.014 43.706-9.014 43.706-1.785-36.97-22.781-37.641-44.74-8.623-47.685 6.945-7.61 25.355-7.61 25.355z" fill="#2f2e41" data-name="Path 1243"/>
<circle cx="152.6" cy="526.63" r="17.5" fill="#ffb8b8"/>
</g>
<path d="m26.445 644.82 288.22-57.532-24.086-120.66-288.22 57.529z" fill="#fff" data-name="Path 1259"/>
<path d="m317.02 588.87-292.15 58.32-24.872-124.6 292.15-58.317zm-289 53.6 284.28-56.747-23.303-116.73-284.28 56.749z" fill="#e4e4e4" data-name="Path 1260"/>
<path d="M566.359 378.666a14.258 14.258 0 01-.289 2.868 21.322 21.322 0 01-16.65 0 14.263 14.263 0 01-.289-2.868c0-5.006 2.549-9.237 6.06-10.651a6.587 6.587 0 115.107 0c3.512 1.414 6.061 5.645 6.061 10.651z" fill="#007bfc" data-name="Path 1265"/>
<path d="m189.86 579.99a48.483 48.483 0 0 1 2.4572 9.4888 72.503 72.503 45 0 1-53.11 19.616 48.5 48.5 0 0 1-4.3008-8.8078c-5.8979-15.968-2.752-32.467 6.7814-41.114a22.398 22.398 0 1 1 16.29-6.0169c12.868 0.37262 25.984 10.865 31.882 26.833z" fill="#007bfc" stroke-width="3.4004" data-name="Path 1265"/>
<path d="M566.359 465.653a14.259 14.259 0 01-.289 2.868 21.322 21.322 0 01-16.65 0 14.264 14.264 0 01-.289-2.868c0-5.006 2.549-9.237 6.06-10.651a6.587 6.587 0 115.107 0c3.512 1.414 6.061 5.645 6.061 10.651z" fill="#007bfc" data-name="Path 1266"/>
<path d="M566.359 550.91a14.259 14.259 0 01-.289 2.868 21.322 21.322 0 01-16.65 0 14.264 14.264 0 01-.289-2.868c0-5.006 2.549-9.237 6.06-10.651a6.587 6.587 0 115.107 0c3.512 1.414 6.061 5.645 6.061 10.651z" fill="#007bfc" data-name="Path 1267"/>
<circle cx="522.1" cy="564.13" r="16" fill="#ffb8b8"/>
</svg>
