<svg xmlns="http://www.w3.org/2000/svg" data-name="Layer 1" viewBox="0 0 811 711"><path fill="#3f3d56" d="M811 169h-4V62a62 62 0 0 0-62-62H518a62 62 0 0 0-62 62v587a62 62 0 0 0 62 62h227a62 62 0 0 0 62-62V245h4z" data-name="Path 339"/><path fill="#fff" d="M794 58v595a47 47 0 0 1-47 47H516a47 47 0 0 1-47-47V58a47 47 0 0 1 47-47h28a22 22 0 0 0 21 31h131a22 22 0 0 0 21-31h30a47 47 0 0 1 47 47z" data-name="Path 340"/><path fill="#e6e6e6" d="M634 296a99 99 0 0 1-99-99v-1c0-55 44-99 99-99a99 99 0 0 1 0 199zm0-197a97 97 0 0 0-97 97v1a97 97 0 1 0 97-98z" data-name="Path 45"/><path fill="#e6e6e6" d="M737 400H531a4 4 0 0 1-4-3v-51a4 4 0 0 1 4-4h206a4 4 0 0 1 3 4v51a4 4 0 0 1-3 3zm-206-57a2 2 0 0 0-2 3v51a2 2 0 0 0 2 2h206a2 2 0 0 0 2-2v-51a2 2 0 0 0-2-3z" data-name="Path 39"/><path fill="#e6e6e6" d="M595 360a3 3 0 0 0 0 6h125a3 3 0 0 0 0-6H595z" data-name="Path 40"/><path fill="#e6e6e6" d="M595 376a3 3 0 0 0 0 6h125a3 3 0 0 0 0-6H595z" data-name="Path 41"/><path fill="#e6e6e6" d="M737 486H531a4 4 0 0 1-4-4v-51a4 4 0 0 1 4-4h206a4 4 0 0 1 3 4v51a4 4 0 0 1-3 4zm-206-57a2 2 0 0 0-2 2v51a2 2 0 0 0 2 2h206a2 2 0 0 0 2-2v-51a2 2 0 0 0-2-2z" data-name="Path 42"/><path fill="#e6e6e6" d="M595 446a3 3 0 0 0 0 5h125a3 3 0 0 0 0-5H595z" data-name="Path 43"/><path fill="#e6e6e6" d="M595 462a3 3 0 0 0 0 5h125a3 3 0 0 0 0-5H595z" data-name="Path 44"/><path fill="#e6e6e6" d="M737 571H531a4 4 0 0 1-4-4v-51a4 4 0 0 1 4-4h206a4 4 0 0 1 3 4v51a4 4 0 0 1-3 4zm-206-57a2 2 0 0 0-2 2v51a2 2 0 0 0 2 2h206a2 2 0 0 0 2-2v-51a2 2 0 0 0-2-2z" data-name="Path 39-2"/><path fill="#e6e6e6" d="M595 531a3 3 0 0 0 0 5h125a3 3 0 0 0 0-5H595z" data-name="Path 40-2"/><path fill="#e6e6e6" d="M595 547a3 3 0 0 0 0 5h125a3 3 0 0 0 0-5H595z" data-name="Path 41-2"/><path fill="#007bfc" d="M665 194h-29v-29h-4v29h-29v5h29v29h4v-29h29z" data-name="Path 1221"/><g data-name="Group 76"><path fill="#2f2e41" d="M220 558s-23 26-27 86l-4 67h84l16-41 18 41h80s9-124 0-128-167-25-167-25z" data-name="Path 1236"/><circle cx="333.8" cy="212.7" r="40.6" fill="#ffb8b8" data-name="Ellipse 232"/><path fill="#ffb8b8" d="m509 560-62-113-36-59 43-19 24 46s31 46 39 85 16 56 16 56z" data-name="Path 1238"/><path fill="#ffb8b8" d="m167 527 93-81-5-66h-26l-7 34-75 98z" data-name="Path 1239"/><path fill="#e4e4e4" d="M287 273s33 14 58-3c0 0 62 10 65 13s-3 105-3 105l-14 58s19 88-9 110l6 31s-126 9-175-22l9-30 23-96-14-133s11-31 54-33z" data-name="Path 1240"/><path fill="#e4e4e4" d="m381 288 29-4s15 2 29 30 28 66 28 66l-51 22-42-65z" data-name="Path 1241"/><path fill="#e4e4e4" d="m240 300-7 6s-9 32-9 55v30l40 5z" data-name="Path 1242"/><path fill="#2f2e41" d="M293 224s-5-6-5-14a43 43 0 0 0-1-12s2-13 5-20 0-9 11-13 4-18 36-7a9 9 0 0 0 10 2c6-2 10 6 10 6s3-3 5 0 13-4 16 19-9 44-9 44-2-37-23-38-44-8-47 7-8 26-8 26z" data-name="Path 1243"/><circle cx="152.6" cy="526.6" r="17.5" fill="#ffb8b8"/></g><path fill="#fff" d="m26 645 289-58-24-120L2 524z" data-name="Path 1259"/><path fill="#e4e4e4" d="M317 589 25 647 0 523l292-59zM28 642l284-56-23-117L5 526z" data-name="Path 1260"/><path fill="#007bfc" d="M566 379a14 14 0 0 1 0 3 21 21 0 0 1-17 0 14 14 0 0 1 0-3c0-5 3-10 6-11a7 7 0 1 1 5 0c4 1 6 6 6 11zM190 580a48 48 0 0 1 2 9 73 73 45 0 1-53 20 49 49 0 0 1-4-9c-6-16-3-32 7-41a22 22 0 1 1 16-6c13 1 26 11 32 27z" data-name="Path 1265"/><path fill="#007bfc" d="M566 466a14 14 0 0 1 0 3 21 21 0 0 1-17 0 14 14 0 0 1 0-3c0-5 3-10 6-11a7 7 0 1 1 5 0c4 1 6 6 6 11z" data-name="Path 1266"/><path fill="#007bfc" d="M566 551a14 14 0 0 1 0 3 21 21 0 0 1-17 0 14 14 0 0 1 0-3c0-5 3-9 6-11a7 7 0 1 1 5 0c4 2 6 6 6 11z" data-name="Path 1267"/><circle cx="522.1" cy="564.1" r="16" fill="#ffb8b8"/></svg>