<svg xmlns="http://www.w3.org/2000/svg" data-name="Layer 1" viewBox="0 0 924 378"><path fill="#ffb8b8" d="M610 131a11 11 0 0 1 14 7 11 11 0 0 1 1 2l44 22 10-7 13 14-16 13a11 11 0 0 1-13 0l-45-30a11 11 0 0 1-1 0 11 11 0 0 1-14-9 11 11 0 0 1 0-1 11 11 0 0 1 7-11z"/><path fill="#e5e5e5" d="M65 199a7 7 0 0 0 6 7h11l2 3v152a7 7 0 0 0 13 0V206h356v155a7 7 0 0 0 13 0V206h11a7 7 0 0 0 0-13H71a7 7 0 0 0-6 6z"/><path fill="#e5e5e5" d="M214 291v-24a4 4 0 0 0-4-4h-91a4 4 0 0 0-4 4v24zm-99 9h99v31h-99zm0 40v24a4 4 0 0 0 4 4h91a4 4 0 0 0 4-4v-24z"/><circle cx="164.7" cy="277.9" r="3" fill="#fff"/><circle cx="164.7" cy="317.9" r="3" fill="#fff"/><circle cx="164.5" cy="357.1" r="3" fill="#fff"/><path fill="#3f3d56" d="M96 184v8a2 2 0 0 0 2 2h31a2 2 0 0 0 1-1l8-4a1 1 0 0 0 0-2l-8-4a2 2 0 0 0-1 0H98a2 2 0 0 0-2 1z"/><path fill="#007bfc" d="M98 183h6v11h-6a2 2 0 0 1-2-2v-8a2 2 0 0 1 2-1z"/><path fill="#e6e6e6" d="m239 191 4-1 2-16h30l2 16 3 1a1 1 0 0 1 0 2h-40a1 1 0 0 1-1-2z"/><path fill="#ccc" d="M183 173v-21h153v21a3 3 0 0 1-3 3H186a3 3 0 0 1-3-3z"/><path fill="#3f3d56" d="M183 73a4 4 0 0 1 3-3h147a4 4 0 0 1 3 3v89H183z"/><path fill="#fff" d="M189 153V79a3 3 0 0 1 3-3h135a3 3 0 0 1 3 3v74a3 3 0 0 1-3 2H192a3 3 0 0 1-3-2zM474 0h135v162H474z"/><path fill="#e5e5e5" d="M474 0h135v162H474zm133 2H476v157h131z"/><path fill="#f1f1f1" d="M494 78h95v4h-95z"/><path fill="#cbcbcb" d="M579 56h1V19h-36v1h35v36zm-73 4h37v-1h-36V23h-1v37z"/><path fill="#f1f1f1" d="M494 88h95v3h-95zm0 9h95v4h-95zm0 17h95v4h-95zm0 10h95v3h-95zm0 9h95v4h-95z"/><path fill="#007bfc" d="m535 29 1-1-2-1h-1a7 7 0 0 0-3-1v-1l-2-1v2a7 7 0 0 0-3 1l-1-1-2 1 1 2a7 7 0 0 0-2 2l-1 1v2h1a7 7 0 0 0 1 3l-1 1 2 1h1a7 7 0 0 0 3 1v2h2v-2a7 7 0 0 0 3-1l1 1 2-1-1-1a7 7 0 0 0 1-3h2v-2l-1-1a7 7 0 0 0-1-3zm-3 8a6 6 0 1 1 1-8 6 6 0 0 1-1 8zm16 8h1l-1-3-1 1a7 7 0 0 0-2-2v-2l-2-1-1 1a7 7 0 0 0-3 0v-1l-2 1v1a7 7 0 0 0-2 2h-2l-1 2 2 1a7 7 0 0 0-1 3h-1l1 2h1a7 7 0 0 0 2 2v2l2 1 1-2a7 7 0 0 0 3 0v2l2-1v-1a7 7 0 0 0 2-2h2l1-2-1-1a7 7 0 0 0 0-3zm-5 7a6 6 0 1 1 3-8 6 6 0 0 1-3 8zm21-16 1-1-2-2-1 1a7 7 0 0 0-3-1v-2h-2v2a7 7 0 0 0-3 1l-1-1-2 1 1 2a7 7 0 0 0-1 2l-2 1v2h2a7 7 0 0 0 1 3l-1 1 1 1h2a7 7 0 0 0 2 1v1l3 1v-2a7 7 0 0 0 3-1l1 1 1-2v-1a7 7 0 0 0 1-3h1l1-2h-2a7 7 0 0 0-1-3zm-2 8a6 6 0 1 1 0-8 6 6 0 0 1 0 8zm-285 78h4l1-6-4-1a18 18 0 0 0-2-7l3-3-4-4-4 2a18 18 0 0 0-7-4v-3l-5-1-1 4a18 18 0 0 0-8 2l-3-3-4 4 2 4a18 18 0 0 0-3 6l-4 1v5l3 1a18 18 0 0 0 2 7l-3 3 4 5 4-2a18 18 0 0 0 6 3l1 4h5l1-3a18 18 0 0 0 8-3l3 3 4-3-2-4a18 18 0 0 0 3-7zm-19 10a15 15 0 1 1 17-13 15 15 0 0 1-17 13z"/><path fill="#3f3d56" d="M701 266h-48l-49 2a13 13 0 0 0-3 2 12 12 0 0 0-2 8v2a13 13 0 0 0 12 13h90a13 13 0 0 0 13-13v-2a13 13 0 0 0-13-12z"/><path fill="#3f3d56" d="M649 292h13v84h-13z"/><path fill="#3f3d56" d="M612 376h88c0-1-20-13-44-13s-44 11-44 13z"/><path fill="#ffb8b8" d="M624 366h-13l-6-32h19v32z"/><path fill="#2f2e41" d="M627 378h-40v-1a15 15 0 0 1 16-15h24zm-22-32-24-55a20 20 0 0 1 9-26l53-28 24-2 22-2c0 1 5 9 2 18-2 7-9 12-19 16-24 9-51 16-62 19a3 3 0 0 0-2 2 3 3 0 0 0 0 2l23 51a5 5 0 0 1-4 6l-17 2h-1a4 4 0 0 1-4-3z"/><path fill="#ffb8b8" d="M632 366h-13l-6-32h19v32z"/><path fill="#2f2e41" d="M635 378h-40v-1a15 15 0 0 1 16-15h24zm-21-29-24-55a20 20 0 0 1 9-26l53-28 24-2 17-2c0 1 5 9 2 18-2 7-4 12-14 16-24 9-51 16-62 19a3 3 0 0 0-2 2 3 3 0 0 0 0 2l23 51a5 5 0 0 1-4 6l-17 2h-1a4 4 0 0 1-4-3z"/><path fill="#007bfc" d="M660 237c-1 0-18 8-21 1 14-35 5-50 13-70a25 25 0 0 1 17-14l22-1a26 26 0 0 1 14 28c0 21-13 38-8 54a5 5 0 0 1-1 4 5 5 0 0 1-3 2l-29-4a5 5 0 0 1-4 0z"/><circle cx="683.6" cy="120.1" r="24.6" fill="#ffb8b8"/><path fill="#ffb8b8" d="m637 203-42-33a11 11 0 0 1-1 0 11 11 0 0 1-9-2 11 11 0 0 1-5-7 11 11 0 0 1 22-4 11 11 0 0 1 0 1l42 25 11-6 12 15-17 12a11 11 0 0 1-13-1z"/><path fill="#007bfc" d="m672 197-24-17 11-16a11 11 0 0 1 14-4 11 11 0 0 1 6 14z"/><path fill="#2f2e41" d="M691 143c-1 0-4-10-2-12l3-5c2-2 1-5-1-7s-5-2-5 1c0-5-4-8-8-9l-13-1c-5-1-10-5-8-11a8 8 0 0 1 1-2c3-3 6-4 9-5 6-2 13-4 20-4a29 29 0 0 1 25 19 26 26 0 0 1 1 4c2 12-5 24-17 29z"/><path fill="#3f3d56" d="M343 278v2a13 13 0 0 0 12 12h90a13 13 0 0 0 13-12v-2a12 12 0 0 0-3-8 13 13 0 0 0-2-2s-50-1-50-3h-48a13 13 0 0 0-12 13z"/><path fill="#3f3d56" d="M394 292h13v84h-13z"/><path fill="#3f3d56" d="M400 363c-24 0-44 11-44 12l44 1c24 0 44 1 44-1 0-1-19-12-44-12z"/><path fill="#ffb8b8" d="M444 332h18l-6 32h-12v-32z"/><path fill="#2f2e41" d="M441 360h24a15 15 0 0 1 15 15v1h-39zm17-13-17-1a5 5 0 0 1-4-6l22-51a3 3 0 0 0 0-3 3 3 0 0 0-2-2c-11-3-38-10-62-19-10-4-16-9-19-16-3-9 2-17 2-18l23 2 24 2 53 29a20 20 0 0 1 9 25l-25 55a4 4 0 0 1-4 3z"/><path fill="#ffb8b8" d="M438 332h18l-6 32h-12v-32z"/><path fill="#2f2e41" d="M435 360h24a15 15 0 0 1 15 15v1h-39zm16-10-17-1a5 5 0 0 1-4-6l22-51a3 3 0 0 0 0-3 3 3 0 0 0-2-2c-11-3-38-10-62-19-10-4-16-9-19-16-3-9 2-17 2-18l23 2 24 2 53 29a20 20 0 0 1 9 25l-25 55a4 4 0 0 1-4 3z"/><path fill="#007bfc" d="M366 156a11 11 0 0 1 14-3 11 11 0 0 1 5 14l-7 18-27-10z"/><path fill="#007bfc" d="M421 249a5 5 0 0 1-4 1l-43-11a5 5 0 0 1-3-2 5 5 0 0 1 0-4c4-16-2-35-9-54a26 26 0 0 1 14-28l23 1a25 25 0 0 1 16 14c9 21 11 46 8 79a5 5 0 0 1-2 4z"/><circle cx="521.7" cy="379.5" r="24.6" fill="#ffb8b8" transform="rotate(-81 299 330)"/><path fill="#ffb8b8" d="m417 202-16-12 11-15 11 6 42-25a11 11 0 0 1 1-1 11 11 0 1 1 8 13 11 11 0 0 1-1 0l-43 34a11 11 0 0 1-13 0z"/><path fill="#007bfc" d="M389 172a11 11 0 0 1 5-13 11 11 0 0 1 14 3l12 16-25 17z"/><path fill="#2f2e41" d="M393 115a4 4 0 0 1-1 5c-3 4-4 10-3 15 2 7 6 12 10 17s8 11 9 17c4 15-7 30-21 36s-30 4-45 1c-11-3-23-7-31-16s-10-23-1-31c6-6 16-7 25-9s19-6 20-15-7-16-9-25c-1-11 8-22 19-25s22 1 33 5c8 3 17 6 20 15 1 5 0 11-4 14-7 4-15 0-21-4z"/></svg>